<svg xmlns="http://www.w3.org/2000/svg" xmlns:xlink="http://www.w3.org/1999/xlink" version="1.1" class="marks" width="689" height="424" viewBox="0 0 689 424"><g fill="none" stroke-miterlimit="10" transform="translate(73,48)"><g class="mark-group role-frame root" role="graphics-object" aria-roledescription="group mark container"><g transform="translate(0,0)"><path class="background" aria-hidden="true" d="M0.5,0.5h600v320h-600Z"/><g><g class="mark-group role-axis" aria-hidden="true"><g transform="translate(0.5,0.5)"><path class="background" aria-hidden="true" d="M0,0h0v0h0Z" pointer-events="none"/><g><g class="mark-rule role-axis-grid" pointer-events="none"><line transform="translate(0,320)" x2="600" y2="0" stroke="#eef0f4" stroke-width="0.8" stroke-dasharray="2,4" opacity="1"/><line transform="translate(0,288)" x2="600" y2="0" stroke="#eef0f4" stroke-width="0.8" stroke-dasharray="2,4" opacity="1"/><line transform="translate(0,256)" x2="600" y2="0" stroke="#eef0f4" stroke-width="0.8" stroke-dasharray="2,4" opacity="1"/><line transform="translate(0,224)" x2="600" y2="0" stroke="#eef0f4" stroke-width="0.8" stroke-dasharray="2,4" opacity="1"/><line transform="translate(0,192)" x2="600" y2="0" stroke="#eef0f4" stroke-width="0.8" stroke-dasharray="2,4" opacity="1"/><line transform="translate(0,160)" x2="600" y2="0" stroke="#eef0f4" stroke-width="0.8" stroke-dasharray="2,4" opacity="1"/><line transform="translate(0,128)" x2="600" y2="0" stroke="#eef0f4" stroke-width="0.8" stroke-dasharray="2,4" opacity="1"/><line transform="translate(0,96)" x2="600" y2="0" stroke="#eef0f4" stroke-width="0.8" stroke-dasharray="2,4" opacity="1"/><line transform="translate(0,64)" x2="600" y2="0" stroke="#eef0f4" stroke-width="0.8" stroke-dasharray="2,4" opacity="1"/><line transform="translate(0,32)" x2="600" y2="0" stroke="#eef0f4" stroke-width="0.8" stroke-dasharray="2,4" opacity="1"/><line transform="translate(0,0)" x2="600" y2="0" stroke="#eef0f4" stroke-width="0.8" stroke-dasharray="2,4" opacity="1"/></g></g><path class="foreground" aria-hidden="true" d="" pointer-events="none" display="none"/></g></g><g class="mark-group role-axis" role="graphics-symbol" aria-roledescription="axis" aria-label="X-axis titled 'tier' for a discrete scale with 5 values: 0.5-2 TiB, 10-50 TiB, 2-10 TiB, &lt;0.5 TiB, &gt;50 TiB"><g transform="translate(0.5,320.5)"><path class="background" aria-hidden="true" d="M0,0h0v0h0Z" pointer-events="none"/><g><g class="mark-rule role-axis-tick" pointer-events="none"><line transform="translate(60,0)" x2="0" y2="4" stroke="#e2e6ee" stroke-width="1" opacity="1"/><line transform="translate(180,0)" x2="0" y2="4" stroke="#e2e6ee" stroke-width="1" opacity="1"/><line transform="translate(300,0)" x2="0" y2="4" stroke="#e2e6ee" stroke-width="1" opacity="1"/><line transform="translate(420,0)" x2="0" y2="4" stroke="#e2e6ee" stroke-width="1" opacity="1"/><line transform="translate(540,0)" x2="0" y2="4" stroke="#e2e6ee" stroke-width="1" opacity="1"/></g><g class="mark-text role-axis-label" pointer-events="none"><text text-anchor="middle" transform="translate(59.5,19)" font-family="'SF Mono', Menlo, Consolas, 'Liberation Mono', monospace" font-size="11px" fill="#64748b" opacity="1">0.5-2 TiB</text><text text-anchor="middle" transform="translate(179.5,19)" font-family="'SF Mono', Menlo, Consolas, 'Liberation Mono', monospace" font-size="11px" fill="#64748b" opacity="1">10-50 TiB</text><text text-anchor="middle" transform="translate(299.5,19)" font-family="'SF Mono', Menlo, Consolas, 'Liberation Mono', monospace" font-size="11px" fill="#64748b" opacity="1">2-10 TiB</text><text text-anchor="middle" transform="translate(419.5,19)" font-family="'SF Mono', Menlo, Consolas, 'Liberation Mono', monospace" font-size="11px" fill="#64748b" opacity="1">&lt;0.5 TiB</text><text text-anchor="middle" transform="translate(539.5,19)" font-family="'SF Mono', Menlo, Consolas, 'Liberation Mono', monospace" font-size="11px" fill="#64748b" opacity="1">&gt;50 TiB</text></g><g class="mark-text role-axis-title" pointer-events="none"><text text-anchor="middle" transform="translate(300,42)" font-family="-apple-system, BlinkMacSystemFont, 'Segoe UI', system-ui, 'Helvetica Neue', 'Hiragino Sans', 'Hiragino Kaku Gothic ProN', 'Noto Sans CJK JP', sans-serif" font-size="12px" font-weight="600" fill="#0f172a" opacity="1">tier</text></g></g><path class="foreground" aria-hidden="true" d="" pointer-events="none" display="none"/></g></g><g class="mark-group role-axis" role="graphics-symbol" aria-roledescription="axis" aria-label="Y-axis titled 'count' for a linear scale with values from 0 to 100"><g transform="translate(0.5,0.5)"><path class="background" aria-hidden="true" d="M0,0h0v0h0Z" pointer-events="none"/><g><g class="mark-rule role-axis-tick" pointer-events="none"><line transform="translate(0,320)" x2="-4" y2="0" stroke="#e2e6ee" stroke-width="1" opacity="1"/><line transform="translate(0,288)" x2="-4" y2="0" stroke="#e2e6ee" stroke-width="1" opacity="1"/><line transform="translate(0,256)" x2="-4" y2="0" stroke="#e2e6ee" stroke-width="1" opacity="1"/><line transform="translate(0,224)" x2="-4" y2="0" stroke="#e2e6ee" stroke-width="1" opacity="1"/><line transform="translate(0,192)" x2="-4" y2="0" stroke="#e2e6ee" stroke-width="1" opacity="1"/><line transform="translate(0,160)" x2="-4" y2="0" stroke="#e2e6ee" stroke-width="1" opacity="1"/><line transform="translate(0,128)" x2="-4" y2="0" stroke="#e2e6ee" stroke-width="1" opacity="1"/><line transform="translate(0,96)" x2="-4" y2="0" stroke="#e2e6ee" stroke-width="1" opacity="1"/><line transform="translate(0,64)" x2="-4" y2="0" stroke="#e2e6ee" stroke-width="1" opacity="1"/><line transform="translate(0,32)" x2="-4" y2="0" stroke="#e2e6ee" stroke-width="1" opacity="1"/><line transform="translate(0,0)" x2="-4" y2="0" stroke="#e2e6ee" stroke-width="1" opacity="1"/></g><g class="mark-text role-axis-label" pointer-events="none"><text text-anchor="end" transform="translate(-10,323)" font-family="'SF Mono', Menlo, Consolas, 'Liberation Mono', monospace" font-size="11px" fill="#64748b" opacity="1">0</text><text text-anchor="end" transform="translate(-10,291)" font-family="'SF Mono', Menlo, Consolas, 'Liberation Mono', monospace" font-size="11px" fill="#64748b" opacity="1">10</text><text text-anchor="end" transform="translate(-10,259)" font-family="'SF Mono', Menlo, Consolas, 'Liberation Mono', monospace" font-size="11px" fill="#64748b" opacity="1">20</text><text text-anchor="end" transform="translate(-10,227)" font-family="'SF Mono', Menlo, Consolas, 'Liberation Mono', monospace" font-size="11px" fill="#64748b" opacity="1">30</text><text text-anchor="end" transform="translate(-10,195)" font-family="'SF Mono', Menlo, Consolas, 'Liberation Mono', monospace" font-size="11px" fill="#64748b" opacity="1">40</text><text text-anchor="end" transform="translate(-10,163)" font-family="'SF Mono', Menlo, Consolas, 'Liberation Mono', monospace" font-size="11px" fill="#64748b" opacity="1">50</text><text text-anchor="end" transform="translate(-10,131)" font-family="'SF Mono', Menlo, Consolas, 'Liberation Mono', monospace" font-size="11px" fill="#64748b" opacity="1">60</text><text text-anchor="end" transform="translate(-10,99.00000000000001)" font-family="'SF Mono', Menlo, Consolas, 'Liberation Mono', monospace" font-size="11px" fill="#64748b" opacity="1">70</text><text text-anchor="end" transform="translate(-10,66.99999999999999)" font-family="'SF Mono', Menlo, Consolas, 'Liberation Mono', monospace" font-size="11px" fill="#64748b" opacity="1">80</text><text text-anchor="end" transform="translate(-10,34.99999999999999)" font-family="'SF Mono', Menlo, Consolas, 'Liberation Mono', monospace" font-size="11px" fill="#64748b" opacity="1">90</text><text text-anchor="end" transform="translate(-10,3)" font-family="'SF Mono', Menlo, Consolas, 'Liberation Mono', monospace" font-size="11px" fill="#64748b" opacity="1">100</text></g><g class="mark-text role-axis-title" pointer-events="none"><text text-anchor="middle" transform="translate(-48,160) rotate(-90) translate(0,-3)" font-family="-apple-system, BlinkMacSystemFont, 'Segoe UI', system-ui, 'Helvetica Neue', 'Hiragino Sans', 'Hiragino Kaku Gothic ProN', 'Noto Sans CJK JP', sans-serif" font-size="12px" font-weight="600" fill="#0f172a" opacity="1">count</text></g></g><path class="foreground" aria-hidden="true" d="" pointer-events="none" display="none"/></g></g><g class="mark-group role-scope" role="graphics-object" aria-roledescription="group mark container"><g transform="translate(366,160)"><path class="background" aria-hidden="true" d="M3,0L105,0C106.655745073482,0,108,1.344254926518,108,3L108,160C108,160,108,160,108,160L0,160C0,160,0,160,0,160L0,3C0,1.344254926518,1.344254926518,0,3,0Z"/><g clip-path="url(#clip51)"><g class="mark-group role-scope" role="graphics-object" aria-roledescription="group mark container"><g transform="translate(0,-160)"><path class="background" aria-hidden="true" d="M0,0h108v0h-108Z"/><g><g class="mark-rect role-mark marks" role="graphics-object" aria-roledescription="rect mark container"><path aria-label="tier: &lt;0.5 TiB; count: 50" role="graphics-symbol" aria-roledescription="bar" d="M0,160h108v160h-108Z" fill="#2563eb"/></g></g><path class="foreground" aria-hidden="true" d="" display="none"/></g></g></g><path class="foreground" aria-hidden="true" d="" display="none"/></g><g transform="translate(6,0)"><path class="background" aria-hidden="true" d="M3,0L105,0C106.655745073482,0,108,1.344254926518,108,3L108,320C108,320,108,320,108,320L0,320C0,320,0,320,0,320L0,3C0,1.344254926518,1.344254926518,0,3,0Z"/><g clip-path="url(#clip52)"><g class="mark-group role-scope" role="graphics-object" aria-roledescription="group mark container"><g transform="translate(0,0)"><path class="background" aria-hidden="true" d="M0,0h108v0h-108Z"/><g><g class="mark-rect role-mark marks" role="graphics-object" aria-roledescription="rect mark container"><path aria-label="tier: 0.5-2 TiB; count: 100" role="graphics-symbol" aria-roledescription="bar" d="M0,0h108v320h-108Z" fill="#2563eb"/></g></g><path class="foreground" aria-hidden="true" d="" display="none"/></g></g></g><path class="foreground" aria-hidden="true" d="" display="none"/></g><g transform="translate(246,160)"><path class="background" aria-hidden="true" d="M3,0L105,0C106.655745073482,0,108,1.344254926518,108,3L108,160C108,160,108,160,108,160L0,160C0,160,0,160,0,160L0,3C0,1.344254926518,1.344254926518,0,3,0Z"/><g clip-path="url(#clip53)"><g class="mark-group role-scope" role="graphics-object" aria-roledescription="group mark container"><g transform="translate(0,-160)"><path class="background" aria-hidden="true" d="M0,0h108v0h-108Z"/><g><g class="mark-rect role-mark marks" role="graphics-object" aria-roledescription="rect mark container"><path aria-label="tier: 2-10 TiB; count: 50" role="graphics-symbol" aria-roledescription="bar" d="M0,160h108v160h-108Z" fill="#2563eb"/></g></g><path class="foreground" aria-hidden="true" d="" display="none"/></g></g></g><path class="foreground" aria-hidden="true" d="" display="none"/></g><g transform="translate(126,320)"><path class="background" aria-hidden="true" d="M0,0h108v0h-108Z"/><g clip-path="url(#clip54)"><g class="mark-group role-scope" role="graphics-object" aria-roledescription="group mark container"><g transform="translate(0,-320)"><path class="background" aria-hidden="true" d="M0,0h108v0h-108Z"/><g><g class="mark-rect role-mark marks" role="graphics-object" aria-roledescription="rect mark container"><path aria-label="tier: 10-50 TiB; count: 0" role="graphics-symbol" aria-roledescription="bar" d="M0,320h108v0h-108Z" fill="#2563eb"/></g></g><path class="foreground" aria-hidden="true" d="" display="none"/></g></g></g><path class="foreground" aria-hidden="true" d="" display="none"/></g><g transform="translate(486,320)"><path class="background" aria-hidden="true" d="M0,0h108v0h-108Z"/><g clip-path="url(#clip55)"><g class="mark-group role-scope" role="graphics-object" aria-roledescription="group mark container"><g transform="translate(0,-320)"><path class="background" aria-hidden="true" d="M0,0h108v0h-108Z"/><g><g class="mark-rect role-mark marks" role="graphics-object" aria-roledescription="rect mark container"><path aria-label="tier: &gt;50 TiB; count: 0" role="graphics-symbol" aria-roledescription="bar" d="M0,320h108v0h-108Z" fill="#2563eb"/></g></g><path class="foreground" aria-hidden="true" d="" display="none"/></g></g></g><path class="foreground" aria-hidden="true" d="" display="none"/></g></g><g class="mark-group role-title"><g transform="translate(-61,-36)"><path class="background" aria-hidden="true" d="M0,0h0v0h0Z" pointer-events="none"/><g><g class="mark-text role-title-text" role="graphics-symbol" aria-roledescription="title" aria-label="Title text 'Provider count by size tier / 容量帯別プロバイダ数'" pointer-events="none"><text text-anchor="start" transform="translate(0,11)" font-family="-apple-system, BlinkMacSystemFont, 'Segoe UI', system-ui, 'Helvetica Neue', 'Hiragino Sans', 'Hiragino Kaku Gothic ProN', 'Noto Sans CJK JP', sans-serif" font-size="14px" font-weight="600" fill="#0f172a" opacity="1">Provider count by size tier / 容量帯別プロバイダ数</text></g></g><path class="foreground" aria-hidden="true" d="" pointer-events="none" display="none"/></g></g></g><path class="foreground" aria-hidden="true" d="" display="none"/></g></g></g><defs><clipPath id="clip51"><path d="M3,0L105,0C106.655745073482,0,108,1.344254926518,108,3L108,160C108,160,108,160,108,160L0,160C0,160,0,160,0,160L0,3C0,1.344254926518,1.344254926518,0,3,0Z"/></clipPath><clipPath id="clip52"><path d="M3,0L105,0C106.655745073482,0,108,1.344254926518,108,3L108,320C108,320,108,320,108,320L0,320C0,320,0,320,0,320L0,3C0,1.344254926518,1.344254926518,0,3,0Z"/></clipPath><clipPath id="clip53"><path d="M3,0L105,0C106.655745073482,0,108,1.344254926518,108,3L108,160C108,160,108,160,108,160L0,160C0,160,0,160,0,160L0,3C0,1.344254926518,1.344254926518,0,3,0Z"/></clipPath><clipPath id="clip54"><path d="M0,0h108v0h-108Z"/></clipPath><clipPath id="clip55"><path d="M0,0h108v0h-108Z"/></clipPath></defs></svg>