<svg xmlns="http://www.w3.org/2000/svg" xmlns:xlink="http://www.w3.org/1999/xlink" version="1.1" class="marks" width="698" height="424" viewBox="0 0 698 424"><g fill="none" stroke-miterlimit="10" transform="translate(82,48)"><g class="mark-group role-frame root" role="graphics-object" aria-roledescription="group mark container"><g transform="translate(0,0)"><path class="background" aria-hidden="true" d="M0.5,0.5h600v320h-600Z"/><g><g class="mark-group role-axis" aria-hidden="true"><g transform="translate(0.5,0.5)"><path class="background" aria-hidden="true" d="M0,0h0v0h0Z" pointer-events="none"/><g><g class="mark-rule role-axis-grid" pointer-events="none"><line transform="translate(0,320)" x2="600" y2="0" stroke="#eef0f4" stroke-width="0.8" stroke-dasharray="2,4" opacity="1"/><line transform="translate(0,274)" x2="600" y2="0" stroke="#eef0f4" stroke-width="0.8" stroke-dasharray="2,4" opacity="1"/><line transform="translate(0,229)" x2="600" y2="0" stroke="#eef0f4" stroke-width="0.8" stroke-dasharray="2,4" opacity="1"/><line transform="translate(0,183)" x2="600" y2="0" stroke="#eef0f4" stroke-width="0.8" stroke-dasharray="2,4" opacity="1"/><line transform="translate(0,137)" x2="600" y2="0" stroke="#eef0f4" stroke-width="0.8" stroke-dasharray="2,4" opacity="1"/><line transform="translate(0,91)" x2="600" y2="0" stroke="#eef0f4" stroke-width="0.8" stroke-dasharray="2,4" opacity="1"/><line transform="translate(0,46)" x2="600" y2="0" stroke="#eef0f4" stroke-width="0.8" stroke-dasharray="2,4" opacity="1"/><line transform="translate(0,0)" x2="600" y2="0" stroke="#eef0f4" stroke-width="0.8" stroke-dasharray="2,4" opacity="1"/></g></g><path class="foreground" aria-hidden="true" d="" pointer-events="none" display="none"/></g></g><g class="mark-group role-axis" role="graphics-symbol" aria-roledescription="axis" aria-label="X-axis titled 'tier' for a discrete scale with 5 values: 0.5-2 TiB, 10-50 TiB, 2-10 TiB, &lt;0.5 TiB, &gt;50 TiB"><g transform="translate(0.5,320.5)"><path class="background" aria-hidden="true" d="M0,0h0v0h0Z" pointer-events="none"/><g><g class="mark-rule role-axis-tick" pointer-events="none"><line transform="translate(60,0)" x2="0" y2="4" stroke="#e2e6ee" stroke-width="1" opacity="1"/><line transform="translate(180,0)" x2="0" y2="4" stroke="#e2e6ee" stroke-width="1" opacity="1"/><line transform="translate(300,0)" x2="0" y2="4" stroke="#e2e6ee" stroke-width="1" opacity="1"/><line transform="translate(420,0)" x2="0" y2="4" stroke="#e2e6ee" stroke-width="1" opacity="1"/><line transform="translate(540,0)" x2="0" y2="4" stroke="#e2e6ee" stroke-width="1" opacity="1"/></g><g class="mark-text role-axis-label" pointer-events="none"><text text-anchor="middle" transform="translate(59.5,19)" font-family="'SF Mono', Menlo, Consolas, 'Liberation Mono', monospace" font-size="11px" fill="#64748b" opacity="1">0.5-2 TiB</text><text text-anchor="middle" transform="translate(179.5,19)" font-family="'SF Mono', Menlo, Consolas, 'Liberation Mono', monospace" font-size="11px" fill="#64748b" opacity="1">10-50 TiB</text><text text-anchor="middle" transform="translate(299.5,19)" font-family="'SF Mono', Menlo, Consolas, 'Liberation Mono', monospace" font-size="11px" fill="#64748b" opacity="1">2-10 TiB</text><text text-anchor="middle" transform="translate(419.5,19)" font-family="'SF Mono', Menlo, Consolas, 'Liberation Mono', monospace" font-size="11px" fill="#64748b" opacity="1">&lt;0.5 TiB</text><text text-anchor="middle" transform="translate(539.5,19)" font-family="'SF Mono', Menlo, Consolas, 'Liberation Mono', monospace" font-size="11px" fill="#64748b" opacity="1">&gt;50 TiB</text></g><g class="mark-text role-axis-title" pointer-events="none"><text text-anchor="middle" transform="translate(300,42)" font-family="-apple-system, BlinkMacSystemFont, 'Segoe UI', system-ui, 'Helvetica Neue', 'Hiragino Sans', 'Hiragino Kaku Gothic ProN', 'Noto Sans CJK JP', sans-serif" font-size="12px" font-weight="600" fill="#0f172a" opacity="1">tier</text></g></g><path class="foreground" aria-hidden="true" d="" pointer-events="none" display="none"/></g></g><g class="mark-group role-axis" role="graphics-symbol" aria-roledescription="axis" aria-label="Y-axis titled 'verified_share' for a linear scale with values from 0.00 to 0.35"><g transform="translate(0.5,0.5)"><path class="background" aria-hidden="true" d="M0,0h0v0h0Z" pointer-events="none"/><g><g class="mark-rule role-axis-tick" pointer-events="none"><line transform="translate(0,320)" x2="-4" y2="0" stroke="#e2e6ee" stroke-width="1" opacity="1"/><line transform="translate(0,274)" x2="-4" y2="0" stroke="#e2e6ee" stroke-width="1" opacity="1"/><line transform="translate(0,229)" x2="-4" y2="0" stroke="#e2e6ee" stroke-width="1" opacity="1"/><line transform="translate(0,183)" x2="-4" y2="0" stroke="#e2e6ee" stroke-width="1" opacity="1"/><line transform="translate(0,137)" x2="-4" y2="0" stroke="#e2e6ee" stroke-width="1" opacity="1"/><line transform="translate(0,91)" x2="-4" y2="0" stroke="#e2e6ee" stroke-width="1" opacity="1"/><line transform="translate(0,46)" x2="-4" y2="0" stroke="#e2e6ee" stroke-width="1" opacity="1"/><line transform="translate(0,0)" x2="-4" y2="0" stroke="#e2e6ee" stroke-width="1" opacity="1"/></g><g class="mark-text role-axis-label" pointer-events="none"><text text-anchor="end" transform="translate(-10,323)" font-family="'SF Mono', Menlo, Consolas, 'Liberation Mono', monospace" font-size="11px" fill="#64748b" opacity="1">0</text><text text-anchor="end" transform="translate(-10,277.2857142857143)" font-family="'SF Mono', Menlo, Consolas, 'Liberation Mono', monospace" font-size="11px" fill="#64748b" opacity="1">50m</text><text text-anchor="end" transform="translate(-10,231.57142857142856)" font-family="'SF Mono', Menlo, Consolas, 'Liberation Mono', monospace" font-size="11px" fill="#64748b" opacity="1">100m</text><text text-anchor="end" transform="translate(-10,185.85714285714283)" font-family="'SF Mono', Menlo, Consolas, 'Liberation Mono', monospace" font-size="11px" fill="#64748b" opacity="1">150m</text><text text-anchor="end" transform="translate(-10,140.1428571428571)" font-family="'SF Mono', Menlo, Consolas, 'Liberation Mono', monospace" font-size="11px" fill="#64748b" opacity="1">200m</text><text text-anchor="end" transform="translate(-10,94.42857142857142)" font-family="'SF Mono', Menlo, Consolas, 'Liberation Mono', monospace" font-size="11px" fill="#64748b" opacity="1">250m</text><text text-anchor="end" transform="translate(-10,48.714285714285694)" font-family="'SF Mono', Menlo, Consolas, 'Liberation Mono', monospace" font-size="11px" fill="#64748b" opacity="1">300m</text><text text-anchor="end" transform="translate(-10,3)" font-family="'SF Mono', Menlo, Consolas, 'Liberation Mono', monospace" font-size="11px" fill="#64748b" opacity="1">350m</text></g><g class="mark-text role-axis-title" pointer-events="none"><text text-anchor="middle" transform="translate(-57,160) rotate(-90) translate(0,-3)" font-family="-apple-system, BlinkMacSystemFont, 'Segoe UI', system-ui, 'Helvetica Neue', 'Hiragino Sans', 'Hiragino Kaku Gothic ProN', 'Noto Sans CJK JP', sans-serif" font-size="12px" font-weight="600" fill="#0f172a" opacity="1">verified_share</text></g></g><path class="foreground" aria-hidden="true" d="" pointer-events="none" display="none"/></g></g><g class="mark-group role-scope" role="graphics-object" aria-roledescription="group mark container"><g transform="translate(366,14.62857142857139)"><path class="background" aria-hidden="true" d="M3,0L105,0C106.655745073482,0,108,1.344254926518,108,3L108,305.3714285714286C108,305.3714285714286,108,305.3714285714286,108,305.3714285714286L0,305.3714285714286C0,305.3714285714286,0,305.3714285714286,0,305.3714285714286L0,3C0,1.344254926518,1.344254926518,0,3,0Z"/><g clip-path="url(#clip56)"><g class="mark-group role-scope" role="graphics-object" aria-roledescription="group mark container"><g transform="translate(0,-14.62857142857139)"><path class="background" aria-hidden="true" d="M0,0h108v0h-108Z"/><g><g class="mark-rect role-mark marks" role="graphics-object" aria-roledescription="rect mark container"><path aria-label="tier: &lt;0.5 TiB; verified_share: 0.334" role="graphics-symbol" aria-roledescription="bar" d="M0,14.62857142857139h108v305.3714285714286h-108Z" fill="#2563eb"/></g></g><path class="foreground" aria-hidden="true" d="" display="none"/></g></g></g><path class="foreground" aria-hidden="true" d="" display="none"/></g><g transform="translate(6,15.268571428571427)"><path class="background" aria-hidden="true" d="M3,0L105,0C106.655745073482,0,108,1.344254926518,108,3L108,304.7314285714286C108,304.7314285714286,108,304.7314285714286,108,304.7314285714286L0,304.7314285714286C0,304.7314285714286,0,304.7314285714286,0,304.7314285714286L0,3C0,1.344254926518,1.344254926518,0,3,0Z"/><g clip-path="url(#clip57)"><g class="mark-group role-scope" role="graphics-object" aria-roledescription="group mark container"><g transform="translate(0,-15.268571428571427)"><path class="background" aria-hidden="true" d="M0,0h108v0h-108Z"/><g><g class="mark-rect role-mark marks" role="graphics-object" aria-roledescription="rect mark container"><path aria-label="tier: 0.5-2 TiB; verified_share: 0.3333" role="graphics-symbol" aria-roledescription="bar" d="M0,15.268571428571427h108v304.7314285714286h-108Z" fill="#2563eb"/></g></g><path class="foreground" aria-hidden="true" d="" display="none"/></g></g></g><path class="foreground" aria-hidden="true" d="" display="none"/></g><g transform="translate(246,14.62857142857139)"><path class="background" aria-hidden="true" d="M3,0L105,0C106.655745073482,0,108,1.344254926518,108,3L108,305.3714285714286C108,305.3714285714286,108,305.3714285714286,108,305.3714285714286L0,305.3714285714286C0,305.3714285714286,0,305.3714285714286,0,305.3714285714286L0,3C0,1.344254926518,1.344254926518,0,3,0Z"/><g clip-path="url(#clip58)"><g class="mark-group role-scope" role="graphics-object" aria-roledescription="group mark container"><g transform="translate(0,-14.62857142857139)"><path class="background" aria-hidden="true" d="M0,0h108v0h-108Z"/><g><g class="mark-rect role-mark marks" role="graphics-object" aria-roledescription="rect mark container"><path aria-label="tier: 2-10 TiB; verified_share: 0.334" role="graphics-symbol" aria-roledescription="bar" d="M0,14.62857142857139h108v305.3714285714286h-108Z" fill="#2563eb"/></g></g><path class="foreground" aria-hidden="true" d="" display="none"/></g></g></g><path class="foreground" aria-hidden="true" d="" display="none"/></g><g transform="translate(126,320)"><path class="background" aria-hidden="true" d="M0,0h108v0h-108Z"/><g clip-path="url(#clip59)"><g class="mark-group role-scope" role="graphics-object" aria-roledescription="group mark container"><g transform="translate(0,-320)"><path class="background" aria-hidden="true" d="M0,0h108v0h-108Z"/><g><g class="mark-rect role-mark marks" role="graphics-object" aria-roledescription="rect mark container"><path aria-label="tier: 10-50 TiB; verified_share: 0" role="graphics-symbol" aria-roledescription="bar" d="M0,320h108v0h-108Z" fill="#2563eb"/></g></g><path class="foreground" aria-hidden="true" d="" display="none"/></g></g></g><path class="foreground" aria-hidden="true" d="" display="none"/></g><g transform="translate(486,320)"><path class="background" aria-hidden="true" d="M0,0h108v0h-108Z"/><g clip-path="url(#clip60)"><g class="mark-group role-scope" role="graphics-object" aria-roledescription="group mark container"><g transform="translate(0,-320)"><path class="background" aria-hidden="true" d="M0,0h108v0h-108Z"/><g><g class="mark-rect role-mark marks" role="graphics-object" aria-roledescription="rect mark container"><path aria-label="tier: &gt;50 TiB; verified_share: 0" role="graphics-symbol" aria-roledescription="bar" d="M0,320h108v0h-108Z" fill="#2563eb"/></g></g><path class="foreground" aria-hidden="true" d="" display="none"/></g></g></g><path class="foreground" aria-hidden="true" d="" display="none"/></g></g><g class="mark-group role-title"><g transform="translate(-70,-36)"><path class="background" aria-hidden="true" d="M0,0h0v0h0Z" pointer-events="none"/><g><g class="mark-text role-title-text" role="graphics-symbol" aria-roledescription="title" aria-label="Title text 'Verified-deal byte share by provider tier / 容量帯別 検証済みディール比率'" pointer-events="none"><text text-anchor="start" transform="translate(0,11)" font-family="-apple-system, BlinkMacSystemFont, 'Segoe UI', system-ui, 'Helvetica Neue', 'Hiragino Sans', 'Hiragino Kaku Gothic ProN', 'Noto Sans CJK JP', sans-serif" font-size="14px" font-weight="600" fill="#0f172a" opacity="1">Verified-deal byte share by provider tier / 容量帯別 検証済みディール比率</text></g></g><path class="foreground" aria-hidden="true" d="" pointer-events="none" display="none"/></g></g></g><path class="foreground" aria-hidden="true" d="" display="none"/></g></g></g><defs><clipPath id="clip56"><path d="M3,0L105,0C106.655745073482,0,108,1.344254926518,108,3L108,305.3714285714286C108,305.3714285714286,108,305.3714285714286,108,305.3714285714286L0,305.3714285714286C0,305.3714285714286,0,305.3714285714286,0,305.3714285714286L0,3C0,1.344254926518,1.344254926518,0,3,0Z"/></clipPath><clipPath id="clip57"><path d="M3,0L105,0C106.655745073482,0,108,1.344254926518,108,3L108,304.7314285714286C108,304.7314285714286,108,304.7314285714286,108,304.7314285714286L0,304.7314285714286C0,304.7314285714286,0,304.7314285714286,0,304.7314285714286L0,3C0,1.344254926518,1.344254926518,0,3,0Z"/></clipPath><clipPath id="clip58"><path d="M3,0L105,0C106.655745073482,0,108,1.344254926518,108,3L108,305.3714285714286C108,305.3714285714286,108,305.3714285714286,108,305.3714285714286L0,305.3714285714286C0,305.3714285714286,0,305.3714285714286,0,305.3714285714286L0,3C0,1.344254926518,1.344254926518,0,3,0Z"/></clipPath><clipPath id="clip59"><path d="M0,0h108v0h-108Z"/></clipPath><clipPath id="clip60"><path d="M0,0h108v0h-108Z"/></clipPath></defs></svg>