<svg xmlns="http://www.w3.org/2000/svg" xmlns:xlink="http://www.w3.org/1999/xlink" version="1.1" class="marks" width="701" height="424" viewBox="0 0 701 424"><g fill="none" stroke-miterlimit="10" transform="translate(82,48)"><g class="mark-group role-frame root" role="graphics-object" aria-roledescription="group mark container"><g transform="translate(0,0)"><path class="background" aria-hidden="true" d="M0.5,0.5h600v320h-600Z"/><g><g class="mark-group role-axis" aria-hidden="true"><g transform="translate(0.5,320.5)"><path class="background" aria-hidden="true" d="M0,0h0v0h0Z" pointer-events="none"/><g><g class="mark-rule role-axis-grid" pointer-events="none"><line transform="translate(0,-320)" x2="0" y2="320" stroke="#eef0f4" stroke-width="0.8" stroke-dasharray="2,4" opacity="1"/><line transform="translate(30,-320)" x2="0" y2="320" stroke="#eef0f4" stroke-width="0.8" stroke-dasharray="2,4" opacity="1"/><line transform="translate(60,-320)" x2="0" y2="320" stroke="#eef0f4" stroke-width="0.8" stroke-dasharray="2,4" opacity="1"/><line transform="translate(90,-320)" x2="0" y2="320" stroke="#eef0f4" stroke-width="0.8" stroke-dasharray="2,4" opacity="1"/><line transform="translate(120,-320)" x2="0" y2="320" stroke="#eef0f4" stroke-width="0.8" stroke-dasharray="2,4" opacity="1"/><line transform="translate(150,-320)" x2="0" y2="320" stroke="#eef0f4" stroke-width="0.8" stroke-dasharray="2,4" opacity="1"/><line transform="translate(180,-320)" x2="0" y2="320" stroke="#eef0f4" stroke-width="0.8" stroke-dasharray="2,4" opacity="1"/><line transform="translate(210,-320)" x2="0" y2="320" stroke="#eef0f4" stroke-width="0.8" stroke-dasharray="2,4" opacity="1"/><line transform="translate(240,-320)" x2="0" y2="320" stroke="#eef0f4" stroke-width="0.8" stroke-dasharray="2,4" opacity="1"/><line transform="translate(270,-320)" x2="0" y2="320" stroke="#eef0f4" stroke-width="0.8" stroke-dasharray="2,4" opacity="1"/><line transform="translate(300,-320)" x2="0" y2="320" stroke="#eef0f4" stroke-width="0.8" stroke-dasharray="2,4" opacity="1"/><line transform="translate(330,-320)" x2="0" y2="320" stroke="#eef0f4" stroke-width="0.8" stroke-dasharray="2,4" opacity="1"/><line transform="translate(360,-320)" x2="0" y2="320" stroke="#eef0f4" stroke-width="0.8" stroke-dasharray="2,4" opacity="1"/><line transform="translate(390,-320)" x2="0" y2="320" stroke="#eef0f4" stroke-width="0.8" stroke-dasharray="2,4" opacity="1"/><line transform="translate(420,-320)" x2="0" y2="320" stroke="#eef0f4" stroke-width="0.8" stroke-dasharray="2,4" opacity="1"/><line transform="translate(450,-320)" x2="0" y2="320" stroke="#eef0f4" stroke-width="0.8" stroke-dasharray="2,4" opacity="1"/><line transform="translate(480,-320)" x2="0" y2="320" stroke="#eef0f4" stroke-width="0.8" stroke-dasharray="2,4" opacity="1"/><line transform="translate(510,-320)" x2="0" y2="320" stroke="#eef0f4" stroke-width="0.8" stroke-dasharray="2,4" opacity="1"/><line transform="translate(540,-320)" x2="0" y2="320" stroke="#eef0f4" stroke-width="0.8" stroke-dasharray="2,4" opacity="1"/><line transform="translate(570,-320)" x2="0" y2="320" stroke="#eef0f4" stroke-width="0.8" stroke-dasharray="2,4" opacity="1"/><line transform="translate(600,-320)" x2="0" y2="320" stroke="#eef0f4" stroke-width="0.8" stroke-dasharray="2,4" opacity="1"/></g></g><path class="foreground" aria-hidden="true" d="" pointer-events="none" display="none"/></g></g><g class="mark-group role-axis" aria-hidden="true"><g transform="translate(0.5,0.5)"><path class="background" aria-hidden="true" d="M0,0h0v0h0Z" pointer-events="none"/><g><g class="mark-rule role-axis-grid" pointer-events="none"><line transform="translate(0,320)" x2="600" y2="0" stroke="#eef0f4" stroke-width="0.8" stroke-dasharray="2,4" opacity="1"/><line transform="translate(0,288)" x2="600" y2="0" stroke="#eef0f4" stroke-width="0.8" stroke-dasharray="2,4" opacity="1"/><line transform="translate(0,256)" x2="600" y2="0" stroke="#eef0f4" stroke-width="0.8" stroke-dasharray="2,4" opacity="1"/><line transform="translate(0,224)" x2="600" y2="0" stroke="#eef0f4" stroke-width="0.8" stroke-dasharray="2,4" opacity="1"/><line transform="translate(0,192)" x2="600" y2="0" stroke="#eef0f4" stroke-width="0.8" stroke-dasharray="2,4" opacity="1"/><line transform="translate(0,160)" x2="600" y2="0" stroke="#eef0f4" stroke-width="0.8" stroke-dasharray="2,4" opacity="1"/><line transform="translate(0,128)" x2="600" y2="0" stroke="#eef0f4" stroke-width="0.8" stroke-dasharray="2,4" opacity="1"/><line transform="translate(0,96)" x2="600" y2="0" stroke="#eef0f4" stroke-width="0.8" stroke-dasharray="2,4" opacity="1"/><line transform="translate(0,64)" x2="600" y2="0" stroke="#eef0f4" stroke-width="0.8" stroke-dasharray="2,4" opacity="1"/><line transform="translate(0,32)" x2="600" y2="0" stroke="#eef0f4" stroke-width="0.8" stroke-dasharray="2,4" opacity="1"/><line transform="translate(0,0)" x2="600" y2="0" stroke="#eef0f4" stroke-width="0.8" stroke-dasharray="2,4" opacity="1"/></g></g><path class="foreground" aria-hidden="true" d="" pointer-events="none" display="none"/></g></g><g class="mark-group role-axis" role="graphics-symbol" aria-roledescription="axis" aria-label="X-axis titled 'p_groups' for a linear scale with values from 0.0 to 1.0"><g transform="translate(0.5,320.5)"><path class="background" aria-hidden="true" d="M0,0h0v0h0Z" pointer-events="none"/><g><g class="mark-rule role-axis-tick" pointer-events="none"><line transform="translate(0,0)" x2="0" y2="4" stroke="#e2e6ee" stroke-width="1" opacity="1"/><line transform="translate(30,0)" x2="0" y2="4" stroke="#e2e6ee" stroke-width="1" opacity="1"/><line transform="translate(60,0)" x2="0" y2="4" stroke="#e2e6ee" stroke-width="1" opacity="1"/><line transform="translate(90,0)" x2="0" y2="4" stroke="#e2e6ee" stroke-width="1" opacity="1"/><line transform="translate(120,0)" x2="0" y2="4" stroke="#e2e6ee" stroke-width="1" opacity="1"/><line transform="translate(150,0)" x2="0" y2="4" stroke="#e2e6ee" stroke-width="1" opacity="1"/><line transform="translate(180,0)" x2="0" y2="4" stroke="#e2e6ee" stroke-width="1" opacity="1"/><line transform="translate(210,0)" x2="0" y2="4" stroke="#e2e6ee" stroke-width="1" opacity="1"/><line transform="translate(240,0)" x2="0" y2="4" stroke="#e2e6ee" stroke-width="1" opacity="1"/><line transform="translate(270,0)" x2="0" y2="4" stroke="#e2e6ee" stroke-width="1" opacity="1"/><line transform="translate(300,0)" x2="0" y2="4" stroke="#e2e6ee" stroke-width="1" opacity="1"/><line transform="translate(330,0)" x2="0" y2="4" stroke="#e2e6ee" stroke-width="1" opacity="1"/><line transform="translate(360,0)" x2="0" y2="4" stroke="#e2e6ee" stroke-width="1" opacity="1"/><line transform="translate(390,0)" x2="0" y2="4" stroke="#e2e6ee" stroke-width="1" opacity="1"/><line transform="translate(420,0)" x2="0" y2="4" stroke="#e2e6ee" stroke-width="1" opacity="1"/><line transform="translate(450,0)" x2="0" y2="4" stroke="#e2e6ee" stroke-width="1" opacity="1"/><line transform="translate(480,0)" x2="0" y2="4" stroke="#e2e6ee" stroke-width="1" opacity="1"/><line transform="translate(510,0)" x2="0" y2="4" stroke="#e2e6ee" stroke-width="1" opacity="1"/><line transform="translate(540,0)" x2="0" y2="4" stroke="#e2e6ee" stroke-width="1" opacity="1"/><line transform="translate(570,0)" x2="0" y2="4" stroke="#e2e6ee" stroke-width="1" opacity="1"/><line transform="translate(600,0)" x2="0" y2="4" stroke="#e2e6ee" stroke-width="1" opacity="1"/></g><g class="mark-text role-axis-label" pointer-events="none"><text text-anchor="start" transform="translate(0,19)" font-family="'SF Mono', Menlo, Consolas, 'Liberation Mono', monospace" font-size="11px" fill="#64748b" opacity="1">0</text><text text-anchor="middle" transform="translate(30,19)" font-family="'SF Mono', Menlo, Consolas, 'Liberation Mono', monospace" font-size="11px" fill="#64748b" opacity="0">50m</text><text text-anchor="middle" transform="translate(60,19)" font-family="'SF Mono', Menlo, Consolas, 'Liberation Mono', monospace" font-size="11px" fill="#64748b" opacity="1">100m</text><text text-anchor="middle" transform="translate(90,19)" font-family="'SF Mono', Menlo, Consolas, 'Liberation Mono', monospace" font-size="11px" fill="#64748b" opacity="0">150m</text><text text-anchor="middle" transform="translate(120,19)" font-family="'SF Mono', Menlo, Consolas, 'Liberation Mono', monospace" font-size="11px" fill="#64748b" opacity="1">200m</text><text text-anchor="middle" transform="translate(150,19)" font-family="'SF Mono', Menlo, Consolas, 'Liberation Mono', monospace" font-size="11px" fill="#64748b" opacity="0">250m</text><text text-anchor="middle" transform="translate(180,19)" font-family="'SF Mono', Menlo, Consolas, 'Liberation Mono', monospace" font-size="11px" fill="#64748b" opacity="1">300m</text><text text-anchor="middle" transform="translate(210,19)" font-family="'SF Mono', Menlo, Consolas, 'Liberation Mono', monospace" font-size="11px" fill="#64748b" opacity="0">350m</text><text text-anchor="middle" transform="translate(240,19)" font-family="'SF Mono', Menlo, Consolas, 'Liberation Mono', monospace" font-size="11px" fill="#64748b" opacity="1">400m</text><text text-anchor="middle" transform="translate(270,19)" font-family="'SF Mono', Menlo, Consolas, 'Liberation Mono', monospace" font-size="11px" fill="#64748b" opacity="0">450m</text><text text-anchor="middle" transform="translate(300,19)" font-family="'SF Mono', Menlo, Consolas, 'Liberation Mono', monospace" font-size="11px" fill="#64748b" opacity="1">500m</text><text text-anchor="middle" transform="translate(330,19)" font-family="'SF Mono', Menlo, Consolas, 'Liberation Mono', monospace" font-size="11px" fill="#64748b" opacity="0">550m</text><text text-anchor="middle" transform="translate(360,19)" font-family="'SF Mono', Menlo, Consolas, 'Liberation Mono', monospace" font-size="11px" fill="#64748b" opacity="1">600m</text><text text-anchor="middle" transform="translate(390,19)" font-family="'SF Mono', Menlo, Consolas, 'Liberation Mono', monospace" font-size="11px" fill="#64748b" opacity="0">650m</text><text text-anchor="middle" transform="translate(420,19)" font-family="'SF Mono', Menlo, Consolas, 'Liberation Mono', monospace" font-size="11px" fill="#64748b" opacity="1">700m</text><text text-anchor="middle" transform="translate(450,19)" font-family="'SF Mono', Menlo, Consolas, 'Liberation Mono', monospace" font-size="11px" fill="#64748b" opacity="0">750m</text><text text-anchor="middle" transform="translate(480,19)" font-family="'SF Mono', Menlo, Consolas, 'Liberation Mono', monospace" font-size="11px" fill="#64748b" opacity="1">800m</text><text text-anchor="middle" transform="translate(510,19)" font-family="'SF Mono', Menlo, Consolas, 'Liberation Mono', monospace" font-size="11px" fill="#64748b" opacity="0">850m</text><text text-anchor="middle" transform="translate(540,19)" font-family="'SF Mono', Menlo, Consolas, 'Liberation Mono', monospace" font-size="11px" fill="#64748b" opacity="1">900m</text><text text-anchor="middle" transform="translate(570,19)" font-family="'SF Mono', Menlo, Consolas, 'Liberation Mono', monospace" font-size="11px" fill="#64748b" opacity="0">950m</text><text text-anchor="end" transform="translate(600,19)" font-family="'SF Mono', Menlo, Consolas, 'Liberation Mono', monospace" font-size="11px" fill="#64748b" opacity="1">1</text></g><g class="mark-text role-axis-title" pointer-events="none"><text text-anchor="middle" transform="translate(300,42)" font-family="-apple-system, BlinkMacSystemFont, 'Segoe UI', system-ui, 'Helvetica Neue', 'Hiragino Sans', 'Hiragino Kaku Gothic ProN', 'Noto Sans CJK JP', sans-serif" font-size="12px" font-weight="600" fill="#0f172a" opacity="1">p_groups</text></g></g><path class="foreground" aria-hidden="true" d="" pointer-events="none" display="none"/></g></g><g class="mark-group role-axis" role="graphics-symbol" aria-roledescription="axis" aria-label="Y-axis titled 'p_value' for a linear scale with values from 0.0 to 1.0"><g transform="translate(0.5,0.5)"><path class="background" aria-hidden="true" d="M0,0h0v0h0Z" pointer-events="none"/><g><g class="mark-rule role-axis-tick" pointer-events="none"><line transform="translate(0,320)" x2="-4" y2="0" stroke="#e2e6ee" stroke-width="1" opacity="1"/><line transform="translate(0,288)" x2="-4" y2="0" stroke="#e2e6ee" stroke-width="1" opacity="1"/><line transform="translate(0,256)" x2="-4" y2="0" stroke="#e2e6ee" stroke-width="1" opacity="1"/><line transform="translate(0,224)" x2="-4" y2="0" stroke="#e2e6ee" stroke-width="1" opacity="1"/><line transform="translate(0,192)" x2="-4" y2="0" stroke="#e2e6ee" stroke-width="1" opacity="1"/><line transform="translate(0,160)" x2="-4" y2="0" stroke="#e2e6ee" stroke-width="1" opacity="1"/><line transform="translate(0,128)" x2="-4" y2="0" stroke="#e2e6ee" stroke-width="1" opacity="1"/><line transform="translate(0,96)" x2="-4" y2="0" stroke="#e2e6ee" stroke-width="1" opacity="1"/><line transform="translate(0,64)" x2="-4" y2="0" stroke="#e2e6ee" stroke-width="1" opacity="1"/><line transform="translate(0,32)" x2="-4" y2="0" stroke="#e2e6ee" stroke-width="1" opacity="1"/><line transform="translate(0,0)" x2="-4" y2="0" stroke="#e2e6ee" stroke-width="1" opacity="1"/></g><g class="mark-text role-axis-label" pointer-events="none"><text text-anchor="end" transform="translate(-10,323)" font-family="'SF Mono', Menlo, Consolas, 'Liberation Mono', monospace" font-size="11px" fill="#64748b" opacity="1">0</text><text text-anchor="end" transform="translate(-10,291)" font-family="'SF Mono', Menlo, Consolas, 'Liberation Mono', monospace" font-size="11px" fill="#64748b" opacity="1">100m</text><text text-anchor="end" transform="translate(-10,259)" font-family="'SF Mono', Menlo, Consolas, 'Liberation Mono', monospace" font-size="11px" fill="#64748b" opacity="1">200m</text><text text-anchor="end" transform="translate(-10,227)" font-family="'SF Mono', Menlo, Consolas, 'Liberation Mono', monospace" font-size="11px" fill="#64748b" opacity="1">300m</text><text text-anchor="end" transform="translate(-10,195)" font-family="'SF Mono', Menlo, Consolas, 'Liberation Mono', monospace" font-size="11px" fill="#64748b" opacity="1">400m</text><text text-anchor="end" transform="translate(-10,163)" font-family="'SF Mono', Menlo, Consolas, 'Liberation Mono', monospace" font-size="11px" fill="#64748b" opacity="1">500m</text><text text-anchor="end" transform="translate(-10,131)" font-family="'SF Mono', Menlo, Consolas, 'Liberation Mono', monospace" font-size="11px" fill="#64748b" opacity="1">600m</text><text text-anchor="end" transform="translate(-10,99.00000000000001)" font-family="'SF Mono', Menlo, Consolas, 'Liberation Mono', monospace" font-size="11px" fill="#64748b" opacity="1">700m</text><text text-anchor="end" transform="translate(-10,66.99999999999999)" font-family="'SF Mono', Menlo, Consolas, 'Liberation Mono', monospace" font-size="11px" fill="#64748b" opacity="1">800m</text><text text-anchor="end" transform="translate(-10,34.99999999999999)" font-family="'SF Mono', Menlo, Consolas, 'Liberation Mono', monospace" font-size="11px" fill="#64748b" opacity="1">900m</text><text text-anchor="end" transform="translate(-10,3)" font-family="'SF Mono', Menlo, Consolas, 'Liberation Mono', monospace" font-size="11px" fill="#64748b" opacity="1">1</text></g><g class="mark-text role-axis-title" pointer-events="none"><text text-anchor="middle" transform="translate(-57,160) rotate(-90) translate(0,-3)" font-family="-apple-system, BlinkMacSystemFont, 'Segoe UI', system-ui, 'Helvetica Neue', 'Hiragino Sans', 'Hiragino Kaku Gothic ProN', 'Noto Sans CJK JP', sans-serif" font-size="12px" font-weight="600" fill="#0f172a" opacity="1">p_value</text></g></g><path class="foreground" aria-hidden="true" d="" pointer-events="none" display="none"/></g></g><g class="mark-line role-mark layer_0_marks" role="graphics-object" aria-roledescription="line mark container"><path aria-label="p_groups: 0; p_value: 0" role="graphics-symbol" aria-roledescription="line mark" d="M0,320L3,319.584L15,317.856L27,316.16L39,314.464L51,312.736L63,311.04L75,309.344L87,307.616L99,305.92L111,304.224L123,302.496L135,300.8L147,299.104L159,296.096L171,292.704L183,289.28L195,285.856L207,282.464L219,279.04L231,275.616L243,272.224L255,268.8L267,265.376L279,261.984L291,258.56L303,254.304L315,247.456L327,240.64L339,233.824L351,226.976L363,220.16L375,213.344L387,206.496L399,199.68L411,192.864L423,186.016L435,179.2L447,172.384L459,160.416L471,146.784L483,133.12L495,119.456L507,105.824L519,92.16L531,78.496L543,64.864L555,51.2L567,37.536L579,23.904L591,10.24L600,0" stroke="#2563eb" stroke-width="2.5"/></g><g class="mark-symbol role-mark layer_1_marks" role="graphics-object" aria-roledescription="symbol mark container"><path aria-label="p_groups: 0; p_value: 0" role="graphics-symbol" aria-roledescription="point" transform="translate(0,320)" d="M2.828,0A2.828,2.828,0,1,1,-2.828,0A2.828,2.828,0,1,1,2.828,0" fill="#2563eb" stroke-width="2" opacity="1"/><path aria-label="p_groups: 0.005; p_value: 0.0013" role="graphics-symbol" aria-roledescription="point" transform="translate(3,319.584)" d="M2.828,0A2.828,2.828,0,1,1,-2.828,0A2.828,2.828,0,1,1,2.828,0" fill="#2563eb" stroke-width="2" opacity="1"/><path aria-label="p_groups: 0.025; p_value: 0.0067" role="graphics-symbol" aria-roledescription="point" transform="translate(15,317.856)" d="M2.828,0A2.828,2.828,0,1,1,-2.828,0A2.828,2.828,0,1,1,2.828,0" fill="#2563eb" stroke-width="2" opacity="1"/><path aria-label="p_groups: 0.045; p_value: 0.012" role="graphics-symbol" aria-roledescription="point" transform="translate(27,316.15999999999997)" d="M2.828,0A2.828,2.828,0,1,1,-2.828,0A2.828,2.828,0,1,1,2.828,0" fill="#2563eb" stroke-width="2" opacity="1"/><path aria-label="p_groups: 0.065; p_value: 0.0173" role="graphics-symbol" aria-roledescription="point" transform="translate(39,314.464)" d="M2.828,0A2.828,2.828,0,1,1,-2.828,0A2.828,2.828,0,1,1,2.828,0" fill="#2563eb" stroke-width="2" opacity="1"/><path aria-label="p_groups: 0.085; p_value: 0.0227" role="graphics-symbol" aria-roledescription="point" transform="translate(51.00000000000001,312.736)" d="M2.828,0A2.828,2.828,0,1,1,-2.828,0A2.828,2.828,0,1,1,2.828,0" fill="#2563eb" stroke-width="2" opacity="1"/><path aria-label="p_groups: 0.105; p_value: 0.028" role="graphics-symbol" aria-roledescription="point" transform="translate(63,311.03999999999996)" d="M2.828,0A2.828,2.828,0,1,1,-2.828,0A2.828,2.828,0,1,1,2.828,0" fill="#2563eb" stroke-width="2" opacity="1"/><path aria-label="p_groups: 0.125; p_value: 0.0333" role="graphics-symbol" aria-roledescription="point" transform="translate(75,309.344)" d="M2.828,0A2.828,2.828,0,1,1,-2.828,0A2.828,2.828,0,1,1,2.828,0" fill="#2563eb" stroke-width="2" opacity="1"/><path aria-label="p_groups: 0.145; p_value: 0.0387" role="graphics-symbol" aria-roledescription="point" transform="translate(87,307.616)" d="M2.828,0A2.828,2.828,0,1,1,-2.828,0A2.828,2.828,0,1,1,2.828,0" fill="#2563eb" stroke-width="2" opacity="1"/><path aria-label="p_groups: 0.165; p_value: 0.044" role="graphics-symbol" aria-roledescription="point" transform="translate(99,305.91999999999996)" d="M2.828,0A2.828,2.828,0,1,1,-2.828,0A2.828,2.828,0,1,1,2.828,0" fill="#2563eb" stroke-width="2" opacity="1"/><path aria-label="p_groups: 0.185; p_value: 0.0493" role="graphics-symbol" aria-roledescription="point" transform="translate(111,304.224)" d="M2.828,0A2.828,2.828,0,1,1,-2.828,0A2.828,2.828,0,1,1,2.828,0" fill="#2563eb" stroke-width="2" opacity="1"/><path aria-label="p_groups: 0.205; p_value: 0.0547" role="graphics-symbol" aria-roledescription="point" transform="translate(122.99999999999999,302.496)" d="M2.828,0A2.828,2.828,0,1,1,-2.828,0A2.828,2.828,0,1,1,2.828,0" fill="#2563eb" stroke-width="2" opacity="1"/><path aria-label="p_groups: 0.225; p_value: 0.06" role="graphics-symbol" aria-roledescription="point" transform="translate(135,300.79999999999995)" d="M2.828,0A2.828,2.828,0,1,1,-2.828,0A2.828,2.828,0,1,1,2.828,0" fill="#2563eb" stroke-width="2" opacity="1"/><path aria-label="p_groups: 0.245; p_value: 0.0653" role="graphics-symbol" aria-roledescription="point" transform="translate(147,299.104)" d="M2.828,0A2.828,2.828,0,1,1,-2.828,0A2.828,2.828,0,1,1,2.828,0" fill="#2563eb" stroke-width="2" opacity="1"/><path aria-label="p_groups: 0.265; p_value: 0.0747" role="graphics-symbol" aria-roledescription="point" transform="translate(159,296.096)" d="M2.828,0A2.828,2.828,0,1,1,-2.828,0A2.828,2.828,0,1,1,2.828,0" fill="#2563eb" stroke-width="2" opacity="1"/><path aria-label="p_groups: 0.285; p_value: 0.0853" role="graphics-symbol" aria-roledescription="point" transform="translate(170.99999999999997,292.704)" d="M2.828,0A2.828,2.828,0,1,1,-2.828,0A2.828,2.828,0,1,1,2.828,0" fill="#2563eb" stroke-width="2" opacity="1"/><path aria-label="p_groups: 0.305; p_value: 0.096" role="graphics-symbol" aria-roledescription="point" transform="translate(183,289.28000000000003)" d="M2.828,0A2.828,2.828,0,1,1,-2.828,0A2.828,2.828,0,1,1,2.828,0" fill="#2563eb" stroke-width="2" opacity="1"/><path aria-label="p_groups: 0.325; p_value: 0.1067" role="graphics-symbol" aria-roledescription="point" transform="translate(195,285.856)" d="M2.828,0A2.828,2.828,0,1,1,-2.828,0A2.828,2.828,0,1,1,2.828,0" fill="#2563eb" stroke-width="2" opacity="1"/><path aria-label="p_groups: 0.345; p_value: 0.1173" role="graphics-symbol" aria-roledescription="point" transform="translate(206.99999999999997,282.464)" d="M2.828,0A2.828,2.828,0,1,1,-2.828,0A2.828,2.828,0,1,1,2.828,0" fill="#2563eb" stroke-width="2" opacity="1"/><path aria-label="p_groups: 0.365; p_value: 0.128" role="graphics-symbol" aria-roledescription="point" transform="translate(219,279.04)" d="M2.828,0A2.828,2.828,0,1,1,-2.828,0A2.828,2.828,0,1,1,2.828,0" fill="#2563eb" stroke-width="2" opacity="1"/><path aria-label="p_groups: 0.385; p_value: 0.1387" role="graphics-symbol" aria-roledescription="point" transform="translate(231,275.616)" d="M2.828,0A2.828,2.828,0,1,1,-2.828,0A2.828,2.828,0,1,1,2.828,0" fill="#2563eb" stroke-width="2" opacity="1"/><path aria-label="p_groups: 0.405; p_value: 0.1493" role="graphics-symbol" aria-roledescription="point" transform="translate(243.00000000000003,272.224)" d="M2.828,0A2.828,2.828,0,1,1,-2.828,0A2.828,2.828,0,1,1,2.828,0" fill="#2563eb" stroke-width="2" opacity="1"/><path aria-label="p_groups: 0.425; p_value: 0.16" role="graphics-symbol" aria-roledescription="point" transform="translate(255,268.8)" d="M2.828,0A2.828,2.828,0,1,1,-2.828,0A2.828,2.828,0,1,1,2.828,0" fill="#2563eb" stroke-width="2" opacity="1"/><path aria-label="p_groups: 0.445; p_value: 0.1707" role="graphics-symbol" aria-roledescription="point" transform="translate(267,265.37600000000003)" d="M2.828,0A2.828,2.828,0,1,1,-2.828,0A2.828,2.828,0,1,1,2.828,0" fill="#2563eb" stroke-width="2" opacity="1"/><path aria-label="p_groups: 0.465; p_value: 0.1813" role="graphics-symbol" aria-roledescription="point" transform="translate(279,261.984)" d="M2.828,0A2.828,2.828,0,1,1,-2.828,0A2.828,2.828,0,1,1,2.828,0" fill="#2563eb" stroke-width="2" opacity="1"/><path aria-label="p_groups: 0.485; p_value: 0.192" role="graphics-symbol" aria-roledescription="point" transform="translate(291,258.56)" d="M2.828,0A2.828,2.828,0,1,1,-2.828,0A2.828,2.828,0,1,1,2.828,0" fill="#2563eb" stroke-width="2" opacity="1"/><path aria-label="p_groups: 0.505; p_value: 0.2053" role="graphics-symbol" aria-roledescription="point" transform="translate(303,254.30399999999997)" d="M2.828,0A2.828,2.828,0,1,1,-2.828,0A2.828,2.828,0,1,1,2.828,0" fill="#2563eb" stroke-width="2" opacity="1"/><path aria-label="p_groups: 0.525; p_value: 0.2267" role="graphics-symbol" aria-roledescription="point" transform="translate(315,247.456)" d="M2.828,0A2.828,2.828,0,1,1,-2.828,0A2.828,2.828,0,1,1,2.828,0" fill="#2563eb" stroke-width="2" opacity="1"/><path aria-label="p_groups: 0.545; p_value: 0.248" role="graphics-symbol" aria-roledescription="point" transform="translate(327,240.64)" d="M2.828,0A2.828,2.828,0,1,1,-2.828,0A2.828,2.828,0,1,1,2.828,0" fill="#2563eb" stroke-width="2" opacity="1"/><path aria-label="p_groups: 0.565; p_value: 0.2693" role="graphics-symbol" aria-roledescription="point" transform="translate(338.99999999999994,233.824)" d="M2.828,0A2.828,2.828,0,1,1,-2.828,0A2.828,2.828,0,1,1,2.828,0" fill="#2563eb" stroke-width="2" opacity="1"/><path aria-label="p_groups: 0.585; p_value: 0.2907" role="graphics-symbol" aria-roledescription="point" transform="translate(351,226.976)" d="M2.828,0A2.828,2.828,0,1,1,-2.828,0A2.828,2.828,0,1,1,2.828,0" fill="#2563eb" stroke-width="2" opacity="1"/><path aria-label="p_groups: 0.605; p_value: 0.312" role="graphics-symbol" aria-roledescription="point" transform="translate(363,220.15999999999997)" d="M2.828,0A2.828,2.828,0,1,1,-2.828,0A2.828,2.828,0,1,1,2.828,0" fill="#2563eb" stroke-width="2" opacity="1"/><path aria-label="p_groups: 0.625; p_value: 0.3333" role="graphics-symbol" aria-roledescription="point" transform="translate(375,213.34400000000002)" d="M2.828,0A2.828,2.828,0,1,1,-2.828,0A2.828,2.828,0,1,1,2.828,0" fill="#2563eb" stroke-width="2" opacity="1"/><path aria-label="p_groups: 0.645; p_value: 0.3547" role="graphics-symbol" aria-roledescription="point" transform="translate(387,206.49599999999998)" d="M2.828,0A2.828,2.828,0,1,1,-2.828,0A2.828,2.828,0,1,1,2.828,0" fill="#2563eb" stroke-width="2" opacity="1"/><path aria-label="p_groups: 0.665; p_value: 0.376" role="graphics-symbol" aria-roledescription="point" transform="translate(399,199.68)" d="M2.828,0A2.828,2.828,0,1,1,-2.828,0A2.828,2.828,0,1,1,2.828,0" fill="#2563eb" stroke-width="2" opacity="1"/><path aria-label="p_groups: 0.685; p_value: 0.3973" role="graphics-symbol" aria-roledescription="point" transform="translate(411.00000000000006,192.864)" d="M2.828,0A2.828,2.828,0,1,1,-2.828,0A2.828,2.828,0,1,1,2.828,0" fill="#2563eb" stroke-width="2" opacity="1"/><path aria-label="p_groups: 0.705; p_value: 0.4187" role="graphics-symbol" aria-roledescription="point" transform="translate(423,186.01599999999996)" d="M2.828,0A2.828,2.828,0,1,1,-2.828,0A2.828,2.828,0,1,1,2.828,0" fill="#2563eb" stroke-width="2" opacity="1"/><path aria-label="p_groups: 0.725; p_value: 0.44" role="graphics-symbol" aria-roledescription="point" transform="translate(435,179.20000000000002)" d="M2.828,0A2.828,2.828,0,1,1,-2.828,0A2.828,2.828,0,1,1,2.828,0" fill="#2563eb" stroke-width="2" opacity="1"/><path aria-label="p_groups: 0.745; p_value: 0.4613" role="graphics-symbol" aria-roledescription="point" transform="translate(447,172.384)" d="M2.828,0A2.828,2.828,0,1,1,-2.828,0A2.828,2.828,0,1,1,2.828,0" fill="#2563eb" stroke-width="2" opacity="1"/><path aria-label="p_groups: 0.765; p_value: 0.4987" role="graphics-symbol" aria-roledescription="point" transform="translate(459,160.41600000000003)" d="M2.828,0A2.828,2.828,0,1,1,-2.828,0A2.828,2.828,0,1,1,2.828,0" fill="#2563eb" stroke-width="2" opacity="1"/><path aria-label="p_groups: 0.785; p_value: 0.5413" role="graphics-symbol" aria-roledescription="point" transform="translate(471,146.784)" d="M2.828,0A2.828,2.828,0,1,1,-2.828,0A2.828,2.828,0,1,1,2.828,0" fill="#2563eb" stroke-width="2" opacity="1"/><path aria-label="p_groups: 0.805; p_value: 0.584" role="graphics-symbol" aria-roledescription="point" transform="translate(483.00000000000006,133.12)" d="M2.828,0A2.828,2.828,0,1,1,-2.828,0A2.828,2.828,0,1,1,2.828,0" fill="#2563eb" stroke-width="2" opacity="1"/><path aria-label="p_groups: 0.825; p_value: 0.6267" role="graphics-symbol" aria-roledescription="point" transform="translate(495,119.45599999999999)" d="M2.828,0A2.828,2.828,0,1,1,-2.828,0A2.828,2.828,0,1,1,2.828,0" fill="#2563eb" stroke-width="2" opacity="1"/><path aria-label="p_groups: 0.845; p_value: 0.6693" role="graphics-symbol" aria-roledescription="point" transform="translate(507,105.824)" d="M2.828,0A2.828,2.828,0,1,1,-2.828,0A2.828,2.828,0,1,1,2.828,0" fill="#2563eb" stroke-width="2" opacity="1"/><path aria-label="p_groups: 0.865; p_value: 0.712" role="graphics-symbol" aria-roledescription="point" transform="translate(519,92.16000000000001)" d="M2.828,0A2.828,2.828,0,1,1,-2.828,0A2.828,2.828,0,1,1,2.828,0" fill="#2563eb" stroke-width="2" opacity="1"/><path aria-label="p_groups: 0.885; p_value: 0.7547" role="graphics-symbol" aria-roledescription="point" transform="translate(531,78.49599999999998)" d="M2.828,0A2.828,2.828,0,1,1,-2.828,0A2.828,2.828,0,1,1,2.828,0" fill="#2563eb" stroke-width="2" opacity="1"/><path aria-label="p_groups: 0.905; p_value: 0.7973" role="graphics-symbol" aria-roledescription="point" transform="translate(543,64.864)" d="M2.828,0A2.828,2.828,0,1,1,-2.828,0A2.828,2.828,0,1,1,2.828,0" fill="#2563eb" stroke-width="2" opacity="1"/><path aria-label="p_groups: 0.925; p_value: 0.84" role="graphics-symbol" aria-roledescription="point" transform="translate(555,51.20000000000001)" d="M2.828,0A2.828,2.828,0,1,1,-2.828,0A2.828,2.828,0,1,1,2.828,0" fill="#2563eb" stroke-width="2" opacity="1"/><path aria-label="p_groups: 0.945; p_value: 0.8827" role="graphics-symbol" aria-roledescription="point" transform="translate(567,37.53599999999999)" d="M2.828,0A2.828,2.828,0,1,1,-2.828,0A2.828,2.828,0,1,1,2.828,0" fill="#2563eb" stroke-width="2" opacity="1"/><path aria-label="p_groups: 0.965; p_value: 0.9253" role="graphics-symbol" aria-roledescription="point" transform="translate(579,23.903999999999996)" d="M2.828,0A2.828,2.828,0,1,1,-2.828,0A2.828,2.828,0,1,1,2.828,0" fill="#2563eb" stroke-width="2" opacity="1"/><path aria-label="p_groups: 0.985; p_value: 0.968" role="graphics-symbol" aria-roledescription="point" transform="translate(591,10.240000000000009)" d="M2.828,0A2.828,2.828,0,1,1,-2.828,0A2.828,2.828,0,1,1,2.828,0" fill="#2563eb" stroke-width="2" opacity="1"/><path aria-label="p_groups: 1; p_value: 1" role="graphics-symbol" aria-roledescription="point" transform="translate(600,0)" d="M2.828,0A2.828,2.828,0,1,1,-2.828,0A2.828,2.828,0,1,1,2.828,0" fill="#2563eb" stroke-width="2" opacity="1"/></g><g class="mark-group role-title"><g transform="translate(-70,-36)"><path class="background" aria-hidden="true" d="M0,0h0v0h0Z" pointer-events="none"/><g><g class="mark-text role-title-text" role="graphics-symbol" aria-roledescription="title" aria-label="Title text 'Lorenz curve'" pointer-events="none"><text text-anchor="start" transform="translate(0,11)" font-family="-apple-system, BlinkMacSystemFont, 'Segoe UI', system-ui, 'Helvetica Neue', 'Hiragino Sans', 'Hiragino Kaku Gothic ProN', 'Noto Sans CJK JP', sans-serif" font-size="14px" font-weight="600" fill="#0f172a" opacity="1">Lorenz curve</text></g></g><path class="foreground" aria-hidden="true" d="" pointer-events="none" display="none"/></g></g></g><path class="foreground" aria-hidden="true" d="" display="none"/></g></g></g></svg>