<svg xmlns="http://www.w3.org/2000/svg" xmlns:xlink="http://www.w3.org/1999/xlink" version="1.1" class="marks" width="657" height="379" viewBox="0 0 657 379"><rect width="657" height="379" fill="white"/><g fill="none" stroke-miterlimit="10" transform="translate(51,22)"><g class="mark-group role-frame root" role="graphics-object" aria-roledescription="group mark container"><g transform="translate(0,0)"><path class="background" aria-hidden="true" d="M0.5,0.5h600v320h-600Z" stroke="#ddd"/><g><g class="mark-group role-axis" aria-hidden="true"><g transform="translate(0.5,320.5)"><path class="background" aria-hidden="true" d="M0,0h0v0h0Z" pointer-events="none"/><g><g class="mark-rule role-axis-grid" pointer-events="none"><line transform="translate(0,-320)" x2="0" y2="320" stroke="#ddd" stroke-width="1" opacity="1"/><line transform="translate(46,-320)" x2="0" y2="320" stroke="#ddd" stroke-width="1" opacity="1"/><line transform="translate(92,-320)" x2="0" y2="320" stroke="#ddd" stroke-width="1" opacity="1"/><line transform="translate(138,-320)" x2="0" y2="320" stroke="#ddd" stroke-width="1" opacity="1"/><line transform="translate(185,-320)" x2="0" y2="320" stroke="#ddd" stroke-width="1" opacity="1"/><line transform="translate(231,-320)" x2="0" y2="320" stroke="#ddd" stroke-width="1" opacity="1"/><line transform="translate(277,-320)" x2="0" y2="320" stroke="#ddd" stroke-width="1" opacity="1"/><line transform="translate(323,-320)" x2="0" y2="320" stroke="#ddd" stroke-width="1" opacity="1"/><line transform="translate(369,-320)" x2="0" y2="320" stroke="#ddd" stroke-width="1" opacity="1"/><line transform="translate(415,-320)" x2="0" y2="320" stroke="#ddd" stroke-width="1" opacity="1"/><line transform="translate(462,-320)" x2="0" y2="320" stroke="#ddd" stroke-width="1" opacity="1"/><line transform="translate(508,-320)" x2="0" y2="320" stroke="#ddd" stroke-width="1" opacity="1"/><line transform="translate(554,-320)" x2="0" y2="320" stroke="#ddd" stroke-width="1" opacity="1"/><line transform="translate(600,-320)" x2="0" y2="320" stroke="#ddd" stroke-width="1" opacity="1"/></g></g><path class="foreground" aria-hidden="true" d="" pointer-events="none" display="none"/></g></g><g class="mark-group role-axis" aria-hidden="true"><g transform="translate(0.5,0.5)"><path class="background" aria-hidden="true" d="M0,0h0v0h0Z" pointer-events="none"/><g><g class="mark-rule role-axis-grid" pointer-events="none"><line transform="translate(0,320)" x2="600" y2="0" stroke="#ddd" stroke-width="1" opacity="1"/><line transform="translate(0,258)" x2="600" y2="0" stroke="#ddd" stroke-width="1" opacity="1"/><line transform="translate(0,197)" x2="600" y2="0" stroke="#ddd" stroke-width="1" opacity="1"/><line transform="translate(0,135)" x2="600" y2="0" stroke="#ddd" stroke-width="1" opacity="1"/><line transform="translate(0,74)" x2="600" y2="0" stroke="#ddd" stroke-width="1" opacity="1"/><line transform="translate(0,12)" x2="600" y2="0" stroke="#ddd" stroke-width="1" opacity="1"/></g></g><path class="foreground" aria-hidden="true" d="" pointer-events="none" display="none"/></g></g><g class="mark-group role-axis" role="graphics-symbol" aria-roledescription="axis" aria-label="X-axis titled 'rank' for a linear scale with values from 0 to 26"><g transform="translate(0.5,320.5)"><path class="background" aria-hidden="true" d="M0,0h0v0h0Z" pointer-events="none"/><g><g class="mark-rule role-axis-tick" pointer-events="none"><line transform="translate(0,0)" x2="0" y2="5" stroke="#888" stroke-width="1" opacity="1"/><line transform="translate(46,0)" x2="0" y2="5" stroke="#888" stroke-width="1" opacity="1"/><line transform="translate(92,0)" x2="0" y2="5" stroke="#888" stroke-width="1" opacity="1"/><line transform="translate(138,0)" x2="0" y2="5" stroke="#888" stroke-width="1" opacity="1"/><line transform="translate(185,0)" x2="0" y2="5" stroke="#888" stroke-width="1" opacity="1"/><line transform="translate(231,0)" x2="0" y2="5" stroke="#888" stroke-width="1" opacity="1"/><line transform="translate(277,0)" x2="0" y2="5" stroke="#888" stroke-width="1" opacity="1"/><line transform="translate(323,0)" x2="0" y2="5" stroke="#888" stroke-width="1" opacity="1"/><line transform="translate(369,0)" x2="0" y2="5" stroke="#888" stroke-width="1" opacity="1"/><line transform="translate(415,0)" x2="0" y2="5" stroke="#888" stroke-width="1" opacity="1"/><line transform="translate(462,0)" x2="0" y2="5" stroke="#888" stroke-width="1" opacity="1"/><line transform="translate(508,0)" x2="0" y2="5" stroke="#888" stroke-width="1" opacity="1"/><line transform="translate(554,0)" x2="0" y2="5" stroke="#888" stroke-width="1" opacity="1"/><line transform="translate(600,0)" x2="0" y2="5" stroke="#888" stroke-width="1" opacity="1"/></g><g class="mark-text role-axis-label" pointer-events="none"><text text-anchor="start" transform="translate(0,15)" font-family="sans-serif" font-size="10px" fill="#000" opacity="1">0</text><text text-anchor="middle" transform="translate(46.15384615384615,15)" font-family="sans-serif" font-size="10px" fill="#000" opacity="1">2</text><text text-anchor="middle" transform="translate(92.3076923076923,15)" font-family="sans-serif" font-size="10px" fill="#000" opacity="1">4</text><text text-anchor="middle" transform="translate(138.46153846153848,15)" font-family="sans-serif" font-size="10px" fill="#000" opacity="1">6</text><text text-anchor="middle" transform="translate(184.6153846153846,15)" font-family="sans-serif" font-size="10px" fill="#000" opacity="1">8</text><text text-anchor="middle" transform="translate(230.76923076923077,15)" font-family="sans-serif" font-size="10px" fill="#000" opacity="1">10</text><text text-anchor="middle" transform="translate(276.92307692307696,15)" font-family="sans-serif" font-size="10px" fill="#000" opacity="1">12</text><text text-anchor="middle" transform="translate(323.07692307692304,15)" font-family="sans-serif" font-size="10px" fill="#000" opacity="1">14</text><text text-anchor="middle" transform="translate(369.2307692307692,15)" font-family="sans-serif" font-size="10px" fill="#000" opacity="1">16</text><text text-anchor="middle" transform="translate(415.38461538461536,15)" font-family="sans-serif" font-size="10px" fill="#000" opacity="1">18</text><text text-anchor="middle" transform="translate(461.53846153846155,15)" font-family="sans-serif" font-size="10px" fill="#000" opacity="1">20</text><text text-anchor="middle" transform="translate(507.6923076923077,15)" font-family="sans-serif" font-size="10px" fill="#000" opacity="1">22</text><text text-anchor="middle" transform="translate(553.8461538461539,15)" font-family="sans-serif" font-size="10px" fill="#000" opacity="1">24</text><text text-anchor="end" transform="translate(600,15)" font-family="sans-serif" font-size="10px" fill="#000" opacity="1">26</text></g><g class="mark-rule role-axis-domain" pointer-events="none"><line transform="translate(0,0)" x2="600" y2="0" stroke="#888" stroke-width="1" opacity="1"/></g><g class="mark-text role-axis-title" pointer-events="none"><text text-anchor="middle" transform="translate(300,30)" font-family="sans-serif" font-size="11px" font-weight="bold" fill="#000" opacity="1">rank</text></g></g><path class="foreground" aria-hidden="true" d="" pointer-events="none" display="none"/></g></g><g class="mark-group role-axis" role="graphics-symbol" aria-roledescription="axis" aria-label="Y-axis titled 'tib' for a linear scale with values from 0.0 to 2.6"><g transform="translate(0.5,0.5)"><path class="background" aria-hidden="true" d="M0,0h0v0h0Z" pointer-events="none"/><g><g class="mark-rule role-axis-tick" pointer-events="none"><line transform="translate(0,320)" x2="-5" y2="0" stroke="#888" stroke-width="1" opacity="1"/><line transform="translate(0,258)" x2="-5" y2="0" stroke="#888" stroke-width="1" opacity="1"/><line transform="translate(0,197)" x2="-5" y2="0" stroke="#888" stroke-width="1" opacity="1"/><line transform="translate(0,135)" x2="-5" y2="0" stroke="#888" stroke-width="1" opacity="1"/><line transform="translate(0,74)" x2="-5" y2="0" stroke="#888" stroke-width="1" opacity="1"/><line transform="translate(0,12)" x2="-5" y2="0" stroke="#888" stroke-width="1" opacity="1"/></g><g class="mark-text role-axis-label" pointer-events="none"><text text-anchor="end" transform="translate(-7,323)" font-family="sans-serif" font-size="10px" fill="#000" opacity="1">0.0</text><text text-anchor="end" transform="translate(-7,261.46153846153845)" font-family="sans-serif" font-size="10px" fill="#000" opacity="1">0.5</text><text text-anchor="end" transform="translate(-7,199.92307692307693)" font-family="sans-serif" font-size="10px" fill="#000" opacity="1">1.0</text><text text-anchor="end" transform="translate(-7,138.38461538461542)" font-family="sans-serif" font-size="10px" fill="#000" opacity="1">1.5</text><text text-anchor="end" transform="translate(-7,76.84615384615387)" font-family="sans-serif" font-size="10px" fill="#000" opacity="1">2.0</text><text text-anchor="end" transform="translate(-7,15.307692307692335)" font-family="sans-serif" font-size="10px" fill="#000" opacity="1">2.5</text></g><g class="mark-rule role-axis-domain" pointer-events="none"><line transform="translate(0,320)" x2="0" y2="-320" stroke="#888" stroke-width="1" opacity="1"/></g><g class="mark-text role-axis-title" pointer-events="none"><text text-anchor="middle" transform="translate(-35,160) rotate(-90) translate(0,-2)" font-family="sans-serif" font-size="11px" font-weight="bold" fill="#000" opacity="1">tib</text></g></g><path class="foreground" aria-hidden="true" d="" pointer-events="none" display="none"/></g></g><g class="mark-rect role-mark marks" role="graphics-object" aria-roledescription="rect mark container"><path aria-label="rank: 1; tib: 2.5" role="graphics-symbol" aria-roledescription="bar" d="M20.576923076923077,12.307692307692335h5v307.6923076923077h-5Z" fill="#4c78a8"/><path aria-label="rank: 2; tib: 2.5" role="graphics-symbol" aria-roledescription="bar" d="M43.65384615384615,12.307692307692335h5v307.6923076923077h-5Z" fill="#4c78a8"/><path aria-label="rank: 3; tib: 2.5" role="graphics-symbol" aria-roledescription="bar" d="M66.73076923076924,12.307692307692335h5v307.6923076923077h-5Z" fill="#4c78a8"/><path aria-label="rank: 4; tib: 2.5" role="graphics-symbol" aria-roledescription="bar" d="M89.8076923076923,12.307692307692335h5v307.6923076923077h-5Z" fill="#4c78a8"/><path aria-label="rank: 5; tib: 2.5" role="graphics-symbol" aria-roledescription="bar" d="M112.88461538461539,12.307692307692335h5v307.6923076923077h-5Z" fill="#4c78a8"/><path aria-label="rank: 6; tib: 2.5" role="graphics-symbol" aria-roledescription="bar" d="M135.96153846153848,12.307692307692335h5v307.6923076923077h-5Z" fill="#4c78a8"/><path aria-label="rank: 7; tib: 2.5" role="graphics-symbol" aria-roledescription="bar" d="M159.03846153846152,12.307692307692335h5v307.6923076923077h-5Z" fill="#4c78a8"/><path aria-label="rank: 8; tib: 2.5" role="graphics-symbol" aria-roledescription="bar" d="M182.1153846153846,12.307692307692335h5v307.6923076923077h-5Z" fill="#4c78a8"/><path aria-label="rank: 9; tib: 2.5" role="graphics-symbol" aria-roledescription="bar" d="M205.19230769230768,12.307692307692335h5v307.6923076923077h-5Z" fill="#4c78a8"/><path aria-label="rank: 10; tib: 2.5" role="graphics-symbol" aria-roledescription="bar" d="M228.26923076923077,12.307692307692335h5v307.6923076923077h-5Z" fill="#4c78a8"/><path aria-label="rank: 11; tib: 2.5" role="graphics-symbol" aria-roledescription="bar" d="M251.34615384615384,12.307692307692335h5v307.6923076923077h-5Z" fill="#4c78a8"/><path aria-label="rank: 12; tib: 2.5" role="graphics-symbol" aria-roledescription="bar" d="M274.42307692307696,12.307692307692335h5v307.6923076923077h-5Z" fill="#4c78a8"/><path aria-label="rank: 13; tib: 2.5" role="graphics-symbol" aria-roledescription="bar" d="M297.5,12.307692307692335h5v307.6923076923077h-5Z" fill="#4c78a8"/><path aria-label="rank: 14; tib: 2.5" role="graphics-symbol" aria-roledescription="bar" d="M320.57692307692304,12.307692307692335h5v307.6923076923077h-5Z" fill="#4c78a8"/><path aria-label="rank: 15; tib: 2.5" role="graphics-symbol" aria-roledescription="bar" d="M343.65384615384613,12.307692307692335h5v307.6923076923077h-5Z" fill="#4c78a8"/><path aria-label="rank: 16; tib: 2.5" role="graphics-symbol" aria-roledescription="bar" d="M366.7307692307692,12.307692307692335h5v307.6923076923077h-5Z" fill="#4c78a8"/><path aria-label="rank: 17; tib: 2.5" role="graphics-symbol" aria-roledescription="bar" d="M389.8076923076923,12.307692307692335h5v307.6923076923077h-5Z" fill="#4c78a8"/><path aria-label="rank: 18; tib: 2.5" role="graphics-symbol" aria-roledescription="bar" d="M412.88461538461536,12.307692307692335h5v307.6923076923077h-5Z" fill="#4c78a8"/><path aria-label="rank: 19; tib: 2.5" role="graphics-symbol" aria-roledescription="bar" d="M435.96153846153845,12.307692307692335h5v307.6923076923077h-5Z" fill="#4c78a8"/><path aria-label="rank: 20; tib: 2.5" role="graphics-symbol" aria-roledescription="bar" d="M459.03846153846155,12.307692307692335h5v307.6923076923077h-5Z" fill="#4c78a8"/><path aria-label="rank: 21; tib: 2.5" role="graphics-symbol" aria-roledescription="bar" d="M482.11538461538464,12.307692307692335h5v307.6923076923077h-5Z" fill="#4c78a8"/><path aria-label="rank: 22; tib: 2.5" role="graphics-symbol" aria-roledescription="bar" d="M505.1923076923077,12.307692307692335h5v307.6923076923077h-5Z" fill="#4c78a8"/><path aria-label="rank: 23; tib: 2.5" role="graphics-symbol" aria-roledescription="bar" d="M528.2692307692307,12.307692307692335h5v307.6923076923077h-5Z" fill="#4c78a8"/><path aria-label="rank: 24; tib: 2.5" role="graphics-symbol" aria-roledescription="bar" d="M551.3461538461539,12.307692307692335h5v307.6923076923077h-5Z" fill="#4c78a8"/><path aria-label="rank: 25; tib: 2.5" role="graphics-symbol" aria-roledescription="bar" d="M574.4230769230769,12.307692307692335h5v307.6923076923077h-5Z" fill="#4c78a8"/></g><g class="mark-group role-title"><g transform="translate(300,-17)"><path class="background" aria-hidden="true" d="M0,0h0v0h0Z" pointer-events="none"/><g><g class="mark-text role-title-text" role="graphics-symbol" aria-roledescription="title" aria-label="Title text 'Top 25 storage providers (TiB)'" pointer-events="none"><text text-anchor="middle" transform="translate(0,10)" font-family="sans-serif" font-size="13px" font-weight="bold" fill="#000" opacity="1">Top 25 storage providers (TiB)</text></g></g><path class="foreground" aria-hidden="true" d="" pointer-events="none" display="none"/></g></g></g><path class="foreground" aria-hidden="true" d="" display="none"/></g></g></g></svg>