<svg xmlns="http://www.w3.org/2000/svg" xmlns:xlink="http://www.w3.org/1999/xlink" version="1.1" class="marks" width="699" height="418" viewBox="0 0 699 418"><g fill="none" stroke-miterlimit="10" transform="translate(82,42)"><g class="mark-group role-frame root" role="graphics-object" aria-roledescription="group mark container"><g transform="translate(0,0)"><path class="background" aria-hidden="true" d="M0.5,0.5h600v320h-600Z"/><g><g class="mark-group role-axis" aria-hidden="true"><g transform="translate(0.5,320.5)"><path class="background" aria-hidden="true" d="M0,0h0v0h0Z" pointer-events="none"/><g><g class="mark-rule role-axis-grid" pointer-events="none"><line transform="translate(0,-320)" x2="0" y2="320" stroke="#eef0f4" stroke-width="0.8" stroke-dasharray="2,4" opacity="1"/><line transform="translate(46,-320)" x2="0" y2="320" stroke="#eef0f4" stroke-width="0.8" stroke-dasharray="2,4" opacity="1"/><line transform="translate(92,-320)" x2="0" y2="320" stroke="#eef0f4" stroke-width="0.8" stroke-dasharray="2,4" opacity="1"/><line transform="translate(138,-320)" x2="0" y2="320" stroke="#eef0f4" stroke-width="0.8" stroke-dasharray="2,4" opacity="1"/><line transform="translate(185,-320)" x2="0" y2="320" stroke="#eef0f4" stroke-width="0.8" stroke-dasharray="2,4" opacity="1"/><line transform="translate(231,-320)" x2="0" y2="320" stroke="#eef0f4" stroke-width="0.8" stroke-dasharray="2,4" opacity="1"/><line transform="translate(277,-320)" x2="0" y2="320" stroke="#eef0f4" stroke-width="0.8" stroke-dasharray="2,4" opacity="1"/><line transform="translate(323,-320)" x2="0" y2="320" stroke="#eef0f4" stroke-width="0.8" stroke-dasharray="2,4" opacity="1"/><line transform="translate(369,-320)" x2="0" y2="320" stroke="#eef0f4" stroke-width="0.8" stroke-dasharray="2,4" opacity="1"/><line transform="translate(415,-320)" x2="0" y2="320" stroke="#eef0f4" stroke-width="0.8" stroke-dasharray="2,4" opacity="1"/><line transform="translate(462,-320)" x2="0" y2="320" stroke="#eef0f4" stroke-width="0.8" stroke-dasharray="2,4" opacity="1"/><line transform="translate(508,-320)" x2="0" y2="320" stroke="#eef0f4" stroke-width="0.8" stroke-dasharray="2,4" opacity="1"/><line transform="translate(554,-320)" x2="0" y2="320" stroke="#eef0f4" stroke-width="0.8" stroke-dasharray="2,4" opacity="1"/><line transform="translate(600,-320)" x2="0" y2="320" stroke="#eef0f4" stroke-width="0.8" stroke-dasharray="2,4" opacity="1"/></g></g><path class="foreground" aria-hidden="true" d="" pointer-events="none" display="none"/></g></g><g class="mark-group role-axis" aria-hidden="true"><g transform="translate(0.5,0.5)"><path class="background" aria-hidden="true" d="M0,0h0v0h0Z" pointer-events="none"/><g><g class="mark-rule role-axis-grid" pointer-events="none"><line transform="translate(0,320)" x2="600" y2="0" stroke="#eef0f4" stroke-width="0.8" stroke-dasharray="2,4" opacity="1"/><line transform="translate(0,258)" x2="600" y2="0" stroke="#eef0f4" stroke-width="0.8" stroke-dasharray="2,4" opacity="1"/><line transform="translate(0,197)" x2="600" y2="0" stroke="#eef0f4" stroke-width="0.8" stroke-dasharray="2,4" opacity="1"/><line transform="translate(0,135)" x2="600" y2="0" stroke="#eef0f4" stroke-width="0.8" stroke-dasharray="2,4" opacity="1"/><line transform="translate(0,74)" x2="600" y2="0" stroke="#eef0f4" stroke-width="0.8" stroke-dasharray="2,4" opacity="1"/><line transform="translate(0,12)" x2="600" y2="0" stroke="#eef0f4" stroke-width="0.8" stroke-dasharray="2,4" opacity="1"/></g></g><path class="foreground" aria-hidden="true" d="" pointer-events="none" display="none"/></g></g><g class="mark-group role-axis" role="graphics-symbol" aria-roledescription="axis" aria-label="X-axis titled 'rank' for a linear scale with values from 0 to 26"><g transform="translate(0.5,320.5)"><path class="background" aria-hidden="true" d="M0,0h0v0h0Z" pointer-events="none"/><g><g class="mark-rule role-axis-tick" pointer-events="none"><line transform="translate(0,0)" x2="0" y2="4" stroke="#e2e6ee" stroke-width="1" opacity="1"/><line transform="translate(46,0)" x2="0" y2="4" stroke="#e2e6ee" stroke-width="1" opacity="1"/><line transform="translate(92,0)" x2="0" y2="4" stroke="#e2e6ee" stroke-width="1" opacity="1"/><line transform="translate(138,0)" x2="0" y2="4" stroke="#e2e6ee" stroke-width="1" opacity="1"/><line transform="translate(185,0)" x2="0" y2="4" stroke="#e2e6ee" stroke-width="1" opacity="1"/><line transform="translate(231,0)" x2="0" y2="4" stroke="#e2e6ee" stroke-width="1" opacity="1"/><line transform="translate(277,0)" x2="0" y2="4" stroke="#e2e6ee" stroke-width="1" opacity="1"/><line transform="translate(323,0)" x2="0" y2="4" stroke="#e2e6ee" stroke-width="1" opacity="1"/><line transform="translate(369,0)" x2="0" y2="4" stroke="#e2e6ee" stroke-width="1" opacity="1"/><line transform="translate(415,0)" x2="0" y2="4" stroke="#e2e6ee" stroke-width="1" opacity="1"/><line transform="translate(462,0)" x2="0" y2="4" stroke="#e2e6ee" stroke-width="1" opacity="1"/><line transform="translate(508,0)" x2="0" y2="4" stroke="#e2e6ee" stroke-width="1" opacity="1"/><line transform="translate(554,0)" x2="0" y2="4" stroke="#e2e6ee" stroke-width="1" opacity="1"/><line transform="translate(600,0)" x2="0" y2="4" stroke="#e2e6ee" stroke-width="1" opacity="1"/></g><g class="mark-text role-axis-label" pointer-events="none"><text text-anchor="start" transform="translate(0,19)" font-family="'SF Mono', Menlo, Consolas, 'Liberation Mono', monospace" font-size="11px" fill="#64748b" opacity="1">0</text><text text-anchor="middle" transform="translate(46.15384615384615,19)" font-family="'SF Mono', Menlo, Consolas, 'Liberation Mono', monospace" font-size="11px" fill="#64748b" opacity="1">2</text><text text-anchor="middle" transform="translate(92.3076923076923,19)" font-family="'SF Mono', Menlo, Consolas, 'Liberation Mono', monospace" font-size="11px" fill="#64748b" opacity="1">4</text><text text-anchor="middle" transform="translate(138.46153846153848,19)" font-family="'SF Mono', Menlo, Consolas, 'Liberation Mono', monospace" font-size="11px" fill="#64748b" opacity="1">6</text><text text-anchor="middle" transform="translate(184.6153846153846,19)" font-family="'SF Mono', Menlo, Consolas, 'Liberation Mono', monospace" font-size="11px" fill="#64748b" opacity="1">8</text><text text-anchor="middle" transform="translate(230.76923076923077,19)" font-family="'SF Mono', Menlo, Consolas, 'Liberation Mono', monospace" font-size="11px" fill="#64748b" opacity="1">10</text><text text-anchor="middle" transform="translate(276.92307692307696,19)" font-family="'SF Mono', Menlo, Consolas, 'Liberation Mono', monospace" font-size="11px" fill="#64748b" opacity="1">12</text><text text-anchor="middle" transform="translate(323.07692307692304,19)" font-family="'SF Mono', Menlo, Consolas, 'Liberation Mono', monospace" font-size="11px" fill="#64748b" opacity="1">14</text><text text-anchor="middle" transform="translate(369.2307692307692,19)" font-family="'SF Mono', Menlo, Consolas, 'Liberation Mono', monospace" font-size="11px" fill="#64748b" opacity="1">16</text><text text-anchor="middle" transform="translate(415.38461538461536,19)" font-family="'SF Mono', Menlo, Consolas, 'Liberation Mono', monospace" font-size="11px" fill="#64748b" opacity="1">18</text><text text-anchor="middle" transform="translate(461.53846153846155,19)" font-family="'SF Mono', Menlo, Consolas, 'Liberation Mono', monospace" font-size="11px" fill="#64748b" opacity="1">20</text><text text-anchor="middle" transform="translate(507.6923076923077,19)" font-family="'SF Mono', Menlo, Consolas, 'Liberation Mono', monospace" font-size="11px" fill="#64748b" opacity="1">22</text><text text-anchor="middle" transform="translate(553.8461538461539,19)" font-family="'SF Mono', Menlo, Consolas, 'Liberation Mono', monospace" font-size="11px" fill="#64748b" opacity="1">24</text><text text-anchor="end" transform="translate(600,19)" font-family="'SF Mono', Menlo, Consolas, 'Liberation Mono', monospace" font-size="11px" fill="#64748b" opacity="1">26</text></g><g class="mark-text role-axis-title" pointer-events="none"><text text-anchor="middle" transform="translate(300,42)" font-family="-apple-system, BlinkMacSystemFont, 'Segoe UI', system-ui, 'Helvetica Neue', 'Hiragino Sans', 'Hiragino Kaku Gothic ProN', 'Noto Sans CJK JP', sans-serif" font-size="12px" font-weight="600" fill="#0f172a" opacity="1">rank</text></g></g><path class="foreground" aria-hidden="true" d="" pointer-events="none" display="none"/></g></g><g class="mark-group role-axis" role="graphics-symbol" aria-roledescription="axis" aria-label="Y-axis titled 'tib' for a linear scale with values from 0.0 to 2.6"><g transform="translate(0.5,0.5)"><path class="background" aria-hidden="true" d="M0,0h0v0h0Z" pointer-events="none"/><g><g class="mark-rule role-axis-tick" pointer-events="none"><line transform="translate(0,320)" x2="-4" y2="0" stroke="#e2e6ee" stroke-width="1" opacity="1"/><line transform="translate(0,258)" x2="-4" y2="0" stroke="#e2e6ee" stroke-width="1" opacity="1"/><line transform="translate(0,197)" x2="-4" y2="0" stroke="#e2e6ee" stroke-width="1" opacity="1"/><line transform="translate(0,135)" x2="-4" y2="0" stroke="#e2e6ee" stroke-width="1" opacity="1"/><line transform="translate(0,74)" x2="-4" y2="0" stroke="#e2e6ee" stroke-width="1" opacity="1"/><line transform="translate(0,12)" x2="-4" y2="0" stroke="#e2e6ee" stroke-width="1" opacity="1"/></g><g class="mark-text role-axis-label" pointer-events="none"><text text-anchor="end" transform="translate(-10,323)" font-family="'SF Mono', Menlo, Consolas, 'Liberation Mono', monospace" font-size="11px" fill="#64748b" opacity="1">0</text><text text-anchor="end" transform="translate(-10,261.46153846153845)" font-family="'SF Mono', Menlo, Consolas, 'Liberation Mono', monospace" font-size="11px" fill="#64748b" opacity="1">500m</text><text text-anchor="end" transform="translate(-10,199.92307692307693)" font-family="'SF Mono', Menlo, Consolas, 'Liberation Mono', monospace" font-size="11px" fill="#64748b" opacity="1">1</text><text text-anchor="end" transform="translate(-10,138.38461538461542)" font-family="'SF Mono', Menlo, Consolas, 'Liberation Mono', monospace" font-size="11px" fill="#64748b" opacity="1">1.5</text><text text-anchor="end" transform="translate(-10,76.84615384615387)" font-family="'SF Mono', Menlo, Consolas, 'Liberation Mono', monospace" font-size="11px" fill="#64748b" opacity="1">2</text><text text-anchor="end" transform="translate(-10,15.307692307692335)" font-family="'SF Mono', Menlo, Consolas, 'Liberation Mono', monospace" font-size="11px" fill="#64748b" opacity="1">2.5</text></g><g class="mark-text role-axis-title" pointer-events="none"><text text-anchor="middle" transform="translate(-57,160) rotate(-90) translate(0,-3)" font-family="-apple-system, BlinkMacSystemFont, 'Segoe UI', system-ui, 'Helvetica Neue', 'Hiragino Sans', 'Hiragino Kaku Gothic ProN', 'Noto Sans CJK JP', sans-serif" font-size="12px" font-weight="600" fill="#0f172a" opacity="1">tib</text></g></g><path class="foreground" aria-hidden="true" d="" pointer-events="none" display="none"/></g></g><g class="mark-group role-scope" role="graphics-object" aria-roledescription="group mark container"><g transform="translate(20.576923076923077,12.307692307692335)"><path class="background" aria-hidden="true" d="M2.5,0L2.5,0C3.879787561235,0,5,1.120212438765,5,2.5L5,307.6923076923077C5,307.6923076923077,5,307.6923076923077,5,307.6923076923077L0,307.6923076923077C0,307.6923076923077,0,307.6923076923077,0,307.6923076923077L0,2.5C0,1.120212438765,1.120212438765,0,2.5,0Z"/><g clip-path="url(#clip1)"><g class="mark-group role-scope" role="graphics-object" aria-roledescription="group mark container"><g transform="translate(0,-12.307692307692335)"><path class="background" aria-hidden="true" d="M0,0h5v0h-5Z"/><g><g class="mark-rect role-mark marks" role="graphics-object" aria-roledescription="rect mark container"><path aria-label="rank: 1; tib: 2.5" role="graphics-symbol" aria-roledescription="bar" d="M0,12.307692307692335h5v307.6923076923077h-5Z" fill="#2563eb"/></g></g><path class="foreground" aria-hidden="true" d="" display="none"/></g></g></g><path class="foreground" aria-hidden="true" d="" display="none"/></g><g transform="translate(43.65384615384615,12.307692307692335)"><path class="background" aria-hidden="true" d="M2.5,0L2.5,0C3.879787561235,0,5,1.120212438765,5,2.5L5,307.6923076923077C5,307.6923076923077,5,307.6923076923077,5,307.6923076923077L0,307.6923076923077C0,307.6923076923077,0,307.6923076923077,0,307.6923076923077L0,2.5C0,1.120212438765,1.120212438765,0,2.5,0Z"/><g clip-path="url(#clip2)"><g class="mark-group role-scope" role="graphics-object" aria-roledescription="group mark container"><g transform="translate(0,-12.307692307692335)"><path class="background" aria-hidden="true" d="M0,0h5v0h-5Z"/><g><g class="mark-rect role-mark marks" role="graphics-object" aria-roledescription="rect mark container"><path aria-label="rank: 2; tib: 2.5" role="graphics-symbol" aria-roledescription="bar" d="M0,12.307692307692335h5v307.6923076923077h-5Z" fill="#2563eb"/></g></g><path class="foreground" aria-hidden="true" d="" display="none"/></g></g></g><path class="foreground" aria-hidden="true" d="" display="none"/></g><g transform="translate(66.73076923076924,12.307692307692335)"><path class="background" aria-hidden="true" d="M2.5,0L2.5,0C3.879787561235,0,5,1.120212438765,5,2.5L5,307.6923076923077C5,307.6923076923077,5,307.6923076923077,5,307.6923076923077L0,307.6923076923077C0,307.6923076923077,0,307.6923076923077,0,307.6923076923077L0,2.5C0,1.120212438765,1.120212438765,0,2.5,0Z"/><g clip-path="url(#clip3)"><g class="mark-group role-scope" role="graphics-object" aria-roledescription="group mark container"><g transform="translate(0,-12.307692307692335)"><path class="background" aria-hidden="true" d="M0,0h5v0h-5Z"/><g><g class="mark-rect role-mark marks" role="graphics-object" aria-roledescription="rect mark container"><path aria-label="rank: 3; tib: 2.5" role="graphics-symbol" aria-roledescription="bar" d="M0,12.307692307692335h5v307.6923076923077h-5Z" fill="#2563eb"/></g></g><path class="foreground" aria-hidden="true" d="" display="none"/></g></g></g><path class="foreground" aria-hidden="true" d="" display="none"/></g><g transform="translate(89.8076923076923,12.307692307692335)"><path class="background" aria-hidden="true" d="M2.5,0L2.5,0C3.879787561235,0,5,1.120212438765,5,2.5L5,307.6923076923077C5,307.6923076923077,5,307.6923076923077,5,307.6923076923077L0,307.6923076923077C0,307.6923076923077,0,307.6923076923077,0,307.6923076923077L0,2.5C0,1.120212438765,1.120212438765,0,2.5,0Z"/><g clip-path="url(#clip4)"><g class="mark-group role-scope" role="graphics-object" aria-roledescription="group mark container"><g transform="translate(0,-12.307692307692335)"><path class="background" aria-hidden="true" d="M0,0h5v0h-5Z"/><g><g class="mark-rect role-mark marks" role="graphics-object" aria-roledescription="rect mark container"><path aria-label="rank: 4; tib: 2.5" role="graphics-symbol" aria-roledescription="bar" d="M0,12.307692307692335h5v307.6923076923077h-5Z" fill="#2563eb"/></g></g><path class="foreground" aria-hidden="true" d="" display="none"/></g></g></g><path class="foreground" aria-hidden="true" d="" display="none"/></g><g transform="translate(112.88461538461539,12.307692307692335)"><path class="background" aria-hidden="true" d="M2.5,0L2.5,0C3.879787561235,0,5,1.120212438765,5,2.5L5,307.6923076923077C5,307.6923076923077,5,307.6923076923077,5,307.6923076923077L0,307.6923076923077C0,307.6923076923077,0,307.6923076923077,0,307.6923076923077L0,2.5C0,1.120212438765,1.120212438765,0,2.5,0Z"/><g clip-path="url(#clip5)"><g class="mark-group role-scope" role="graphics-object" aria-roledescription="group mark container"><g transform="translate(0,-12.307692307692335)"><path class="background" aria-hidden="true" d="M0,0h5v0h-5Z"/><g><g class="mark-rect role-mark marks" role="graphics-object" aria-roledescription="rect mark container"><path aria-label="rank: 5; tib: 2.5" role="graphics-symbol" aria-roledescription="bar" d="M0,12.307692307692335h5v307.6923076923077h-5Z" fill="#2563eb"/></g></g><path class="foreground" aria-hidden="true" d="" display="none"/></g></g></g><path class="foreground" aria-hidden="true" d="" display="none"/></g><g transform="translate(135.96153846153848,12.307692307692335)"><path class="background" aria-hidden="true" d="M2.5,0L2.5,0C3.879787561235,0,5,1.120212438765,5,2.5L5,307.6923076923077C5,307.6923076923077,5,307.6923076923077,5,307.6923076923077L0,307.6923076923077C0,307.6923076923077,0,307.6923076923077,0,307.6923076923077L0,2.5C0,1.120212438765,1.120212438765,0,2.5,0Z"/><g clip-path="url(#clip6)"><g class="mark-group role-scope" role="graphics-object" aria-roledescription="group mark container"><g transform="translate(0,-12.307692307692335)"><path class="background" aria-hidden="true" d="M0,0h5v0h-5Z"/><g><g class="mark-rect role-mark marks" role="graphics-object" aria-roledescription="rect mark container"><path aria-label="rank: 6; tib: 2.5" role="graphics-symbol" aria-roledescription="bar" d="M0,12.307692307692335h5v307.6923076923077h-5Z" fill="#2563eb"/></g></g><path class="foreground" aria-hidden="true" d="" display="none"/></g></g></g><path class="foreground" aria-hidden="true" d="" display="none"/></g><g transform="translate(159.03846153846152,12.307692307692335)"><path class="background" aria-hidden="true" d="M2.5,0L2.5,0C3.879787561235,0,5,1.120212438765,5,2.5L5,307.6923076923077C5,307.6923076923077,5,307.6923076923077,5,307.6923076923077L0,307.6923076923077C0,307.6923076923077,0,307.6923076923077,0,307.6923076923077L0,2.5C0,1.120212438765,1.120212438765,0,2.5,0Z"/><g clip-path="url(#clip7)"><g class="mark-group role-scope" role="graphics-object" aria-roledescription="group mark container"><g transform="translate(0,-12.307692307692335)"><path class="background" aria-hidden="true" d="M0,0h5v0h-5Z"/><g><g class="mark-rect role-mark marks" role="graphics-object" aria-roledescription="rect mark container"><path aria-label="rank: 7; tib: 2.5" role="graphics-symbol" aria-roledescription="bar" d="M0,12.307692307692335h5v307.6923076923077h-5Z" fill="#2563eb"/></g></g><path class="foreground" aria-hidden="true" d="" display="none"/></g></g></g><path class="foreground" aria-hidden="true" d="" display="none"/></g><g transform="translate(182.1153846153846,12.307692307692335)"><path class="background" aria-hidden="true" d="M2.5,0L2.5,0C3.879787561235,0,5,1.120212438765,5,2.5L5,307.6923076923077C5,307.6923076923077,5,307.6923076923077,5,307.6923076923077L0,307.6923076923077C0,307.6923076923077,0,307.6923076923077,0,307.6923076923077L0,2.5C0,1.120212438765,1.120212438765,0,2.5,0Z"/><g clip-path="url(#clip8)"><g class="mark-group role-scope" role="graphics-object" aria-roledescription="group mark container"><g transform="translate(0,-12.307692307692335)"><path class="background" aria-hidden="true" d="M0,0h5v0h-5Z"/><g><g class="mark-rect role-mark marks" role="graphics-object" aria-roledescription="rect mark container"><path aria-label="rank: 8; tib: 2.5" role="graphics-symbol" aria-roledescription="bar" d="M0,12.307692307692335h5v307.6923076923077h-5Z" fill="#2563eb"/></g></g><path class="foreground" aria-hidden="true" d="" display="none"/></g></g></g><path class="foreground" aria-hidden="true" d="" display="none"/></g><g transform="translate(205.19230769230768,12.307692307692335)"><path class="background" aria-hidden="true" d="M2.5,0L2.5,0C3.879787561235,0,5,1.120212438765,5,2.5L5,307.6923076923077C5,307.6923076923077,5,307.6923076923077,5,307.6923076923077L0,307.6923076923077C0,307.6923076923077,0,307.6923076923077,0,307.6923076923077L0,2.5C0,1.120212438765,1.120212438765,0,2.5,0Z"/><g clip-path="url(#clip9)"><g class="mark-group role-scope" role="graphics-object" aria-roledescription="group mark container"><g transform="translate(0,-12.307692307692335)"><path class="background" aria-hidden="true" d="M0,0h5v0h-5Z"/><g><g class="mark-rect role-mark marks" role="graphics-object" aria-roledescription="rect mark container"><path aria-label="rank: 9; tib: 2.5" role="graphics-symbol" aria-roledescription="bar" d="M0,12.307692307692335h5v307.6923076923077h-5Z" fill="#2563eb"/></g></g><path class="foreground" aria-hidden="true" d="" display="none"/></g></g></g><path class="foreground" aria-hidden="true" d="" display="none"/></g><g transform="translate(228.26923076923077,12.307692307692335)"><path class="background" aria-hidden="true" d="M2.5,0L2.5,0C3.879787561235,0,5,1.120212438765,5,2.5L5,307.6923076923077C5,307.6923076923077,5,307.6923076923077,5,307.6923076923077L0,307.6923076923077C0,307.6923076923077,0,307.6923076923077,0,307.6923076923077L0,2.5C0,1.120212438765,1.120212438765,0,2.5,0Z"/><g clip-path="url(#clip10)"><g class="mark-group role-scope" role="graphics-object" aria-roledescription="group mark container"><g transform="translate(0,-12.307692307692335)"><path class="background" aria-hidden="true" d="M0,0h5v0h-5Z"/><g><g class="mark-rect role-mark marks" role="graphics-object" aria-roledescription="rect mark container"><path aria-label="rank: 10; tib: 2.5" role="graphics-symbol" aria-roledescription="bar" d="M0,12.307692307692335h5v307.6923076923077h-5Z" fill="#2563eb"/></g></g><path class="foreground" aria-hidden="true" d="" display="none"/></g></g></g><path class="foreground" aria-hidden="true" d="" display="none"/></g><g transform="translate(251.34615384615384,12.307692307692335)"><path class="background" aria-hidden="true" d="M2.5,0L2.5,0C3.879787561235,0,5,1.120212438765,5,2.5L5,307.6923076923077C5,307.6923076923077,5,307.6923076923077,5,307.6923076923077L0,307.6923076923077C0,307.6923076923077,0,307.6923076923077,0,307.6923076923077L0,2.5C0,1.120212438765,1.120212438765,0,2.5,0Z"/><g clip-path="url(#clip11)"><g class="mark-group role-scope" role="graphics-object" aria-roledescription="group mark container"><g transform="translate(0,-12.307692307692335)"><path class="background" aria-hidden="true" d="M0,0h5v0h-5Z"/><g><g class="mark-rect role-mark marks" role="graphics-object" aria-roledescription="rect mark container"><path aria-label="rank: 11; tib: 2.5" role="graphics-symbol" aria-roledescription="bar" d="M0,12.307692307692335h5v307.6923076923077h-5Z" fill="#2563eb"/></g></g><path class="foreground" aria-hidden="true" d="" display="none"/></g></g></g><path class="foreground" aria-hidden="true" d="" display="none"/></g><g transform="translate(274.42307692307696,12.307692307692335)"><path class="background" aria-hidden="true" d="M2.5,0L2.5,0C3.879787561235,0,5,1.120212438765,5,2.5L5,307.6923076923077C5,307.6923076923077,5,307.6923076923077,5,307.6923076923077L0,307.6923076923077C0,307.6923076923077,0,307.6923076923077,0,307.6923076923077L0,2.5C0,1.120212438765,1.120212438765,0,2.5,0Z"/><g clip-path="url(#clip12)"><g class="mark-group role-scope" role="graphics-object" aria-roledescription="group mark container"><g transform="translate(0,-12.307692307692335)"><path class="background" aria-hidden="true" d="M0,0h5v0h-5Z"/><g><g class="mark-rect role-mark marks" role="graphics-object" aria-roledescription="rect mark container"><path aria-label="rank: 12; tib: 2.5" role="graphics-symbol" aria-roledescription="bar" d="M0,12.307692307692335h5v307.6923076923077h-5Z" fill="#2563eb"/></g></g><path class="foreground" aria-hidden="true" d="" display="none"/></g></g></g><path class="foreground" aria-hidden="true" d="" display="none"/></g><g transform="translate(297.5,12.307692307692335)"><path class="background" aria-hidden="true" d="M2.5,0L2.5,0C3.879787561235,0,5,1.120212438765,5,2.5L5,307.6923076923077C5,307.6923076923077,5,307.6923076923077,5,307.6923076923077L0,307.6923076923077C0,307.6923076923077,0,307.6923076923077,0,307.6923076923077L0,2.5C0,1.120212438765,1.120212438765,0,2.5,0Z"/><g clip-path="url(#clip13)"><g class="mark-group role-scope" role="graphics-object" aria-roledescription="group mark container"><g transform="translate(0,-12.307692307692335)"><path class="background" aria-hidden="true" d="M0,0h5v0h-5Z"/><g><g class="mark-rect role-mark marks" role="graphics-object" aria-roledescription="rect mark container"><path aria-label="rank: 13; tib: 2.5" role="graphics-symbol" aria-roledescription="bar" d="M0,12.307692307692335h5v307.6923076923077h-5Z" fill="#2563eb"/></g></g><path class="foreground" aria-hidden="true" d="" display="none"/></g></g></g><path class="foreground" aria-hidden="true" d="" display="none"/></g><g transform="translate(320.57692307692304,12.307692307692335)"><path class="background" aria-hidden="true" d="M2.5,0L2.5,0C3.879787561235,0,5,1.120212438765,5,2.5L5,307.6923076923077C5,307.6923076923077,5,307.6923076923077,5,307.6923076923077L0,307.6923076923077C0,307.6923076923077,0,307.6923076923077,0,307.6923076923077L0,2.5C0,1.120212438765,1.120212438765,0,2.5,0Z"/><g clip-path="url(#clip14)"><g class="mark-group role-scope" role="graphics-object" aria-roledescription="group mark container"><g transform="translate(0,-12.307692307692335)"><path class="background" aria-hidden="true" d="M0,0h5v0h-5Z"/><g><g class="mark-rect role-mark marks" role="graphics-object" aria-roledescription="rect mark container"><path aria-label="rank: 14; tib: 2.5" role="graphics-symbol" aria-roledescription="bar" d="M0,12.307692307692335h5v307.6923076923077h-5Z" fill="#2563eb"/></g></g><path class="foreground" aria-hidden="true" d="" display="none"/></g></g></g><path class="foreground" aria-hidden="true" d="" display="none"/></g><g transform="translate(343.65384615384613,12.307692307692335)"><path class="background" aria-hidden="true" d="M2.5,0L2.5,0C3.879787561235,0,5,1.120212438765,5,2.5L5,307.6923076923077C5,307.6923076923077,5,307.6923076923077,5,307.6923076923077L0,307.6923076923077C0,307.6923076923077,0,307.6923076923077,0,307.6923076923077L0,2.5C0,1.120212438765,1.120212438765,0,2.5,0Z"/><g clip-path="url(#clip15)"><g class="mark-group role-scope" role="graphics-object" aria-roledescription="group mark container"><g transform="translate(0,-12.307692307692335)"><path class="background" aria-hidden="true" d="M0,0h5v0h-5Z"/><g><g class="mark-rect role-mark marks" role="graphics-object" aria-roledescription="rect mark container"><path aria-label="rank: 15; tib: 2.5" role="graphics-symbol" aria-roledescription="bar" d="M0,12.307692307692335h5v307.6923076923077h-5Z" fill="#2563eb"/></g></g><path class="foreground" aria-hidden="true" d="" display="none"/></g></g></g><path class="foreground" aria-hidden="true" d="" display="none"/></g><g transform="translate(366.7307692307692,12.307692307692335)"><path class="background" aria-hidden="true" d="M2.5,0L2.5,0C3.879787561235,0,5,1.120212438765,5,2.5L5,307.6923076923077C5,307.6923076923077,5,307.6923076923077,5,307.6923076923077L0,307.6923076923077C0,307.6923076923077,0,307.6923076923077,0,307.6923076923077L0,2.5C0,1.120212438765,1.120212438765,0,2.5,0Z"/><g clip-path="url(#clip16)"><g class="mark-group role-scope" role="graphics-object" aria-roledescription="group mark container"><g transform="translate(0,-12.307692307692335)"><path class="background" aria-hidden="true" d="M0,0h5v0h-5Z"/><g><g class="mark-rect role-mark marks" role="graphics-object" aria-roledescription="rect mark container"><path aria-label="rank: 16; tib: 2.5" role="graphics-symbol" aria-roledescription="bar" d="M0,12.307692307692335h5v307.6923076923077h-5Z" fill="#2563eb"/></g></g><path class="foreground" aria-hidden="true" d="" display="none"/></g></g></g><path class="foreground" aria-hidden="true" d="" display="none"/></g><g transform="translate(389.8076923076923,12.307692307692335)"><path class="background" aria-hidden="true" d="M2.5,0L2.5,0C3.879787561235,0,5,1.120212438765,5,2.5L5,307.6923076923077C5,307.6923076923077,5,307.6923076923077,5,307.6923076923077L0,307.6923076923077C0,307.6923076923077,0,307.6923076923077,0,307.6923076923077L0,2.5C0,1.120212438765,1.120212438765,0,2.5,0Z"/><g clip-path="url(#clip17)"><g class="mark-group role-scope" role="graphics-object" aria-roledescription="group mark container"><g transform="translate(0,-12.307692307692335)"><path class="background" aria-hidden="true" d="M0,0h5v0h-5Z"/><g><g class="mark-rect role-mark marks" role="graphics-object" aria-roledescription="rect mark container"><path aria-label="rank: 17; tib: 2.5" role="graphics-symbol" aria-roledescription="bar" d="M0,12.307692307692335h5v307.6923076923077h-5Z" fill="#2563eb"/></g></g><path class="foreground" aria-hidden="true" d="" display="none"/></g></g></g><path class="foreground" aria-hidden="true" d="" display="none"/></g><g transform="translate(412.88461538461536,12.307692307692335)"><path class="background" aria-hidden="true" d="M2.5,0L2.5,0C3.879787561235,0,5,1.120212438765,5,2.5L5,307.6923076923077C5,307.6923076923077,5,307.6923076923077,5,307.6923076923077L0,307.6923076923077C0,307.6923076923077,0,307.6923076923077,0,307.6923076923077L0,2.5C0,1.120212438765,1.120212438765,0,2.5,0Z"/><g clip-path="url(#clip18)"><g class="mark-group role-scope" role="graphics-object" aria-roledescription="group mark container"><g transform="translate(0,-12.307692307692335)"><path class="background" aria-hidden="true" d="M0,0h5v0h-5Z"/><g><g class="mark-rect role-mark marks" role="graphics-object" aria-roledescription="rect mark container"><path aria-label="rank: 18; tib: 2.5" role="graphics-symbol" aria-roledescription="bar" d="M0,12.307692307692335h5v307.6923076923077h-5Z" fill="#2563eb"/></g></g><path class="foreground" aria-hidden="true" d="" display="none"/></g></g></g><path class="foreground" aria-hidden="true" d="" display="none"/></g><g transform="translate(435.96153846153845,12.307692307692335)"><path class="background" aria-hidden="true" d="M2.5,0L2.5,0C3.879787561235,0,5,1.120212438765,5,2.5L5,307.6923076923077C5,307.6923076923077,5,307.6923076923077,5,307.6923076923077L0,307.6923076923077C0,307.6923076923077,0,307.6923076923077,0,307.6923076923077L0,2.5C0,1.120212438765,1.120212438765,0,2.5,0Z"/><g clip-path="url(#clip19)"><g class="mark-group role-scope" role="graphics-object" aria-roledescription="group mark container"><g transform="translate(0,-12.307692307692335)"><path class="background" aria-hidden="true" d="M0,0h5v0h-5Z"/><g><g class="mark-rect role-mark marks" role="graphics-object" aria-roledescription="rect mark container"><path aria-label="rank: 19; tib: 2.5" role="graphics-symbol" aria-roledescription="bar" d="M0,12.307692307692335h5v307.6923076923077h-5Z" fill="#2563eb"/></g></g><path class="foreground" aria-hidden="true" d="" display="none"/></g></g></g><path class="foreground" aria-hidden="true" d="" display="none"/></g><g transform="translate(459.03846153846155,12.307692307692335)"><path class="background" aria-hidden="true" d="M2.5,0L2.5,0C3.879787561235,0,5,1.120212438765,5,2.5L5,307.6923076923077C5,307.6923076923077,5,307.6923076923077,5,307.6923076923077L0,307.6923076923077C0,307.6923076923077,0,307.6923076923077,0,307.6923076923077L0,2.5C0,1.120212438765,1.120212438765,0,2.5,0Z"/><g clip-path="url(#clip20)"><g class="mark-group role-scope" role="graphics-object" aria-roledescription="group mark container"><g transform="translate(0,-12.307692307692335)"><path class="background" aria-hidden="true" d="M0,0h5v0h-5Z"/><g><g class="mark-rect role-mark marks" role="graphics-object" aria-roledescription="rect mark container"><path aria-label="rank: 20; tib: 2.5" role="graphics-symbol" aria-roledescription="bar" d="M0,12.307692307692335h5v307.6923076923077h-5Z" fill="#2563eb"/></g></g><path class="foreground" aria-hidden="true" d="" display="none"/></g></g></g><path class="foreground" aria-hidden="true" d="" display="none"/></g><g transform="translate(482.11538461538464,12.307692307692335)"><path class="background" aria-hidden="true" d="M2.5,0L2.5,0C3.879787561235,0,5,1.120212438765,5,2.5L5,307.6923076923077C5,307.6923076923077,5,307.6923076923077,5,307.6923076923077L0,307.6923076923077C0,307.6923076923077,0,307.6923076923077,0,307.6923076923077L0,2.5C0,1.120212438765,1.120212438765,0,2.5,0Z"/><g clip-path="url(#clip21)"><g class="mark-group role-scope" role="graphics-object" aria-roledescription="group mark container"><g transform="translate(0,-12.307692307692335)"><path class="background" aria-hidden="true" d="M0,0h5v0h-5Z"/><g><g class="mark-rect role-mark marks" role="graphics-object" aria-roledescription="rect mark container"><path aria-label="rank: 21; tib: 2.5" role="graphics-symbol" aria-roledescription="bar" d="M0,12.307692307692335h5v307.6923076923077h-5Z" fill="#2563eb"/></g></g><path class="foreground" aria-hidden="true" d="" display="none"/></g></g></g><path class="foreground" aria-hidden="true" d="" display="none"/></g><g transform="translate(505.1923076923077,12.307692307692335)"><path class="background" aria-hidden="true" d="M2.5,0L2.5,0C3.879787561235,0,5,1.120212438765,5,2.5L5,307.6923076923077C5,307.6923076923077,5,307.6923076923077,5,307.6923076923077L0,307.6923076923077C0,307.6923076923077,0,307.6923076923077,0,307.6923076923077L0,2.5C0,1.120212438765,1.120212438765,0,2.5,0Z"/><g clip-path="url(#clip22)"><g class="mark-group role-scope" role="graphics-object" aria-roledescription="group mark container"><g transform="translate(0,-12.307692307692335)"><path class="background" aria-hidden="true" d="M0,0h5v0h-5Z"/><g><g class="mark-rect role-mark marks" role="graphics-object" aria-roledescription="rect mark container"><path aria-label="rank: 22; tib: 2.5" role="graphics-symbol" aria-roledescription="bar" d="M0,12.307692307692335h5v307.6923076923077h-5Z" fill="#2563eb"/></g></g><path class="foreground" aria-hidden="true" d="" display="none"/></g></g></g><path class="foreground" aria-hidden="true" d="" display="none"/></g><g transform="translate(528.2692307692307,12.307692307692335)"><path class="background" aria-hidden="true" d="M2.5,0L2.5,0C3.879787561235,0,5,1.120212438765,5,2.5L5,307.6923076923077C5,307.6923076923077,5,307.6923076923077,5,307.6923076923077L0,307.6923076923077C0,307.6923076923077,0,307.6923076923077,0,307.6923076923077L0,2.5C0,1.120212438765,1.120212438765,0,2.5,0Z"/><g clip-path="url(#clip23)"><g class="mark-group role-scope" role="graphics-object" aria-roledescription="group mark container"><g transform="translate(0,-12.307692307692335)"><path class="background" aria-hidden="true" d="M0,0h5v0h-5Z"/><g><g class="mark-rect role-mark marks" role="graphics-object" aria-roledescription="rect mark container"><path aria-label="rank: 23; tib: 2.5" role="graphics-symbol" aria-roledescription="bar" d="M0,12.307692307692335h5v307.6923076923077h-5Z" fill="#2563eb"/></g></g><path class="foreground" aria-hidden="true" d="" display="none"/></g></g></g><path class="foreground" aria-hidden="true" d="" display="none"/></g><g transform="translate(551.3461538461539,12.307692307692335)"><path class="background" aria-hidden="true" d="M2.5,0L2.5,0C3.879787561235,0,5,1.120212438765,5,2.5L5,307.6923076923077C5,307.6923076923077,5,307.6923076923077,5,307.6923076923077L0,307.6923076923077C0,307.6923076923077,0,307.6923076923077,0,307.6923076923077L0,2.5C0,1.120212438765,1.120212438765,0,2.5,0Z"/><g clip-path="url(#clip24)"><g class="mark-group role-scope" role="graphics-object" aria-roledescription="group mark container"><g transform="translate(0,-12.307692307692335)"><path class="background" aria-hidden="true" d="M0,0h5v0h-5Z"/><g><g class="mark-rect role-mark marks" role="graphics-object" aria-roledescription="rect mark container"><path aria-label="rank: 24; tib: 2.5" role="graphics-symbol" aria-roledescription="bar" d="M0,12.307692307692335h5v307.6923076923077h-5Z" fill="#2563eb"/></g></g><path class="foreground" aria-hidden="true" d="" display="none"/></g></g></g><path class="foreground" aria-hidden="true" d="" display="none"/></g><g transform="translate(574.4230769230769,12.307692307692335)"><path class="background" aria-hidden="true" d="M2.5,0L2.5,0C3.879787561235,0,5,1.120212438765,5,2.5L5,307.6923076923077C5,307.6923076923077,5,307.6923076923077,5,307.6923076923077L0,307.6923076923077C0,307.6923076923077,0,307.6923076923077,0,307.6923076923077L0,2.5C0,1.120212438765,1.120212438765,0,2.5,0Z"/><g clip-path="url(#clip25)"><g class="mark-group role-scope" role="graphics-object" aria-roledescription="group mark container"><g transform="translate(0,-12.307692307692335)"><path class="background" aria-hidden="true" d="M0,0h5v0h-5Z"/><g><g class="mark-rect role-mark marks" role="graphics-object" aria-roledescription="rect mark container"><path aria-label="rank: 25; tib: 2.5" role="graphics-symbol" aria-roledescription="bar" d="M0,12.307692307692335h5v307.6923076923077h-5Z" fill="#2563eb"/></g></g><path class="foreground" aria-hidden="true" d="" display="none"/></g></g></g><path class="foreground" aria-hidden="true" d="" display="none"/></g></g><g class="mark-group role-title"><g transform="translate(-70,-30)"><path class="background" aria-hidden="true" d="M0,0h0v0h0Z" pointer-events="none"/><g><g class="mark-text role-title-text" role="graphics-symbol" aria-roledescription="title" aria-label="Title text 'Top 25 storage providers (TiB)'" pointer-events="none"><text text-anchor="start" transform="translate(0,11)" font-family="-apple-system, BlinkMacSystemFont, 'Segoe UI', system-ui, 'Helvetica Neue', 'Hiragino Sans', 'Hiragino Kaku Gothic ProN', 'Noto Sans CJK JP', sans-serif" font-size="14px" font-weight="600" fill="#0f172a" opacity="1">Top 25 storage providers (TiB)</text></g></g><path class="foreground" aria-hidden="true" d="" pointer-events="none" display="none"/></g></g></g><path class="foreground" aria-hidden="true" d="" display="none"/></g></g></g><defs><clipPath id="clip1"><path d="M2.5,0L2.5,0C3.879787561235,0,5,1.120212438765,5,2.5L5,307.6923076923077C5,307.6923076923077,5,307.6923076923077,5,307.6923076923077L0,307.6923076923077C0,307.6923076923077,0,307.6923076923077,0,307.6923076923077L0,2.5C0,1.120212438765,1.120212438765,0,2.5,0Z"/></clipPath><clipPath id="clip2"><path d="M2.5,0L2.5,0C3.879787561235,0,5,1.120212438765,5,2.5L5,307.6923076923077C5,307.6923076923077,5,307.6923076923077,5,307.6923076923077L0,307.6923076923077C0,307.6923076923077,0,307.6923076923077,0,307.6923076923077L0,2.5C0,1.120212438765,1.120212438765,0,2.5,0Z"/></clipPath><clipPath id="clip3"><path d="M2.5,0L2.5,0C3.879787561235,0,5,1.120212438765,5,2.5L5,307.6923076923077C5,307.6923076923077,5,307.6923076923077,5,307.6923076923077L0,307.6923076923077C0,307.6923076923077,0,307.6923076923077,0,307.6923076923077L0,2.5C0,1.120212438765,1.120212438765,0,2.5,0Z"/></clipPath><clipPath id="clip4"><path d="M2.5,0L2.5,0C3.879787561235,0,5,1.120212438765,5,2.5L5,307.6923076923077C5,307.6923076923077,5,307.6923076923077,5,307.6923076923077L0,307.6923076923077C0,307.6923076923077,0,307.6923076923077,0,307.6923076923077L0,2.5C0,1.120212438765,1.120212438765,0,2.5,0Z"/></clipPath><clipPath id="clip5"><path d="M2.5,0L2.5,0C3.879787561235,0,5,1.120212438765,5,2.5L5,307.6923076923077C5,307.6923076923077,5,307.6923076923077,5,307.6923076923077L0,307.6923076923077C0,307.6923076923077,0,307.6923076923077,0,307.6923076923077L0,2.5C0,1.120212438765,1.120212438765,0,2.5,0Z"/></clipPath><clipPath id="clip6"><path d="M2.5,0L2.5,0C3.879787561235,0,5,1.120212438765,5,2.5L5,307.6923076923077C5,307.6923076923077,5,307.6923076923077,5,307.6923076923077L0,307.6923076923077C0,307.6923076923077,0,307.6923076923077,0,307.6923076923077L0,2.5C0,1.120212438765,1.120212438765,0,2.5,0Z"/></clipPath><clipPath id="clip7"><path d="M2.5,0L2.5,0C3.879787561235,0,5,1.120212438765,5,2.5L5,307.6923076923077C5,307.6923076923077,5,307.6923076923077,5,307.6923076923077L0,307.6923076923077C0,307.6923076923077,0,307.6923076923077,0,307.6923076923077L0,2.5C0,1.120212438765,1.120212438765,0,2.5,0Z"/></clipPath><clipPath id="clip8"><path d="M2.5,0L2.5,0C3.879787561235,0,5,1.120212438765,5,2.5L5,307.6923076923077C5,307.6923076923077,5,307.6923076923077,5,307.6923076923077L0,307.6923076923077C0,307.6923076923077,0,307.6923076923077,0,307.6923076923077L0,2.5C0,1.120212438765,1.120212438765,0,2.5,0Z"/></clipPath><clipPath id="clip9"><path d="M2.5,0L2.5,0C3.879787561235,0,5,1.120212438765,5,2.5L5,307.6923076923077C5,307.6923076923077,5,307.6923076923077,5,307.6923076923077L0,307.6923076923077C0,307.6923076923077,0,307.6923076923077,0,307.6923076923077L0,2.5C0,1.120212438765,1.120212438765,0,2.5,0Z"/></clipPath><clipPath id="clip10"><path d="M2.5,0L2.5,0C3.879787561235,0,5,1.120212438765,5,2.5L5,307.6923076923077C5,307.6923076923077,5,307.6923076923077,5,307.6923076923077L0,307.6923076923077C0,307.6923076923077,0,307.6923076923077,0,307.6923076923077L0,2.5C0,1.120212438765,1.120212438765,0,2.5,0Z"/></clipPath><clipPath id="clip11"><path d="M2.5,0L2.5,0C3.879787561235,0,5,1.120212438765,5,2.5L5,307.6923076923077C5,307.6923076923077,5,307.6923076923077,5,307.6923076923077L0,307.6923076923077C0,307.6923076923077,0,307.6923076923077,0,307.6923076923077L0,2.5C0,1.120212438765,1.120212438765,0,2.5,0Z"/></clipPath><clipPath id="clip12"><path d="M2.5,0L2.5,0C3.879787561235,0,5,1.120212438765,5,2.5L5,307.6923076923077C5,307.6923076923077,5,307.6923076923077,5,307.6923076923077L0,307.6923076923077C0,307.6923076923077,0,307.6923076923077,0,307.6923076923077L0,2.5C0,1.120212438765,1.120212438765,0,2.5,0Z"/></clipPath><clipPath id="clip13"><path d="M2.5,0L2.5,0C3.879787561235,0,5,1.120212438765,5,2.5L5,307.6923076923077C5,307.6923076923077,5,307.6923076923077,5,307.6923076923077L0,307.6923076923077C0,307.6923076923077,0,307.6923076923077,0,307.6923076923077L0,2.5C0,1.120212438765,1.120212438765,0,2.5,0Z"/></clipPath><clipPath id="clip14"><path d="M2.5,0L2.5,0C3.879787561235,0,5,1.120212438765,5,2.5L5,307.6923076923077C5,307.6923076923077,5,307.6923076923077,5,307.6923076923077L0,307.6923076923077C0,307.6923076923077,0,307.6923076923077,0,307.6923076923077L0,2.5C0,1.120212438765,1.120212438765,0,2.5,0Z"/></clipPath><clipPath id="clip15"><path d="M2.5,0L2.5,0C3.879787561235,0,5,1.120212438765,5,2.5L5,307.6923076923077C5,307.6923076923077,5,307.6923076923077,5,307.6923076923077L0,307.6923076923077C0,307.6923076923077,0,307.6923076923077,0,307.6923076923077L0,2.5C0,1.120212438765,1.120212438765,0,2.5,0Z"/></clipPath><clipPath id="clip16"><path d="M2.5,0L2.5,0C3.879787561235,0,5,1.120212438765,5,2.5L5,307.6923076923077C5,307.6923076923077,5,307.6923076923077,5,307.6923076923077L0,307.6923076923077C0,307.6923076923077,0,307.6923076923077,0,307.6923076923077L0,2.5C0,1.120212438765,1.120212438765,0,2.5,0Z"/></clipPath><clipPath id="clip17"><path d="M2.5,0L2.5,0C3.879787561235,0,5,1.120212438765,5,2.5L5,307.6923076923077C5,307.6923076923077,5,307.6923076923077,5,307.6923076923077L0,307.6923076923077C0,307.6923076923077,0,307.6923076923077,0,307.6923076923077L0,2.5C0,1.120212438765,1.120212438765,0,2.5,0Z"/></clipPath><clipPath id="clip18"><path d="M2.5,0L2.5,0C3.879787561235,0,5,1.120212438765,5,2.5L5,307.6923076923077C5,307.6923076923077,5,307.6923076923077,5,307.6923076923077L0,307.6923076923077C0,307.6923076923077,0,307.6923076923077,0,307.6923076923077L0,2.5C0,1.120212438765,1.120212438765,0,2.5,0Z"/></clipPath><clipPath id="clip19"><path d="M2.5,0L2.5,0C3.879787561235,0,5,1.120212438765,5,2.5L5,307.6923076923077C5,307.6923076923077,5,307.6923076923077,5,307.6923076923077L0,307.6923076923077C0,307.6923076923077,0,307.6923076923077,0,307.6923076923077L0,2.5C0,1.120212438765,1.120212438765,0,2.5,0Z"/></clipPath><clipPath id="clip20"><path d="M2.5,0L2.5,0C3.879787561235,0,5,1.120212438765,5,2.5L5,307.6923076923077C5,307.6923076923077,5,307.6923076923077,5,307.6923076923077L0,307.6923076923077C0,307.6923076923077,0,307.6923076923077,0,307.6923076923077L0,2.5C0,1.120212438765,1.120212438765,0,2.5,0Z"/></clipPath><clipPath id="clip21"><path d="M2.5,0L2.5,0C3.879787561235,0,5,1.120212438765,5,2.5L5,307.6923076923077C5,307.6923076923077,5,307.6923076923077,5,307.6923076923077L0,307.6923076923077C0,307.6923076923077,0,307.6923076923077,0,307.6923076923077L0,2.5C0,1.120212438765,1.120212438765,0,2.5,0Z"/></clipPath><clipPath id="clip22"><path d="M2.5,0L2.5,0C3.879787561235,0,5,1.120212438765,5,2.5L5,307.6923076923077C5,307.6923076923077,5,307.6923076923077,5,307.6923076923077L0,307.6923076923077C0,307.6923076923077,0,307.6923076923077,0,307.6923076923077L0,2.5C0,1.120212438765,1.120212438765,0,2.5,0Z"/></clipPath><clipPath id="clip23"><path d="M2.5,0L2.5,0C3.879787561235,0,5,1.120212438765,5,2.5L5,307.6923076923077C5,307.6923076923077,5,307.6923076923077,5,307.6923076923077L0,307.6923076923077C0,307.6923076923077,0,307.6923076923077,0,307.6923076923077L0,2.5C0,1.120212438765,1.120212438765,0,2.5,0Z"/></clipPath><clipPath id="clip24"><path d="M2.5,0L2.5,0C3.879787561235,0,5,1.120212438765,5,2.5L5,307.6923076923077C5,307.6923076923077,5,307.6923076923077,5,307.6923076923077L0,307.6923076923077C0,307.6923076923077,0,307.6923076923077,0,307.6923076923077L0,2.5C0,1.120212438765,1.120212438765,0,2.5,0Z"/></clipPath><clipPath id="clip25"><path d="M2.5,0L2.5,0C3.879787561235,0,5,1.120212438765,5,2.5L5,307.6923076923077C5,307.6923076923077,5,307.6923076923077,5,307.6923076923077L0,307.6923076923077C0,307.6923076923077,0,307.6923076923077,0,307.6923076923077L0,2.5C0,1.120212438765,1.120212438765,0,2.5,0Z"/></clipPath></defs></svg>