<svg xmlns="http://www.w3.org/2000/svg" xmlns:xlink="http://www.w3.org/1999/xlink" version="1.1" class="marks" width="701" height="424" viewBox="0 0 701 424"><g fill="none" stroke-miterlimit="10" transform="translate(82,48)"><g class="mark-group role-frame root" role="graphics-object" aria-roledescription="group mark container"><g transform="translate(0,0)"><path class="background" aria-hidden="true" d="M0.5,0.5h600v320h-600Z"/><g><g class="mark-group role-axis" aria-hidden="true"><g transform="translate(0.5,320.5)"><path class="background" aria-hidden="true" d="M0,0h0v0h0Z" pointer-events="none"/><g><g class="mark-rule role-axis-grid" pointer-events="none"><line transform="translate(0,-320)" x2="0" y2="320" stroke="#eef0f4" stroke-width="0.8" stroke-dasharray="2,4" opacity="1"/><line transform="translate(30,-320)" x2="0" y2="320" stroke="#eef0f4" stroke-width="0.8" stroke-dasharray="2,4" opacity="1"/><line transform="translate(60,-320)" x2="0" y2="320" stroke="#eef0f4" stroke-width="0.8" stroke-dasharray="2,4" opacity="1"/><line transform="translate(90,-320)" x2="0" y2="320" stroke="#eef0f4" stroke-width="0.8" stroke-dasharray="2,4" opacity="1"/><line transform="translate(120,-320)" x2="0" y2="320" stroke="#eef0f4" stroke-width="0.8" stroke-dasharray="2,4" opacity="1"/><line transform="translate(150,-320)" x2="0" y2="320" stroke="#eef0f4" stroke-width="0.8" stroke-dasharray="2,4" opacity="1"/><line transform="translate(180,-320)" x2="0" y2="320" stroke="#eef0f4" stroke-width="0.8" stroke-dasharray="2,4" opacity="1"/><line transform="translate(210,-320)" x2="0" y2="320" stroke="#eef0f4" stroke-width="0.8" stroke-dasharray="2,4" opacity="1"/><line transform="translate(240,-320)" x2="0" y2="320" stroke="#eef0f4" stroke-width="0.8" stroke-dasharray="2,4" opacity="1"/><line transform="translate(270,-320)" x2="0" y2="320" stroke="#eef0f4" stroke-width="0.8" stroke-dasharray="2,4" opacity="1"/><line transform="translate(300,-320)" x2="0" y2="320" stroke="#eef0f4" stroke-width="0.8" stroke-dasharray="2,4" opacity="1"/><line transform="translate(330,-320)" x2="0" y2="320" stroke="#eef0f4" stroke-width="0.8" stroke-dasharray="2,4" opacity="1"/><line transform="translate(360,-320)" x2="0" y2="320" stroke="#eef0f4" stroke-width="0.8" stroke-dasharray="2,4" opacity="1"/><line transform="translate(390,-320)" x2="0" y2="320" stroke="#eef0f4" stroke-width="0.8" stroke-dasharray="2,4" opacity="1"/><line transform="translate(420,-320)" x2="0" y2="320" stroke="#eef0f4" stroke-width="0.8" stroke-dasharray="2,4" opacity="1"/><line transform="translate(450,-320)" x2="0" y2="320" stroke="#eef0f4" stroke-width="0.8" stroke-dasharray="2,4" opacity="1"/><line transform="translate(480,-320)" x2="0" y2="320" stroke="#eef0f4" stroke-width="0.8" stroke-dasharray="2,4" opacity="1"/><line transform="translate(510,-320)" x2="0" y2="320" stroke="#eef0f4" stroke-width="0.8" stroke-dasharray="2,4" opacity="1"/><line transform="translate(540,-320)" x2="0" y2="320" stroke="#eef0f4" stroke-width="0.8" stroke-dasharray="2,4" opacity="1"/><line transform="translate(570,-320)" x2="0" y2="320" stroke="#eef0f4" stroke-width="0.8" stroke-dasharray="2,4" opacity="1"/><line transform="translate(600,-320)" x2="0" y2="320" stroke="#eef0f4" stroke-width="0.8" stroke-dasharray="2,4" opacity="1"/></g></g><path class="foreground" aria-hidden="true" d="" pointer-events="none" display="none"/></g></g><g class="mark-group role-axis" aria-hidden="true"><g transform="translate(0.5,0.5)"><path class="background" aria-hidden="true" d="M0,0h0v0h0Z" pointer-events="none"/><g><g class="mark-rule role-axis-grid" pointer-events="none"><line transform="translate(0,320)" x2="600" y2="0" stroke="#eef0f4" stroke-width="0.8" stroke-dasharray="2,4" opacity="1"/><line transform="translate(0,288)" x2="600" y2="0" stroke="#eef0f4" stroke-width="0.8" stroke-dasharray="2,4" opacity="1"/><line transform="translate(0,256)" x2="600" y2="0" stroke="#eef0f4" stroke-width="0.8" stroke-dasharray="2,4" opacity="1"/><line transform="translate(0,224)" x2="600" y2="0" stroke="#eef0f4" stroke-width="0.8" stroke-dasharray="2,4" opacity="1"/><line transform="translate(0,192)" x2="600" y2="0" stroke="#eef0f4" stroke-width="0.8" stroke-dasharray="2,4" opacity="1"/><line transform="translate(0,160)" x2="600" y2="0" stroke="#eef0f4" stroke-width="0.8" stroke-dasharray="2,4" opacity="1"/><line transform="translate(0,128)" x2="600" y2="0" stroke="#eef0f4" stroke-width="0.8" stroke-dasharray="2,4" opacity="1"/><line transform="translate(0,96)" x2="600" y2="0" stroke="#eef0f4" stroke-width="0.8" stroke-dasharray="2,4" opacity="1"/><line transform="translate(0,64)" x2="600" y2="0" stroke="#eef0f4" stroke-width="0.8" stroke-dasharray="2,4" opacity="1"/><line transform="translate(0,32)" x2="600" y2="0" stroke="#eef0f4" stroke-width="0.8" stroke-dasharray="2,4" opacity="1"/><line transform="translate(0,0)" x2="600" y2="0" stroke="#eef0f4" stroke-width="0.8" stroke-dasharray="2,4" opacity="1"/></g></g><path class="foreground" aria-hidden="true" d="" pointer-events="none" display="none"/></g></g><g class="mark-group role-axis" role="graphics-symbol" aria-roledescription="axis" aria-label="X-axis titled 'p_groups' for a linear scale with values from 0.0 to 1.0"><g transform="translate(0.5,320.5)"><path class="background" aria-hidden="true" d="M0,0h0v0h0Z" pointer-events="none"/><g><g class="mark-rule role-axis-tick" pointer-events="none"><line transform="translate(0,0)" x2="0" y2="4" stroke="#e2e6ee" stroke-width="1" opacity="1"/><line transform="translate(30,0)" x2="0" y2="4" stroke="#e2e6ee" stroke-width="1" opacity="1"/><line transform="translate(60,0)" x2="0" y2="4" stroke="#e2e6ee" stroke-width="1" opacity="1"/><line transform="translate(90,0)" x2="0" y2="4" stroke="#e2e6ee" stroke-width="1" opacity="1"/><line transform="translate(120,0)" x2="0" y2="4" stroke="#e2e6ee" stroke-width="1" opacity="1"/><line transform="translate(150,0)" x2="0" y2="4" stroke="#e2e6ee" stroke-width="1" opacity="1"/><line transform="translate(180,0)" x2="0" y2="4" stroke="#e2e6ee" stroke-width="1" opacity="1"/><line transform="translate(210,0)" x2="0" y2="4" stroke="#e2e6ee" stroke-width="1" opacity="1"/><line transform="translate(240,0)" x2="0" y2="4" stroke="#e2e6ee" stroke-width="1" opacity="1"/><line transform="translate(270,0)" x2="0" y2="4" stroke="#e2e6ee" stroke-width="1" opacity="1"/><line transform="translate(300,0)" x2="0" y2="4" stroke="#e2e6ee" stroke-width="1" opacity="1"/><line transform="translate(330,0)" x2="0" y2="4" stroke="#e2e6ee" stroke-width="1" opacity="1"/><line transform="translate(360,0)" x2="0" y2="4" stroke="#e2e6ee" stroke-width="1" opacity="1"/><line transform="translate(390,0)" x2="0" y2="4" stroke="#e2e6ee" stroke-width="1" opacity="1"/><line transform="translate(420,0)" x2="0" y2="4" stroke="#e2e6ee" stroke-width="1" opacity="1"/><line transform="translate(450,0)" x2="0" y2="4" stroke="#e2e6ee" stroke-width="1" opacity="1"/><line transform="translate(480,0)" x2="0" y2="4" stroke="#e2e6ee" stroke-width="1" opacity="1"/><line transform="translate(510,0)" x2="0" y2="4" stroke="#e2e6ee" stroke-width="1" opacity="1"/><line transform="translate(540,0)" x2="0" y2="4" stroke="#e2e6ee" stroke-width="1" opacity="1"/><line transform="translate(570,0)" x2="0" y2="4" stroke="#e2e6ee" stroke-width="1" opacity="1"/><line transform="translate(600,0)" x2="0" y2="4" stroke="#e2e6ee" stroke-width="1" opacity="1"/></g><g class="mark-text role-axis-label" pointer-events="none"><text text-anchor="start" transform="translate(0,19)" font-family="'SF Mono', Menlo, Consolas, 'Liberation Mono', monospace" font-size="11px" fill="#64748b" opacity="1">0</text><text text-anchor="middle" transform="translate(30,19)" font-family="'SF Mono', Menlo, Consolas, 'Liberation Mono', monospace" font-size="11px" fill="#64748b" opacity="0">50m</text><text text-anchor="middle" transform="translate(60,19)" font-family="'SF Mono', Menlo, Consolas, 'Liberation Mono', monospace" font-size="11px" fill="#64748b" opacity="1">100m</text><text text-anchor="middle" transform="translate(90,19)" font-family="'SF Mono', Menlo, Consolas, 'Liberation Mono', monospace" font-size="11px" fill="#64748b" opacity="0">150m</text><text text-anchor="middle" transform="translate(120,19)" font-family="'SF Mono', Menlo, Consolas, 'Liberation Mono', monospace" font-size="11px" fill="#64748b" opacity="1">200m</text><text text-anchor="middle" transform="translate(150,19)" font-family="'SF Mono', Menlo, Consolas, 'Liberation Mono', monospace" font-size="11px" fill="#64748b" opacity="0">250m</text><text text-anchor="middle" transform="translate(180,19)" font-family="'SF Mono', Menlo, Consolas, 'Liberation Mono', monospace" font-size="11px" fill="#64748b" opacity="1">300m</text><text text-anchor="middle" transform="translate(210,19)" font-family="'SF Mono', Menlo, Consolas, 'Liberation Mono', monospace" font-size="11px" fill="#64748b" opacity="0">350m</text><text text-anchor="middle" transform="translate(240,19)" font-family="'SF Mono', Menlo, Consolas, 'Liberation Mono', monospace" font-size="11px" fill="#64748b" opacity="1">400m</text><text text-anchor="middle" transform="translate(270,19)" font-family="'SF Mono', Menlo, Consolas, 'Liberation Mono', monospace" font-size="11px" fill="#64748b" opacity="0">450m</text><text text-anchor="middle" transform="translate(300,19)" font-family="'SF Mono', Menlo, Consolas, 'Liberation Mono', monospace" font-size="11px" fill="#64748b" opacity="1">500m</text><text text-anchor="middle" transform="translate(330,19)" font-family="'SF Mono', Menlo, Consolas, 'Liberation Mono', monospace" font-size="11px" fill="#64748b" opacity="0">550m</text><text text-anchor="middle" transform="translate(360,19)" font-family="'SF Mono', Menlo, Consolas, 'Liberation Mono', monospace" font-size="11px" fill="#64748b" opacity="1">600m</text><text text-anchor="middle" transform="translate(390,19)" font-family="'SF Mono', Menlo, Consolas, 'Liberation Mono', monospace" font-size="11px" fill="#64748b" opacity="0">650m</text><text text-anchor="middle" transform="translate(420,19)" font-family="'SF Mono', Menlo, Consolas, 'Liberation Mono', monospace" font-size="11px" fill="#64748b" opacity="1">700m</text><text text-anchor="middle" transform="translate(450,19)" font-family="'SF Mono', Menlo, Consolas, 'Liberation Mono', monospace" font-size="11px" fill="#64748b" opacity="0">750m</text><text text-anchor="middle" transform="translate(480,19)" font-family="'SF Mono', Menlo, Consolas, 'Liberation Mono', monospace" font-size="11px" fill="#64748b" opacity="1">800m</text><text text-anchor="middle" transform="translate(510,19)" font-family="'SF Mono', Menlo, Consolas, 'Liberation Mono', monospace" font-size="11px" fill="#64748b" opacity="0">850m</text><text text-anchor="middle" transform="translate(540,19)" font-family="'SF Mono', Menlo, Consolas, 'Liberation Mono', monospace" font-size="11px" fill="#64748b" opacity="1">900m</text><text text-anchor="middle" transform="translate(570,19)" font-family="'SF Mono', Menlo, Consolas, 'Liberation Mono', monospace" font-size="11px" fill="#64748b" opacity="0">950m</text><text text-anchor="end" transform="translate(600,19)" font-family="'SF Mono', Menlo, Consolas, 'Liberation Mono', monospace" font-size="11px" fill="#64748b" opacity="1">1</text></g><g class="mark-text role-axis-title" pointer-events="none"><text text-anchor="middle" transform="translate(300,42)" font-family="-apple-system, BlinkMacSystemFont, 'Segoe UI', system-ui, 'Helvetica Neue', 'Hiragino Sans', 'Hiragino Kaku Gothic ProN', 'Noto Sans CJK JP', sans-serif" font-size="12px" font-weight="600" fill="#0f172a" opacity="1">p_groups</text></g></g><path class="foreground" aria-hidden="true" d="" pointer-events="none" display="none"/></g></g><g class="mark-group role-axis" role="graphics-symbol" aria-roledescription="axis" aria-label="Y-axis titled 'p_value' for a linear scale with values from 0.0 to 1.0"><g transform="translate(0.5,0.5)"><path class="background" aria-hidden="true" d="M0,0h0v0h0Z" pointer-events="none"/><g><g class="mark-rule role-axis-tick" pointer-events="none"><line transform="translate(0,320)" x2="-4" y2="0" stroke="#e2e6ee" stroke-width="1" opacity="1"/><line transform="translate(0,288)" x2="-4" y2="0" stroke="#e2e6ee" stroke-width="1" opacity="1"/><line transform="translate(0,256)" x2="-4" y2="0" stroke="#e2e6ee" stroke-width="1" opacity="1"/><line transform="translate(0,224)" x2="-4" y2="0" stroke="#e2e6ee" stroke-width="1" opacity="1"/><line transform="translate(0,192)" x2="-4" y2="0" stroke="#e2e6ee" stroke-width="1" opacity="1"/><line transform="translate(0,160)" x2="-4" y2="0" stroke="#e2e6ee" stroke-width="1" opacity="1"/><line transform="translate(0,128)" x2="-4" y2="0" stroke="#e2e6ee" stroke-width="1" opacity="1"/><line transform="translate(0,96)" x2="-4" y2="0" stroke="#e2e6ee" stroke-width="1" opacity="1"/><line transform="translate(0,64)" x2="-4" y2="0" stroke="#e2e6ee" stroke-width="1" opacity="1"/><line transform="translate(0,32)" x2="-4" y2="0" stroke="#e2e6ee" stroke-width="1" opacity="1"/><line transform="translate(0,0)" x2="-4" y2="0" stroke="#e2e6ee" stroke-width="1" opacity="1"/></g><g class="mark-text role-axis-label" pointer-events="none"><text text-anchor="end" transform="translate(-10,323)" font-family="'SF Mono', Menlo, Consolas, 'Liberation Mono', monospace" font-size="11px" fill="#64748b" opacity="1">0</text><text text-anchor="end" transform="translate(-10,291)" font-family="'SF Mono', Menlo, Consolas, 'Liberation Mono', monospace" font-size="11px" fill="#64748b" opacity="1">100m</text><text text-anchor="end" transform="translate(-10,259)" font-family="'SF Mono', Menlo, Consolas, 'Liberation Mono', monospace" font-size="11px" fill="#64748b" opacity="1">200m</text><text text-anchor="end" transform="translate(-10,227)" font-family="'SF Mono', Menlo, Consolas, 'Liberation Mono', monospace" font-size="11px" fill="#64748b" opacity="1">300m</text><text text-anchor="end" transform="translate(-10,195)" font-family="'SF Mono', Menlo, Consolas, 'Liberation Mono', monospace" font-size="11px" fill="#64748b" opacity="1">400m</text><text text-anchor="end" transform="translate(-10,163)" font-family="'SF Mono', Menlo, Consolas, 'Liberation Mono', monospace" font-size="11px" fill="#64748b" opacity="1">500m</text><text text-anchor="end" transform="translate(-10,131)" font-family="'SF Mono', Menlo, Consolas, 'Liberation Mono', monospace" font-size="11px" fill="#64748b" opacity="1">600m</text><text text-anchor="end" transform="translate(-10,99.00000000000001)" font-family="'SF Mono', Menlo, Consolas, 'Liberation Mono', monospace" font-size="11px" fill="#64748b" opacity="1">700m</text><text text-anchor="end" transform="translate(-10,66.99999999999999)" font-family="'SF Mono', Menlo, Consolas, 'Liberation Mono', monospace" font-size="11px" fill="#64748b" opacity="1">800m</text><text text-anchor="end" transform="translate(-10,34.99999999999999)" font-family="'SF Mono', Menlo, Consolas, 'Liberation Mono', monospace" font-size="11px" fill="#64748b" opacity="1">900m</text><text text-anchor="end" transform="translate(-10,3)" font-family="'SF Mono', Menlo, Consolas, 'Liberation Mono', monospace" font-size="11px" fill="#64748b" opacity="1">1</text></g><g class="mark-text role-axis-title" pointer-events="none"><text text-anchor="middle" transform="translate(-57,160) rotate(-90) translate(0,-3)" font-family="-apple-system, BlinkMacSystemFont, 'Segoe UI', system-ui, 'Helvetica Neue', 'Hiragino Sans', 'Hiragino Kaku Gothic ProN', 'Noto Sans CJK JP', sans-serif" font-size="12px" font-weight="600" fill="#0f172a" opacity="1">p_value</text></g></g><path class="foreground" aria-hidden="true" d="" pointer-events="none" display="none"/></g></g><g class="mark-line role-mark layer_0_marks" role="graphics-object" aria-roledescription="line mark container"><path aria-label="p_groups: 0; p_value: 0" role="graphics-symbol" aria-roledescription="line mark" d="M0,320L0.6,319.776L12.6,315.296L24.6,310.848L36.6,306.368L48.6,301.92L60.6,297.408L72.6,292.512L84.6,287.616L96.6,282.72L108.6,277.824L120.6,272.928L132.6,267.584L144.6,262.272L156.6,256.928L168.6,251.616L180.6,246.272L192.6,240.512L204.6,234.752L216.6,228.992L228.6,223.232L240.6,217.472L252.6,211.264L264.6,205.088L276.6,198.912L288.6,192.736L300.6,186.528L312.6,179.904L324.6,173.28L336.6,166.656L348.6,160.064L360.6,153.408L372.6,146.368L384.6,139.328L396.6,132.288L408.6,125.248L420.6,118.176L432.6,110.688L444.6,103.232L456.6,95.744L468.6,88.288L480.6,80.8L492.6,72.896L504.6,64.992L516.6,57.088L528.6,49.184L540.6,41.248L552.6,32.928L564.6,24.576L576.6,16.256L588.6,7.904L600,0" stroke="#2563eb" stroke-width="2.5"/></g><g class="mark-symbol role-mark layer_1_marks" role="graphics-object" aria-roledescription="symbol mark container"><path aria-label="p_groups: 0; p_value: 0" role="graphics-symbol" aria-roledescription="point" transform="translate(0,320)" d="M2.828,0A2.828,2.828,0,1,1,-2.828,0A2.828,2.828,0,1,1,2.828,0" fill="#2563eb" stroke-width="2" opacity="1"/><path aria-label="p_groups: 0.001; p_value: 0.0007" role="graphics-symbol" aria-roledescription="point" transform="translate(0.6,319.776)" d="M2.828,0A2.828,2.828,0,1,1,-2.828,0A2.828,2.828,0,1,1,2.828,0" fill="#2563eb" stroke-width="2" opacity="1"/><path aria-label="p_groups: 0.021; p_value: 0.0147" role="graphics-symbol" aria-roledescription="point" transform="translate(12.600000000000001,315.296)" d="M2.828,0A2.828,2.828,0,1,1,-2.828,0A2.828,2.828,0,1,1,2.828,0" fill="#2563eb" stroke-width="2" opacity="1"/><path aria-label="p_groups: 0.041; p_value: 0.0286" role="graphics-symbol" aria-roledescription="point" transform="translate(24.6,310.848)" d="M2.828,0A2.828,2.828,0,1,1,-2.828,0A2.828,2.828,0,1,1,2.828,0" fill="#2563eb" stroke-width="2" opacity="1"/><path aria-label="p_groups: 0.061; p_value: 0.0426" role="graphics-symbol" aria-roledescription="point" transform="translate(36.6,306.368)" d="M2.828,0A2.828,2.828,0,1,1,-2.828,0A2.828,2.828,0,1,1,2.828,0" fill="#2563eb" stroke-width="2" opacity="1"/><path aria-label="p_groups: 0.081; p_value: 0.0565" role="graphics-symbol" aria-roledescription="point" transform="translate(48.6,301.92)" d="M2.828,0A2.828,2.828,0,1,1,-2.828,0A2.828,2.828,0,1,1,2.828,0" fill="#2563eb" stroke-width="2" opacity="1"/><path aria-label="p_groups: 0.101; p_value: 0.0706" role="graphics-symbol" aria-roledescription="point" transform="translate(60.6,297.408)" d="M2.828,0A2.828,2.828,0,1,1,-2.828,0A2.828,2.828,0,1,1,2.828,0" fill="#2563eb" stroke-width="2" opacity="1"/><path aria-label="p_groups: 0.121; p_value: 0.0859" role="graphics-symbol" aria-roledescription="point" transform="translate(72.6,292.512)" d="M2.828,0A2.828,2.828,0,1,1,-2.828,0A2.828,2.828,0,1,1,2.828,0" fill="#2563eb" stroke-width="2" opacity="1"/><path aria-label="p_groups: 0.141; p_value: 0.1012" role="graphics-symbol" aria-roledescription="point" transform="translate(84.6,287.616)" d="M2.828,0A2.828,2.828,0,1,1,-2.828,0A2.828,2.828,0,1,1,2.828,0" fill="#2563eb" stroke-width="2" opacity="1"/><path aria-label="p_groups: 0.161; p_value: 0.1165" role="graphics-symbol" aria-roledescription="point" transform="translate(96.60000000000001,282.71999999999997)" d="M2.828,0A2.828,2.828,0,1,1,-2.828,0A2.828,2.828,0,1,1,2.828,0" fill="#2563eb" stroke-width="2" opacity="1"/><path aria-label="p_groups: 0.181; p_value: 0.1318" role="graphics-symbol" aria-roledescription="point" transform="translate(108.6,277.824)" d="M2.828,0A2.828,2.828,0,1,1,-2.828,0A2.828,2.828,0,1,1,2.828,0" fill="#2563eb" stroke-width="2" opacity="1"/><path aria-label="p_groups: 0.201; p_value: 0.1471" role="graphics-symbol" aria-roledescription="point" transform="translate(120.60000000000001,272.928)" d="M2.828,0A2.828,2.828,0,1,1,-2.828,0A2.828,2.828,0,1,1,2.828,0" fill="#2563eb" stroke-width="2" opacity="1"/><path aria-label="p_groups: 0.221; p_value: 0.1638" role="graphics-symbol" aria-roledescription="point" transform="translate(132.6,267.584)" d="M2.828,0A2.828,2.828,0,1,1,-2.828,0A2.828,2.828,0,1,1,2.828,0" fill="#2563eb" stroke-width="2" opacity="1"/><path aria-label="p_groups: 0.241; p_value: 0.1804" role="graphics-symbol" aria-roledescription="point" transform="translate(144.6,262.272)" d="M2.828,0A2.828,2.828,0,1,1,-2.828,0A2.828,2.828,0,1,1,2.828,0" fill="#2563eb" stroke-width="2" opacity="1"/><path aria-label="p_groups: 0.261; p_value: 0.1971" role="graphics-symbol" aria-roledescription="point" transform="translate(156.6,256.928)" d="M2.828,0A2.828,2.828,0,1,1,-2.828,0A2.828,2.828,0,1,1,2.828,0" fill="#2563eb" stroke-width="2" opacity="1"/><path aria-label="p_groups: 0.281; p_value: 0.2137" role="graphics-symbol" aria-roledescription="point" transform="translate(168.60000000000002,251.61599999999999)" d="M2.828,0A2.828,2.828,0,1,1,-2.828,0A2.828,2.828,0,1,1,2.828,0" fill="#2563eb" stroke-width="2" opacity="1"/><path aria-label="p_groups: 0.301; p_value: 0.2304" role="graphics-symbol" aria-roledescription="point" transform="translate(180.6,246.27200000000002)" d="M2.828,0A2.828,2.828,0,1,1,-2.828,0A2.828,2.828,0,1,1,2.828,0" fill="#2563eb" stroke-width="2" opacity="1"/><path aria-label="p_groups: 0.321; p_value: 0.2484" role="graphics-symbol" aria-roledescription="point" transform="translate(192.6,240.512)" d="M2.828,0A2.828,2.828,0,1,1,-2.828,0A2.828,2.828,0,1,1,2.828,0" fill="#2563eb" stroke-width="2" opacity="1"/><path aria-label="p_groups: 0.341; p_value: 0.2664" role="graphics-symbol" aria-roledescription="point" transform="translate(204.60000000000002,234.752)" d="M2.828,0A2.828,2.828,0,1,1,-2.828,0A2.828,2.828,0,1,1,2.828,0" fill="#2563eb" stroke-width="2" opacity="1"/><path aria-label="p_groups: 0.361; p_value: 0.2844" role="graphics-symbol" aria-roledescription="point" transform="translate(216.6,228.99200000000002)" d="M2.828,0A2.828,2.828,0,1,1,-2.828,0A2.828,2.828,0,1,1,2.828,0" fill="#2563eb" stroke-width="2" opacity="1"/><path aria-label="p_groups: 0.381; p_value: 0.3024" role="graphics-symbol" aria-roledescription="point" transform="translate(228.6,223.232)" d="M2.828,0A2.828,2.828,0,1,1,-2.828,0A2.828,2.828,0,1,1,2.828,0" fill="#2563eb" stroke-width="2" opacity="1"/><path aria-label="p_groups: 0.401; p_value: 0.3204" role="graphics-symbol" aria-roledescription="point" transform="translate(240.60000000000002,217.47199999999998)" d="M2.828,0A2.828,2.828,0,1,1,-2.828,0A2.828,2.828,0,1,1,2.828,0" fill="#2563eb" stroke-width="2" opacity="1"/><path aria-label="p_groups: 0.421; p_value: 0.3398" role="graphics-symbol" aria-roledescription="point" transform="translate(252.6,211.264)" d="M2.828,0A2.828,2.828,0,1,1,-2.828,0A2.828,2.828,0,1,1,2.828,0" fill="#2563eb" stroke-width="2" opacity="1"/><path aria-label="p_groups: 0.441; p_value: 0.3591" role="graphics-symbol" aria-roledescription="point" transform="translate(264.6,205.08800000000002)" d="M2.828,0A2.828,2.828,0,1,1,-2.828,0A2.828,2.828,0,1,1,2.828,0" fill="#2563eb" stroke-width="2" opacity="1"/><path aria-label="p_groups: 0.461; p_value: 0.3784" role="graphics-symbol" aria-roledescription="point" transform="translate(276.6,198.91199999999998)" d="M2.828,0A2.828,2.828,0,1,1,-2.828,0A2.828,2.828,0,1,1,2.828,0" fill="#2563eb" stroke-width="2" opacity="1"/><path aria-label="p_groups: 0.481; p_value: 0.3977" role="graphics-symbol" aria-roledescription="point" transform="translate(288.59999999999997,192.73600000000002)" d="M2.828,0A2.828,2.828,0,1,1,-2.828,0A2.828,2.828,0,1,1,2.828,0" fill="#2563eb" stroke-width="2" opacity="1"/><path aria-label="p_groups: 0.501; p_value: 0.4171" role="graphics-symbol" aria-roledescription="point" transform="translate(300.6,186.528)" d="M2.828,0A2.828,2.828,0,1,1,-2.828,0A2.828,2.828,0,1,1,2.828,0" fill="#2563eb" stroke-width="2" opacity="1"/><path aria-label="p_groups: 0.521; p_value: 0.4378" role="graphics-symbol" aria-roledescription="point" transform="translate(312.6,179.904)" d="M2.828,0A2.828,2.828,0,1,1,-2.828,0A2.828,2.828,0,1,1,2.828,0" fill="#2563eb" stroke-width="2" opacity="1"/><path aria-label="p_groups: 0.541; p_value: 0.4585" role="graphics-symbol" aria-roledescription="point" transform="translate(324.6,173.28)" d="M2.828,0A2.828,2.828,0,1,1,-2.828,0A2.828,2.828,0,1,1,2.828,0" fill="#2563eb" stroke-width="2" opacity="1"/><path aria-label="p_groups: 0.561; p_value: 0.4792" role="graphics-symbol" aria-roledescription="point" transform="translate(336.6,166.65599999999998)" d="M2.828,0A2.828,2.828,0,1,1,-2.828,0A2.828,2.828,0,1,1,2.828,0" fill="#2563eb" stroke-width="2" opacity="1"/><path aria-label="p_groups: 0.581; p_value: 0.4998" role="graphics-symbol" aria-roledescription="point" transform="translate(348.59999999999997,160.064)" d="M2.828,0A2.828,2.828,0,1,1,-2.828,0A2.828,2.828,0,1,1,2.828,0" fill="#2563eb" stroke-width="2" opacity="1"/><path aria-label="p_groups: 0.601; p_value: 0.5206" role="graphics-symbol" aria-roledescription="point" transform="translate(360.59999999999997,153.40800000000002)" d="M2.828,0A2.828,2.828,0,1,1,-2.828,0A2.828,2.828,0,1,1,2.828,0" fill="#2563eb" stroke-width="2" opacity="1"/><path aria-label="p_groups: 0.621; p_value: 0.5426" role="graphics-symbol" aria-roledescription="point" transform="translate(372.6,146.368)" d="M2.828,0A2.828,2.828,0,1,1,-2.828,0A2.828,2.828,0,1,1,2.828,0" fill="#2563eb" stroke-width="2" opacity="1"/><path aria-label="p_groups: 0.641; p_value: 0.5646" role="graphics-symbol" aria-roledescription="point" transform="translate(384.6,139.328)" d="M2.828,0A2.828,2.828,0,1,1,-2.828,0A2.828,2.828,0,1,1,2.828,0" fill="#2563eb" stroke-width="2" opacity="1"/><path aria-label="p_groups: 0.661; p_value: 0.5866" role="graphics-symbol" aria-roledescription="point" transform="translate(396.6,132.288)" d="M2.828,0A2.828,2.828,0,1,1,-2.828,0A2.828,2.828,0,1,1,2.828,0" fill="#2563eb" stroke-width="2" opacity="1"/><path aria-label="p_groups: 0.681; p_value: 0.6086" role="graphics-symbol" aria-roledescription="point" transform="translate(408.6,125.24799999999999)" d="M2.828,0A2.828,2.828,0,1,1,-2.828,0A2.828,2.828,0,1,1,2.828,0" fill="#2563eb" stroke-width="2" opacity="1"/><path aria-label="p_groups: 0.701; p_value: 0.6307" role="graphics-symbol" aria-roledescription="point" transform="translate(420.59999999999997,118.17599999999999)" d="M2.828,0A2.828,2.828,0,1,1,-2.828,0A2.828,2.828,0,1,1,2.828,0" fill="#2563eb" stroke-width="2" opacity="1"/><path aria-label="p_groups: 0.721; p_value: 0.6541" role="graphics-symbol" aria-roledescription="point" transform="translate(432.59999999999997,110.68799999999999)" d="M2.828,0A2.828,2.828,0,1,1,-2.828,0A2.828,2.828,0,1,1,2.828,0" fill="#2563eb" stroke-width="2" opacity="1"/><path aria-label="p_groups: 0.741; p_value: 0.6774" role="graphics-symbol" aria-roledescription="point" transform="translate(444.6,103.232)" d="M2.828,0A2.828,2.828,0,1,1,-2.828,0A2.828,2.828,0,1,1,2.828,0" fill="#2563eb" stroke-width="2" opacity="1"/><path aria-label="p_groups: 0.761; p_value: 0.7008" role="graphics-symbol" aria-roledescription="point" transform="translate(456.6,95.744)" d="M2.828,0A2.828,2.828,0,1,1,-2.828,0A2.828,2.828,0,1,1,2.828,0" fill="#2563eb" stroke-width="2" opacity="1"/><path aria-label="p_groups: 0.781; p_value: 0.7241" role="graphics-symbol" aria-roledescription="point" transform="translate(468.6,88.28800000000001)" d="M2.828,0A2.828,2.828,0,1,1,-2.828,0A2.828,2.828,0,1,1,2.828,0" fill="#2563eb" stroke-width="2" opacity="1"/><path aria-label="p_groups: 0.801; p_value: 0.7475" role="graphics-symbol" aria-roledescription="point" transform="translate(480.6,80.79999999999998)" d="M2.828,0A2.828,2.828,0,1,1,-2.828,0A2.828,2.828,0,1,1,2.828,0" fill="#2563eb" stroke-width="2" opacity="1"/><path aria-label="p_groups: 0.821; p_value: 0.7722" role="graphics-symbol" aria-roledescription="point" transform="translate(492.59999999999997,72.896)" d="M2.828,0A2.828,2.828,0,1,1,-2.828,0A2.828,2.828,0,1,1,2.828,0" fill="#2563eb" stroke-width="2" opacity="1"/><path aria-label="p_groups: 0.841; p_value: 0.7969" role="graphics-symbol" aria-roledescription="point" transform="translate(504.59999999999997,64.99199999999999)" d="M2.828,0A2.828,2.828,0,1,1,-2.828,0A2.828,2.828,0,1,1,2.828,0" fill="#2563eb" stroke-width="2" opacity="1"/><path aria-label="p_groups: 0.861; p_value: 0.8216" role="graphics-symbol" aria-roledescription="point" transform="translate(516.6,57.088)" d="M2.828,0A2.828,2.828,0,1,1,-2.828,0A2.828,2.828,0,1,1,2.828,0" fill="#2563eb" stroke-width="2" opacity="1"/><path aria-label="p_groups: 0.881; p_value: 0.8463" role="graphics-symbol" aria-roledescription="point" transform="translate(528.6,49.18399999999998)" d="M2.828,0A2.828,2.828,0,1,1,-2.828,0A2.828,2.828,0,1,1,2.828,0" fill="#2563eb" stroke-width="2" opacity="1"/><path aria-label="p_groups: 0.901; p_value: 0.8711" role="graphics-symbol" aria-roledescription="point" transform="translate(540.6,41.248000000000005)" d="M2.828,0A2.828,2.828,0,1,1,-2.828,0A2.828,2.828,0,1,1,2.828,0" fill="#2563eb" stroke-width="2" opacity="1"/><path aria-label="p_groups: 0.921; p_value: 0.8971" role="graphics-symbol" aria-roledescription="point" transform="translate(552.6,32.928)" d="M2.828,0A2.828,2.828,0,1,1,-2.828,0A2.828,2.828,0,1,1,2.828,0" fill="#2563eb" stroke-width="2" opacity="1"/><path aria-label="p_groups: 0.941; p_value: 0.9232" role="graphics-symbol" aria-roledescription="point" transform="translate(564.6,24.575999999999993)" d="M2.828,0A2.828,2.828,0,1,1,-2.828,0A2.828,2.828,0,1,1,2.828,0" fill="#2563eb" stroke-width="2" opacity="1"/><path aria-label="p_groups: 0.961; p_value: 0.9492" role="graphics-symbol" aria-roledescription="point" transform="translate(576.6,16.255999999999986)" d="M2.828,0A2.828,2.828,0,1,1,-2.828,0A2.828,2.828,0,1,1,2.828,0" fill="#2563eb" stroke-width="2" opacity="1"/><path aria-label="p_groups: 0.981; p_value: 0.9753" role="graphics-symbol" aria-roledescription="point" transform="translate(588.6,7.904000000000018)" d="M2.828,0A2.828,2.828,0,1,1,-2.828,0A2.828,2.828,0,1,1,2.828,0" fill="#2563eb" stroke-width="2" opacity="1"/><path aria-label="p_groups: 1; p_value: 1" role="graphics-symbol" aria-roledescription="point" transform="translate(600,0)" d="M2.828,0A2.828,2.828,0,1,1,-2.828,0A2.828,2.828,0,1,1,2.828,0" fill="#2563eb" stroke-width="2" opacity="1"/></g><g class="mark-group role-title"><g transform="translate(-70,-36)"><path class="background" aria-hidden="true" d="M0,0h0v0h0Z" pointer-events="none"/><g><g class="mark-text role-title-text" role="graphics-symbol" aria-roledescription="title" aria-label="Title text 'Lorenz curve — Base DEX takers vs. cumulative USD volume'" pointer-events="none"><text text-anchor="start" transform="translate(0,11)" font-family="-apple-system, BlinkMacSystemFont, 'Segoe UI', system-ui, 'Helvetica Neue', 'Hiragino Sans', 'Hiragino Kaku Gothic ProN', 'Noto Sans CJK JP', sans-serif" font-size="14px" font-weight="600" fill="#0f172a" opacity="1">Lorenz curve — Base DEX takers vs. cumulative USD volume</text></g></g><path class="foreground" aria-hidden="true" d="" pointer-events="none" display="none"/></g></g></g><path class="foreground" aria-hidden="true" d="" display="none"/></g></g></g></svg>