<svg xmlns="http://www.w3.org/2000/svg" xmlns:xlink="http://www.w3.org/1999/xlink" version="1.1" class="marks" width="673" height="384" viewBox="0 0 673 384"><rect width="673" height="384" fill="white"/><g fill="none" stroke-miterlimit="10" transform="translate(67,27)"><g class="mark-group role-frame root" role="graphics-object" aria-roledescription="group mark container"><g transform="translate(0,0)"><path class="background" aria-hidden="true" d="M0.5,0.5h600v320h-600Z" stroke="#ddd"/><g><g class="mark-group role-axis" aria-hidden="true"><g transform="translate(0.5,320.5)"><path class="background" aria-hidden="true" d="M0,0h0v0h0Z" pointer-events="none"/><g><g class="mark-rule role-axis-grid" pointer-events="none"><line transform="translate(0,-320)" x2="0" y2="320" stroke="#ddd" stroke-width="1" opacity="1"/><line transform="translate(55,-320)" x2="0" y2="320" stroke="#ddd" stroke-width="1" opacity="1"/><line transform="translate(109,-320)" x2="0" y2="320" stroke="#ddd" stroke-width="1" opacity="1"/><line transform="translate(164,-320)" x2="0" y2="320" stroke="#ddd" stroke-width="1" opacity="1"/><line transform="translate(218,-320)" x2="0" y2="320" stroke="#ddd" stroke-width="1" opacity="1"/><line transform="translate(273,-320)" x2="0" y2="320" stroke="#ddd" stroke-width="1" opacity="1"/><line transform="translate(327,-320)" x2="0" y2="320" stroke="#ddd" stroke-width="1" opacity="1"/><line transform="translate(382,-320)" x2="0" y2="320" stroke="#ddd" stroke-width="1" opacity="1"/><line transform="translate(436,-320)" x2="0" y2="320" stroke="#ddd" stroke-width="1" opacity="1"/><line transform="translate(491,-320)" x2="0" y2="320" stroke="#ddd" stroke-width="1" opacity="1"/><line transform="translate(545,-320)" x2="0" y2="320" stroke="#ddd" stroke-width="1" opacity="1"/><line transform="translate(600,-320)" x2="0" y2="320" stroke="#ddd" stroke-width="1" opacity="1"/></g></g><path class="foreground" aria-hidden="true" d="" pointer-events="none" display="none"/></g></g><g class="mark-group role-axis" aria-hidden="true"><g transform="translate(0.5,0.5)"><path class="background" aria-hidden="true" d="M0,0h0v0h0Z" pointer-events="none"/><g><g class="mark-rule role-axis-grid" pointer-events="none"><line transform="translate(0,320)" x2="600" y2="0" stroke="#ddd" stroke-width="1" opacity="1"/><line transform="translate(0,267)" x2="600" y2="0" stroke="#ddd" stroke-width="1" opacity="1"/><line transform="translate(0,213)" x2="600" y2="0" stroke="#ddd" stroke-width="1" opacity="1"/><line transform="translate(0,160)" x2="600" y2="0" stroke="#ddd" stroke-width="1" opacity="1"/><line transform="translate(0,107)" x2="600" y2="0" stroke="#ddd" stroke-width="1" opacity="1"/><line transform="translate(0,53)" x2="600" y2="0" stroke="#ddd" stroke-width="1" opacity="1"/><line transform="translate(0,0)" x2="600" y2="0" stroke="#ddd" stroke-width="1" opacity="1"/></g></g><path class="foreground" aria-hidden="true" d="" pointer-events="none" display="none"/></g></g><g class="mark-group role-axis" role="graphics-symbol" aria-roledescription="axis" aria-label="X-axis titled 'block_number' for a linear scale with values from 23,999,995 to 24,000,050"><g transform="translate(0.5,320.5)"><path class="background" aria-hidden="true" d="M0,0h0v0h0Z" pointer-events="none"/><g><g class="mark-rule role-axis-tick" pointer-events="none"><line transform="translate(0,0)" x2="0" y2="5" stroke="#888" stroke-width="1" opacity="1"/><line transform="translate(55,0)" x2="0" y2="5" stroke="#888" stroke-width="1" opacity="1"/><line transform="translate(109,0)" x2="0" y2="5" stroke="#888" stroke-width="1" opacity="1"/><line transform="translate(164,0)" x2="0" y2="5" stroke="#888" stroke-width="1" opacity="1"/><line transform="translate(218,0)" x2="0" y2="5" stroke="#888" stroke-width="1" opacity="1"/><line transform="translate(273,0)" x2="0" y2="5" stroke="#888" stroke-width="1" opacity="1"/><line transform="translate(327,0)" x2="0" y2="5" stroke="#888" stroke-width="1" opacity="1"/><line transform="translate(382,0)" x2="0" y2="5" stroke="#888" stroke-width="1" opacity="1"/><line transform="translate(436,0)" x2="0" y2="5" stroke="#888" stroke-width="1" opacity="1"/><line transform="translate(491,0)" x2="0" y2="5" stroke="#888" stroke-width="1" opacity="1"/><line transform="translate(545,0)" x2="0" y2="5" stroke="#888" stroke-width="1" opacity="1"/><line transform="translate(600,0)" x2="0" y2="5" stroke="#888" stroke-width="1" opacity="1"/></g><g class="mark-text role-axis-label" pointer-events="none"><text text-anchor="start" transform="translate(0,15)" font-family="sans-serif" font-size="10px" fill="#000" opacity="1">23,999,995</text><text text-anchor="middle" transform="translate(54.54545454545455,15)" font-family="sans-serif" font-size="10px" fill="#000" opacity="0">24,000,000</text><text text-anchor="middle" transform="translate(109.0909090909091,15)" font-family="sans-serif" font-size="10px" fill="#000" opacity="0">24,000,005</text><text text-anchor="middle" transform="translate(163.63636363636363,15)" font-family="sans-serif" font-size="10px" fill="#000" opacity="0">24,000,010</text><text text-anchor="middle" transform="translate(218.1818181818182,15)" font-family="sans-serif" font-size="10px" fill="#000" opacity="1">24,000,015</text><text text-anchor="middle" transform="translate(272.7272727272727,15)" font-family="sans-serif" font-size="10px" fill="#000" opacity="0">24,000,020</text><text text-anchor="middle" transform="translate(327.27272727272725,15)" font-family="sans-serif" font-size="10px" fill="#000" opacity="0">24,000,025</text><text text-anchor="middle" transform="translate(381.8181818181818,15)" font-family="sans-serif" font-size="10px" fill="#000" opacity="0">24,000,030</text><text text-anchor="middle" transform="translate(436.3636363636364,15)" font-family="sans-serif" font-size="10px" fill="#000" opacity="1">24,000,035</text><text text-anchor="middle" transform="translate(490.90909090909093,15)" font-family="sans-serif" font-size="10px" fill="#000" opacity="0">24,000,040</text><text text-anchor="middle" transform="translate(545.4545454545454,15)" font-family="sans-serif" font-size="10px" fill="#000" opacity="0">24,000,045</text><text text-anchor="end" transform="translate(600,15)" font-family="sans-serif" font-size="10px" fill="#000" opacity="0">24,000,050</text></g><g class="mark-rule role-axis-domain" pointer-events="none"><line transform="translate(0,0)" x2="600" y2="0" stroke="#888" stroke-width="1" opacity="1"/></g><g class="mark-text role-axis-title" pointer-events="none"><text text-anchor="middle" transform="translate(300,30)" font-family="sans-serif" font-size="11px" font-weight="bold" fill="#000" opacity="1">block_number</text></g></g><path class="foreground" aria-hidden="true" d="" pointer-events="none" display="none"/></g></g><g class="mark-group role-axis" role="graphics-symbol" aria-roledescription="axis" aria-label="Y-axis titled 'logs' for a linear scale with values from 0 to 1,200"><g transform="translate(0.5,0.5)"><path class="background" aria-hidden="true" d="M0,0h0v0h0Z" pointer-events="none"/><g><g class="mark-rule role-axis-tick" pointer-events="none"><line transform="translate(0,320)" x2="-5" y2="0" stroke="#888" stroke-width="1" opacity="1"/><line transform="translate(0,267)" x2="-5" y2="0" stroke="#888" stroke-width="1" opacity="1"/><line transform="translate(0,213)" x2="-5" y2="0" stroke="#888" stroke-width="1" opacity="1"/><line transform="translate(0,160)" x2="-5" y2="0" stroke="#888" stroke-width="1" opacity="1"/><line transform="translate(0,107)" x2="-5" y2="0" stroke="#888" stroke-width="1" opacity="1"/><line transform="translate(0,53)" x2="-5" y2="0" stroke="#888" stroke-width="1" opacity="1"/><line transform="translate(0,0)" x2="-5" y2="0" stroke="#888" stroke-width="1" opacity="1"/></g><g class="mark-text role-axis-label" pointer-events="none"><text text-anchor="end" transform="translate(-7,323)" font-family="sans-serif" font-size="10px" fill="#000" opacity="1">0</text><text text-anchor="end" transform="translate(-7,269.6666666666667)" font-family="sans-serif" font-size="10px" fill="#000" opacity="1">200</text><text text-anchor="end" transform="translate(-7,216.33333333333337)" font-family="sans-serif" font-size="10px" fill="#000" opacity="1">400</text><text text-anchor="end" transform="translate(-7,163)" font-family="sans-serif" font-size="10px" fill="#000" opacity="1">600</text><text text-anchor="end" transform="translate(-7,109.66666666666669)" font-family="sans-serif" font-size="10px" fill="#000" opacity="1">800</text><text text-anchor="end" transform="translate(-7,56.33333333333332)" font-family="sans-serif" font-size="10px" fill="#000" opacity="1">1,000</text><text text-anchor="end" transform="translate(-7,3)" font-family="sans-serif" font-size="10px" fill="#000" opacity="1">1,200</text></g><g class="mark-rule role-axis-domain" pointer-events="none"><line transform="translate(0,320)" x2="0" y2="-320" stroke="#888" stroke-width="1" opacity="1"/></g><g class="mark-text role-axis-title" pointer-events="none"><text text-anchor="middle" transform="translate(-51,160) rotate(-90) translate(0,-2)" font-family="sans-serif" font-size="11px" font-weight="bold" fill="#000" opacity="1">logs</text></g></g><path class="foreground" aria-hidden="true" d="" pointer-events="none" display="none"/></g></g><g class="mark-rect role-mark marks" role="graphics-object" aria-roledescription="rect mark container"><path aria-label="block_number: 24000000; logs: 362" role="graphics-symbol" aria-roledescription="bar" d="M52.04545454545455,223.46666666666664h5v96.53333333333336h-5Z" fill="#4c78a8"/><path aria-label="block_number: 24000001; logs: 467" role="graphics-symbol" aria-roledescription="bar" d="M62.95454545454545,195.46666666666667h5v124.53333333333333h-5Z" fill="#4c78a8"/><path aria-label="block_number: 24000002; logs: 732" role="graphics-symbol" aria-roledescription="bar" d="M73.86363636363636,124.80000000000001h5v195.2h-5Z" fill="#4c78a8"/><path aria-label="block_number: 24000003; logs: 436" role="graphics-symbol" aria-roledescription="bar" d="M84.77272727272727,203.73333333333335h5v116.26666666666665h-5Z" fill="#4c78a8"/><path aria-label="block_number: 24000004; logs: 534" role="graphics-symbol" aria-roledescription="bar" d="M95.68181818181819,177.59999999999997h5v142.40000000000003h-5Z" fill="#4c78a8"/><path aria-label="block_number: 24000005; logs: 1102" role="graphics-symbol" aria-roledescription="bar" d="M106.5909090909091,26.133333333333333h5v293.8666666666667h-5Z" fill="#4c78a8"/><path aria-label="block_number: 24000006; logs: 556" role="graphics-symbol" aria-roledescription="bar" d="M117.5,171.73333333333332h5v148.26666666666668h-5Z" fill="#4c78a8"/><path aria-label="block_number: 24000007; logs: 586" role="graphics-symbol" aria-roledescription="bar" d="M128.4090909090909,163.73333333333335h5v156.26666666666665h-5Z" fill="#4c78a8"/><path aria-label="block_number: 24000008; logs: 514" role="graphics-symbol" aria-roledescription="bar" d="M139.3181818181818,182.93333333333334h5v137.06666666666666h-5Z" fill="#4c78a8"/><path aria-label="block_number: 24000009; logs: 818" role="graphics-symbol" aria-roledescription="bar" d="M150.22727272727272,101.86666666666667h5v218.13333333333333h-5Z" fill="#4c78a8"/><path aria-label="block_number: 24000010; logs: 427" role="graphics-symbol" aria-roledescription="bar" d="M161.13636363636363,206.13333333333333h5v113.86666666666667h-5Z" fill="#4c78a8"/><path aria-label="block_number: 24000011; logs: 646" role="graphics-symbol" aria-roledescription="bar" d="M172.04545454545453,147.73333333333335h5v172.26666666666665h-5Z" fill="#4c78a8"/><path aria-label="block_number: 24000012; logs: 410" role="graphics-symbol" aria-roledescription="bar" d="M182.95454545454544,210.66666666666666h5v109.33333333333334h-5Z" fill="#4c78a8"/><path aria-label="block_number: 24000013; logs: 720" role="graphics-symbol" aria-roledescription="bar" d="M193.86363636363637,128h5v192h-5Z" fill="#4c78a8"/><path aria-label="block_number: 24000014; logs: 508" role="graphics-symbol" aria-roledescription="bar" d="M204.77272727272728,184.53333333333333h5v135.46666666666667h-5Z" fill="#4c78a8"/><path aria-label="block_number: 24000015; logs: 837" role="graphics-symbol" aria-roledescription="bar" d="M215.6818181818182,96.8h5v223.2h-5Z" fill="#4c78a8"/><path aria-label="block_number: 24000016; logs: 388" role="graphics-symbol" aria-roledescription="bar" d="M226.5909090909091,216.53333333333336h5v103.46666666666664h-5Z" fill="#4c78a8"/><path aria-label="block_number: 24000017; logs: 635" role="graphics-symbol" aria-roledescription="bar" d="M237.5,150.66666666666666h5v169.33333333333334h-5Z" fill="#4c78a8"/><path aria-label="block_number: 24000018; logs: 305" role="graphics-symbol" aria-roledescription="bar" d="M248.4090909090909,238.66666666666669h5v81.33333333333331h-5Z" fill="#4c78a8"/><path aria-label="block_number: 24000019; logs: 752" role="graphics-symbol" aria-roledescription="bar" d="M259.3181818181818,119.46666666666665h5v200.53333333333336h-5Z" fill="#4c78a8"/><path aria-label="block_number: 24000020; logs: 824" role="graphics-symbol" aria-roledescription="bar" d="M270.2272727272727,100.26666666666668h5v219.73333333333332h-5Z" fill="#4c78a8"/><path aria-label="block_number: 24000021; logs: 717" role="graphics-symbol" aria-roledescription="bar" d="M281.1363636363636,128.79999999999998h5v191.20000000000002h-5Z" fill="#4c78a8"/><path aria-label="block_number: 24000022; logs: 438" role="graphics-symbol" aria-roledescription="bar" d="M292.04545454545456,203.2h5v116.80000000000001h-5Z" fill="#4c78a8"/><path aria-label="block_number: 24000023; logs: 528" role="graphics-symbol" aria-roledescription="bar" d="M302.95454545454544,179.20000000000002h5v140.79999999999998h-5Z" fill="#4c78a8"/><path aria-label="block_number: 24000024; logs: 625" role="graphics-symbol" aria-roledescription="bar" d="M313.8636363636363,153.33333333333331h5v166.66666666666669h-5Z" fill="#4c78a8"/><path aria-label="block_number: 24000025; logs: 628" role="graphics-symbol" aria-roledescription="bar" d="M324.77272727272725,152.53333333333333h5v167.46666666666667h-5Z" fill="#4c78a8"/><path aria-label="block_number: 24000026; logs: 637" role="graphics-symbol" aria-roledescription="bar" d="M335.6818181818182,150.13333333333333h5v169.86666666666667h-5Z" fill="#4c78a8"/><path aria-label="block_number: 24000027; logs: 659" role="graphics-symbol" aria-roledescription="bar" d="M346.59090909090907,144.26666666666665h5v175.73333333333335h-5Z" fill="#4c78a8"/><path aria-label="block_number: 24000028; logs: 531" role="graphics-symbol" aria-roledescription="bar" d="M357.5,178.4h5v141.6h-5Z" fill="#4c78a8"/><path aria-label="block_number: 24000029; logs: 540" role="graphics-symbol" aria-roledescription="bar" d="M368.4090909090909,176h5v144h-5Z" fill="#4c78a8"/><path aria-label="block_number: 24000030; logs: 628" role="graphics-symbol" aria-roledescription="bar" d="M379.3181818181818,152.53333333333333h5v167.46666666666667h-5Z" fill="#4c78a8"/><path aria-label="block_number: 24000031; logs: 610" role="graphics-symbol" aria-roledescription="bar" d="M390.22727272727275,157.33333333333334h5v162.66666666666666h-5Z" fill="#4c78a8"/><path aria-label="block_number: 24000032; logs: 240" role="graphics-symbol" aria-roledescription="bar" d="M401.1363636363636,256h5v64h-5Z" fill="#4c78a8"/><path aria-label="block_number: 24000033; logs: 571" role="graphics-symbol" aria-roledescription="bar" d="M412.04545454545456,167.73333333333335h5v152.26666666666665h-5Z" fill="#4c78a8"/><path aria-label="block_number: 24000034; logs: 459" role="graphics-symbol" aria-roledescription="bar" d="M422.95454545454544,197.59999999999997h5v122.40000000000003h-5Z" fill="#4c78a8"/><path aria-label="block_number: 24000035; logs: 513" role="graphics-symbol" aria-roledescription="bar" d="M433.8636363636364,183.2h5v136.8h-5Z" fill="#4c78a8"/><path aria-label="block_number: 24000036; logs: 530" role="graphics-symbol" aria-roledescription="bar" d="M444.7727272727273,178.66666666666669h5v141.33333333333331h-5Z" fill="#4c78a8"/><path aria-label="block_number: 24000037; logs: 622" role="graphics-symbol" aria-roledescription="bar" d="M455.6818181818182,154.13333333333333h5v165.86666666666667h-5Z" fill="#4c78a8"/><path aria-label="block_number: 24000038; logs: 506" role="graphics-symbol" aria-roledescription="bar" d="M466.5909090909091,185.06666666666666h5v134.93333333333334h-5Z" fill="#4c78a8"/><path aria-label="block_number: 24000039; logs: 712" role="graphics-symbol" aria-roledescription="bar" d="M477.5,130.13333333333333h5v189.86666666666667h-5Z" fill="#4c78a8"/><path aria-label="block_number: 24000040; logs: 482" role="graphics-symbol" aria-roledescription="bar" d="M488.40909090909093,191.4666666666667h5v128.5333333333333h-5Z" fill="#4c78a8"/><path aria-label="block_number: 24000041; logs: 700" role="graphics-symbol" aria-roledescription="bar" d="M499.3181818181818,133.33333333333331h5v186.66666666666669h-5Z" fill="#4c78a8"/><path aria-label="block_number: 24000042; logs: 702" role="graphics-symbol" aria-roledescription="bar" d="M510.22727272727275,132.8h5v187.2h-5Z" fill="#4c78a8"/><path aria-label="block_number: 24000043; logs: 497" role="graphics-symbol" aria-roledescription="bar" d="M521.1363636363636,187.46666666666667h5v132.53333333333333h-5Z" fill="#4c78a8"/><path aria-label="block_number: 24000044; logs: 447" role="graphics-symbol" aria-roledescription="bar" d="M532.0454545454545,200.79999999999998h5v119.20000000000002h-5Z" fill="#4c78a8"/><path aria-label="block_number: 24000045; logs: 723" role="graphics-symbol" aria-roledescription="bar" d="M542.9545454545454,127.19999999999999h5v192.8h-5Z" fill="#4c78a8"/><path aria-label="block_number: 24000046; logs: 392" role="graphics-symbol" aria-roledescription="bar" d="M553.8636363636364,215.46666666666667h5v104.53333333333333h-5Z" fill="#4c78a8"/><path aria-label="block_number: 24000047; logs: 418" role="graphics-symbol" aria-roledescription="bar" d="M564.7727272727273,208.5333333333333h5v111.4666666666667h-5Z" fill="#4c78a8"/><path aria-label="block_number: 24000048; logs: 380" role="graphics-symbol" aria-roledescription="bar" d="M575.6818181818181,218.66666666666669h5v101.33333333333331h-5Z" fill="#4c78a8"/><path aria-label="block_number: 24000049; logs: 535" role="graphics-symbol" aria-roledescription="bar" d="M586.5909090909091,177.33333333333334h5v142.66666666666666h-5Z" fill="#4c78a8"/></g><g class="mark-group role-title"><g transform="translate(300,-22)"><path class="background" aria-hidden="true" d="M0,0h0v0h0Z" pointer-events="none"/><g><g class="mark-text role-title-text" role="graphics-symbol" aria-roledescription="title" aria-label="Title text 'Logs per block (live Base) / ブロック別ログ件数'" pointer-events="none"><text text-anchor="middle" transform="translate(0,10)" font-family="sans-serif" font-size="13px" font-weight="bold" fill="#000" opacity="1">Logs per block (live Base) / ブロック別ログ件数</text></g></g><path class="foreground" aria-hidden="true" d="" pointer-events="none" display="none"/></g></g></g><path class="foreground" aria-hidden="true" d="" display="none"/></g></g></g></svg>