<svg xmlns="http://www.w3.org/2000/svg" xmlns:xlink="http://www.w3.org/1999/xlink" version="1.1" class="marks" width="673" height="384" viewBox="0 0 673 384"><rect width="673" height="384" fill="white"/><g fill="none" stroke-miterlimit="10" transform="translate(67,27)"><g class="mark-group role-frame root" role="graphics-object" aria-roledescription="group mark container"><g transform="translate(0,0)"><path class="background" aria-hidden="true" d="M0.5,0.5h600v320h-600Z" stroke="#ddd"/><g><g class="mark-group role-axis" aria-hidden="true"><g transform="translate(0.5,320.5)"><path class="background" aria-hidden="true" d="M0,0h0v0h0Z" pointer-events="none"/><g><g class="mark-rule role-axis-grid" pointer-events="none"><line transform="translate(0,-320)" x2="0" y2="320" stroke="#ddd" stroke-width="1" opacity="1"/><line transform="translate(46,-320)" x2="0" y2="320" stroke="#ddd" stroke-width="1" opacity="1"/><line transform="translate(92,-320)" x2="0" y2="320" stroke="#ddd" stroke-width="1" opacity="1"/><line transform="translate(138,-320)" x2="0" y2="320" stroke="#ddd" stroke-width="1" opacity="1"/><line transform="translate(185,-320)" x2="0" y2="320" stroke="#ddd" stroke-width="1" opacity="1"/><line transform="translate(231,-320)" x2="0" y2="320" stroke="#ddd" stroke-width="1" opacity="1"/><line transform="translate(277,-320)" x2="0" y2="320" stroke="#ddd" stroke-width="1" opacity="1"/><line transform="translate(323,-320)" x2="0" y2="320" stroke="#ddd" stroke-width="1" opacity="1"/><line transform="translate(369,-320)" x2="0" y2="320" stroke="#ddd" stroke-width="1" opacity="1"/><line transform="translate(415,-320)" x2="0" y2="320" stroke="#ddd" stroke-width="1" opacity="1"/><line transform="translate(462,-320)" x2="0" y2="320" stroke="#ddd" stroke-width="1" opacity="1"/><line transform="translate(508,-320)" x2="0" y2="320" stroke="#ddd" stroke-width="1" opacity="1"/><line transform="translate(554,-320)" x2="0" y2="320" stroke="#ddd" stroke-width="1" opacity="1"/><line transform="translate(600,-320)" x2="0" y2="320" stroke="#ddd" stroke-width="1" opacity="1"/></g></g><path class="foreground" aria-hidden="true" d="" pointer-events="none" display="none"/></g></g><g class="mark-group role-axis" aria-hidden="true"><g transform="translate(0.5,0.5)"><path class="background" aria-hidden="true" d="M0,0h0v0h0Z" pointer-events="none"/><g><g class="mark-rule role-axis-grid" pointer-events="none"><line transform="translate(0,320)" x2="600" y2="0" stroke="#ddd" stroke-width="1" opacity="1"/><line transform="translate(0,267)" x2="600" y2="0" stroke="#ddd" stroke-width="1" opacity="1"/><line transform="translate(0,213)" x2="600" y2="0" stroke="#ddd" stroke-width="1" opacity="1"/><line transform="translate(0,160)" x2="600" y2="0" stroke="#ddd" stroke-width="1" opacity="1"/><line transform="translate(0,107)" x2="600" y2="0" stroke="#ddd" stroke-width="1" opacity="1"/><line transform="translate(0,53)" x2="600" y2="0" stroke="#ddd" stroke-width="1" opacity="1"/><line transform="translate(0,0)" x2="600" y2="0" stroke="#ddd" stroke-width="1" opacity="1"/></g></g><path class="foreground" aria-hidden="true" d="" pointer-events="none" display="none"/></g></g><g class="mark-group role-axis" role="graphics-symbol" aria-roledescription="axis" aria-label="X-axis titled 'rank' for a linear scale with values from 0 to 26"><g transform="translate(0.5,320.5)"><path class="background" aria-hidden="true" d="M0,0h0v0h0Z" pointer-events="none"/><g><g class="mark-rule role-axis-tick" pointer-events="none"><line transform="translate(0,0)" x2="0" y2="5" stroke="#888" stroke-width="1" opacity="1"/><line transform="translate(46,0)" x2="0" y2="5" stroke="#888" stroke-width="1" opacity="1"/><line transform="translate(92,0)" x2="0" y2="5" stroke="#888" stroke-width="1" opacity="1"/><line transform="translate(138,0)" x2="0" y2="5" stroke="#888" stroke-width="1" opacity="1"/><line transform="translate(185,0)" x2="0" y2="5" stroke="#888" stroke-width="1" opacity="1"/><line transform="translate(231,0)" x2="0" y2="5" stroke="#888" stroke-width="1" opacity="1"/><line transform="translate(277,0)" x2="0" y2="5" stroke="#888" stroke-width="1" opacity="1"/><line transform="translate(323,0)" x2="0" y2="5" stroke="#888" stroke-width="1" opacity="1"/><line transform="translate(369,0)" x2="0" y2="5" stroke="#888" stroke-width="1" opacity="1"/><line transform="translate(415,0)" x2="0" y2="5" stroke="#888" stroke-width="1" opacity="1"/><line transform="translate(462,0)" x2="0" y2="5" stroke="#888" stroke-width="1" opacity="1"/><line transform="translate(508,0)" x2="0" y2="5" stroke="#888" stroke-width="1" opacity="1"/><line transform="translate(554,0)" x2="0" y2="5" stroke="#888" stroke-width="1" opacity="1"/><line transform="translate(600,0)" x2="0" y2="5" stroke="#888" stroke-width="1" opacity="1"/></g><g class="mark-text role-axis-label" pointer-events="none"><text text-anchor="start" transform="translate(0,15)" font-family="sans-serif" font-size="10px" fill="#000" opacity="1">0</text><text text-anchor="middle" transform="translate(46.15384615384615,15)" font-family="sans-serif" font-size="10px" fill="#000" opacity="1">2</text><text text-anchor="middle" transform="translate(92.3076923076923,15)" font-family="sans-serif" font-size="10px" fill="#000" opacity="1">4</text><text text-anchor="middle" transform="translate(138.46153846153848,15)" font-family="sans-serif" font-size="10px" fill="#000" opacity="1">6</text><text text-anchor="middle" transform="translate(184.6153846153846,15)" font-family="sans-serif" font-size="10px" fill="#000" opacity="1">8</text><text text-anchor="middle" transform="translate(230.76923076923077,15)" font-family="sans-serif" font-size="10px" fill="#000" opacity="1">10</text><text text-anchor="middle" transform="translate(276.92307692307696,15)" font-family="sans-serif" font-size="10px" fill="#000" opacity="1">12</text><text text-anchor="middle" transform="translate(323.07692307692304,15)" font-family="sans-serif" font-size="10px" fill="#000" opacity="1">14</text><text text-anchor="middle" transform="translate(369.2307692307692,15)" font-family="sans-serif" font-size="10px" fill="#000" opacity="1">16</text><text text-anchor="middle" transform="translate(415.38461538461536,15)" font-family="sans-serif" font-size="10px" fill="#000" opacity="1">18</text><text text-anchor="middle" transform="translate(461.53846153846155,15)" font-family="sans-serif" font-size="10px" fill="#000" opacity="1">20</text><text text-anchor="middle" transform="translate(507.6923076923077,15)" font-family="sans-serif" font-size="10px" fill="#000" opacity="1">22</text><text text-anchor="middle" transform="translate(553.8461538461539,15)" font-family="sans-serif" font-size="10px" fill="#000" opacity="1">24</text><text text-anchor="end" transform="translate(600,15)" font-family="sans-serif" font-size="10px" fill="#000" opacity="1">26</text></g><g class="mark-rule role-axis-domain" pointer-events="none"><line transform="translate(0,0)" x2="600" y2="0" stroke="#888" stroke-width="1" opacity="1"/></g><g class="mark-text role-axis-title" pointer-events="none"><text text-anchor="middle" transform="translate(300,30)" font-family="sans-serif" font-size="11px" font-weight="bold" fill="#000" opacity="1">rank</text></g></g><path class="foreground" aria-hidden="true" d="" pointer-events="none" display="none"/></g></g><g class="mark-group role-axis" role="graphics-symbol" aria-roledescription="axis" aria-label="Y-axis titled 'logs' for a linear scale with values from 0 to 6,000"><g transform="translate(0.5,0.5)"><path class="background" aria-hidden="true" d="M0,0h0v0h0Z" pointer-events="none"/><g><g class="mark-rule role-axis-tick" pointer-events="none"><line transform="translate(0,320)" x2="-5" y2="0" stroke="#888" stroke-width="1" opacity="1"/><line transform="translate(0,267)" x2="-5" y2="0" stroke="#888" stroke-width="1" opacity="1"/><line transform="translate(0,213)" x2="-5" y2="0" stroke="#888" stroke-width="1" opacity="1"/><line transform="translate(0,160)" x2="-5" y2="0" stroke="#888" stroke-width="1" opacity="1"/><line transform="translate(0,107)" x2="-5" y2="0" stroke="#888" stroke-width="1" opacity="1"/><line transform="translate(0,53)" x2="-5" y2="0" stroke="#888" stroke-width="1" opacity="1"/><line transform="translate(0,0)" x2="-5" y2="0" stroke="#888" stroke-width="1" opacity="1"/></g><g class="mark-text role-axis-label" pointer-events="none"><text text-anchor="end" transform="translate(-7,323)" font-family="sans-serif" font-size="10px" fill="#000" opacity="1">0</text><text text-anchor="end" transform="translate(-7,269.6666666666667)" font-family="sans-serif" font-size="10px" fill="#000" opacity="1">1,000</text><text text-anchor="end" transform="translate(-7,216.33333333333337)" font-family="sans-serif" font-size="10px" fill="#000" opacity="1">2,000</text><text text-anchor="end" transform="translate(-7,163)" font-family="sans-serif" font-size="10px" fill="#000" opacity="1">3,000</text><text text-anchor="end" transform="translate(-7,109.66666666666669)" font-family="sans-serif" font-size="10px" fill="#000" opacity="1">4,000</text><text text-anchor="end" transform="translate(-7,56.33333333333332)" font-family="sans-serif" font-size="10px" fill="#000" opacity="1">5,000</text><text text-anchor="end" transform="translate(-7,3)" font-family="sans-serif" font-size="10px" fill="#000" opacity="1">6,000</text></g><g class="mark-rule role-axis-domain" pointer-events="none"><line transform="translate(0,320)" x2="0" y2="-320" stroke="#888" stroke-width="1" opacity="1"/></g><g class="mark-text role-axis-title" pointer-events="none"><text text-anchor="middle" transform="translate(-51,160) rotate(-90) translate(0,-2)" font-family="sans-serif" font-size="11px" font-weight="bold" fill="#000" opacity="1">logs</text></g></g><path class="foreground" aria-hidden="true" d="" pointer-events="none" display="none"/></g></g><g class="mark-rect role-mark marks" role="graphics-object" aria-roledescription="rect mark container"><path aria-label="rank: 1; logs: 5841" role="graphics-symbol" aria-roledescription="bar" d="M20.576923076923077,8.47999999999999h5v311.52h-5Z" fill="#4c78a8"/><path aria-label="rank: 2; logs: 1476" role="graphics-symbol" aria-roledescription="bar" d="M43.65384615384615,241.28h5v78.72h-5Z" fill="#4c78a8"/><path aria-label="rank: 3; logs: 1393" role="graphics-symbol" aria-roledescription="bar" d="M66.73076923076924,245.70666666666668h5v74.29333333333332h-5Z" fill="#4c78a8"/><path aria-label="rank: 4; logs: 601" role="graphics-symbol" aria-roledescription="bar" d="M89.8076923076923,287.94666666666666h5v32.05333333333334h-5Z" fill="#4c78a8"/><path aria-label="rank: 5; logs: 589" role="graphics-symbol" aria-roledescription="bar" d="M112.88461538461539,288.5866666666667h5v31.4133333333333h-5Z" fill="#4c78a8"/><path aria-label="rank: 6; logs: 529" role="graphics-symbol" aria-roledescription="bar" d="M135.96153846153848,291.78666666666663h5v28.213333333333367h-5Z" fill="#4c78a8"/><path aria-label="rank: 7; logs: 452" role="graphics-symbol" aria-roledescription="bar" d="M159.03846153846152,295.8933333333333h5v24.106666666666683h-5Z" fill="#4c78a8"/><path aria-label="rank: 8; logs: 429" role="graphics-symbol" aria-roledescription="bar" d="M182.1153846153846,297.12h5v22.879999999999995h-5Z" fill="#4c78a8"/><path aria-label="rank: 9; logs: 325" role="graphics-symbol" aria-roledescription="bar" d="M205.19230769230768,302.66666666666663h5v17.33333333333337h-5Z" fill="#4c78a8"/><path aria-label="rank: 10; logs: 298" role="graphics-symbol" aria-roledescription="bar" d="M228.26923076923077,304.1066666666667h5v15.893333333333317h-5Z" fill="#4c78a8"/><path aria-label="rank: 11; logs: 296" role="graphics-symbol" aria-roledescription="bar" d="M251.34615384615384,304.2133333333333h5v15.78666666666669h-5Z" fill="#4c78a8"/><path aria-label="rank: 12; logs: 290" role="graphics-symbol" aria-roledescription="bar" d="M274.42307692307696,304.5333333333333h5v15.466666666666697h-5Z" fill="#4c78a8"/><path aria-label="rank: 13; logs: 269" role="graphics-symbol" aria-roledescription="bar" d="M297.5,305.65333333333336h5v14.346666666666636h-5Z" fill="#4c78a8"/><path aria-label="rank: 14; logs: 230" role="graphics-symbol" aria-roledescription="bar" d="M320.57692307692304,307.73333333333335h5v12.266666666666652h-5Z" fill="#4c78a8"/><path aria-label="rank: 15; logs: 218" role="graphics-symbol" aria-roledescription="bar" d="M343.65384615384613,308.37333333333333h5v11.626666666666665h-5Z" fill="#4c78a8"/><path aria-label="rank: 16; logs: 210" role="graphics-symbol" aria-roledescription="bar" d="M366.7307692307692,308.8h5v11.199999999999989h-5Z" fill="#4c78a8"/><path aria-label="rank: 17; logs: 204" role="graphics-symbol" aria-roledescription="bar" d="M389.8076923076923,309.12h5v10.879999999999995h-5Z" fill="#4c78a8"/><path aria-label="rank: 18; logs: 197" role="graphics-symbol" aria-roledescription="bar" d="M412.88461538461536,309.49333333333334h5v10.50666666666666h-5Z" fill="#4c78a8"/><path aria-label="rank: 19; logs: 180" role="graphics-symbol" aria-roledescription="bar" d="M435.96153846153845,310.4h5v9.600000000000023h-5Z" fill="#4c78a8"/><path aria-label="rank: 20; logs: 175" role="graphics-symbol" aria-roledescription="bar" d="M459.03846153846155,310.6666666666667h5v9.333333333333314h-5Z" fill="#4c78a8"/><path aria-label="rank: 21; logs: 170" role="graphics-symbol" aria-roledescription="bar" d="M482.11538461538464,310.93333333333334h5v9.066666666666663h-5Z" fill="#4c78a8"/><path aria-label="rank: 22; logs: 162" role="graphics-symbol" aria-roledescription="bar" d="M505.1923076923077,311.36h5v8.639999999999986h-5Z" fill="#4c78a8"/><path aria-label="rank: 23; logs: 158" role="graphics-symbol" aria-roledescription="bar" d="M528.2692307692307,311.5733333333333h5v8.426666666666677h-5Z" fill="#4c78a8"/><path aria-label="rank: 24; logs: 149" role="graphics-symbol" aria-roledescription="bar" d="M551.3461538461539,312.05333333333334h5v7.946666666666658h-5Z" fill="#4c78a8"/><path aria-label="rank: 25; logs: 149" role="graphics-symbol" aria-roledescription="bar" d="M574.4230769230769,312.05333333333334h5v7.946666666666658h-5Z" fill="#4c78a8"/></g><g class="mark-group role-title"><g transform="translate(300,-22)"><path class="background" aria-hidden="true" d="M0,0h0v0h0Z" pointer-events="none"/><g><g class="mark-text role-title-text" role="graphics-symbol" aria-roledescription="title" aria-label="Title text 'Top 25 contracts by log count (live Base) / 上位25コントラクト'" pointer-events="none"><text text-anchor="middle" transform="translate(0,10)" font-family="sans-serif" font-size="13px" font-weight="bold" fill="#000" opacity="1">Top 25 contracts by log count (live Base) / 上位25コントラクト</text></g></g><path class="foreground" aria-hidden="true" d="" pointer-events="none" display="none"/></g></g></g><path class="foreground" aria-hidden="true" d="" display="none"/></g></g></g></svg>