<svg xmlns="http://www.w3.org/2000/svg" xmlns:xlink="http://www.w3.org/1999/xlink" version="1.1" class="marks" width="680" height="478" viewBox="0 0 680 478"><rect width="680" height="478" fill="white"/><g fill="none" stroke-miterlimit="10" transform="translate(75,27)"><g class="mark-group role-frame root" role="graphics-object" aria-roledescription="group mark container"><g transform="translate(0,0)"><path class="background" aria-hidden="true" d="M0.5,0.5h600v320h-600Z" stroke="#ddd"/><g><g class="mark-group role-axis" aria-hidden="true"><g transform="translate(0.5,0.5)"><path class="background" aria-hidden="true" d="M0,0h0v0h0Z" pointer-events="none"/><g><g class="mark-rule role-axis-grid" pointer-events="none"><line transform="translate(0,320)" x2="600" y2="0" stroke="#ddd" stroke-width="1" opacity="1"/><line transform="translate(0,291)" x2="600" y2="0" stroke="#ddd" stroke-width="1" opacity="1"/><line transform="translate(0,262)" x2="600" y2="0" stroke="#ddd" stroke-width="1" opacity="1"/><line transform="translate(0,233)" x2="600" y2="0" stroke="#ddd" stroke-width="1" opacity="1"/><line transform="translate(0,204)" x2="600" y2="0" stroke="#ddd" stroke-width="1" opacity="1"/><line transform="translate(0,175)" x2="600" y2="0" stroke="#ddd" stroke-width="1" opacity="1"/><line transform="translate(0,145)" x2="600" y2="0" stroke="#ddd" stroke-width="1" opacity="1"/><line transform="translate(0,116)" x2="600" y2="0" stroke="#ddd" stroke-width="1" opacity="1"/><line transform="translate(0,87)" x2="600" y2="0" stroke="#ddd" stroke-width="1" opacity="1"/><line transform="translate(0,58)" x2="600" y2="0" stroke="#ddd" stroke-width="1" opacity="1"/><line transform="translate(0,29)" x2="600" y2="0" stroke="#ddd" stroke-width="1" opacity="1"/><line transform="translate(0,0)" x2="600" y2="0" stroke="#ddd" stroke-width="1" opacity="1"/></g></g><path class="foreground" aria-hidden="true" d="" pointer-events="none" display="none"/></g></g><g class="mark-group role-axis" role="graphics-symbol" aria-roledescription="axis" aria-label="X-axis titled 'topic0' for a discrete scale with 15 values: 0x0c396cd989…, 0x19b4727925…, 0x1c411e9a96…, 0x40d0efd1a5…, 0x49628fd147…, ending with 0xfc6d279aa2…"><g transform="translate(0.5,320.5)"><path class="background" aria-hidden="true" d="M0,0h0v0h0Z" pointer-events="none"/><g><g class="mark-rule role-axis-tick" pointer-events="none"><line transform="translate(20,0)" x2="0" y2="5" stroke="#888" stroke-width="1" opacity="1"/><line transform="translate(60,0)" x2="0" y2="5" stroke="#888" stroke-width="1" opacity="1"/><line transform="translate(100,0)" x2="0" y2="5" stroke="#888" stroke-width="1" opacity="1"/><line transform="translate(140,0)" x2="0" y2="5" stroke="#888" stroke-width="1" opacity="1"/><line transform="translate(180,0)" x2="0" y2="5" stroke="#888" stroke-width="1" opacity="1"/><line transform="translate(220,0)" x2="0" y2="5" stroke="#888" stroke-width="1" opacity="1"/><line transform="translate(260,0)" x2="0" y2="5" stroke="#888" stroke-width="1" opacity="1"/><line transform="translate(300,0)" x2="0" y2="5" stroke="#888" stroke-width="1" opacity="1"/><line transform="translate(340,0)" x2="0" y2="5" stroke="#888" stroke-width="1" opacity="1"/><line transform="translate(380,0)" x2="0" y2="5" stroke="#888" stroke-width="1" opacity="1"/><line transform="translate(420,0)" x2="0" y2="5" stroke="#888" stroke-width="1" opacity="1"/><line transform="translate(460,0)" x2="0" y2="5" stroke="#888" stroke-width="1" opacity="1"/><line transform="translate(500,0)" x2="0" y2="5" stroke="#888" stroke-width="1" opacity="1"/><line transform="translate(540,0)" x2="0" y2="5" stroke="#888" stroke-width="1" opacity="1"/><line transform="translate(580,0)" x2="0" y2="5" stroke="#888" stroke-width="1" opacity="1"/></g><g class="mark-text role-axis-label" pointer-events="none"><text text-anchor="end" transform="translate(19.5,7) rotate(270) translate(0,3)" font-family="sans-serif" font-size="10px" fill="#000" opacity="1">0x0c396cd989…</text><text text-anchor="end" transform="translate(59.5,7) rotate(270) translate(0,3)" font-family="sans-serif" font-size="10px" fill="#000" opacity="1">0x19b4727925…</text><text text-anchor="end" transform="translate(99.5,7) rotate(270) translate(0,3)" font-family="sans-serif" font-size="10px" fill="#000" opacity="1">0x1c411e9a96…</text><text text-anchor="end" transform="translate(139.5,7) rotate(270) translate(0,3)" font-family="sans-serif" font-size="10px" fill="#000" opacity="1">0x40d0efd1a5…</text><text text-anchor="end" transform="translate(179.5,7) rotate(270) translate(0,3)" font-family="sans-serif" font-size="10px" fill="#000" opacity="1">0x49628fd147…</text><text text-anchor="end" transform="translate(219.5,7) rotate(270) translate(0,3)" font-family="sans-serif" font-size="10px" fill="#000" opacity="1">0x70935338e6…</text><text text-anchor="end" transform="translate(259.5,7) rotate(270) translate(0,3)" font-family="sans-serif" font-size="10px" fill="#000" opacity="1">0x729fedf706…</text><text text-anchor="end" transform="translate(299.5,7) rotate(270) translate(0,3)" font-family="sans-serif" font-size="10px" fill="#000" opacity="1">0x7fcf532c15…</text><text text-anchor="end" transform="translate(339.5,7) rotate(270) translate(0,3)" font-family="sans-serif" font-size="10px" fill="#000" opacity="1">0x8c5be1e5eb…</text><text text-anchor="end" transform="translate(379.5,7) rotate(270) translate(0,3)" font-family="sans-serif" font-size="10px" fill="#000" opacity="1">0xc42079f94a…</text><text text-anchor="end" transform="translate(419.5,7) rotate(270) translate(0,3)" font-family="sans-serif" font-size="10px" fill="#000" opacity="1">0xd78ad95fa4…</text><text text-anchor="end" transform="translate(459.5,7) rotate(270) translate(0,3)" font-family="sans-serif" font-size="10px" fill="#000" opacity="1">0xddf252ad1b…</text><text text-anchor="end" transform="translate(499.5,7) rotate(270) translate(0,3)" font-family="sans-serif" font-size="10px" fill="#000" opacity="1">0xe1fffcc492…</text><text text-anchor="end" transform="translate(539.5,7) rotate(270) translate(0,3)" font-family="sans-serif" font-size="10px" fill="#000" opacity="1">0xf8e1a15aba…</text><text text-anchor="end" transform="translate(579.5,7) rotate(270) translate(0,3)" font-family="sans-serif" font-size="10px" fill="#000" opacity="1">0xfc6d279aa2…</text></g><g class="mark-rule role-axis-domain" pointer-events="none"><line transform="translate(0,0)" x2="600" y2="0" stroke="#888" stroke-width="1" opacity="1"/></g><g class="mark-text role-axis-title" pointer-events="none"><text text-anchor="middle" transform="translate(300,124)" font-family="sans-serif" font-size="11px" font-weight="bold" fill="#000" opacity="1">topic0</text></g></g><path class="foreground" aria-hidden="true" d="" pointer-events="none" display="none"/></g></g><g class="mark-group role-axis" role="graphics-symbol" aria-roledescription="axis" aria-label="Y-axis titled 'hits' for a linear scale with values from 0 to 11,000"><g transform="translate(0.5,0.5)"><path class="background" aria-hidden="true" d="M0,0h0v0h0Z" pointer-events="none"/><g><g class="mark-rule role-axis-tick" pointer-events="none"><line transform="translate(0,320)" x2="-5" y2="0" stroke="#888" stroke-width="1" opacity="1"/><line transform="translate(0,291)" x2="-5" y2="0" stroke="#888" stroke-width="1" opacity="1"/><line transform="translate(0,262)" x2="-5" y2="0" stroke="#888" stroke-width="1" opacity="1"/><line transform="translate(0,233)" x2="-5" y2="0" stroke="#888" stroke-width="1" opacity="1"/><line transform="translate(0,204)" x2="-5" y2="0" stroke="#888" stroke-width="1" opacity="1"/><line transform="translate(0,175)" x2="-5" y2="0" stroke="#888" stroke-width="1" opacity="1"/><line transform="translate(0,145)" x2="-5" y2="0" stroke="#888" stroke-width="1" opacity="1"/><line transform="translate(0,116)" x2="-5" y2="0" stroke="#888" stroke-width="1" opacity="1"/><line transform="translate(0,87)" x2="-5" y2="0" stroke="#888" stroke-width="1" opacity="1"/><line transform="translate(0,58)" x2="-5" y2="0" stroke="#888" stroke-width="1" opacity="1"/><line transform="translate(0,29)" x2="-5" y2="0" stroke="#888" stroke-width="1" opacity="1"/><line transform="translate(0,0)" x2="-5" y2="0" stroke="#888" stroke-width="1" opacity="1"/></g><g class="mark-text role-axis-label" pointer-events="none"><text text-anchor="end" transform="translate(-7,323)" font-family="sans-serif" font-size="10px" fill="#000" opacity="1">0</text><text text-anchor="end" transform="translate(-7,293.9090909090909)" font-family="sans-serif" font-size="10px" fill="#000" opacity="1">1,000</text><text text-anchor="end" transform="translate(-7,264.8181818181818)" font-family="sans-serif" font-size="10px" fill="#000" opacity="1">2,000</text><text text-anchor="end" transform="translate(-7,235.72727272727275)" font-family="sans-serif" font-size="10px" fill="#000" opacity="1">3,000</text><text text-anchor="end" transform="translate(-7,206.63636363636363)" font-family="sans-serif" font-size="10px" fill="#000" opacity="1">4,000</text><text text-anchor="end" transform="translate(-7,177.54545454545453)" font-family="sans-serif" font-size="10px" fill="#000" opacity="1">5,000</text><text text-anchor="end" transform="translate(-7,148.45454545454547)" font-family="sans-serif" font-size="10px" fill="#000" opacity="1">6,000</text><text text-anchor="end" transform="translate(-7,119.36363636363637)" font-family="sans-serif" font-size="10px" fill="#000" opacity="1">7,000</text><text text-anchor="end" transform="translate(-7,90.27272727272727)" font-family="sans-serif" font-size="10px" fill="#000" opacity="1">8,000</text><text text-anchor="end" transform="translate(-7,61.181818181818166)" font-family="sans-serif" font-size="10px" fill="#000" opacity="1">9,000</text><text text-anchor="end" transform="translate(-7,32.0909090909091)" font-family="sans-serif" font-size="10px" fill="#000" opacity="1">10,000</text><text text-anchor="end" transform="translate(-7,3)" font-family="sans-serif" font-size="10px" fill="#000" opacity="1">11,000</text></g><g class="mark-rule role-axis-domain" pointer-events="none"><line transform="translate(0,320)" x2="0" y2="-320" stroke="#888" stroke-width="1" opacity="1"/></g><g class="mark-text role-axis-title" pointer-events="none"><text text-anchor="middle" transform="translate(-59,160) rotate(-90) translate(0,-2)" font-family="sans-serif" font-size="11px" font-weight="bold" fill="#000" opacity="1">hits</text></g></g><path class="foreground" aria-hidden="true" d="" pointer-events="none" display="none"/></g></g><g class="mark-rect role-mark marks" role="graphics-object" aria-roledescription="rect mark container"><path aria-label="topic0: 0xddf252ad1b…; hits: 10987" role="graphics-symbol" aria-roledescription="bar" d="M442,0.3781818181818153h36v319.6218181818182h-36Z" fill="#4c78a8"/><path aria-label="topic0: 0x8c5be1e5eb…; hits: 1813" role="graphics-symbol" aria-roledescription="bar" d="M322,267.2581818181818h36v52.74181818181819h-36Z" fill="#4c78a8"/><path aria-label="topic0: 0x1c411e9a96…; hits: 1713" role="graphics-symbol" aria-roledescription="bar" d="M82,270.16727272727275h36v49.832727272727254h-36Z" fill="#4c78a8"/><path aria-label="topic0: 0xd78ad95fa4…; hits: 1706" role="graphics-symbol" aria-roledescription="bar" d="M402,270.3709090909091h36v49.629090909090905h-36Z" fill="#4c78a8"/><path aria-label="topic0: 0xe1fffcc492…; hits: 1565" role="graphics-symbol" aria-roledescription="bar" d="M482,274.47272727272724h36v45.52727272727276h-36Z" fill="#4c78a8"/><path aria-label="topic0: 0xc42079f94a…; hits: 1262" role="graphics-symbol" aria-roledescription="bar" d="M362,283.2872727272727h36v36.71272727272731h-36Z" fill="#4c78a8"/><path aria-label="topic0: 0x49628fd147…; hits: 498" role="graphics-symbol" aria-roledescription="bar" d="M162,305.51272727272726h36v14.487272727272739h-36Z" fill="#4c78a8"/><path aria-label="topic0: 0xfc6d279aa2…; hits: 449" role="graphics-symbol" aria-roledescription="bar" d="M562,306.9381818181818h36v13.061818181818182h-36Z" fill="#4c78a8"/><path aria-label="topic0: 0x729fedf706…; hits: 429" role="graphics-symbol" aria-roledescription="bar" d="M242,307.52h36v12.480000000000018h-36Z" fill="#4c78a8"/><path aria-label="topic0: 0x7fcf532c15…; hits: 421" role="graphics-symbol" aria-roledescription="bar" d="M282,307.75272727272727h36v12.24727272727273h-36Z" fill="#4c78a8"/><path aria-label="topic0: 0xf8e1a15aba…; hits: 347" role="graphics-symbol" aria-roledescription="bar" d="M522,309.9054545454545h36v10.094545454545482h-36Z" fill="#4c78a8"/><path aria-label="topic0: 0x0c396cd989…; hits: 259" role="graphics-symbol" aria-roledescription="bar" d="M2,312.4654545454546h36v7.534545454545423h-36Z" fill="#4c78a8"/><path aria-label="topic0: 0x40d0efd1a5…; hits: 259" role="graphics-symbol" aria-roledescription="bar" d="M122,312.4654545454546h36v7.534545454545423h-36Z" fill="#4c78a8"/><path aria-label="topic0: 0x70935338e6…; hits: 259" role="graphics-symbol" aria-roledescription="bar" d="M202,312.4654545454546h36v7.534545454545423h-36Z" fill="#4c78a8"/><path aria-label="topic0: 0x19b4727925…; hits: 243" role="graphics-symbol" aria-roledescription="bar" d="M42,312.9309090909091h36v7.069090909090903h-36Z" fill="#4c78a8"/></g><g class="mark-group role-title"><g transform="translate(300,-22)"><path class="background" aria-hidden="true" d="M0,0h0v0h0Z" pointer-events="none"/><g><g class="mark-text role-title-text" role="graphics-symbol" aria-roledescription="title" aria-label="Title text 'Top 15 event signatures by emission count / 上位15イベントシグネチャ'" pointer-events="none"><text text-anchor="middle" transform="translate(0,10)" font-family="sans-serif" font-size="13px" font-weight="bold" fill="#000" opacity="1">Top 15 event signatures by emission count / 上位15イベントシグネチャ</text></g></g><path class="foreground" aria-hidden="true" d="" pointer-events="none" display="none"/></g></g></g><path class="foreground" aria-hidden="true" d="" display="none"/></g></g></g></svg>