<svg xmlns="http://www.w3.org/2000/svg" xmlns:xlink="http://www.w3.org/1999/xlink" version="1.1" class="marks" width="698" height="424" viewBox="0 0 698 424"><g fill="none" stroke-miterlimit="10" transform="translate(82,48)"><g class="mark-group role-frame root" role="graphics-object" aria-roledescription="group mark container"><g transform="translate(0,0)"><path class="background" aria-hidden="true" d="M0.5,0.5h600v320h-600Z"/><g><g class="mark-group role-axis" aria-hidden="true"><g transform="translate(0.5,0.5)"><path class="background" aria-hidden="true" d="M0,0h0v0h0Z" pointer-events="none"/><g><g class="mark-rule role-axis-grid" pointer-events="none"><line transform="translate(0,320)" x2="600" y2="0" stroke="#eef0f4" stroke-width="0.8" stroke-dasharray="2,4" opacity="1"/><line transform="translate(0,284)" x2="600" y2="0" stroke="#eef0f4" stroke-width="0.8" stroke-dasharray="2,4" opacity="1"/><line transform="translate(0,249)" x2="600" y2="0" stroke="#eef0f4" stroke-width="0.8" stroke-dasharray="2,4" opacity="1"/><line transform="translate(0,213)" x2="600" y2="0" stroke="#eef0f4" stroke-width="0.8" stroke-dasharray="2,4" opacity="1"/><line transform="translate(0,178)" x2="600" y2="0" stroke="#eef0f4" stroke-width="0.8" stroke-dasharray="2,4" opacity="1"/><line transform="translate(0,142)" x2="600" y2="0" stroke="#eef0f4" stroke-width="0.8" stroke-dasharray="2,4" opacity="1"/><line transform="translate(0,107)" x2="600" y2="0" stroke="#eef0f4" stroke-width="0.8" stroke-dasharray="2,4" opacity="1"/><line transform="translate(0,71)" x2="600" y2="0" stroke="#eef0f4" stroke-width="0.8" stroke-dasharray="2,4" opacity="1"/><line transform="translate(0,36)" x2="600" y2="0" stroke="#eef0f4" stroke-width="0.8" stroke-dasharray="2,4" opacity="1"/><line transform="translate(0,0)" x2="600" y2="0" stroke="#eef0f4" stroke-width="0.8" stroke-dasharray="2,4" opacity="1"/></g></g><path class="foreground" aria-hidden="true" d="" pointer-events="none" display="none"/></g></g><g class="mark-group role-axis" role="graphics-symbol" aria-roledescription="axis" aria-label="X-axis titled 'chain' for a discrete scale with 8 values: arbitrum, base, ethereum, linea, optimism, ending with unichain"><g transform="translate(0.5,320.5)"><path class="background" aria-hidden="true" d="M0,0h0v0h0Z" pointer-events="none"/><g><g class="mark-rule role-axis-tick" pointer-events="none"><line transform="translate(37,0)" x2="0" y2="4" stroke="#e2e6ee" stroke-width="1" opacity="1"/><line transform="translate(112,0)" x2="0" y2="4" stroke="#e2e6ee" stroke-width="1" opacity="1"/><line transform="translate(187,0)" x2="0" y2="4" stroke="#e2e6ee" stroke-width="1" opacity="1"/><line transform="translate(262,0)" x2="0" y2="4" stroke="#e2e6ee" stroke-width="1" opacity="1"/><line transform="translate(337,0)" x2="0" y2="4" stroke="#e2e6ee" stroke-width="1" opacity="1"/><line transform="translate(412,0)" x2="0" y2="4" stroke="#e2e6ee" stroke-width="1" opacity="1"/><line transform="translate(487,0)" x2="0" y2="4" stroke="#e2e6ee" stroke-width="1" opacity="1"/><line transform="translate(562,0)" x2="0" y2="4" stroke="#e2e6ee" stroke-width="1" opacity="1"/></g><g class="mark-text role-axis-label" pointer-events="none"><text text-anchor="middle" transform="translate(37,19)" font-family="'SF Mono', Menlo, Consolas, 'Liberation Mono', monospace" font-size="11px" fill="#64748b" opacity="1">arbitrum</text><text text-anchor="middle" transform="translate(112,19)" font-family="'SF Mono', Menlo, Consolas, 'Liberation Mono', monospace" font-size="11px" fill="#64748b" opacity="1">base</text><text text-anchor="middle" transform="translate(187,19)" font-family="'SF Mono', Menlo, Consolas, 'Liberation Mono', monospace" font-size="11px" fill="#64748b" opacity="1">ethereum</text><text text-anchor="middle" transform="translate(262,19)" font-family="'SF Mono', Menlo, Consolas, 'Liberation Mono', monospace" font-size="11px" fill="#64748b" opacity="1">linea</text><text text-anchor="middle" transform="translate(337,19)" font-family="'SF Mono', Menlo, Consolas, 'Liberation Mono', monospace" font-size="11px" fill="#64748b" opacity="1">optimism</text><text text-anchor="middle" transform="translate(412,19)" font-family="'SF Mono', Menlo, Consolas, 'Liberation Mono', monospace" font-size="11px" fill="#64748b" opacity="1">polygon</text><text text-anchor="middle" transform="translate(487,19)" font-family="'SF Mono', Menlo, Consolas, 'Liberation Mono', monospace" font-size="11px" fill="#64748b" opacity="1">scroll</text><text text-anchor="middle" transform="translate(562,19)" font-family="'SF Mono', Menlo, Consolas, 'Liberation Mono', monospace" font-size="11px" fill="#64748b" opacity="1">unichain</text></g><g class="mark-text role-axis-title" pointer-events="none"><text text-anchor="middle" transform="translate(300,42)" font-family="-apple-system, BlinkMacSystemFont, 'Segoe UI', system-ui, 'Helvetica Neue', 'Hiragino Sans', 'Hiragino Kaku Gothic ProN', 'Noto Sans CJK JP', sans-serif" font-size="12px" font-weight="600" fill="#0f172a" opacity="1">chain</text></g></g><path class="foreground" aria-hidden="true" d="" pointer-events="none" display="none"/></g></g><g class="mark-group role-axis" role="graphics-symbol" aria-roledescription="axis" aria-label="Y-axis titled 'contracts' for a linear scale with values from 0 to 1,800"><g transform="translate(0.5,0.5)"><path class="background" aria-hidden="true" d="M0,0h0v0h0Z" pointer-events="none"/><g><g class="mark-rule role-axis-tick" pointer-events="none"><line transform="translate(0,320)" x2="-4" y2="0" stroke="#e2e6ee" stroke-width="1" opacity="1"/><line transform="translate(0,284)" x2="-4" y2="0" stroke="#e2e6ee" stroke-width="1" opacity="1"/><line transform="translate(0,249)" x2="-4" y2="0" stroke="#e2e6ee" stroke-width="1" opacity="1"/><line transform="translate(0,213)" x2="-4" y2="0" stroke="#e2e6ee" stroke-width="1" opacity="1"/><line transform="translate(0,178)" x2="-4" y2="0" stroke="#e2e6ee" stroke-width="1" opacity="1"/><line transform="translate(0,142)" x2="-4" y2="0" stroke="#e2e6ee" stroke-width="1" opacity="1"/><line transform="translate(0,107)" x2="-4" y2="0" stroke="#e2e6ee" stroke-width="1" opacity="1"/><line transform="translate(0,71)" x2="-4" y2="0" stroke="#e2e6ee" stroke-width="1" opacity="1"/><line transform="translate(0,36)" x2="-4" y2="0" stroke="#e2e6ee" stroke-width="1" opacity="1"/><line transform="translate(0,0)" x2="-4" y2="0" stroke="#e2e6ee" stroke-width="1" opacity="1"/></g><g class="mark-text role-axis-label" pointer-events="none"><text text-anchor="end" transform="translate(-10,323)" font-family="'SF Mono', Menlo, Consolas, 'Liberation Mono', monospace" font-size="11px" fill="#64748b" opacity="1">0</text><text text-anchor="end" transform="translate(-10,287.44444444444446)" font-family="'SF Mono', Menlo, Consolas, 'Liberation Mono', monospace" font-size="11px" fill="#64748b" opacity="1">200</text><text text-anchor="end" transform="translate(-10,251.88888888888889)" font-family="'SF Mono', Menlo, Consolas, 'Liberation Mono', monospace" font-size="11px" fill="#64748b" opacity="1">400</text><text text-anchor="end" transform="translate(-10,216.33333333333337)" font-family="'SF Mono', Menlo, Consolas, 'Liberation Mono', monospace" font-size="11px" fill="#64748b" opacity="1">600</text><text text-anchor="end" transform="translate(-10,180.77777777777777)" font-family="'SF Mono', Menlo, Consolas, 'Liberation Mono', monospace" font-size="11px" fill="#64748b" opacity="1">800</text><text text-anchor="end" transform="translate(-10,145.22222222222223)" font-family="'SF Mono', Menlo, Consolas, 'Liberation Mono', monospace" font-size="11px" fill="#64748b" opacity="1">1k</text><text text-anchor="end" transform="translate(-10,109.66666666666669)" font-family="'SF Mono', Menlo, Consolas, 'Liberation Mono', monospace" font-size="11px" fill="#64748b" opacity="1">1.2k</text><text text-anchor="end" transform="translate(-10,74.11111111111111)" font-family="'SF Mono', Menlo, Consolas, 'Liberation Mono', monospace" font-size="11px" fill="#64748b" opacity="1">1.4k</text><text text-anchor="end" transform="translate(-10,38.55555555555557)" font-family="'SF Mono', Menlo, Consolas, 'Liberation Mono', monospace" font-size="11px" fill="#64748b" opacity="1">1.6k</text><text text-anchor="end" transform="translate(-10,3)" font-family="'SF Mono', Menlo, Consolas, 'Liberation Mono', monospace" font-size="11px" fill="#64748b" opacity="1">1.8k</text></g><g class="mark-text role-axis-title" pointer-events="none"><text text-anchor="middle" transform="translate(-57,160) rotate(-90) translate(0,-3)" font-family="-apple-system, BlinkMacSystemFont, 'Segoe UI', system-ui, 'Helvetica Neue', 'Hiragino Sans', 'Hiragino Kaku Gothic ProN', 'Noto Sans CJK JP', sans-serif" font-size="12px" font-weight="600" fill="#0f172a" opacity="1">contracts</text></g></g><path class="foreground" aria-hidden="true" d="" pointer-events="none" display="none"/></g></g><g class="mark-group role-scope" role="graphics-object" aria-roledescription="group mark container"><g transform="translate(153.75,137.95555555555555)"><path class="background" aria-hidden="true" d="M3,0L64.5,0C66.155745073482,0,67.5,1.344254926518,67.5,3L67.5,182.04444444444445C67.5,182.04444444444445,67.5,182.04444444444445,67.5,182.04444444444445L0,182.04444444444445C0,182.04444444444445,0,182.04444444444445,0,182.04444444444445L0,3C0,1.344254926518,1.344254926518,0,3,0Z"/><g clip-path="url(#clip17)"><g class="mark-group role-scope" role="graphics-object" aria-roledescription="group mark container"><g transform="translate(0,-137.95555555555555)"><path class="background" aria-hidden="true" d="M0,0h67.5v0h-67.5Z"/><g><g class="mark-rect role-mark marks" role="graphics-object" aria-roledescription="rect mark container"><path aria-label="chain: ethereum; contracts: 1024" role="graphics-symbol" aria-roledescription="bar" d="M0,137.95555555555555h67.5v182.04444444444445h-67.5Z" fill="#2563eb"/></g></g><path class="foreground" aria-hidden="true" d="" display="none"/></g></g></g><path class="foreground" aria-hidden="true" d="" display="none"/></g><g transform="translate(78.75,30.39999999999999)"><path class="background" aria-hidden="true" d="M3,0L64.5,0C66.155745073482,0,67.5,1.344254926518,67.5,3L67.5,289.6C67.5,289.6,67.5,289.6,67.5,289.6L0,289.6C0,289.6,0,289.6,0,289.6L0,3C0,1.344254926518,1.344254926518,0,3,0Z"/><g clip-path="url(#clip18)"><g class="mark-group role-scope" role="graphics-object" aria-roledescription="group mark container"><g transform="translate(0,-30.39999999999999)"><path class="background" aria-hidden="true" d="M0,0h67.5v0h-67.5Z"/><g><g class="mark-rect role-mark marks" role="graphics-object" aria-roledescription="rect mark container"><path aria-label="chain: base; contracts: 1629" role="graphics-symbol" aria-roledescription="bar" d="M0,30.39999999999999h67.5v289.6h-67.5Z" fill="#2563eb"/></g></g><path class="foreground" aria-hidden="true" d="" display="none"/></g></g></g><path class="foreground" aria-hidden="true" d="" display="none"/></g><g transform="translate(3.75,295.4666666666667)"><path class="background" aria-hidden="true" d="M3,0L64.5,0C66.155745073482,0,67.5,1.344254926518,67.5,3L67.5,24.533333333333303C67.5,24.533333333333303,67.5,24.533333333333303,67.5,24.533333333333303L0,24.533333333333303C0,24.533333333333303,0,24.533333333333303,0,24.533333333333303L0,3C0,1.344254926518,1.344254926518,0,3,0Z"/><g clip-path="url(#clip19)"><g class="mark-group role-scope" role="graphics-object" aria-roledescription="group mark container"><g transform="translate(0,-295.4666666666667)"><path class="background" aria-hidden="true" d="M0,0h67.5v0h-67.5Z"/><g><g class="mark-rect role-mark marks" role="graphics-object" aria-roledescription="rect mark container"><path aria-label="chain: arbitrum; contracts: 138" role="graphics-symbol" aria-roledescription="bar" d="M0,295.4666666666667h67.5v24.533333333333303h-67.5Z" fill="#2563eb"/></g></g><path class="foreground" aria-hidden="true" d="" display="none"/></g></g></g><path class="foreground" aria-hidden="true" d="" display="none"/></g><g transform="translate(303.75,223.1111111111111)"><path class="background" aria-hidden="true" d="M3,0L64.5,0C66.155745073482,0,67.5,1.344254926518,67.5,3L67.5,96.88888888888891C67.5,96.88888888888891,67.5,96.88888888888891,67.5,96.88888888888891L0,96.88888888888891C0,96.88888888888891,0,96.88888888888891,0,96.88888888888891L0,3C0,1.344254926518,1.344254926518,0,3,0Z"/><g clip-path="url(#clip20)"><g class="mark-group role-scope" role="graphics-object" aria-roledescription="group mark container"><g transform="translate(0,-223.1111111111111)"><path class="background" aria-hidden="true" d="M0,0h67.5v0h-67.5Z"/><g><g class="mark-rect role-mark marks" role="graphics-object" aria-roledescription="rect mark container"><path aria-label="chain: optimism; contracts: 545" role="graphics-symbol" aria-roledescription="bar" d="M0,223.1111111111111h67.5v96.88888888888891h-67.5Z" fill="#2563eb"/></g></g><path class="foreground" aria-hidden="true" d="" display="none"/></g></g></g><path class="foreground" aria-hidden="true" d="" display="none"/></g><g transform="translate(378.75,145.06666666666666)"><path class="background" aria-hidden="true" d="M3,0L64.5,0C66.155745073482,0,67.5,1.344254926518,67.5,3L67.5,174.93333333333334C67.5,174.93333333333334,67.5,174.93333333333334,67.5,174.93333333333334L0,174.93333333333334C0,174.93333333333334,0,174.93333333333334,0,174.93333333333334L0,3C0,1.344254926518,1.344254926518,0,3,0Z"/><g clip-path="url(#clip21)"><g class="mark-group role-scope" role="graphics-object" aria-roledescription="group mark container"><g transform="translate(0,-145.06666666666666)"><path class="background" aria-hidden="true" d="M0,0h67.5v0h-67.5Z"/><g><g class="mark-rect role-mark marks" role="graphics-object" aria-roledescription="rect mark container"><path aria-label="chain: polygon; contracts: 984" role="graphics-symbol" aria-roledescription="bar" d="M0,145.06666666666666h67.5v174.93333333333334h-67.5Z" fill="#2563eb"/></g></g><path class="foreground" aria-hidden="true" d="" display="none"/></g></g></g><path class="foreground" aria-hidden="true" d="" display="none"/></g><g transform="translate(228.75,294.22222222222223)"><path class="background" aria-hidden="true" d="M3,0L64.5,0C66.155745073482,0,67.5,1.344254926518,67.5,3L67.5,25.77777777777777C67.5,25.77777777777777,67.5,25.77777777777777,67.5,25.77777777777777L0,25.77777777777777C0,25.77777777777777,0,25.77777777777777,0,25.77777777777777L0,3C0,1.344254926518,1.344254926518,0,3,0Z"/><g clip-path="url(#clip22)"><g class="mark-group role-scope" role="graphics-object" aria-roledescription="group mark container"><g transform="translate(0,-294.22222222222223)"><path class="background" aria-hidden="true" d="M0,0h67.5v0h-67.5Z"/><g><g class="mark-rect role-mark marks" role="graphics-object" aria-roledescription="rect mark container"><path aria-label="chain: linea; contracts: 145" role="graphics-symbol" aria-roledescription="bar" d="M0,294.22222222222223h67.5v25.77777777777777h-67.5Z" fill="#2563eb"/></g></g><path class="foreground" aria-hidden="true" d="" display="none"/></g></g></g><path class="foreground" aria-hidden="true" d="" display="none"/></g><g transform="translate(453.75,289.77777777777777)"><path class="background" aria-hidden="true" d="M3,0L64.5,0C66.155745073482,0,67.5,1.344254926518,67.5,3L67.5,30.22222222222223C67.5,30.22222222222223,67.5,30.22222222222223,67.5,30.22222222222223L0,30.22222222222223C0,30.22222222222223,0,30.22222222222223,0,30.22222222222223L0,3C0,1.344254926518,1.344254926518,0,3,0Z"/><g clip-path="url(#clip23)"><g class="mark-group role-scope" role="graphics-object" aria-roledescription="group mark container"><g transform="translate(0,-289.77777777777777)"><path class="background" aria-hidden="true" d="M0,0h67.5v0h-67.5Z"/><g><g class="mark-rect role-mark marks" role="graphics-object" aria-roledescription="rect mark container"><path aria-label="chain: scroll; contracts: 170" role="graphics-symbol" aria-roledescription="bar" d="M0,289.77777777777777h67.5v30.22222222222223h-67.5Z" fill="#2563eb"/></g></g><path class="foreground" aria-hidden="true" d="" display="none"/></g></g></g><path class="foreground" aria-hidden="true" d="" display="none"/></g><g transform="translate(528.75,315.55555555555554)"><path class="background" aria-hidden="true" d="M2.2222222222222285,0L65.27777777777777,0C66.50425560998666,0,67.5,0.9957443900133361,67.5,2.2222222222222285L67.5,4.444444444444457C67.5,4.444444444444457,67.5,4.444444444444457,67.5,4.444444444444457L0,4.444444444444457C0,4.444444444444457,0,4.444444444444457,0,4.444444444444457L0,2.2222222222222285C0,0.9957443900133361,0.9957443900133361,0,2.2222222222222285,0Z"/><g clip-path="url(#clip24)"><g class="mark-group role-scope" role="graphics-object" aria-roledescription="group mark container"><g transform="translate(0,-315.55555555555554)"><path class="background" aria-hidden="true" d="M0,0h67.5v0h-67.5Z"/><g><g class="mark-rect role-mark marks" role="graphics-object" aria-roledescription="rect mark container"><path aria-label="chain: unichain; contracts: 25" role="graphics-symbol" aria-roledescription="bar" d="M0,315.55555555555554h67.5v4.444444444444457h-67.5Z" fill="#2563eb"/></g></g><path class="foreground" aria-hidden="true" d="" display="none"/></g></g></g><path class="foreground" aria-hidden="true" d="" display="none"/></g></g><g class="mark-group role-title"><g transform="translate(-70,-36)"><path class="background" aria-hidden="true" d="M0,0h0v0h0Z" pointer-events="none"/><g><g class="mark-text role-title-text" role="graphics-symbol" aria-roledescription="title" aria-label="Title text 'Distinct contracts per chain (50 blocks each) / コントラクト数'" pointer-events="none"><text text-anchor="start" transform="translate(0,11)" font-family="-apple-system, BlinkMacSystemFont, 'Segoe UI', system-ui, 'Helvetica Neue', 'Hiragino Sans', 'Hiragino Kaku Gothic ProN', 'Noto Sans CJK JP', sans-serif" font-size="14px" font-weight="600" fill="#0f172a" opacity="1">Distinct contracts per chain (50 blocks each) / コントラクト数</text></g></g><path class="foreground" aria-hidden="true" d="" pointer-events="none" display="none"/></g></g></g><path class="foreground" aria-hidden="true" d="" display="none"/></g></g></g><defs><clipPath id="clip17"><path d="M3,0L64.5,0C66.155745073482,0,67.5,1.344254926518,67.5,3L67.5,182.04444444444445C67.5,182.04444444444445,67.5,182.04444444444445,67.5,182.04444444444445L0,182.04444444444445C0,182.04444444444445,0,182.04444444444445,0,182.04444444444445L0,3C0,1.344254926518,1.344254926518,0,3,0Z"/></clipPath><clipPath id="clip18"><path d="M3,0L64.5,0C66.155745073482,0,67.5,1.344254926518,67.5,3L67.5,289.6C67.5,289.6,67.5,289.6,67.5,289.6L0,289.6C0,289.6,0,289.6,0,289.6L0,3C0,1.344254926518,1.344254926518,0,3,0Z"/></clipPath><clipPath id="clip19"><path d="M3,0L64.5,0C66.155745073482,0,67.5,1.344254926518,67.5,3L67.5,24.533333333333303C67.5,24.533333333333303,67.5,24.533333333333303,67.5,24.533333333333303L0,24.533333333333303C0,24.533333333333303,0,24.533333333333303,0,24.533333333333303L0,3C0,1.344254926518,1.344254926518,0,3,0Z"/></clipPath><clipPath id="clip20"><path d="M3,0L64.5,0C66.155745073482,0,67.5,1.344254926518,67.5,3L67.5,96.88888888888891C67.5,96.88888888888891,67.5,96.88888888888891,67.5,96.88888888888891L0,96.88888888888891C0,96.88888888888891,0,96.88888888888891,0,96.88888888888891L0,3C0,1.344254926518,1.344254926518,0,3,0Z"/></clipPath><clipPath id="clip21"><path d="M3,0L64.5,0C66.155745073482,0,67.5,1.344254926518,67.5,3L67.5,174.93333333333334C67.5,174.93333333333334,67.5,174.93333333333334,67.5,174.93333333333334L0,174.93333333333334C0,174.93333333333334,0,174.93333333333334,0,174.93333333333334L0,3C0,1.344254926518,1.344254926518,0,3,0Z"/></clipPath><clipPath id="clip22"><path d="M3,0L64.5,0C66.155745073482,0,67.5,1.344254926518,67.5,3L67.5,25.77777777777777C67.5,25.77777777777777,67.5,25.77777777777777,67.5,25.77777777777777L0,25.77777777777777C0,25.77777777777777,0,25.77777777777777,0,25.77777777777777L0,3C0,1.344254926518,1.344254926518,0,3,0Z"/></clipPath><clipPath id="clip23"><path d="M3,0L64.5,0C66.155745073482,0,67.5,1.344254926518,67.5,3L67.5,30.22222222222223C67.5,30.22222222222223,67.5,30.22222222222223,67.5,30.22222222222223L0,30.22222222222223C0,30.22222222222223,0,30.22222222222223,0,30.22222222222223L0,3C0,1.344254926518,1.344254926518,0,3,0Z"/></clipPath><clipPath id="clip24"><path d="M2.2222222222222285,0L65.27777777777777,0C66.50425560998666,0,67.5,0.9957443900133361,67.5,2.2222222222222285L67.5,4.444444444444457C67.5,4.444444444444457,67.5,4.444444444444457,67.5,4.444444444444457L0,4.444444444444457C0,4.444444444444457,0,4.444444444444457,0,4.444444444444457L0,2.2222222222222285C0,0.9957443900133361,0.9957443900133361,0,2.2222222222222285,0Z"/></clipPath></defs></svg>