<svg xmlns="http://www.w3.org/2000/svg" xmlns:xlink="http://www.w3.org/1999/xlink" version="1.1" class="marks" width="689" height="424" viewBox="0 0 689 424"><g fill="none" stroke-miterlimit="10" transform="translate(73,48)"><g class="mark-group role-frame root" role="graphics-object" aria-roledescription="group mark container"><g transform="translate(0,0)"><path class="background" aria-hidden="true" d="M0.5,0.5h600v320h-600Z"/><g><g class="mark-group role-axis" aria-hidden="true"><g transform="translate(0.5,0.5)"><path class="background" aria-hidden="true" d="M0,0h0v0h0Z" pointer-events="none"/><g><g class="mark-rule role-axis-grid" pointer-events="none"><line transform="translate(0,320)" x2="600" y2="0" stroke="#eef0f4" stroke-width="0.8" stroke-dasharray="2,4" opacity="1"/><line transform="translate(0,267)" x2="600" y2="0" stroke="#eef0f4" stroke-width="0.8" stroke-dasharray="2,4" opacity="1"/><line transform="translate(0,213)" x2="600" y2="0" stroke="#eef0f4" stroke-width="0.8" stroke-dasharray="2,4" opacity="1"/><line transform="translate(0,160)" x2="600" y2="0" stroke="#eef0f4" stroke-width="0.8" stroke-dasharray="2,4" opacity="1"/><line transform="translate(0,107)" x2="600" y2="0" stroke="#eef0f4" stroke-width="0.8" stroke-dasharray="2,4" opacity="1"/><line transform="translate(0,53)" x2="600" y2="0" stroke="#eef0f4" stroke-width="0.8" stroke-dasharray="2,4" opacity="1"/><line transform="translate(0,0)" x2="600" y2="0" stroke="#eef0f4" stroke-width="0.8" stroke-dasharray="2,4" opacity="1"/></g></g><path class="foreground" aria-hidden="true" d="" pointer-events="none" display="none"/></g></g><g class="mark-group role-axis" role="graphics-symbol" aria-roledescription="axis" aria-label="X-axis titled 'chain' for a discrete scale with 8 values: arbitrum, base, ethereum, linea, optimism, ending with unichain"><g transform="translate(0.5,320.5)"><path class="background" aria-hidden="true" d="M0,0h0v0h0Z" pointer-events="none"/><g><g class="mark-rule role-axis-tick" pointer-events="none"><line transform="translate(37,0)" x2="0" y2="4" stroke="#e2e6ee" stroke-width="1" opacity="1"/><line transform="translate(112,0)" x2="0" y2="4" stroke="#e2e6ee" stroke-width="1" opacity="1"/><line transform="translate(187,0)" x2="0" y2="4" stroke="#e2e6ee" stroke-width="1" opacity="1"/><line transform="translate(262,0)" x2="0" y2="4" stroke="#e2e6ee" stroke-width="1" opacity="1"/><line transform="translate(337,0)" x2="0" y2="4" stroke="#e2e6ee" stroke-width="1" opacity="1"/><line transform="translate(412,0)" x2="0" y2="4" stroke="#e2e6ee" stroke-width="1" opacity="1"/><line transform="translate(487,0)" x2="0" y2="4" stroke="#e2e6ee" stroke-width="1" opacity="1"/><line transform="translate(562,0)" x2="0" y2="4" stroke="#e2e6ee" stroke-width="1" opacity="1"/></g><g class="mark-text role-axis-label" pointer-events="none"><text text-anchor="middle" transform="translate(37,19)" font-family="'SF Mono', Menlo, Consolas, 'Liberation Mono', monospace" font-size="11px" fill="#64748b" opacity="1">arbitrum</text><text text-anchor="middle" transform="translate(112,19)" font-family="'SF Mono', Menlo, Consolas, 'Liberation Mono', monospace" font-size="11px" fill="#64748b" opacity="1">base</text><text text-anchor="middle" transform="translate(187,19)" font-family="'SF Mono', Menlo, Consolas, 'Liberation Mono', monospace" font-size="11px" fill="#64748b" opacity="1">ethereum</text><text text-anchor="middle" transform="translate(262,19)" font-family="'SF Mono', Menlo, Consolas, 'Liberation Mono', monospace" font-size="11px" fill="#64748b" opacity="1">linea</text><text text-anchor="middle" transform="translate(337,19)" font-family="'SF Mono', Menlo, Consolas, 'Liberation Mono', monospace" font-size="11px" fill="#64748b" opacity="1">optimism</text><text text-anchor="middle" transform="translate(412,19)" font-family="'SF Mono', Menlo, Consolas, 'Liberation Mono', monospace" font-size="11px" fill="#64748b" opacity="1">polygon</text><text text-anchor="middle" transform="translate(487,19)" font-family="'SF Mono', Menlo, Consolas, 'Liberation Mono', monospace" font-size="11px" fill="#64748b" opacity="1">scroll</text><text text-anchor="middle" transform="translate(562,19)" font-family="'SF Mono', Menlo, Consolas, 'Liberation Mono', monospace" font-size="11px" fill="#64748b" opacity="1">unichain</text></g><g class="mark-text role-axis-title" pointer-events="none"><text text-anchor="middle" transform="translate(300,42)" font-family="-apple-system, BlinkMacSystemFont, 'Segoe UI', system-ui, 'Helvetica Neue', 'Hiragino Sans', 'Hiragino Kaku Gothic ProN', 'Noto Sans CJK JP', sans-serif" font-size="12px" font-weight="600" fill="#0f172a" opacity="1">chain</text></g></g><path class="foreground" aria-hidden="true" d="" pointer-events="none" display="none"/></g></g><g class="mark-group role-axis" role="graphics-symbol" aria-roledescription="axis" aria-label="Y-axis titled 'logs' for a linear scale with values from 0 to 30,000"><g transform="translate(0.5,0.5)"><path class="background" aria-hidden="true" d="M0,0h0v0h0Z" pointer-events="none"/><g><g class="mark-rule role-axis-tick" pointer-events="none"><line transform="translate(0,320)" x2="-4" y2="0" stroke="#e2e6ee" stroke-width="1" opacity="1"/><line transform="translate(0,267)" x2="-4" y2="0" stroke="#e2e6ee" stroke-width="1" opacity="1"/><line transform="translate(0,213)" x2="-4" y2="0" stroke="#e2e6ee" stroke-width="1" opacity="1"/><line transform="translate(0,160)" x2="-4" y2="0" stroke="#e2e6ee" stroke-width="1" opacity="1"/><line transform="translate(0,107)" x2="-4" y2="0" stroke="#e2e6ee" stroke-width="1" opacity="1"/><line transform="translate(0,53)" x2="-4" y2="0" stroke="#e2e6ee" stroke-width="1" opacity="1"/><line transform="translate(0,0)" x2="-4" y2="0" stroke="#e2e6ee" stroke-width="1" opacity="1"/></g><g class="mark-text role-axis-label" pointer-events="none"><text text-anchor="end" transform="translate(-10,323)" font-family="'SF Mono', Menlo, Consolas, 'Liberation Mono', monospace" font-size="11px" fill="#64748b" opacity="1">0</text><text text-anchor="end" transform="translate(-10,269.6666666666667)" font-family="'SF Mono', Menlo, Consolas, 'Liberation Mono', monospace" font-size="11px" fill="#64748b" opacity="1">5k</text><text text-anchor="end" transform="translate(-10,216.33333333333337)" font-family="'SF Mono', Menlo, Consolas, 'Liberation Mono', monospace" font-size="11px" fill="#64748b" opacity="1">10k</text><text text-anchor="end" transform="translate(-10,163)" font-family="'SF Mono', Menlo, Consolas, 'Liberation Mono', monospace" font-size="11px" fill="#64748b" opacity="1">15k</text><text text-anchor="end" transform="translate(-10,109.66666666666669)" font-family="'SF Mono', Menlo, Consolas, 'Liberation Mono', monospace" font-size="11px" fill="#64748b" opacity="1">20k</text><text text-anchor="end" transform="translate(-10,56.33333333333332)" font-family="'SF Mono', Menlo, Consolas, 'Liberation Mono', monospace" font-size="11px" fill="#64748b" opacity="1">25k</text><text text-anchor="end" transform="translate(-10,3)" font-family="'SF Mono', Menlo, Consolas, 'Liberation Mono', monospace" font-size="11px" fill="#64748b" opacity="1">30k</text></g><g class="mark-text role-axis-title" pointer-events="none"><text text-anchor="middle" transform="translate(-48,160) rotate(-90) translate(0,-3)" font-family="-apple-system, BlinkMacSystemFont, 'Segoe UI', system-ui, 'Helvetica Neue', 'Hiragino Sans', 'Hiragino Kaku Gothic ProN', 'Noto Sans CJK JP', sans-serif" font-size="12px" font-weight="600" fill="#0f172a" opacity="1">logs</text></g></g><path class="foreground" aria-hidden="true" d="" pointer-events="none" display="none"/></g></g><g class="mark-group role-scope" role="graphics-object" aria-roledescription="group mark container"><g transform="translate(153.75,236.7146666666667)"><path class="background" aria-hidden="true" d="M3,0L64.5,0C66.155745073482,0,67.5,1.344254926518,67.5,3L67.5,83.28533333333331C67.5,83.28533333333331,67.5,83.28533333333331,67.5,83.28533333333331L0,83.28533333333331C0,83.28533333333331,0,83.28533333333331,0,83.28533333333331L0,3C0,1.344254926518,1.344254926518,0,3,0Z"/><g clip-path="url(#clip1)"><g class="mark-group role-scope" role="graphics-object" aria-roledescription="group mark container"><g transform="translate(0,-236.7146666666667)"><path class="background" aria-hidden="true" d="M0,0h67.5v0h-67.5Z"/><g><g class="mark-rect role-mark marks" role="graphics-object" aria-roledescription="rect mark container"><path aria-label="chain: ethereum; logs: 7808" role="graphics-symbol" aria-roledescription="bar" d="M0,236.7146666666667h67.5v83.28533333333331h-67.5Z" fill="#2563eb"/></g></g><path class="foreground" aria-hidden="true" d="" display="none"/></g></g></g><path class="foreground" aria-hidden="true" d="" display="none"/></g><g transform="translate(78.75,15.69066666666668)"><path class="background" aria-hidden="true" d="M3,0L64.5,0C66.155745073482,0,67.5,1.344254926518,67.5,3L67.5,304.3093333333333C67.5,304.3093333333333,67.5,304.3093333333333,67.5,304.3093333333333L0,304.3093333333333C0,304.3093333333333,0,304.3093333333333,0,304.3093333333333L0,3C0,1.344254926518,1.344254926518,0,3,0Z"/><g clip-path="url(#clip2)"><g class="mark-group role-scope" role="graphics-object" aria-roledescription="group mark container"><g transform="translate(0,-15.69066666666668)"><path class="background" aria-hidden="true" d="M0,0h67.5v0h-67.5Z"/><g><g class="mark-rect role-mark marks" role="graphics-object" aria-roledescription="rect mark container"><path aria-label="chain: base; logs: 28529" role="graphics-symbol" aria-roledescription="bar" d="M0,15.69066666666668h67.5v304.3093333333333h-67.5Z" fill="#2563eb"/></g></g><path class="foreground" aria-hidden="true" d="" display="none"/></g></g></g><path class="foreground" aria-hidden="true" d="" display="none"/></g><g transform="translate(3.75,313.0986666666667)"><path class="background" aria-hidden="true" d="M3,0L64.5,0C66.155745073482,0,67.5,1.344254926518,67.5,3L67.5,6.901333333333298C67.5,6.901333333333298,67.5,6.901333333333298,67.5,6.901333333333298L0,6.901333333333298C0,6.901333333333298,0,6.901333333333298,0,6.901333333333298L0,3C0,1.344254926518,1.344254926518,0,3,0Z"/><g clip-path="url(#clip3)"><g class="mark-group role-scope" role="graphics-object" aria-roledescription="group mark container"><g transform="translate(0,-313.0986666666667)"><path class="background" aria-hidden="true" d="M0,0h67.5v0h-67.5Z"/><g><g class="mark-rect role-mark marks" role="graphics-object" aria-roledescription="rect mark container"><path aria-label="chain: arbitrum; logs: 647" role="graphics-symbol" aria-roledescription="bar" d="M0,313.0986666666667h67.5v6.901333333333298h-67.5Z" fill="#2563eb"/></g></g><path class="foreground" aria-hidden="true" d="" display="none"/></g></g></g><path class="foreground" aria-hidden="true" d="" display="none"/></g><g transform="translate(303.75,269.55733333333336)"><path class="background" aria-hidden="true" d="M3,0L64.5,0C66.155745073482,0,67.5,1.344254926518,67.5,3L67.5,50.44266666666664C67.5,50.44266666666664,67.5,50.44266666666664,67.5,50.44266666666664L0,50.44266666666664C0,50.44266666666664,0,50.44266666666664,0,50.44266666666664L0,3C0,1.344254926518,1.344254926518,0,3,0Z"/><g clip-path="url(#clip4)"><g class="mark-group role-scope" role="graphics-object" aria-roledescription="group mark container"><g transform="translate(0,-269.55733333333336)"><path class="background" aria-hidden="true" d="M0,0h67.5v0h-67.5Z"/><g><g class="mark-rect role-mark marks" role="graphics-object" aria-roledescription="rect mark container"><path aria-label="chain: optimism; logs: 4729" role="graphics-symbol" aria-roledescription="bar" d="M0,269.55733333333336h67.5v50.44266666666664h-67.5Z" fill="#2563eb"/></g></g><path class="foreground" aria-hidden="true" d="" display="none"/></g></g></g><path class="foreground" aria-hidden="true" d="" display="none"/></g><g transform="translate(378.75,102.64533333333333)"><path class="background" aria-hidden="true" d="M3,0L64.5,0C66.155745073482,0,67.5,1.344254926518,67.5,3L67.5,217.35466666666667C67.5,217.35466666666667,67.5,217.35466666666667,67.5,217.35466666666667L0,217.35466666666667C0,217.35466666666667,0,217.35466666666667,0,217.35466666666667L0,3C0,1.344254926518,1.344254926518,0,3,0Z"/><g clip-path="url(#clip5)"><g class="mark-group role-scope" role="graphics-object" aria-roledescription="group mark container"><g transform="translate(0,-102.64533333333333)"><path class="background" aria-hidden="true" d="M0,0h67.5v0h-67.5Z"/><g><g class="mark-rect role-mark marks" role="graphics-object" aria-roledescription="rect mark container"><path aria-label="chain: polygon; logs: 20377" role="graphics-symbol" aria-roledescription="bar" d="M0,102.64533333333333h67.5v217.35466666666667h-67.5Z" fill="#2563eb"/></g></g><path class="foreground" aria-hidden="true" d="" display="none"/></g></g></g><path class="foreground" aria-hidden="true" d="" display="none"/></g><g transform="translate(228.75,309.81333333333333)"><path class="background" aria-hidden="true" d="M3,0L64.5,0C66.155745073482,0,67.5,1.344254926518,67.5,3L67.5,10.186666666666667C67.5,10.186666666666667,67.5,10.186666666666667,67.5,10.186666666666667L0,10.186666666666667C0,10.186666666666667,0,10.186666666666667,0,10.186666666666667L0,3C0,1.344254926518,1.344254926518,0,3,0Z"/><g clip-path="url(#clip6)"><g class="mark-group role-scope" role="graphics-object" aria-roledescription="group mark container"><g transform="translate(0,-309.81333333333333)"><path class="background" aria-hidden="true" d="M0,0h67.5v0h-67.5Z"/><g><g class="mark-rect role-mark marks" role="graphics-object" aria-roledescription="rect mark container"><path aria-label="chain: linea; logs: 955" role="graphics-symbol" aria-roledescription="bar" d="M0,309.81333333333333h67.5v10.186666666666667h-67.5Z" fill="#2563eb"/></g></g><path class="foreground" aria-hidden="true" d="" display="none"/></g></g></g><path class="foreground" aria-hidden="true" d="" display="none"/></g><g transform="translate(453.75,307.85066666666665)"><path class="background" aria-hidden="true" d="M3,0L64.5,0C66.155745073482,0,67.5,1.344254926518,67.5,3L67.5,12.149333333333345C67.5,12.149333333333345,67.5,12.149333333333345,67.5,12.149333333333345L0,12.149333333333345C0,12.149333333333345,0,12.149333333333345,0,12.149333333333345L0,3C0,1.344254926518,1.344254926518,0,3,0Z"/><g clip-path="url(#clip7)"><g class="mark-group role-scope" role="graphics-object" aria-roledescription="group mark container"><g transform="translate(0,-307.85066666666665)"><path class="background" aria-hidden="true" d="M0,0h67.5v0h-67.5Z"/><g><g class="mark-rect role-mark marks" role="graphics-object" aria-roledescription="rect mark container"><path aria-label="chain: scroll; logs: 1139" role="graphics-symbol" aria-roledescription="bar" d="M0,307.85066666666665h67.5v12.149333333333345h-67.5Z" fill="#2563eb"/></g></g><path class="foreground" aria-hidden="true" d="" display="none"/></g></g></g><path class="foreground" aria-hidden="true" d="" display="none"/></g><g transform="translate(528.75,318.4853333333333)"><path class="background" aria-hidden="true" d="M0.7573333333333494,0L66.74266666666665,0C67.16065031188344,0,67.5,0.3393496881165512,67.5,0.7573333333333494L67.5,1.5146666666666988C67.5,1.5146666666666988,67.5,1.5146666666666988,67.5,1.5146666666666988L0,1.5146666666666988C0,1.5146666666666988,0,1.5146666666666988,0,1.5146666666666988L0,0.7573333333333494C0,0.3393496881165512,0.3393496881165512,0,0.7573333333333494,0Z"/><g clip-path="url(#clip8)"><g class="mark-group role-scope" role="graphics-object" aria-roledescription="group mark container"><g transform="translate(0,-318.4853333333333)"><path class="background" aria-hidden="true" d="M0,0h67.5v0h-67.5Z"/><g><g class="mark-rect role-mark marks" role="graphics-object" aria-roledescription="rect mark container"><path aria-label="chain: unichain; logs: 142" role="graphics-symbol" aria-roledescription="bar" d="M0,318.4853333333333h67.5v1.5146666666666988h-67.5Z" fill="#2563eb"/></g></g><path class="foreground" aria-hidden="true" d="" display="none"/></g></g></g><path class="foreground" aria-hidden="true" d="" display="none"/></g></g><g class="mark-group role-title"><g transform="translate(-61,-36)"><path class="background" aria-hidden="true" d="M0,0h0v0h0Z" pointer-events="none"/><g><g class="mark-text role-title-text" role="graphics-symbol" aria-roledescription="title" aria-label="Title text 'Logs per chain (50 blocks each, live pull) / チェーン別ログ件数'" pointer-events="none"><text text-anchor="start" transform="translate(0,11)" font-family="-apple-system, BlinkMacSystemFont, 'Segoe UI', system-ui, 'Helvetica Neue', 'Hiragino Sans', 'Hiragino Kaku Gothic ProN', 'Noto Sans CJK JP', sans-serif" font-size="14px" font-weight="600" fill="#0f172a" opacity="1">Logs per chain (50 blocks each, live pull) / チェーン別ログ件数</text></g></g><path class="foreground" aria-hidden="true" d="" pointer-events="none" display="none"/></g></g></g><path class="foreground" aria-hidden="true" d="" display="none"/></g></g></g><defs><clipPath id="clip1"><path d="M3,0L64.5,0C66.155745073482,0,67.5,1.344254926518,67.5,3L67.5,83.28533333333331C67.5,83.28533333333331,67.5,83.28533333333331,67.5,83.28533333333331L0,83.28533333333331C0,83.28533333333331,0,83.28533333333331,0,83.28533333333331L0,3C0,1.344254926518,1.344254926518,0,3,0Z"/></clipPath><clipPath id="clip2"><path d="M3,0L64.5,0C66.155745073482,0,67.5,1.344254926518,67.5,3L67.5,304.3093333333333C67.5,304.3093333333333,67.5,304.3093333333333,67.5,304.3093333333333L0,304.3093333333333C0,304.3093333333333,0,304.3093333333333,0,304.3093333333333L0,3C0,1.344254926518,1.344254926518,0,3,0Z"/></clipPath><clipPath id="clip3"><path d="M3,0L64.5,0C66.155745073482,0,67.5,1.344254926518,67.5,3L67.5,6.901333333333298C67.5,6.901333333333298,67.5,6.901333333333298,67.5,6.901333333333298L0,6.901333333333298C0,6.901333333333298,0,6.901333333333298,0,6.901333333333298L0,3C0,1.344254926518,1.344254926518,0,3,0Z"/></clipPath><clipPath id="clip4"><path d="M3,0L64.5,0C66.155745073482,0,67.5,1.344254926518,67.5,3L67.5,50.44266666666664C67.5,50.44266666666664,67.5,50.44266666666664,67.5,50.44266666666664L0,50.44266666666664C0,50.44266666666664,0,50.44266666666664,0,50.44266666666664L0,3C0,1.344254926518,1.344254926518,0,3,0Z"/></clipPath><clipPath id="clip5"><path d="M3,0L64.5,0C66.155745073482,0,67.5,1.344254926518,67.5,3L67.5,217.35466666666667C67.5,217.35466666666667,67.5,217.35466666666667,67.5,217.35466666666667L0,217.35466666666667C0,217.35466666666667,0,217.35466666666667,0,217.35466666666667L0,3C0,1.344254926518,1.344254926518,0,3,0Z"/></clipPath><clipPath id="clip6"><path d="M3,0L64.5,0C66.155745073482,0,67.5,1.344254926518,67.5,3L67.5,10.186666666666667C67.5,10.186666666666667,67.5,10.186666666666667,67.5,10.186666666666667L0,10.186666666666667C0,10.186666666666667,0,10.186666666666667,0,10.186666666666667L0,3C0,1.344254926518,1.344254926518,0,3,0Z"/></clipPath><clipPath id="clip7"><path d="M3,0L64.5,0C66.155745073482,0,67.5,1.344254926518,67.5,3L67.5,12.149333333333345C67.5,12.149333333333345,67.5,12.149333333333345,67.5,12.149333333333345L0,12.149333333333345C0,12.149333333333345,0,12.149333333333345,0,12.149333333333345L0,3C0,1.344254926518,1.344254926518,0,3,0Z"/></clipPath><clipPath id="clip8"><path d="M0.7573333333333494,0L66.74266666666665,0C67.16065031188344,0,67.5,0.3393496881165512,67.5,0.7573333333333494L67.5,1.5146666666666988C67.5,1.5146666666666988,67.5,1.5146666666666988,67.5,1.5146666666666988L0,1.5146666666666988C0,1.5146666666666988,0,1.5146666666666988,0,1.5146666666666988L0,0.7573333333333494C0,0.3393496881165512,0.3393496881165512,0,0.7573333333333494,0Z"/></clipPath></defs></svg>