<svg xmlns="http://www.w3.org/2000/svg" xmlns:xlink="http://www.w3.org/1999/xlink" version="1.1" class="marks" width="698" height="424" viewBox="0 0 698 424"><g fill="none" stroke-miterlimit="10" transform="translate(82,48)"><g class="mark-group role-frame root" role="graphics-object" aria-roledescription="group mark container"><g transform="translate(0,0)"><path class="background" aria-hidden="true" d="M0.5,0.5h600v320h-600Z"/><g><g class="mark-group role-axis" aria-hidden="true"><g transform="translate(0.5,0.5)"><path class="background" aria-hidden="true" d="M0,0h0v0h0Z" pointer-events="none"/><g><g class="mark-rule role-axis-grid" pointer-events="none"><line transform="translate(0,320)" x2="600" y2="0" stroke="#eef0f4" stroke-width="0.8" stroke-dasharray="2,4" opacity="1"/><line transform="translate(0,288)" x2="600" y2="0" stroke="#eef0f4" stroke-width="0.8" stroke-dasharray="2,4" opacity="1"/><line transform="translate(0,256)" x2="600" y2="0" stroke="#eef0f4" stroke-width="0.8" stroke-dasharray="2,4" opacity="1"/><line transform="translate(0,224)" x2="600" y2="0" stroke="#eef0f4" stroke-width="0.8" stroke-dasharray="2,4" opacity="1"/><line transform="translate(0,192)" x2="600" y2="0" stroke="#eef0f4" stroke-width="0.8" stroke-dasharray="2,4" opacity="1"/><line transform="translate(0,160)" x2="600" y2="0" stroke="#eef0f4" stroke-width="0.8" stroke-dasharray="2,4" opacity="1"/><line transform="translate(0,128)" x2="600" y2="0" stroke="#eef0f4" stroke-width="0.8" stroke-dasharray="2,4" opacity="1"/><line transform="translate(0,96)" x2="600" y2="0" stroke="#eef0f4" stroke-width="0.8" stroke-dasharray="2,4" opacity="1"/><line transform="translate(0,64)" x2="600" y2="0" stroke="#eef0f4" stroke-width="0.8" stroke-dasharray="2,4" opacity="1"/><line transform="translate(0,32)" x2="600" y2="0" stroke="#eef0f4" stroke-width="0.8" stroke-dasharray="2,4" opacity="1"/><line transform="translate(0,0)" x2="600" y2="0" stroke="#eef0f4" stroke-width="0.8" stroke-dasharray="2,4" opacity="1"/></g></g><path class="foreground" aria-hidden="true" d="" pointer-events="none" display="none"/></g></g><g class="mark-group role-axis" role="graphics-symbol" aria-roledescription="axis" aria-label="X-axis titled 'chain' for a discrete scale with 8 values: arbitrum, base, ethereum, linea, optimism, ending with unichain"><g transform="translate(0.5,320.5)"><path class="background" aria-hidden="true" d="M0,0h0v0h0Z" pointer-events="none"/><g><g class="mark-rule role-axis-tick" pointer-events="none"><line transform="translate(37,0)" x2="0" y2="4" stroke="#e2e6ee" stroke-width="1" opacity="1"/><line transform="translate(112,0)" x2="0" y2="4" stroke="#e2e6ee" stroke-width="1" opacity="1"/><line transform="translate(187,0)" x2="0" y2="4" stroke="#e2e6ee" stroke-width="1" opacity="1"/><line transform="translate(262,0)" x2="0" y2="4" stroke="#e2e6ee" stroke-width="1" opacity="1"/><line transform="translate(337,0)" x2="0" y2="4" stroke="#e2e6ee" stroke-width="1" opacity="1"/><line transform="translate(412,0)" x2="0" y2="4" stroke="#e2e6ee" stroke-width="1" opacity="1"/><line transform="translate(487,0)" x2="0" y2="4" stroke="#e2e6ee" stroke-width="1" opacity="1"/><line transform="translate(562,0)" x2="0" y2="4" stroke="#e2e6ee" stroke-width="1" opacity="1"/></g><g class="mark-text role-axis-label" pointer-events="none"><text text-anchor="middle" transform="translate(37,19)" font-family="'SF Mono', Menlo, Consolas, 'Liberation Mono', monospace" font-size="11px" fill="#64748b" opacity="1">arbitrum</text><text text-anchor="middle" transform="translate(112,19)" font-family="'SF Mono', Menlo, Consolas, 'Liberation Mono', monospace" font-size="11px" fill="#64748b" opacity="1">base</text><text text-anchor="middle" transform="translate(187,19)" font-family="'SF Mono', Menlo, Consolas, 'Liberation Mono', monospace" font-size="11px" fill="#64748b" opacity="1">ethereum</text><text text-anchor="middle" transform="translate(262,19)" font-family="'SF Mono', Menlo, Consolas, 'Liberation Mono', monospace" font-size="11px" fill="#64748b" opacity="1">linea</text><text text-anchor="middle" transform="translate(337,19)" font-family="'SF Mono', Menlo, Consolas, 'Liberation Mono', monospace" font-size="11px" fill="#64748b" opacity="1">optimism</text><text text-anchor="middle" transform="translate(412,19)" font-family="'SF Mono', Menlo, Consolas, 'Liberation Mono', monospace" font-size="11px" fill="#64748b" opacity="1">polygon</text><text text-anchor="middle" transform="translate(487,19)" font-family="'SF Mono', Menlo, Consolas, 'Liberation Mono', monospace" font-size="11px" fill="#64748b" opacity="1">scroll</text><text text-anchor="middle" transform="translate(562,19)" font-family="'SF Mono', Menlo, Consolas, 'Liberation Mono', monospace" font-size="11px" fill="#64748b" opacity="1">unichain</text></g><g class="mark-text role-axis-title" pointer-events="none"><text text-anchor="middle" transform="translate(300,42)" font-family="-apple-system, BlinkMacSystemFont, 'Segoe UI', system-ui, 'Helvetica Neue', 'Hiragino Sans', 'Hiragino Kaku Gothic ProN', 'Noto Sans CJK JP', sans-serif" font-size="12px" font-weight="600" fill="#0f172a" opacity="1">chain</text></g></g><path class="foreground" aria-hidden="true" d="" pointer-events="none" display="none"/></g></g><g class="mark-group role-axis" role="graphics-symbol" aria-roledescription="axis" aria-label="Y-axis titled 'txs' for a linear scale with values from 0 to 5,000"><g transform="translate(0.5,0.5)"><path class="background" aria-hidden="true" d="M0,0h0v0h0Z" pointer-events="none"/><g><g class="mark-rule role-axis-tick" pointer-events="none"><line transform="translate(0,320)" x2="-4" y2="0" stroke="#e2e6ee" stroke-width="1" opacity="1"/><line transform="translate(0,288)" x2="-4" y2="0" stroke="#e2e6ee" stroke-width="1" opacity="1"/><line transform="translate(0,256)" x2="-4" y2="0" stroke="#e2e6ee" stroke-width="1" opacity="1"/><line transform="translate(0,224)" x2="-4" y2="0" stroke="#e2e6ee" stroke-width="1" opacity="1"/><line transform="translate(0,192)" x2="-4" y2="0" stroke="#e2e6ee" stroke-width="1" opacity="1"/><line transform="translate(0,160)" x2="-4" y2="0" stroke="#e2e6ee" stroke-width="1" opacity="1"/><line transform="translate(0,128)" x2="-4" y2="0" stroke="#e2e6ee" stroke-width="1" opacity="1"/><line transform="translate(0,96)" x2="-4" y2="0" stroke="#e2e6ee" stroke-width="1" opacity="1"/><line transform="translate(0,64)" x2="-4" y2="0" stroke="#e2e6ee" stroke-width="1" opacity="1"/><line transform="translate(0,32)" x2="-4" y2="0" stroke="#e2e6ee" stroke-width="1" opacity="1"/><line transform="translate(0,0)" x2="-4" y2="0" stroke="#e2e6ee" stroke-width="1" opacity="1"/></g><g class="mark-text role-axis-label" pointer-events="none"><text text-anchor="end" transform="translate(-10,323)" font-family="'SF Mono', Menlo, Consolas, 'Liberation Mono', monospace" font-size="11px" fill="#64748b" opacity="1">0</text><text text-anchor="end" transform="translate(-10,291)" font-family="'SF Mono', Menlo, Consolas, 'Liberation Mono', monospace" font-size="11px" fill="#64748b" opacity="1">500</text><text text-anchor="end" transform="translate(-10,259)" font-family="'SF Mono', Menlo, Consolas, 'Liberation Mono', monospace" font-size="11px" fill="#64748b" opacity="1">1k</text><text text-anchor="end" transform="translate(-10,227)" font-family="'SF Mono', Menlo, Consolas, 'Liberation Mono', monospace" font-size="11px" fill="#64748b" opacity="1">1.5k</text><text text-anchor="end" transform="translate(-10,195)" font-family="'SF Mono', Menlo, Consolas, 'Liberation Mono', monospace" font-size="11px" fill="#64748b" opacity="1">2k</text><text text-anchor="end" transform="translate(-10,163)" font-family="'SF Mono', Menlo, Consolas, 'Liberation Mono', monospace" font-size="11px" fill="#64748b" opacity="1">2.5k</text><text text-anchor="end" transform="translate(-10,131)" font-family="'SF Mono', Menlo, Consolas, 'Liberation Mono', monospace" font-size="11px" fill="#64748b" opacity="1">3k</text><text text-anchor="end" transform="translate(-10,99.00000000000001)" font-family="'SF Mono', Menlo, Consolas, 'Liberation Mono', monospace" font-size="11px" fill="#64748b" opacity="1">3.5k</text><text text-anchor="end" transform="translate(-10,66.99999999999999)" font-family="'SF Mono', Menlo, Consolas, 'Liberation Mono', monospace" font-size="11px" fill="#64748b" opacity="1">4k</text><text text-anchor="end" transform="translate(-10,34.99999999999999)" font-family="'SF Mono', Menlo, Consolas, 'Liberation Mono', monospace" font-size="11px" fill="#64748b" opacity="1">4.5k</text><text text-anchor="end" transform="translate(-10,3)" font-family="'SF Mono', Menlo, Consolas, 'Liberation Mono', monospace" font-size="11px" fill="#64748b" opacity="1">5k</text></g><g class="mark-text role-axis-title" pointer-events="none"><text text-anchor="middle" transform="translate(-57,160) rotate(-90) translate(0,-3)" font-family="-apple-system, BlinkMacSystemFont, 'Segoe UI', system-ui, 'Helvetica Neue', 'Hiragino Sans', 'Hiragino Kaku Gothic ProN', 'Noto Sans CJK JP', sans-serif" font-size="12px" font-weight="600" fill="#0f172a" opacity="1">txs</text></g></g><path class="foreground" aria-hidden="true" d="" pointer-events="none" display="none"/></g></g><g class="mark-group role-scope" role="graphics-object" aria-roledescription="group mark container"><g transform="translate(153.75,133.69599999999997)"><path class="background" aria-hidden="true" d="M3,0L64.5,0C66.155745073482,0,67.5,1.344254926518,67.5,3L67.5,186.30400000000003C67.5,186.30400000000003,67.5,186.30400000000003,67.5,186.30400000000003L0,186.30400000000003C0,186.30400000000003,0,186.30400000000003,0,186.30400000000003L0,3C0,1.344254926518,1.344254926518,0,3,0Z"/><g clip-path="url(#clip25)"><g class="mark-group role-scope" role="graphics-object" aria-roledescription="group mark container"><g transform="translate(0,-133.69599999999997)"><path class="background" aria-hidden="true" d="M0,0h67.5v0h-67.5Z"/><g><g class="mark-rect role-mark marks" role="graphics-object" aria-roledescription="rect mark container"><path aria-label="chain: ethereum; txs: 2911" role="graphics-symbol" aria-roledescription="bar" d="M0,133.69599999999997h67.5v186.30400000000003h-67.5Z" fill="#2563eb"/></g></g><path class="foreground" aria-hidden="true" d="" display="none"/></g></g></g><path class="foreground" aria-hidden="true" d="" display="none"/></g><g transform="translate(78.75,0.3200000000000003)"><path class="background" aria-hidden="true" d="M3,0L64.5,0C66.155745073482,0,67.5,1.344254926518,67.5,3L67.5,319.68C67.5,319.68,67.5,319.68,67.5,319.68L0,319.68C0,319.68,0,319.68,0,319.68L0,3C0,1.344254926518,1.344254926518,0,3,0Z"/><g clip-path="url(#clip26)"><g class="mark-group role-scope" role="graphics-object" aria-roledescription="group mark container"><g transform="translate(0,-0.3200000000000003)"><path class="background" aria-hidden="true" d="M0,0h67.5v0h-67.5Z"/><g><g class="mark-rect role-mark marks" role="graphics-object" aria-roledescription="rect mark container"><path aria-label="chain: base; txs: 4995" role="graphics-symbol" aria-roledescription="bar" d="M0,0.3200000000000003h67.5v319.68h-67.5Z" fill="#2563eb"/></g></g><path class="foreground" aria-hidden="true" d="" display="none"/></g></g></g><path class="foreground" aria-hidden="true" d="" display="none"/></g><g transform="translate(3.75,313.28)"><path class="background" aria-hidden="true" d="M3,0L64.5,0C66.155745073482,0,67.5,1.344254926518,67.5,3L67.5,6.720000000000027C67.5,6.720000000000027,67.5,6.720000000000027,67.5,6.720000000000027L0,6.720000000000027C0,6.720000000000027,0,6.720000000000027,0,6.720000000000027L0,3C0,1.344254926518,1.344254926518,0,3,0Z"/><g clip-path="url(#clip27)"><g class="mark-group role-scope" role="graphics-object" aria-roledescription="group mark container"><g transform="translate(0,-313.28)"><path class="background" aria-hidden="true" d="M0,0h67.5v0h-67.5Z"/><g><g class="mark-rect role-mark marks" role="graphics-object" aria-roledescription="rect mark container"><path aria-label="chain: arbitrum; txs: 105" role="graphics-symbol" aria-roledescription="bar" d="M0,313.28h67.5v6.720000000000027h-67.5Z" fill="#2563eb"/></g></g><path class="foreground" aria-hidden="true" d="" display="none"/></g></g></g><path class="foreground" aria-hidden="true" d="" display="none"/></g><g transform="translate(303.75,273.79200000000003)"><path class="background" aria-hidden="true" d="M3,0L64.5,0C66.155745073482,0,67.5,1.344254926518,67.5,3L67.5,46.20799999999997C67.5,46.20799999999997,67.5,46.20799999999997,67.5,46.20799999999997L0,46.20799999999997C0,46.20799999999997,0,46.20799999999997,0,46.20799999999997L0,3C0,1.344254926518,1.344254926518,0,3,0Z"/><g clip-path="url(#clip28)"><g class="mark-group role-scope" role="graphics-object" aria-roledescription="group mark container"><g transform="translate(0,-273.79200000000003)"><path class="background" aria-hidden="true" d="M0,0h67.5v0h-67.5Z"/><g><g class="mark-rect role-mark marks" role="graphics-object" aria-roledescription="rect mark container"><path aria-label="chain: optimism; txs: 722" role="graphics-symbol" aria-roledescription="bar" d="M0,273.79200000000003h67.5v46.20799999999997h-67.5Z" fill="#2563eb"/></g></g><path class="foreground" aria-hidden="true" d="" display="none"/></g></g></g><path class="foreground" aria-hidden="true" d="" display="none"/></g><g transform="translate(378.75,7.807999999999993)"><path class="background" aria-hidden="true" d="M3,0L64.5,0C66.155745073482,0,67.5,1.344254926518,67.5,3L67.5,312.192C67.5,312.192,67.5,312.192,67.5,312.192L0,312.192C0,312.192,0,312.192,0,312.192L0,3C0,1.344254926518,1.344254926518,0,3,0Z"/><g clip-path="url(#clip29)"><g class="mark-group role-scope" role="graphics-object" aria-roledescription="group mark container"><g transform="translate(0,-7.807999999999993)"><path class="background" aria-hidden="true" d="M0,0h67.5v0h-67.5Z"/><g><g class="mark-rect role-mark marks" role="graphics-object" aria-roledescription="rect mark container"><path aria-label="chain: polygon; txs: 4878" role="graphics-symbol" aria-roledescription="bar" d="M0,7.807999999999993h67.5v312.192h-67.5Z" fill="#2563eb"/></g></g><path class="foreground" aria-hidden="true" d="" display="none"/></g></g></g><path class="foreground" aria-hidden="true" d="" display="none"/></g><g transform="translate(228.75,306.944)"><path class="background" aria-hidden="true" d="M3,0L64.5,0C66.155745073482,0,67.5,1.344254926518,67.5,3L67.5,13.055999999999983C67.5,13.055999999999983,67.5,13.055999999999983,67.5,13.055999999999983L0,13.055999999999983C0,13.055999999999983,0,13.055999999999983,0,13.055999999999983L0,3C0,1.344254926518,1.344254926518,0,3,0Z"/><g clip-path="url(#clip30)"><g class="mark-group role-scope" role="graphics-object" aria-roledescription="group mark container"><g transform="translate(0,-306.944)"><path class="background" aria-hidden="true" d="M0,0h67.5v0h-67.5Z"/><g><g class="mark-rect role-mark marks" role="graphics-object" aria-roledescription="rect mark container"><path aria-label="chain: linea; txs: 204" role="graphics-symbol" aria-roledescription="bar" d="M0,306.944h67.5v13.055999999999983h-67.5Z" fill="#2563eb"/></g></g><path class="foreground" aria-hidden="true" d="" display="none"/></g></g></g><path class="foreground" aria-hidden="true" d="" display="none"/></g><g transform="translate(453.75,301.76)"><path class="background" aria-hidden="true" d="M3,0L64.5,0C66.155745073482,0,67.5,1.344254926518,67.5,3L67.5,18.24000000000001C67.5,18.24000000000001,67.5,18.24000000000001,67.5,18.24000000000001L0,18.24000000000001C0,18.24000000000001,0,18.24000000000001,0,18.24000000000001L0,3C0,1.344254926518,1.344254926518,0,3,0Z"/><g clip-path="url(#clip31)"><g class="mark-group role-scope" role="graphics-object" aria-roledescription="group mark container"><g transform="translate(0,-301.76)"><path class="background" aria-hidden="true" d="M0,0h67.5v0h-67.5Z"/><g><g class="mark-rect role-mark marks" role="graphics-object" aria-roledescription="rect mark container"><path aria-label="chain: scroll; txs: 285" role="graphics-symbol" aria-roledescription="bar" d="M0,301.76h67.5v18.24000000000001h-67.5Z" fill="#2563eb"/></g></g><path class="foreground" aria-hidden="true" d="" display="none"/></g></g></g><path class="foreground" aria-hidden="true" d="" display="none"/></g><g transform="translate(528.75,315.968)"><path class="background" aria-hidden="true" d="M2.015999999999991,0L65.48400000000001,0C66.5966606893799,0,67.5,0.9033393106200921,67.5,2.015999999999991L67.5,4.031999999999982C67.5,4.031999999999982,67.5,4.031999999999982,67.5,4.031999999999982L0,4.031999999999982C0,4.031999999999982,0,4.031999999999982,0,4.031999999999982L0,2.015999999999991C0,0.9033393106200921,0.9033393106200921,0,2.015999999999991,0Z"/><g clip-path="url(#clip32)"><g class="mark-group role-scope" role="graphics-object" aria-roledescription="group mark container"><g transform="translate(0,-315.968)"><path class="background" aria-hidden="true" d="M0,0h67.5v0h-67.5Z"/><g><g class="mark-rect role-mark marks" role="graphics-object" aria-roledescription="rect mark container"><path aria-label="chain: unichain; txs: 63" role="graphics-symbol" aria-roledescription="bar" d="M0,315.968h67.5v4.031999999999982h-67.5Z" fill="#2563eb"/></g></g><path class="foreground" aria-hidden="true" d="" display="none"/></g></g></g><path class="foreground" aria-hidden="true" d="" display="none"/></g></g><g class="mark-group role-title"><g transform="translate(-70,-36)"><path class="background" aria-hidden="true" d="M0,0h0v0h0Z" pointer-events="none"/><g><g class="mark-text role-title-text" role="graphics-symbol" aria-roledescription="title" aria-label="Title text 'Distinct transactions per chain / 取引数'" pointer-events="none"><text text-anchor="start" transform="translate(0,11)" font-family="-apple-system, BlinkMacSystemFont, 'Segoe UI', system-ui, 'Helvetica Neue', 'Hiragino Sans', 'Hiragino Kaku Gothic ProN', 'Noto Sans CJK JP', sans-serif" font-size="14px" font-weight="600" fill="#0f172a" opacity="1">Distinct transactions per chain / 取引数</text></g></g><path class="foreground" aria-hidden="true" d="" pointer-events="none" display="none"/></g></g></g><path class="foreground" aria-hidden="true" d="" display="none"/></g></g></g><defs><clipPath id="clip25"><path d="M3,0L64.5,0C66.155745073482,0,67.5,1.344254926518,67.5,3L67.5,186.30400000000003C67.5,186.30400000000003,67.5,186.30400000000003,67.5,186.30400000000003L0,186.30400000000003C0,186.30400000000003,0,186.30400000000003,0,186.30400000000003L0,3C0,1.344254926518,1.344254926518,0,3,0Z"/></clipPath><clipPath id="clip26"><path d="M3,0L64.5,0C66.155745073482,0,67.5,1.344254926518,67.5,3L67.5,319.68C67.5,319.68,67.5,319.68,67.5,319.68L0,319.68C0,319.68,0,319.68,0,319.68L0,3C0,1.344254926518,1.344254926518,0,3,0Z"/></clipPath><clipPath id="clip27"><path d="M3,0L64.5,0C66.155745073482,0,67.5,1.344254926518,67.5,3L67.5,6.720000000000027C67.5,6.720000000000027,67.5,6.720000000000027,67.5,6.720000000000027L0,6.720000000000027C0,6.720000000000027,0,6.720000000000027,0,6.720000000000027L0,3C0,1.344254926518,1.344254926518,0,3,0Z"/></clipPath><clipPath id="clip28"><path d="M3,0L64.5,0C66.155745073482,0,67.5,1.344254926518,67.5,3L67.5,46.20799999999997C67.5,46.20799999999997,67.5,46.20799999999997,67.5,46.20799999999997L0,46.20799999999997C0,46.20799999999997,0,46.20799999999997,0,46.20799999999997L0,3C0,1.344254926518,1.344254926518,0,3,0Z"/></clipPath><clipPath id="clip29"><path d="M3,0L64.5,0C66.155745073482,0,67.5,1.344254926518,67.5,3L67.5,312.192C67.5,312.192,67.5,312.192,67.5,312.192L0,312.192C0,312.192,0,312.192,0,312.192L0,3C0,1.344254926518,1.344254926518,0,3,0Z"/></clipPath><clipPath id="clip30"><path d="M3,0L64.5,0C66.155745073482,0,67.5,1.344254926518,67.5,3L67.5,13.055999999999983C67.5,13.055999999999983,67.5,13.055999999999983,67.5,13.055999999999983L0,13.055999999999983C0,13.055999999999983,0,13.055999999999983,0,13.055999999999983L0,3C0,1.344254926518,1.344254926518,0,3,0Z"/></clipPath><clipPath id="clip31"><path d="M3,0L64.5,0C66.155745073482,0,67.5,1.344254926518,67.5,3L67.5,18.24000000000001C67.5,18.24000000000001,67.5,18.24000000000001,67.5,18.24000000000001L0,18.24000000000001C0,18.24000000000001,0,18.24000000000001,0,18.24000000000001L0,3C0,1.344254926518,1.344254926518,0,3,0Z"/></clipPath><clipPath id="clip32"><path d="M2.015999999999991,0L65.48400000000001,0C66.5966606893799,0,67.5,0.9033393106200921,67.5,2.015999999999991L67.5,4.031999999999982C67.5,4.031999999999982,67.5,4.031999999999982,67.5,4.031999999999982L0,4.031999999999982C0,4.031999999999982,0,4.031999999999982,0,4.031999999999982L0,2.015999999999991C0,0.9033393106200921,0.9033393106200921,0,2.015999999999991,0Z"/></clipPath></defs></svg>