<svg xmlns="http://www.w3.org/2000/svg" xmlns:xlink="http://www.w3.org/1999/xlink" version="1.1" class="marks" width="733" height="424" viewBox="0 0 733 424"><g fill="none" stroke-miterlimit="10" transform="translate(82,48)"><g class="mark-group role-frame root" role="graphics-object" aria-roledescription="group mark container"><g transform="translate(0,0)"><path class="background" aria-hidden="true" d="M0.5,0.5h600v320h-600Z"/><g><g class="mark-group role-axis" aria-hidden="true"><g transform="translate(0.5,0.5)"><path class="background" aria-hidden="true" d="M0,0h0v0h0Z" pointer-events="none"/><g><g class="mark-rule role-axis-grid" pointer-events="none"><line transform="translate(0,320)" x2="600" y2="0" stroke="#eef0f4" stroke-width="0.8" stroke-dasharray="2,4" opacity="1"/><line transform="translate(0,291)" x2="600" y2="0" stroke="#eef0f4" stroke-width="0.8" stroke-dasharray="2,4" opacity="1"/><line transform="translate(0,262)" x2="600" y2="0" stroke="#eef0f4" stroke-width="0.8" stroke-dasharray="2,4" opacity="1"/><line transform="translate(0,233)" x2="600" y2="0" stroke="#eef0f4" stroke-width="0.8" stroke-dasharray="2,4" opacity="1"/><line transform="translate(0,204)" x2="600" y2="0" stroke="#eef0f4" stroke-width="0.8" stroke-dasharray="2,4" opacity="1"/><line transform="translate(0,175)" x2="600" y2="0" stroke="#eef0f4" stroke-width="0.8" stroke-dasharray="2,4" opacity="1"/><line transform="translate(0,145)" x2="600" y2="0" stroke="#eef0f4" stroke-width="0.8" stroke-dasharray="2,4" opacity="1"/><line transform="translate(0,116)" x2="600" y2="0" stroke="#eef0f4" stroke-width="0.8" stroke-dasharray="2,4" opacity="1"/><line transform="translate(0,87)" x2="600" y2="0" stroke="#eef0f4" stroke-width="0.8" stroke-dasharray="2,4" opacity="1"/><line transform="translate(0,58)" x2="600" y2="0" stroke="#eef0f4" stroke-width="0.8" stroke-dasharray="2,4" opacity="1"/><line transform="translate(0,29)" x2="600" y2="0" stroke="#eef0f4" stroke-width="0.8" stroke-dasharray="2,4" opacity="1"/><line transform="translate(0,0)" x2="600" y2="0" stroke="#eef0f4" stroke-width="0.8" stroke-dasharray="2,4" opacity="1"/></g></g><path class="foreground" aria-hidden="true" d="" pointer-events="none" display="none"/></g></g><g class="mark-group role-axis" role="graphics-symbol" aria-roledescription="axis" aria-label="X-axis titled 'event' for a discrete scale with 10 values: (unknown topic0), Across_FundsDeposited, Approval, Transfer, UniV2_Burn, ending with WethWithdrawal"><g transform="translate(0.5,320.5)"><path class="background" aria-hidden="true" d="M0,0h0v0h0Z" pointer-events="none"/><g><g class="mark-rule role-axis-tick" pointer-events="none"><line transform="translate(30,0)" x2="0" y2="4" stroke="#e2e6ee" stroke-width="1" opacity="1"/><line transform="translate(90,0)" x2="0" y2="4" stroke="#e2e6ee" stroke-width="1" opacity="1"/><line transform="translate(150,0)" x2="0" y2="4" stroke="#e2e6ee" stroke-width="1" opacity="1"/><line transform="translate(210,0)" x2="0" y2="4" stroke="#e2e6ee" stroke-width="1" opacity="1"/><line transform="translate(270,0)" x2="0" y2="4" stroke="#e2e6ee" stroke-width="1" opacity="1"/><line transform="translate(330,0)" x2="0" y2="4" stroke="#e2e6ee" stroke-width="1" opacity="1"/><line transform="translate(390,0)" x2="0" y2="4" stroke="#e2e6ee" stroke-width="1" opacity="1"/><line transform="translate(450,0)" x2="0" y2="4" stroke="#e2e6ee" stroke-width="1" opacity="1"/><line transform="translate(510,0)" x2="0" y2="4" stroke="#e2e6ee" stroke-width="1" opacity="1"/><line transform="translate(570,0)" x2="0" y2="4" stroke="#e2e6ee" stroke-width="1" opacity="1"/></g><g class="mark-text role-axis-label" pointer-events="none"><text text-anchor="middle" transform="translate(29.5,19)" font-family="'SF Mono', Menlo, Consolas, 'Liberation Mono', monospace" font-size="11px" fill="#64748b" opacity="1">(unknown topic0)</text><text text-anchor="middle" transform="translate(89.5,19)" font-family="'SF Mono', Menlo, Consolas, 'Liberation Mono', monospace" font-size="11px" fill="#64748b" opacity="0">Across_FundsDeposit…</text><text text-anchor="middle" transform="translate(149.5,19)" font-family="'SF Mono', Menlo, Consolas, 'Liberation Mono', monospace" font-size="11px" fill="#64748b" opacity="1">Approval</text><text text-anchor="middle" transform="translate(209.5,19)" font-family="'SF Mono', Menlo, Consolas, 'Liberation Mono', monospace" font-size="11px" fill="#64748b" opacity="0">Transfer</text><text text-anchor="middle" transform="translate(269.5,19)" font-family="'SF Mono', Menlo, Consolas, 'Liberation Mono', monospace" font-size="11px" fill="#64748b" opacity="1">UniV2_Burn</text><text text-anchor="middle" transform="translate(329.5,19)" font-family="'SF Mono', Menlo, Consolas, 'Liberation Mono', monospace" font-size="11px" fill="#64748b" opacity="0">UniV2_Mint</text><text text-anchor="middle" transform="translate(389.5,19)" font-family="'SF Mono', Menlo, Consolas, 'Liberation Mono', monospace" font-size="11px" fill="#64748b" opacity="1">UniV2_Swap</text><text text-anchor="middle" transform="translate(449.5,19)" font-family="'SF Mono', Menlo, Consolas, 'Liberation Mono', monospace" font-size="11px" fill="#64748b" opacity="0">UniV3_Swap</text><text text-anchor="middle" transform="translate(509.5,19)" font-family="'SF Mono', Menlo, Consolas, 'Liberation Mono', monospace" font-size="11px" fill="#64748b" opacity="1">WethDeposit</text><text text-anchor="middle" transform="translate(569.5,19)" font-family="'SF Mono', Menlo, Consolas, 'Liberation Mono', monospace" font-size="11px" fill="#64748b" opacity="0">WethWithdrawal</text></g><g class="mark-text role-axis-title" pointer-events="none"><text text-anchor="middle" transform="translate(300,42)" font-family="-apple-system, BlinkMacSystemFont, 'Segoe UI', system-ui, 'Helvetica Neue', 'Hiragino Sans', 'Hiragino Kaku Gothic ProN', 'Noto Sans CJK JP', sans-serif" font-size="12px" font-weight="600" fill="#0f172a" opacity="1">event</text></g></g><path class="foreground" aria-hidden="true" d="" pointer-events="none" display="none"/></g></g><g class="mark-group role-axis" role="graphics-symbol" aria-roledescription="axis" aria-label="Y-axis titled 'c' for a linear scale with values from 0 to 5,500"><g transform="translate(0.5,0.5)"><path class="background" aria-hidden="true" d="M0,0h0v0h0Z" pointer-events="none"/><g><g class="mark-rule role-axis-tick" pointer-events="none"><line transform="translate(0,320)" x2="-4" y2="0" stroke="#e2e6ee" stroke-width="1" opacity="1"/><line transform="translate(0,291)" x2="-4" y2="0" stroke="#e2e6ee" stroke-width="1" opacity="1"/><line transform="translate(0,262)" x2="-4" y2="0" stroke="#e2e6ee" stroke-width="1" opacity="1"/><line transform="translate(0,233)" x2="-4" y2="0" stroke="#e2e6ee" stroke-width="1" opacity="1"/><line transform="translate(0,204)" x2="-4" y2="0" stroke="#e2e6ee" stroke-width="1" opacity="1"/><line transform="translate(0,175)" x2="-4" y2="0" stroke="#e2e6ee" stroke-width="1" opacity="1"/><line transform="translate(0,145)" x2="-4" y2="0" stroke="#e2e6ee" stroke-width="1" opacity="1"/><line transform="translate(0,116)" x2="-4" y2="0" stroke="#e2e6ee" stroke-width="1" opacity="1"/><line transform="translate(0,87)" x2="-4" y2="0" stroke="#e2e6ee" stroke-width="1" opacity="1"/><line transform="translate(0,58)" x2="-4" y2="0" stroke="#e2e6ee" stroke-width="1" opacity="1"/><line transform="translate(0,29)" x2="-4" y2="0" stroke="#e2e6ee" stroke-width="1" opacity="1"/><line transform="translate(0,0)" x2="-4" y2="0" stroke="#e2e6ee" stroke-width="1" opacity="1"/></g><g class="mark-text role-axis-label" pointer-events="none"><text text-anchor="end" transform="translate(-10,323)" font-family="'SF Mono', Menlo, Consolas, 'Liberation Mono', monospace" font-size="11px" fill="#64748b" opacity="1">0</text><text text-anchor="end" transform="translate(-10,293.9090909090909)" font-family="'SF Mono', Menlo, Consolas, 'Liberation Mono', monospace" font-size="11px" fill="#64748b" opacity="1">500</text><text text-anchor="end" transform="translate(-10,264.8181818181818)" font-family="'SF Mono', Menlo, Consolas, 'Liberation Mono', monospace" font-size="11px" fill="#64748b" opacity="1">1k</text><text text-anchor="end" transform="translate(-10,235.72727272727275)" font-family="'SF Mono', Menlo, Consolas, 'Liberation Mono', monospace" font-size="11px" fill="#64748b" opacity="1">1.5k</text><text text-anchor="end" transform="translate(-10,206.63636363636363)" font-family="'SF Mono', Menlo, Consolas, 'Liberation Mono', monospace" font-size="11px" fill="#64748b" opacity="1">2k</text><text text-anchor="end" transform="translate(-10,177.54545454545453)" font-family="'SF Mono', Menlo, Consolas, 'Liberation Mono', monospace" font-size="11px" fill="#64748b" opacity="1">2.5k</text><text text-anchor="end" transform="translate(-10,148.45454545454547)" font-family="'SF Mono', Menlo, Consolas, 'Liberation Mono', monospace" font-size="11px" fill="#64748b" opacity="1">3k</text><text text-anchor="end" transform="translate(-10,119.36363636363637)" font-family="'SF Mono', Menlo, Consolas, 'Liberation Mono', monospace" font-size="11px" fill="#64748b" opacity="1">3.5k</text><text text-anchor="end" transform="translate(-10,90.27272727272727)" font-family="'SF Mono', Menlo, Consolas, 'Liberation Mono', monospace" font-size="11px" fill="#64748b" opacity="1">4k</text><text text-anchor="end" transform="translate(-10,61.181818181818166)" font-family="'SF Mono', Menlo, Consolas, 'Liberation Mono', monospace" font-size="11px" fill="#64748b" opacity="1">4.5k</text><text text-anchor="end" transform="translate(-10,32.0909090909091)" font-family="'SF Mono', Menlo, Consolas, 'Liberation Mono', monospace" font-size="11px" fill="#64748b" opacity="1">5k</text><text text-anchor="end" transform="translate(-10,3)" font-family="'SF Mono', Menlo, Consolas, 'Liberation Mono', monospace" font-size="11px" fill="#64748b" opacity="1">5.5k</text></g><g class="mark-text role-axis-title" pointer-events="none"><text text-anchor="middle" transform="translate(-57,160) rotate(-90) translate(0,-3)" font-family="-apple-system, BlinkMacSystemFont, 'Segoe UI', system-ui, 'Helvetica Neue', 'Hiragino Sans', 'Hiragino Kaku Gothic ProN', 'Noto Sans CJK JP', sans-serif" font-size="12px" font-weight="600" fill="#0f172a" opacity="1">c</text></g></g><path class="foreground" aria-hidden="true" d="" pointer-events="none" display="none"/></g></g><g class="mark-group role-scope" role="graphics-object" aria-roledescription="group mark container"><g transform="translate(183,24.494545454545467)"><path class="background" aria-hidden="true" d="M3,0L51,0C52.655745073482,0,54,1.344254926518,54,3L54,295.50545454545454C54,295.50545454545454,54,295.50545454545454,54,295.50545454545454L0,295.50545454545454C0,295.50545454545454,0,295.50545454545454,0,295.50545454545454L0,3C0,1.344254926518,1.344254926518,0,3,0Z"/><g clip-path="url(#clip47)"><g class="mark-group role-scope" role="graphics-object" aria-roledescription="group mark container"><g transform="translate(0,-24.494545454545467)"><path class="background" aria-hidden="true" d="M0,0h54v0h-54Z"/><g><g class="mark-rect role-mark marks" role="graphics-object" aria-roledescription="rect mark container"><path aria-label="event: Transfer; c: 5079" role="graphics-symbol" aria-roledescription="bar" d="M0,24.494545454545467h54v295.50545454545454h-54Z" fill="#2563eb"/></g></g><path class="foreground" aria-hidden="true" d="" display="none"/></g></g></g><path class="foreground" aria-hidden="true" d="" display="none"/></g><g transform="translate(3,57.77454545454546)"><path class="background" aria-hidden="true" d="M3,0L51,0C52.655745073482,0,54,1.344254926518,54,3L54,262.22545454545457C54,262.22545454545457,54,262.22545454545457,54,262.22545454545457L0,262.22545454545457C0,262.22545454545457,0,262.22545454545457,0,262.22545454545457L0,3C0,1.344254926518,1.344254926518,0,3,0Z"/><g clip-path="url(#clip48)"><g class="mark-group role-scope" role="graphics-object" aria-roledescription="group mark container"><g transform="translate(0,-57.77454545454546)"><path class="background" aria-hidden="true" d="M0,0h54v0h-54Z"/><g><g class="mark-rect role-mark marks" role="graphics-object" aria-roledescription="rect mark container"><path aria-label="event: (unknown topic0); c: 4507" role="graphics-symbol" aria-roledescription="bar" d="M0,57.77454545454546h54v262.22545454545457h-54Z" fill="#2563eb"/></g></g><path class="foreground" aria-hidden="true" d="" display="none"/></g></g></g><path class="foreground" aria-hidden="true" d="" display="none"/></g><g transform="translate(123,274.0945454545454)"><path class="background" aria-hidden="true" d="M3,0L51,0C52.655745073482,0,54,1.344254926518,54,3L54,45.905454545454575C54,45.905454545454575,54,45.905454545454575,54,45.905454545454575L0,45.905454545454575C0,45.905454545454575,0,45.905454545454575,0,45.905454545454575L0,3C0,1.344254926518,1.344254926518,0,3,0Z"/><g clip-path="url(#clip49)"><g class="mark-group role-scope" role="graphics-object" aria-roledescription="group mark container"><g transform="translate(0,-274.0945454545454)"><path class="background" aria-hidden="true" d="M0,0h54v0h-54Z"/><g><g class="mark-rect role-mark marks" role="graphics-object" aria-roledescription="rect mark container"><path aria-label="event: Approval; c: 789" role="graphics-symbol" aria-roledescription="bar" d="M0,274.0945454545454h54v45.905454545454575h-54Z" fill="#2563eb"/></g></g><path class="foreground" aria-hidden="true" d="" display="none"/></g></g></g><path class="foreground" aria-hidden="true" d="" display="none"/></g><g transform="translate(363,278.9236363636364)"><path class="background" aria-hidden="true" d="M3,0L51,0C52.655745073482,0,54,1.344254926518,54,3L54,41.076363636363624C54,41.076363636363624,54,41.076363636363624,54,41.076363636363624L0,41.076363636363624C0,41.076363636363624,0,41.076363636363624,0,41.076363636363624L0,3C0,1.344254926518,1.344254926518,0,3,0Z"/><g clip-path="url(#clip50)"><g class="mark-group role-scope" role="graphics-object" aria-roledescription="group mark container"><g transform="translate(0,-278.9236363636364)"><path class="background" aria-hidden="true" d="M0,0h54v0h-54Z"/><g><g class="mark-rect role-mark marks" role="graphics-object" aria-roledescription="rect mark container"><path aria-label="event: UniV2_Swap; c: 706" role="graphics-symbol" aria-roledescription="bar" d="M0,278.9236363636364h54v41.076363636363624h-54Z" fill="#2563eb"/></g></g><path class="foreground" aria-hidden="true" d="" display="none"/></g></g></g><path class="foreground" aria-hidden="true" d="" display="none"/></g><g transform="translate(483,280.02909090909094)"><path class="background" aria-hidden="true" d="M3,0L51,0C52.655745073482,0,54,1.344254926518,54,3L54,39.97090909090906C54,39.97090909090906,54,39.97090909090906,54,39.97090909090906L0,39.97090909090906C0,39.97090909090906,0,39.97090909090906,0,39.97090909090906L0,3C0,1.344254926518,1.344254926518,0,3,0Z"/><g clip-path="url(#clip51)"><g class="mark-group role-scope" role="graphics-object" aria-roledescription="group mark container"><g transform="translate(0,-280.02909090909094)"><path class="background" aria-hidden="true" d="M0,0h54v0h-54Z"/><g><g class="mark-rect role-mark marks" role="graphics-object" aria-roledescription="rect mark container"><path aria-label="event: WethDeposit; c: 687" role="graphics-symbol" aria-roledescription="bar" d="M0,280.02909090909094h54v39.97090909090906h-54Z" fill="#2563eb"/></g></g><path class="foreground" aria-hidden="true" d="" display="none"/></g></g></g><path class="foreground" aria-hidden="true" d="" display="none"/></g><g transform="translate(423,286.25454545454545)"><path class="background" aria-hidden="true" d="M3,0L51,0C52.655745073482,0,54,1.344254926518,54,3L54,33.74545454545455C54,33.74545454545455,54,33.74545454545455,54,33.74545454545455L0,33.74545454545455C0,33.74545454545455,0,33.74545454545455,0,33.74545454545455L0,3C0,1.344254926518,1.344254926518,0,3,0Z"/><g clip-path="url(#clip52)"><g class="mark-group role-scope" role="graphics-object" aria-roledescription="group mark container"><g transform="translate(0,-286.25454545454545)"><path class="background" aria-hidden="true" d="M0,0h54v0h-54Z"/><g><g class="mark-rect role-mark marks" role="graphics-object" aria-roledescription="rect mark container"><path aria-label="event: UniV3_Swap; c: 580" role="graphics-symbol" aria-roledescription="bar" d="M0,286.25454545454545h54v33.74545454545455h-54Z" fill="#2563eb"/></g></g><path class="foreground" aria-hidden="true" d="" display="none"/></g></g></g><path class="foreground" aria-hidden="true" d="" display="none"/></g><g transform="translate(543,308.94545454545454)"><path class="background" aria-hidden="true" d="M3,0L51,0C52.655745073482,0,54,1.344254926518,54,3L54,11.054545454545462C54,11.054545454545462,54,11.054545454545462,54,11.054545454545462L0,11.054545454545462C0,11.054545454545462,0,11.054545454545462,0,11.054545454545462L0,3C0,1.344254926518,1.344254926518,0,3,0Z"/><g clip-path="url(#clip53)"><g class="mark-group role-scope" role="graphics-object" aria-roledescription="group mark container"><g transform="translate(0,-308.94545454545454)"><path class="background" aria-hidden="true" d="M0,0h54v0h-54Z"/><g><g class="mark-rect role-mark marks" role="graphics-object" aria-roledescription="rect mark container"><path aria-label="event: WethWithdrawal; c: 190" role="graphics-symbol" aria-roledescription="bar" d="M0,308.94545454545454h54v11.054545454545462h-54Z" fill="#2563eb"/></g></g><path class="foreground" aria-hidden="true" d="" display="none"/></g></g></g><path class="foreground" aria-hidden="true" d="" display="none"/></g><g transform="translate(303,319.18545454545455)"><path class="background" aria-hidden="true" d="M0.40727272727272634,0L53.592727272727274,0C53.81750720997574,0,54,0.18249279002426141,54,0.40727272727272634L54,0.8145454545454527C54,0.8145454545454527,54,0.8145454545454527,54,0.8145454545454527L0,0.8145454545454527C0,0.8145454545454527,0,0.8145454545454527,0,0.8145454545454527L0,0.40727272727272634C0,0.18249279002426141,0.18249279002426141,0,0.40727272727272634,0Z"/><g clip-path="url(#clip54)"><g class="mark-group role-scope" role="graphics-object" aria-roledescription="group mark container"><g transform="translate(0,-319.18545454545455)"><path class="background" aria-hidden="true" d="M0,0h54v0h-54Z"/><g><g class="mark-rect role-mark marks" role="graphics-object" aria-roledescription="rect mark container"><path aria-label="event: UniV2_Mint; c: 14" role="graphics-symbol" aria-roledescription="bar" d="M0,319.18545454545455h54v0.8145454545454527h-54Z" fill="#2563eb"/></g></g><path class="foreground" aria-hidden="true" d="" display="none"/></g></g></g><path class="foreground" aria-hidden="true" d="" display="none"/></g><g transform="translate(63,319.70909090909095)"><path class="background" aria-hidden="true" d="M0.14545454545452685,0L53.85454545454547,0C53.934824003562774,0,54,0.06517599643722803,54,0.14545454545452685L54,0.2909090909090537C54,0.2909090909090537,54,0.2909090909090537,54,0.2909090909090537L0,0.2909090909090537C0,0.2909090909090537,0,0.2909090909090537,0,0.2909090909090537L0,0.14545454545452685C0,0.06517599643722803,0.06517599643722803,0,0.14545454545452685,0Z"/><g clip-path="url(#clip55)"><g class="mark-group role-scope" role="graphics-object" aria-roledescription="group mark container"><g transform="translate(0,-319.70909090909095)"><path class="background" aria-hidden="true" d="M0,0h54v0h-54Z"/><g><g class="mark-rect role-mark marks" role="graphics-object" aria-roledescription="rect mark container"><path aria-label="event: Across_FundsDeposited; c: 5" role="graphics-symbol" aria-roledescription="bar" d="M0,319.70909090909095h54v0.2909090909090537h-54Z" fill="#2563eb"/></g></g><path class="foreground" aria-hidden="true" d="" display="none"/></g></g></g><path class="foreground" aria-hidden="true" d="" display="none"/></g><g transform="translate(243,319.88363636363636)"><path class="background" aria-hidden="true" d="M0.05818181818182211,0L53.94181818181818,0C53.973929601425105,0,54,0.026070398574896306,54,0.05818181818182211L54,0.11636363636364422C54,0.11636363636364422,54,0.11636363636364422,54,0.11636363636364422L0,0.11636363636364422C0,0.11636363636364422,0,0.11636363636364422,0,0.11636363636364422L0,0.05818181818182211C0,0.026070398574896306,0.026070398574896306,0,0.05818181818182211,0Z"/><g clip-path="url(#clip56)"><g class="mark-group role-scope" role="graphics-object" aria-roledescription="group mark container"><g transform="translate(0,-319.88363636363636)"><path class="background" aria-hidden="true" d="M0,0h54v0h-54Z"/><g><g class="mark-rect role-mark marks" role="graphics-object" aria-roledescription="rect mark container"><path aria-label="event: UniV2_Burn; c: 2" role="graphics-symbol" aria-roledescription="bar" d="M0,319.88363636363636h54v0.11636363636364422h-54Z" fill="#2563eb"/></g></g><path class="foreground" aria-hidden="true" d="" display="none"/></g></g></g><path class="foreground" aria-hidden="true" d="" display="none"/></g></g><g class="mark-group role-title"><g transform="translate(-70,-36)"><path class="background" aria-hidden="true" d="M0,0h0v0h0Z" pointer-events="none"/><g><g class="mark-text role-title-text" role="graphics-symbol" aria-roledescription="title" aria-label="Title text 'Decoded events by signature (dbt base_logs_decoded) / デコード済イベント'" pointer-events="none"><text text-anchor="start" transform="translate(0,11)" font-family="-apple-system, BlinkMacSystemFont, 'Segoe UI', system-ui, 'Helvetica Neue', 'Hiragino Sans', 'Hiragino Kaku Gothic ProN', 'Noto Sans CJK JP', sans-serif" font-size="14px" font-weight="600" fill="#0f172a" opacity="1">Decoded events by signature (dbt base_logs_decoded) / デコード済イベント</text></g></g><path class="foreground" aria-hidden="true" d="" pointer-events="none" display="none"/></g></g></g><path class="foreground" aria-hidden="true" d="" display="none"/></g></g></g><defs><clipPath id="clip47"><path d="M3,0L51,0C52.655745073482,0,54,1.344254926518,54,3L54,295.50545454545454C54,295.50545454545454,54,295.50545454545454,54,295.50545454545454L0,295.50545454545454C0,295.50545454545454,0,295.50545454545454,0,295.50545454545454L0,3C0,1.344254926518,1.344254926518,0,3,0Z"/></clipPath><clipPath id="clip48"><path d="M3,0L51,0C52.655745073482,0,54,1.344254926518,54,3L54,262.22545454545457C54,262.22545454545457,54,262.22545454545457,54,262.22545454545457L0,262.22545454545457C0,262.22545454545457,0,262.22545454545457,0,262.22545454545457L0,3C0,1.344254926518,1.344254926518,0,3,0Z"/></clipPath><clipPath id="clip49"><path d="M3,0L51,0C52.655745073482,0,54,1.344254926518,54,3L54,45.905454545454575C54,45.905454545454575,54,45.905454545454575,54,45.905454545454575L0,45.905454545454575C0,45.905454545454575,0,45.905454545454575,0,45.905454545454575L0,3C0,1.344254926518,1.344254926518,0,3,0Z"/></clipPath><clipPath id="clip50"><path d="M3,0L51,0C52.655745073482,0,54,1.344254926518,54,3L54,41.076363636363624C54,41.076363636363624,54,41.076363636363624,54,41.076363636363624L0,41.076363636363624C0,41.076363636363624,0,41.076363636363624,0,41.076363636363624L0,3C0,1.344254926518,1.344254926518,0,3,0Z"/></clipPath><clipPath id="clip51"><path d="M3,0L51,0C52.655745073482,0,54,1.344254926518,54,3L54,39.97090909090906C54,39.97090909090906,54,39.97090909090906,54,39.97090909090906L0,39.97090909090906C0,39.97090909090906,0,39.97090909090906,0,39.97090909090906L0,3C0,1.344254926518,1.344254926518,0,3,0Z"/></clipPath><clipPath id="clip52"><path d="M3,0L51,0C52.655745073482,0,54,1.344254926518,54,3L54,33.74545454545455C54,33.74545454545455,54,33.74545454545455,54,33.74545454545455L0,33.74545454545455C0,33.74545454545455,0,33.74545454545455,0,33.74545454545455L0,3C0,1.344254926518,1.344254926518,0,3,0Z"/></clipPath><clipPath id="clip53"><path d="M3,0L51,0C52.655745073482,0,54,1.344254926518,54,3L54,11.054545454545462C54,11.054545454545462,54,11.054545454545462,54,11.054545454545462L0,11.054545454545462C0,11.054545454545462,0,11.054545454545462,0,11.054545454545462L0,3C0,1.344254926518,1.344254926518,0,3,0Z"/></clipPath><clipPath id="clip54"><path d="M0.40727272727272634,0L53.592727272727274,0C53.81750720997574,0,54,0.18249279002426141,54,0.40727272727272634L54,0.8145454545454527C54,0.8145454545454527,54,0.8145454545454527,54,0.8145454545454527L0,0.8145454545454527C0,0.8145454545454527,0,0.8145454545454527,0,0.8145454545454527L0,0.40727272727272634C0,0.18249279002426141,0.18249279002426141,0,0.40727272727272634,0Z"/></clipPath><clipPath id="clip55"><path d="M0.14545454545452685,0L53.85454545454547,0C53.934824003562774,0,54,0.06517599643722803,54,0.14545454545452685L54,0.2909090909090537C54,0.2909090909090537,54,0.2909090909090537,54,0.2909090909090537L0,0.2909090909090537C0,0.2909090909090537,0,0.2909090909090537,0,0.2909090909090537L0,0.14545454545452685C0,0.06517599643722803,0.06517599643722803,0,0.14545454545452685,0Z"/></clipPath><clipPath id="clip56"><path d="M0.05818181818182211,0L53.94181818181818,0C53.973929601425105,0,54,0.026070398574896306,54,0.05818181818182211L54,0.11636363636364422C54,0.11636363636364422,54,0.11636363636364422,54,0.11636363636364422L0,0.11636363636364422C0,0.11636363636364422,0,0.11636363636364422,0,0.11636363636364422L0,0.05818181818182211C0,0.026070398574896306,0.026070398574896306,0,0.05818181818182211,0Z"/></clipPath></defs></svg>