<svg xmlns="http://www.w3.org/2000/svg" xmlns:xlink="http://www.w3.org/1999/xlink" version="1.1" class="marks" width="744" height="418" viewBox="0 0 744 418"><g fill="none" stroke-miterlimit="10" transform="translate(82,42)"><g class="mark-group role-frame root" role="graphics-object" aria-roledescription="group mark container"><g transform="translate(0,0)"><path class="background" aria-hidden="true" d="M0.5,0.5h600v320h-600Z"/><g><g class="mark-group role-axis" aria-hidden="true"><g transform="translate(0.5,320.5)"><path class="background" aria-hidden="true" d="M0,0h0v0h0Z" pointer-events="none"/><g><g class="mark-rule role-axis-grid" pointer-events="none"><line transform="translate(0,-320)" x2="0" y2="320" stroke="#eef0f4" stroke-width="0.8" stroke-dasharray="2,4" opacity="1"/><line transform="translate(46,-320)" x2="0" y2="320" stroke="#eef0f4" stroke-width="0.8" stroke-dasharray="2,4" opacity="1"/><line transform="translate(92,-320)" x2="0" y2="320" stroke="#eef0f4" stroke-width="0.8" stroke-dasharray="2,4" opacity="1"/><line transform="translate(138,-320)" x2="0" y2="320" stroke="#eef0f4" stroke-width="0.8" stroke-dasharray="2,4" opacity="1"/><line transform="translate(185,-320)" x2="0" y2="320" stroke="#eef0f4" stroke-width="0.8" stroke-dasharray="2,4" opacity="1"/><line transform="translate(231,-320)" x2="0" y2="320" stroke="#eef0f4" stroke-width="0.8" stroke-dasharray="2,4" opacity="1"/><line transform="translate(277,-320)" x2="0" y2="320" stroke="#eef0f4" stroke-width="0.8" stroke-dasharray="2,4" opacity="1"/><line transform="translate(323,-320)" x2="0" y2="320" stroke="#eef0f4" stroke-width="0.8" stroke-dasharray="2,4" opacity="1"/><line transform="translate(369,-320)" x2="0" y2="320" stroke="#eef0f4" stroke-width="0.8" stroke-dasharray="2,4" opacity="1"/><line transform="translate(415,-320)" x2="0" y2="320" stroke="#eef0f4" stroke-width="0.8" stroke-dasharray="2,4" opacity="1"/><line transform="translate(462,-320)" x2="0" y2="320" stroke="#eef0f4" stroke-width="0.8" stroke-dasharray="2,4" opacity="1"/><line transform="translate(508,-320)" x2="0" y2="320" stroke="#eef0f4" stroke-width="0.8" stroke-dasharray="2,4" opacity="1"/><line transform="translate(554,-320)" x2="0" y2="320" stroke="#eef0f4" stroke-width="0.8" stroke-dasharray="2,4" opacity="1"/><line transform="translate(600,-320)" x2="0" y2="320" stroke="#eef0f4" stroke-width="0.8" stroke-dasharray="2,4" opacity="1"/></g></g><path class="foreground" aria-hidden="true" d="" pointer-events="none" display="none"/></g></g><g class="mark-group role-axis" aria-hidden="true"><g transform="translate(0.5,0.5)"><path class="background" aria-hidden="true" d="M0,0h0v0h0Z" pointer-events="none"/><g><g class="mark-rule role-axis-grid" pointer-events="none"><line transform="translate(0,320)" x2="600" y2="0" stroke="#eef0f4" stroke-width="0.8" stroke-dasharray="2,4" opacity="1"/><line transform="translate(0,258)" x2="600" y2="0" stroke="#eef0f4" stroke-width="0.8" stroke-dasharray="2,4" opacity="1"/><line transform="translate(0,197)" x2="600" y2="0" stroke="#eef0f4" stroke-width="0.8" stroke-dasharray="2,4" opacity="1"/><line transform="translate(0,135)" x2="600" y2="0" stroke="#eef0f4" stroke-width="0.8" stroke-dasharray="2,4" opacity="1"/><line transform="translate(0,74)" x2="600" y2="0" stroke="#eef0f4" stroke-width="0.8" stroke-dasharray="2,4" opacity="1"/><line transform="translate(0,12)" x2="600" y2="0" stroke="#eef0f4" stroke-width="0.8" stroke-dasharray="2,4" opacity="1"/></g></g><path class="foreground" aria-hidden="true" d="" pointer-events="none" display="none"/></g></g><g class="mark-group role-axis" role="graphics-symbol" aria-roledescription="axis" aria-label="X-axis titled 'rank' for a linear scale with values from 0 to 26"><g transform="translate(0.5,320.5)"><path class="background" aria-hidden="true" d="M0,0h0v0h0Z" pointer-events="none"/><g><g class="mark-rule role-axis-tick" pointer-events="none"><line transform="translate(0,0)" x2="0" y2="4" stroke="#e2e6ee" stroke-width="1" opacity="1"/><line transform="translate(46,0)" x2="0" y2="4" stroke="#e2e6ee" stroke-width="1" opacity="1"/><line transform="translate(92,0)" x2="0" y2="4" stroke="#e2e6ee" stroke-width="1" opacity="1"/><line transform="translate(138,0)" x2="0" y2="4" stroke="#e2e6ee" stroke-width="1" opacity="1"/><line transform="translate(185,0)" x2="0" y2="4" stroke="#e2e6ee" stroke-width="1" opacity="1"/><line transform="translate(231,0)" x2="0" y2="4" stroke="#e2e6ee" stroke-width="1" opacity="1"/><line transform="translate(277,0)" x2="0" y2="4" stroke="#e2e6ee" stroke-width="1" opacity="1"/><line transform="translate(323,0)" x2="0" y2="4" stroke="#e2e6ee" stroke-width="1" opacity="1"/><line transform="translate(369,0)" x2="0" y2="4" stroke="#e2e6ee" stroke-width="1" opacity="1"/><line transform="translate(415,0)" x2="0" y2="4" stroke="#e2e6ee" stroke-width="1" opacity="1"/><line transform="translate(462,0)" x2="0" y2="4" stroke="#e2e6ee" stroke-width="1" opacity="1"/><line transform="translate(508,0)" x2="0" y2="4" stroke="#e2e6ee" stroke-width="1" opacity="1"/><line transform="translate(554,0)" x2="0" y2="4" stroke="#e2e6ee" stroke-width="1" opacity="1"/><line transform="translate(600,0)" x2="0" y2="4" stroke="#e2e6ee" stroke-width="1" opacity="1"/></g><g class="mark-text role-axis-label" pointer-events="none"><text text-anchor="start" transform="translate(0,19)" font-family="'SF Mono', Menlo, Consolas, 'Liberation Mono', monospace" font-size="11px" fill="#64748b" opacity="1">0</text><text text-anchor="middle" transform="translate(46.15384615384615,19)" font-family="'SF Mono', Menlo, Consolas, 'Liberation Mono', monospace" font-size="11px" fill="#64748b" opacity="1">2</text><text text-anchor="middle" transform="translate(92.3076923076923,19)" font-family="'SF Mono', Menlo, Consolas, 'Liberation Mono', monospace" font-size="11px" fill="#64748b" opacity="1">4</text><text text-anchor="middle" transform="translate(138.46153846153848,19)" font-family="'SF Mono', Menlo, Consolas, 'Liberation Mono', monospace" font-size="11px" fill="#64748b" opacity="1">6</text><text text-anchor="middle" transform="translate(184.6153846153846,19)" font-family="'SF Mono', Menlo, Consolas, 'Liberation Mono', monospace" font-size="11px" fill="#64748b" opacity="1">8</text><text text-anchor="middle" transform="translate(230.76923076923077,19)" font-family="'SF Mono', Menlo, Consolas, 'Liberation Mono', monospace" font-size="11px" fill="#64748b" opacity="1">10</text><text text-anchor="middle" transform="translate(276.92307692307696,19)" font-family="'SF Mono', Menlo, Consolas, 'Liberation Mono', monospace" font-size="11px" fill="#64748b" opacity="1">12</text><text text-anchor="middle" transform="translate(323.07692307692304,19)" font-family="'SF Mono', Menlo, Consolas, 'Liberation Mono', monospace" font-size="11px" fill="#64748b" opacity="1">14</text><text text-anchor="middle" transform="translate(369.2307692307692,19)" font-family="'SF Mono', Menlo, Consolas, 'Liberation Mono', monospace" font-size="11px" fill="#64748b" opacity="1">16</text><text text-anchor="middle" transform="translate(415.38461538461536,19)" font-family="'SF Mono', Menlo, Consolas, 'Liberation Mono', monospace" font-size="11px" fill="#64748b" opacity="1">18</text><text text-anchor="middle" transform="translate(461.53846153846155,19)" font-family="'SF Mono', Menlo, Consolas, 'Liberation Mono', monospace" font-size="11px" fill="#64748b" opacity="1">20</text><text text-anchor="middle" transform="translate(507.6923076923077,19)" font-family="'SF Mono', Menlo, Consolas, 'Liberation Mono', monospace" font-size="11px" fill="#64748b" opacity="1">22</text><text text-anchor="middle" transform="translate(553.8461538461539,19)" font-family="'SF Mono', Menlo, Consolas, 'Liberation Mono', monospace" font-size="11px" fill="#64748b" opacity="1">24</text><text text-anchor="end" transform="translate(600,19)" font-family="'SF Mono', Menlo, Consolas, 'Liberation Mono', monospace" font-size="11px" fill="#64748b" opacity="1">26</text></g><g class="mark-text role-axis-title" pointer-events="none"><text text-anchor="middle" transform="translate(300,42)" font-family="-apple-system, BlinkMacSystemFont, 'Segoe UI', system-ui, 'Helvetica Neue', 'Hiragino Sans', 'Hiragino Kaku Gothic ProN', 'Noto Sans CJK JP', sans-serif" font-size="12px" font-weight="600" fill="#0f172a" opacity="1">rank</text></g></g><path class="foreground" aria-hidden="true" d="" pointer-events="none" display="none"/></g></g><g class="mark-group role-axis" role="graphics-symbol" aria-roledescription="axis" aria-label="Y-axis titled 'logs' for a linear scale with values from 0 to 2,600"><g transform="translate(0.5,0.5)"><path class="background" aria-hidden="true" d="M0,0h0v0h0Z" pointer-events="none"/><g><g class="mark-rule role-axis-tick" pointer-events="none"><line transform="translate(0,320)" x2="-4" y2="0" stroke="#e2e6ee" stroke-width="1" opacity="1"/><line transform="translate(0,258)" x2="-4" y2="0" stroke="#e2e6ee" stroke-width="1" opacity="1"/><line transform="translate(0,197)" x2="-4" y2="0" stroke="#e2e6ee" stroke-width="1" opacity="1"/><line transform="translate(0,135)" x2="-4" y2="0" stroke="#e2e6ee" stroke-width="1" opacity="1"/><line transform="translate(0,74)" x2="-4" y2="0" stroke="#e2e6ee" stroke-width="1" opacity="1"/><line transform="translate(0,12)" x2="-4" y2="0" stroke="#e2e6ee" stroke-width="1" opacity="1"/></g><g class="mark-text role-axis-label" pointer-events="none"><text text-anchor="end" transform="translate(-10,323)" font-family="'SF Mono', Menlo, Consolas, 'Liberation Mono', monospace" font-size="11px" fill="#64748b" opacity="1">0</text><text text-anchor="end" transform="translate(-10,261.46153846153845)" font-family="'SF Mono', Menlo, Consolas, 'Liberation Mono', monospace" font-size="11px" fill="#64748b" opacity="1">500</text><text text-anchor="end" transform="translate(-10,199.92307692307693)" font-family="'SF Mono', Menlo, Consolas, 'Liberation Mono', monospace" font-size="11px" fill="#64748b" opacity="1">1k</text><text text-anchor="end" transform="translate(-10,138.38461538461542)" font-family="'SF Mono', Menlo, Consolas, 'Liberation Mono', monospace" font-size="11px" fill="#64748b" opacity="1">1.5k</text><text text-anchor="end" transform="translate(-10,76.84615384615384)" font-family="'SF Mono', Menlo, Consolas, 'Liberation Mono', monospace" font-size="11px" fill="#64748b" opacity="1">2k</text><text text-anchor="end" transform="translate(-10,15.3076923076923)" font-family="'SF Mono', Menlo, Consolas, 'Liberation Mono', monospace" font-size="11px" fill="#64748b" opacity="1">2.5k</text></g><g class="mark-text role-axis-title" pointer-events="none"><text text-anchor="middle" transform="translate(-57,160) rotate(-90) translate(0,-3)" font-family="-apple-system, BlinkMacSystemFont, 'Segoe UI', system-ui, 'Helvetica Neue', 'Hiragino Sans', 'Hiragino Kaku Gothic ProN', 'Noto Sans CJK JP', sans-serif" font-size="12px" font-weight="600" fill="#0f172a" opacity="1">logs</text></g></g><path class="foreground" aria-hidden="true" d="" pointer-events="none" display="none"/></g></g><g class="mark-group role-scope" role="graphics-object" aria-roledescription="group mark container"><g transform="translate(20.576923076923077,1.7230769230769383)"><path class="background" aria-hidden="true" d="M2.5,0L2.5,0C3.879787561235,0,5,1.120212438765,5,2.5L5,318.2769230769231C5,318.2769230769231,5,318.2769230769231,5,318.2769230769231L0,318.2769230769231C0,318.2769230769231,0,318.2769230769231,0,318.2769230769231L0,2.5C0,1.120212438765,1.120212438765,0,2.5,0Z"/><g clip-path="url(#clip1)"><g class="mark-group role-scope" role="graphics-object" aria-roledescription="group mark container"><g transform="translate(0,-1.7230769230769383)"><path class="background" aria-hidden="true" d="M0,0h5v0h-5Z"/><g><g class="mark-rect role-mark marks" role="graphics-object" aria-roledescription="rect mark container"><path aria-label="rank: 1; logs: 2586" role="graphics-symbol" aria-roledescription="bar" d="M0,1.7230769230769383h5v318.2769230769231h-5Z" fill="#2563eb"/></g></g><path class="foreground" aria-hidden="true" d="" display="none"/></g></g></g><path class="foreground" aria-hidden="true" d="" display="none"/></g><g transform="translate(43.65384615384615,238.5230769230769)"><path class="background" aria-hidden="true" d="M2.5,0L2.5,0C3.879787561235,0,5,1.120212438765,5,2.5L5,81.4769230769231C5,81.4769230769231,5,81.4769230769231,5,81.4769230769231L0,81.4769230769231C0,81.4769230769231,0,81.4769230769231,0,81.4769230769231L0,2.5C0,1.120212438765,1.120212438765,0,2.5,0Z"/><g clip-path="url(#clip2)"><g class="mark-group role-scope" role="graphics-object" aria-roledescription="group mark container"><g transform="translate(0,-238.5230769230769)"><path class="background" aria-hidden="true" d="M0,0h5v0h-5Z"/><g><g class="mark-rect role-mark marks" role="graphics-object" aria-roledescription="rect mark container"><path aria-label="rank: 2; logs: 662" role="graphics-symbol" aria-roledescription="bar" d="M0,238.5230769230769h5v81.4769230769231h-5Z" fill="#2563eb"/></g></g><path class="foreground" aria-hidden="true" d="" display="none"/></g></g></g><path class="foreground" aria-hidden="true" d="" display="none"/></g><g transform="translate(66.73076923076924,245.16923076923078)"><path class="background" aria-hidden="true" d="M2.5,0L2.5,0C3.879787561235,0,5,1.120212438765,5,2.5L5,74.83076923076922C5,74.83076923076922,5,74.83076923076922,5,74.83076923076922L0,74.83076923076922C0,74.83076923076922,0,74.83076923076922,0,74.83076923076922L0,2.5C0,1.120212438765,1.120212438765,0,2.5,0Z"/><g clip-path="url(#clip3)"><g class="mark-group role-scope" role="graphics-object" aria-roledescription="group mark container"><g transform="translate(0,-245.16923076923078)"><path class="background" aria-hidden="true" d="M0,0h5v0h-5Z"/><g><g class="mark-rect role-mark marks" role="graphics-object" aria-roledescription="rect mark container"><path aria-label="rank: 3; logs: 608" role="graphics-symbol" aria-roledescription="bar" d="M0,245.16923076923078h5v74.83076923076922h-5Z" fill="#2563eb"/></g></g><path class="foreground" aria-hidden="true" d="" display="none"/></g></g></g><path class="foreground" aria-hidden="true" d="" display="none"/></g><g transform="translate(89.8076923076923,246.03076923076924)"><path class="background" aria-hidden="true" d="M2.5,0L2.5,0C3.879787561235,0,5,1.120212438765,5,2.5L5,73.96923076923076C5,73.96923076923076,5,73.96923076923076,5,73.96923076923076L0,73.96923076923076C0,73.96923076923076,0,73.96923076923076,0,73.96923076923076L0,2.5C0,1.120212438765,1.120212438765,0,2.5,0Z"/><g clip-path="url(#clip4)"><g class="mark-group role-scope" role="graphics-object" aria-roledescription="group mark container"><g transform="translate(0,-246.03076923076924)"><path class="background" aria-hidden="true" d="M0,0h5v0h-5Z"/><g><g class="mark-rect role-mark marks" role="graphics-object" aria-roledescription="rect mark container"><path aria-label="rank: 4; logs: 601" role="graphics-symbol" aria-roledescription="bar" d="M0,246.03076923076924h5v73.96923076923076h-5Z" fill="#2563eb"/></g></g><path class="foreground" aria-hidden="true" d="" display="none"/></g></g></g><path class="foreground" aria-hidden="true" d="" display="none"/></g><g transform="translate(112.88461538461539,289.1076923076923)"><path class="background" aria-hidden="true" d="M2.5,0L2.5,0C3.879787561235,0,5,1.120212438765,5,2.5L5,30.892307692307725C5,30.892307692307725,5,30.892307692307725,5,30.892307692307725L0,30.892307692307725C0,30.892307692307725,0,30.892307692307725,0,30.892307692307725L0,2.5C0,1.120212438765,1.120212438765,0,2.5,0Z"/><g clip-path="url(#clip5)"><g class="mark-group role-scope" role="graphics-object" aria-roledescription="group mark container"><g transform="translate(0,-289.1076923076923)"><path class="background" aria-hidden="true" d="M0,0h5v0h-5Z"/><g><g class="mark-rect role-mark marks" role="graphics-object" aria-roledescription="rect mark container"><path aria-label="rank: 5; logs: 251" role="graphics-symbol" aria-roledescription="bar" d="M0,289.1076923076923h5v30.892307692307725h-5Z" fill="#2563eb"/></g></g><path class="foreground" aria-hidden="true" d="" display="none"/></g></g></g><path class="foreground" aria-hidden="true" d="" display="none"/></g><g transform="translate(135.96153846153848,293.7846153846154)"><path class="background" aria-hidden="true" d="M2.5,0L2.5,0C3.879787561235,0,5,1.120212438765,5,2.5L5,26.215384615384608C5,26.215384615384608,5,26.215384615384608,5,26.215384615384608L0,26.215384615384608C0,26.215384615384608,0,26.215384615384608,0,26.215384615384608L0,2.5C0,1.120212438765,1.120212438765,0,2.5,0Z"/><g clip-path="url(#clip6)"><g class="mark-group role-scope" role="graphics-object" aria-roledescription="group mark container"><g transform="translate(0,-293.7846153846154)"><path class="background" aria-hidden="true" d="M0,0h5v0h-5Z"/><g><g class="mark-rect role-mark marks" role="graphics-object" aria-roledescription="rect mark container"><path aria-label="rank: 6; logs: 213" role="graphics-symbol" aria-roledescription="bar" d="M0,293.7846153846154h5v26.215384615384608h-5Z" fill="#2563eb"/></g></g><path class="foreground" aria-hidden="true" d="" display="none"/></g></g></g><path class="foreground" aria-hidden="true" d="" display="none"/></g><g transform="translate(159.03846153846152,296.24615384615385)"><path class="background" aria-hidden="true" d="M2.5,0L2.5,0C3.879787561235,0,5,1.120212438765,5,2.5L5,23.753846153846155C5,23.753846153846155,5,23.753846153846155,5,23.753846153846155L0,23.753846153846155C0,23.753846153846155,0,23.753846153846155,0,23.753846153846155L0,2.5C0,1.120212438765,1.120212438765,0,2.5,0Z"/><g clip-path="url(#clip7)"><g class="mark-group role-scope" role="graphics-object" aria-roledescription="group mark container"><g transform="translate(0,-296.24615384615385)"><path class="background" aria-hidden="true" d="M0,0h5v0h-5Z"/><g><g class="mark-rect role-mark marks" role="graphics-object" aria-roledescription="rect mark container"><path aria-label="rank: 7; logs: 193" role="graphics-symbol" aria-roledescription="bar" d="M0,296.24615384615385h5v23.753846153846155h-5Z" fill="#2563eb"/></g></g><path class="foreground" aria-hidden="true" d="" display="none"/></g></g></g><path class="foreground" aria-hidden="true" d="" display="none"/></g><g transform="translate(182.1153846153846,296.9846153846154)"><path class="background" aria-hidden="true" d="M2.5,0L2.5,0C3.879787561235,0,5,1.120212438765,5,2.5L5,23.01538461538462C5,23.01538461538462,5,23.01538461538462,5,23.01538461538462L0,23.01538461538462C0,23.01538461538462,0,23.01538461538462,0,23.01538461538462L0,2.5C0,1.120212438765,1.120212438765,0,2.5,0Z"/><g clip-path="url(#clip8)"><g class="mark-group role-scope" role="graphics-object" aria-roledescription="group mark container"><g transform="translate(0,-296.9846153846154)"><path class="background" aria-hidden="true" d="M0,0h5v0h-5Z"/><g><g class="mark-rect role-mark marks" role="graphics-object" aria-roledescription="rect mark container"><path aria-label="rank: 8; logs: 187" role="graphics-symbol" aria-roledescription="bar" d="M0,296.9846153846154h5v23.01538461538462h-5Z" fill="#2563eb"/></g></g><path class="foreground" aria-hidden="true" d="" display="none"/></g></g></g><path class="foreground" aria-hidden="true" d="" display="none"/></g><g transform="translate(205.19230769230768,300.9230769230769)"><path class="background" aria-hidden="true" d="M2.5,0L2.5,0C3.879787561235,0,5,1.120212438765,5,2.5L5,19.076923076923094C5,19.076923076923094,5,19.076923076923094,5,19.076923076923094L0,19.076923076923094C0,19.076923076923094,0,19.076923076923094,0,19.076923076923094L0,2.5C0,1.120212438765,1.120212438765,0,2.5,0Z"/><g clip-path="url(#clip9)"><g class="mark-group role-scope" role="graphics-object" aria-roledescription="group mark container"><g transform="translate(0,-300.9230769230769)"><path class="background" aria-hidden="true" d="M0,0h5v0h-5Z"/><g><g class="mark-rect role-mark marks" role="graphics-object" aria-roledescription="rect mark container"><path aria-label="rank: 9; logs: 155" role="graphics-symbol" aria-roledescription="bar" d="M0,300.9230769230769h5v19.076923076923094h-5Z" fill="#2563eb"/></g></g><path class="foreground" aria-hidden="true" d="" display="none"/></g></g></g><path class="foreground" aria-hidden="true" d="" display="none"/></g><g transform="translate(228.26923076923077,302.5230769230769)"><path class="background" aria-hidden="true" d="M2.5,0L2.5,0C3.879787561235,0,5,1.120212438765,5,2.5L5,17.47692307692307C5,17.47692307692307,5,17.47692307692307,5,17.47692307692307L0,17.47692307692307C0,17.47692307692307,0,17.47692307692307,0,17.47692307692307L0,2.5C0,1.120212438765,1.120212438765,0,2.5,0Z"/><g clip-path="url(#clip10)"><g class="mark-group role-scope" role="graphics-object" aria-roledescription="group mark container"><g transform="translate(0,-302.5230769230769)"><path class="background" aria-hidden="true" d="M0,0h5v0h-5Z"/><g><g class="mark-rect role-mark marks" role="graphics-object" aria-roledescription="rect mark container"><path aria-label="rank: 10; logs: 142" role="graphics-symbol" aria-roledescription="bar" d="M0,302.5230769230769h5v17.47692307692307h-5Z" fill="#2563eb"/></g></g><path class="foreground" aria-hidden="true" d="" display="none"/></g></g></g><path class="foreground" aria-hidden="true" d="" display="none"/></g><g transform="translate(251.34615384615384,304)"><path class="background" aria-hidden="true" d="M2.5,0L2.5,0C3.879787561235,0,5,1.120212438765,5,2.5L5,16C5,16,5,16,5,16L0,16C0,16,0,16,0,16L0,2.5C0,1.120212438765,1.120212438765,0,2.5,0Z"/><g clip-path="url(#clip11)"><g class="mark-group role-scope" role="graphics-object" aria-roledescription="group mark container"><g transform="translate(0,-304)"><path class="background" aria-hidden="true" d="M0,0h5v0h-5Z"/><g><g class="mark-rect role-mark marks" role="graphics-object" aria-roledescription="rect mark container"><path aria-label="rank: 11; logs: 130" role="graphics-symbol" aria-roledescription="bar" d="M0,304h5v16h-5Z" fill="#2563eb"/></g></g><path class="foreground" aria-hidden="true" d="" display="none"/></g></g></g><path class="foreground" aria-hidden="true" d="" display="none"/></g><g transform="translate(274.42307692307696,305.3538461538461)"><path class="background" aria-hidden="true" d="M2.5,0L2.5,0C3.879787561235,0,5,1.120212438765,5,2.5L5,14.64615384615388C5,14.64615384615388,5,14.64615384615388,5,14.64615384615388L0,14.64615384615388C0,14.64615384615388,0,14.64615384615388,0,14.64615384615388L0,2.5C0,1.120212438765,1.120212438765,0,2.5,0Z"/><g clip-path="url(#clip12)"><g class="mark-group role-scope" role="graphics-object" aria-roledescription="group mark container"><g transform="translate(0,-305.3538461538461)"><path class="background" aria-hidden="true" d="M0,0h5v0h-5Z"/><g><g class="mark-rect role-mark marks" role="graphics-object" aria-roledescription="rect mark container"><path aria-label="rank: 12; logs: 119" role="graphics-symbol" aria-roledescription="bar" d="M0,305.3538461538461h5v14.64615384615388h-5Z" fill="#2563eb"/></g></g><path class="foreground" aria-hidden="true" d="" display="none"/></g></g></g><path class="foreground" aria-hidden="true" d="" display="none"/></g><g transform="translate(297.5,305.4769230769231)"><path class="background" aria-hidden="true" d="M2.5,0L2.5,0C3.879787561235,0,5,1.120212438765,5,2.5L5,14.523076923076928C5,14.523076923076928,5,14.523076923076928,5,14.523076923076928L0,14.523076923076928C0,14.523076923076928,0,14.523076923076928,0,14.523076923076928L0,2.5C0,1.120212438765,1.120212438765,0,2.5,0Z"/><g clip-path="url(#clip13)"><g class="mark-group role-scope" role="graphics-object" aria-roledescription="group mark container"><g transform="translate(0,-305.4769230769231)"><path class="background" aria-hidden="true" d="M0,0h5v0h-5Z"/><g><g class="mark-rect role-mark marks" role="graphics-object" aria-roledescription="rect mark container"><path aria-label="rank: 13; logs: 118" role="graphics-symbol" aria-roledescription="bar" d="M0,305.4769230769231h5v14.523076923076928h-5Z" fill="#2563eb"/></g></g><path class="foreground" aria-hidden="true" d="" display="none"/></g></g></g><path class="foreground" aria-hidden="true" d="" display="none"/></g><g transform="translate(320.57692307692304,306.46153846153845)"><path class="background" aria-hidden="true" d="M2.5,0L2.5,0C3.879787561235,0,5,1.120212438765,5,2.5L5,13.538461538461547C5,13.538461538461547,5,13.538461538461547,5,13.538461538461547L0,13.538461538461547C0,13.538461538461547,0,13.538461538461547,0,13.538461538461547L0,2.5C0,1.120212438765,1.120212438765,0,2.5,0Z"/><g clip-path="url(#clip14)"><g class="mark-group role-scope" role="graphics-object" aria-roledescription="group mark container"><g transform="translate(0,-306.46153846153845)"><path class="background" aria-hidden="true" d="M0,0h5v0h-5Z"/><g><g class="mark-rect role-mark marks" role="graphics-object" aria-roledescription="rect mark container"><path aria-label="rank: 14; logs: 110" role="graphics-symbol" aria-roledescription="bar" d="M0,306.46153846153845h5v13.538461538461547h-5Z" fill="#2563eb"/></g></g><path class="foreground" aria-hidden="true" d="" display="none"/></g></g></g><path class="foreground" aria-hidden="true" d="" display="none"/></g><g transform="translate(343.65384615384613,307.2)"><path class="background" aria-hidden="true" d="M2.5,0L2.5,0C3.879787561235,0,5,1.120212438765,5,2.5L5,12.800000000000011C5,12.800000000000011,5,12.800000000000011,5,12.800000000000011L0,12.800000000000011C0,12.800000000000011,0,12.800000000000011,0,12.800000000000011L0,2.5C0,1.120212438765,1.120212438765,0,2.5,0Z"/><g clip-path="url(#clip15)"><g class="mark-group role-scope" role="graphics-object" aria-roledescription="group mark container"><g transform="translate(0,-307.2)"><path class="background" aria-hidden="true" d="M0,0h5v0h-5Z"/><g><g class="mark-rect role-mark marks" role="graphics-object" aria-roledescription="rect mark container"><path aria-label="rank: 15; logs: 104" role="graphics-symbol" aria-roledescription="bar" d="M0,307.2h5v12.800000000000011h-5Z" fill="#2563eb"/></g></g><path class="foreground" aria-hidden="true" d="" display="none"/></g></g></g><path class="foreground" aria-hidden="true" d="" display="none"/></g><g transform="translate(366.7307692307692,308.18461538461537)"><path class="background" aria-hidden="true" d="M2.5,0L2.5,0C3.879787561235,0,5,1.120212438765,5,2.5L5,11.81538461538463C5,11.81538461538463,5,11.81538461538463,5,11.81538461538463L0,11.81538461538463C0,11.81538461538463,0,11.81538461538463,0,11.81538461538463L0,2.5C0,1.120212438765,1.120212438765,0,2.5,0Z"/><g clip-path="url(#clip16)"><g class="mark-group role-scope" role="graphics-object" aria-roledescription="group mark container"><g transform="translate(0,-308.18461538461537)"><path class="background" aria-hidden="true" d="M0,0h5v0h-5Z"/><g><g class="mark-rect role-mark marks" role="graphics-object" aria-roledescription="rect mark container"><path aria-label="rank: 16; logs: 96" role="graphics-symbol" aria-roledescription="bar" d="M0,308.18461538461537h5v11.81538461538463h-5Z" fill="#2563eb"/></g></g><path class="foreground" aria-hidden="true" d="" display="none"/></g></g></g><path class="foreground" aria-hidden="true" d="" display="none"/></g><g transform="translate(389.8076923076923,309.2923076923077)"><path class="background" aria-hidden="true" d="M2.5,0L2.5,0C3.879787561235,0,5,1.120212438765,5,2.5L5,10.707692307692298C5,10.707692307692298,5,10.707692307692298,5,10.707692307692298L0,10.707692307692298C0,10.707692307692298,0,10.707692307692298,0,10.707692307692298L0,2.5C0,1.120212438765,1.120212438765,0,2.5,0Z"/><g clip-path="url(#clip17)"><g class="mark-group role-scope" role="graphics-object" aria-roledescription="group mark container"><g transform="translate(0,-309.2923076923077)"><path class="background" aria-hidden="true" d="M0,0h5v0h-5Z"/><g><g class="mark-rect role-mark marks" role="graphics-object" aria-roledescription="rect mark container"><path aria-label="rank: 17; logs: 87" role="graphics-symbol" aria-roledescription="bar" d="M0,309.2923076923077h5v10.707692307692298h-5Z" fill="#2563eb"/></g></g><path class="foreground" aria-hidden="true" d="" display="none"/></g></g></g><path class="foreground" aria-hidden="true" d="" display="none"/></g><g transform="translate(412.88461538461536,309.2923076923077)"><path class="background" aria-hidden="true" d="M2.5,0L2.5,0C3.879787561235,0,5,1.120212438765,5,2.5L5,10.707692307692298C5,10.707692307692298,5,10.707692307692298,5,10.707692307692298L0,10.707692307692298C0,10.707692307692298,0,10.707692307692298,0,10.707692307692298L0,2.5C0,1.120212438765,1.120212438765,0,2.5,0Z"/><g clip-path="url(#clip18)"><g class="mark-group role-scope" role="graphics-object" aria-roledescription="group mark container"><g transform="translate(0,-309.2923076923077)"><path class="background" aria-hidden="true" d="M0,0h5v0h-5Z"/><g><g class="mark-rect role-mark marks" role="graphics-object" aria-roledescription="rect mark container"><path aria-label="rank: 18; logs: 87" role="graphics-symbol" aria-roledescription="bar" d="M0,309.2923076923077h5v10.707692307692298h-5Z" fill="#2563eb"/></g></g><path class="foreground" aria-hidden="true" d="" display="none"/></g></g></g><path class="foreground" aria-hidden="true" d="" display="none"/></g><g transform="translate(435.96153846153845,310.6461538461538)"><path class="background" aria-hidden="true" d="M2.5,0L2.5,0C3.879787561235,0,5,1.120212438765,5,2.5L5,9.353846153846177C5,9.353846153846177,5,9.353846153846177,5,9.353846153846177L0,9.353846153846177C0,9.353846153846177,0,9.353846153846177,0,9.353846153846177L0,2.5C0,1.120212438765,1.120212438765,0,2.5,0Z"/><g clip-path="url(#clip19)"><g class="mark-group role-scope" role="graphics-object" aria-roledescription="group mark container"><g transform="translate(0,-310.6461538461538)"><path class="background" aria-hidden="true" d="M0,0h5v0h-5Z"/><g><g class="mark-rect role-mark marks" role="graphics-object" aria-roledescription="rect mark container"><path aria-label="rank: 19; logs: 76" role="graphics-symbol" aria-roledescription="bar" d="M0,310.6461538461538h5v9.353846153846177h-5Z" fill="#2563eb"/></g></g><path class="foreground" aria-hidden="true" d="" display="none"/></g></g></g><path class="foreground" aria-hidden="true" d="" display="none"/></g><g transform="translate(459.03846153846155,310.8923076923077)"><path class="background" aria-hidden="true" d="M2.5,0L2.5,0C3.879787561235,0,5,1.120212438765,5,2.5L5,9.107692307692275C5,9.107692307692275,5,9.107692307692275,5,9.107692307692275L0,9.107692307692275C0,9.107692307692275,0,9.107692307692275,0,9.107692307692275L0,2.5C0,1.120212438765,1.120212438765,0,2.5,0Z"/><g clip-path="url(#clip20)"><g class="mark-group role-scope" role="graphics-object" aria-roledescription="group mark container"><g transform="translate(0,-310.8923076923077)"><path class="background" aria-hidden="true" d="M0,0h5v0h-5Z"/><g><g class="mark-rect role-mark marks" role="graphics-object" aria-roledescription="rect mark container"><path aria-label="rank: 20; logs: 74" role="graphics-symbol" aria-roledescription="bar" d="M0,310.8923076923077h5v9.107692307692275h-5Z" fill="#2563eb"/></g></g><path class="foreground" aria-hidden="true" d="" display="none"/></g></g></g><path class="foreground" aria-hidden="true" d="" display="none"/></g><g transform="translate(482.11538461538464,310.8923076923077)"><path class="background" aria-hidden="true" d="M2.5,0L2.5,0C3.879787561235,0,5,1.120212438765,5,2.5L5,9.107692307692275C5,9.107692307692275,5,9.107692307692275,5,9.107692307692275L0,9.107692307692275C0,9.107692307692275,0,9.107692307692275,0,9.107692307692275L0,2.5C0,1.120212438765,1.120212438765,0,2.5,0Z"/><g clip-path="url(#clip21)"><g class="mark-group role-scope" role="graphics-object" aria-roledescription="group mark container"><g transform="translate(0,-310.8923076923077)"><path class="background" aria-hidden="true" d="M0,0h5v0h-5Z"/><g><g class="mark-rect role-mark marks" role="graphics-object" aria-roledescription="rect mark container"><path aria-label="rank: 21; logs: 74" role="graphics-symbol" aria-roledescription="bar" d="M0,310.8923076923077h5v9.107692307692275h-5Z" fill="#2563eb"/></g></g><path class="foreground" aria-hidden="true" d="" display="none"/></g></g></g><path class="foreground" aria-hidden="true" d="" display="none"/></g><g transform="translate(505.1923076923077,311.26153846153846)"><path class="background" aria-hidden="true" d="M2.5,0L2.5,0C3.879787561235,0,5,1.120212438765,5,2.5L5,8.738461538461536C5,8.738461538461536,5,8.738461538461536,5,8.738461538461536L0,8.738461538461536C0,8.738461538461536,0,8.738461538461536,0,8.738461538461536L0,2.5C0,1.120212438765,1.120212438765,0,2.5,0Z"/><g clip-path="url(#clip22)"><g class="mark-group role-scope" role="graphics-object" aria-roledescription="group mark container"><g transform="translate(0,-311.26153846153846)"><path class="background" aria-hidden="true" d="M0,0h5v0h-5Z"/><g><g class="mark-rect role-mark marks" role="graphics-object" aria-roledescription="rect mark container"><path aria-label="rank: 22; logs: 71" role="graphics-symbol" aria-roledescription="bar" d="M0,311.26153846153846h5v8.738461538461536h-5Z" fill="#2563eb"/></g></g><path class="foreground" aria-hidden="true" d="" display="none"/></g></g></g><path class="foreground" aria-hidden="true" d="" display="none"/></g><g transform="translate(528.2692307692307,311.6307692307692)"><path class="background" aria-hidden="true" d="M2.5,0L2.5,0C3.879787561235,0,5,1.120212438765,5,2.5L5,8.369230769230796C5,8.369230769230796,5,8.369230769230796,5,8.369230769230796L0,8.369230769230796C0,8.369230769230796,0,8.369230769230796,0,8.369230769230796L0,2.5C0,1.120212438765,1.120212438765,0,2.5,0Z"/><g clip-path="url(#clip23)"><g class="mark-group role-scope" role="graphics-object" aria-roledescription="group mark container"><g transform="translate(0,-311.6307692307692)"><path class="background" aria-hidden="true" d="M0,0h5v0h-5Z"/><g><g class="mark-rect role-mark marks" role="graphics-object" aria-roledescription="rect mark container"><path aria-label="rank: 23; logs: 68" role="graphics-symbol" aria-roledescription="bar" d="M0,311.6307692307692h5v8.369230769230796h-5Z" fill="#2563eb"/></g></g><path class="foreground" aria-hidden="true" d="" display="none"/></g></g></g><path class="foreground" aria-hidden="true" d="" display="none"/></g><g transform="translate(551.3461538461539,312)"><path class="background" aria-hidden="true" d="M2.5,0L2.5,0C3.879787561235,0,5,1.120212438765,5,2.5L5,8C5,8,5,8,5,8L0,8C0,8,0,8,0,8L0,2.5C0,1.120212438765,1.120212438765,0,2.5,0Z"/><g clip-path="url(#clip24)"><g class="mark-group role-scope" role="graphics-object" aria-roledescription="group mark container"><g transform="translate(0,-312)"><path class="background" aria-hidden="true" d="M0,0h5v0h-5Z"/><g><g class="mark-rect role-mark marks" role="graphics-object" aria-roledescription="rect mark container"><path aria-label="rank: 24; logs: 65" role="graphics-symbol" aria-roledescription="bar" d="M0,312h5v8h-5Z" fill="#2563eb"/></g></g><path class="foreground" aria-hidden="true" d="" display="none"/></g></g></g><path class="foreground" aria-hidden="true" d="" display="none"/></g><g transform="translate(574.4230769230769,312.12307692307695)"><path class="background" aria-hidden="true" d="M2.5,0L2.5,0C3.879787561235,0,5,1.120212438765,5,2.5L5,7.876923076923049C5,7.876923076923049,5,7.876923076923049,5,7.876923076923049L0,7.876923076923049C0,7.876923076923049,0,7.876923076923049,0,7.876923076923049L0,2.5C0,1.120212438765,1.120212438765,0,2.5,0Z"/><g clip-path="url(#clip25)"><g class="mark-group role-scope" role="graphics-object" aria-roledescription="group mark container"><g transform="translate(0,-312.12307692307695)"><path class="background" aria-hidden="true" d="M0,0h5v0h-5Z"/><g><g class="mark-rect role-mark marks" role="graphics-object" aria-roledescription="rect mark container"><path aria-label="rank: 25; logs: 64" role="graphics-symbol" aria-roledescription="bar" d="M0,312.12307692307695h5v7.876923076923049h-5Z" fill="#2563eb"/></g></g><path class="foreground" aria-hidden="true" d="" display="none"/></g></g></g><path class="foreground" aria-hidden="true" d="" display="none"/></g></g><g class="mark-group role-title"><g transform="translate(-70,-30)"><path class="background" aria-hidden="true" d="M0,0h0v0h0Z" pointer-events="none"/><g><g class="mark-text role-title-text" role="graphics-symbol" aria-roledescription="title" aria-label="Title text 'Top 25 emitting contracts (dbt base_top_emitters) / 上位25発行コントラクト'" pointer-events="none"><text text-anchor="start" transform="translate(0,11)" font-family="-apple-system, BlinkMacSystemFont, 'Segoe UI', system-ui, 'Helvetica Neue', 'Hiragino Sans', 'Hiragino Kaku Gothic ProN', 'Noto Sans CJK JP', sans-serif" font-size="14px" font-weight="600" fill="#0f172a" opacity="1">Top 25 emitting contracts (dbt base_top_emitters) / 上位25発行コントラクト</text></g></g><path class="foreground" aria-hidden="true" d="" pointer-events="none" display="none"/></g></g></g><path class="foreground" aria-hidden="true" d="" display="none"/></g></g></g><defs><clipPath id="clip1"><path d="M2.5,0L2.5,0C3.879787561235,0,5,1.120212438765,5,2.5L5,318.2769230769231C5,318.2769230769231,5,318.2769230769231,5,318.2769230769231L0,318.2769230769231C0,318.2769230769231,0,318.2769230769231,0,318.2769230769231L0,2.5C0,1.120212438765,1.120212438765,0,2.5,0Z"/></clipPath><clipPath id="clip2"><path d="M2.5,0L2.5,0C3.879787561235,0,5,1.120212438765,5,2.5L5,81.4769230769231C5,81.4769230769231,5,81.4769230769231,5,81.4769230769231L0,81.4769230769231C0,81.4769230769231,0,81.4769230769231,0,81.4769230769231L0,2.5C0,1.120212438765,1.120212438765,0,2.5,0Z"/></clipPath><clipPath id="clip3"><path d="M2.5,0L2.5,0C3.879787561235,0,5,1.120212438765,5,2.5L5,74.83076923076922C5,74.83076923076922,5,74.83076923076922,5,74.83076923076922L0,74.83076923076922C0,74.83076923076922,0,74.83076923076922,0,74.83076923076922L0,2.5C0,1.120212438765,1.120212438765,0,2.5,0Z"/></clipPath><clipPath id="clip4"><path d="M2.5,0L2.5,0C3.879787561235,0,5,1.120212438765,5,2.5L5,73.96923076923076C5,73.96923076923076,5,73.96923076923076,5,73.96923076923076L0,73.96923076923076C0,73.96923076923076,0,73.96923076923076,0,73.96923076923076L0,2.5C0,1.120212438765,1.120212438765,0,2.5,0Z"/></clipPath><clipPath id="clip5"><path d="M2.5,0L2.5,0C3.879787561235,0,5,1.120212438765,5,2.5L5,30.892307692307725C5,30.892307692307725,5,30.892307692307725,5,30.892307692307725L0,30.892307692307725C0,30.892307692307725,0,30.892307692307725,0,30.892307692307725L0,2.5C0,1.120212438765,1.120212438765,0,2.5,0Z"/></clipPath><clipPath id="clip6"><path d="M2.5,0L2.5,0C3.879787561235,0,5,1.120212438765,5,2.5L5,26.215384615384608C5,26.215384615384608,5,26.215384615384608,5,26.215384615384608L0,26.215384615384608C0,26.215384615384608,0,26.215384615384608,0,26.215384615384608L0,2.5C0,1.120212438765,1.120212438765,0,2.5,0Z"/></clipPath><clipPath id="clip7"><path d="M2.5,0L2.5,0C3.879787561235,0,5,1.120212438765,5,2.5L5,23.753846153846155C5,23.753846153846155,5,23.753846153846155,5,23.753846153846155L0,23.753846153846155C0,23.753846153846155,0,23.753846153846155,0,23.753846153846155L0,2.5C0,1.120212438765,1.120212438765,0,2.5,0Z"/></clipPath><clipPath id="clip8"><path d="M2.5,0L2.5,0C3.879787561235,0,5,1.120212438765,5,2.5L5,23.01538461538462C5,23.01538461538462,5,23.01538461538462,5,23.01538461538462L0,23.01538461538462C0,23.01538461538462,0,23.01538461538462,0,23.01538461538462L0,2.5C0,1.120212438765,1.120212438765,0,2.5,0Z"/></clipPath><clipPath id="clip9"><path d="M2.5,0L2.5,0C3.879787561235,0,5,1.120212438765,5,2.5L5,19.076923076923094C5,19.076923076923094,5,19.076923076923094,5,19.076923076923094L0,19.076923076923094C0,19.076923076923094,0,19.076923076923094,0,19.076923076923094L0,2.5C0,1.120212438765,1.120212438765,0,2.5,0Z"/></clipPath><clipPath id="clip10"><path d="M2.5,0L2.5,0C3.879787561235,0,5,1.120212438765,5,2.5L5,17.47692307692307C5,17.47692307692307,5,17.47692307692307,5,17.47692307692307L0,17.47692307692307C0,17.47692307692307,0,17.47692307692307,0,17.47692307692307L0,2.5C0,1.120212438765,1.120212438765,0,2.5,0Z"/></clipPath><clipPath id="clip11"><path d="M2.5,0L2.5,0C3.879787561235,0,5,1.120212438765,5,2.5L5,16C5,16,5,16,5,16L0,16C0,16,0,16,0,16L0,2.5C0,1.120212438765,1.120212438765,0,2.5,0Z"/></clipPath><clipPath id="clip12"><path d="M2.5,0L2.5,0C3.879787561235,0,5,1.120212438765,5,2.5L5,14.64615384615388C5,14.64615384615388,5,14.64615384615388,5,14.64615384615388L0,14.64615384615388C0,14.64615384615388,0,14.64615384615388,0,14.64615384615388L0,2.5C0,1.120212438765,1.120212438765,0,2.5,0Z"/></clipPath><clipPath id="clip13"><path d="M2.5,0L2.5,0C3.879787561235,0,5,1.120212438765,5,2.5L5,14.523076923076928C5,14.523076923076928,5,14.523076923076928,5,14.523076923076928L0,14.523076923076928C0,14.523076923076928,0,14.523076923076928,0,14.523076923076928L0,2.5C0,1.120212438765,1.120212438765,0,2.5,0Z"/></clipPath><clipPath id="clip14"><path d="M2.5,0L2.5,0C3.879787561235,0,5,1.120212438765,5,2.5L5,13.538461538461547C5,13.538461538461547,5,13.538461538461547,5,13.538461538461547L0,13.538461538461547C0,13.538461538461547,0,13.538461538461547,0,13.538461538461547L0,2.5C0,1.120212438765,1.120212438765,0,2.5,0Z"/></clipPath><clipPath id="clip15"><path d="M2.5,0L2.5,0C3.879787561235,0,5,1.120212438765,5,2.5L5,12.800000000000011C5,12.800000000000011,5,12.800000000000011,5,12.800000000000011L0,12.800000000000011C0,12.800000000000011,0,12.800000000000011,0,12.800000000000011L0,2.5C0,1.120212438765,1.120212438765,0,2.5,0Z"/></clipPath><clipPath id="clip16"><path d="M2.5,0L2.5,0C3.879787561235,0,5,1.120212438765,5,2.5L5,11.81538461538463C5,11.81538461538463,5,11.81538461538463,5,11.81538461538463L0,11.81538461538463C0,11.81538461538463,0,11.81538461538463,0,11.81538461538463L0,2.5C0,1.120212438765,1.120212438765,0,2.5,0Z"/></clipPath><clipPath id="clip17"><path d="M2.5,0L2.5,0C3.879787561235,0,5,1.120212438765,5,2.5L5,10.707692307692298C5,10.707692307692298,5,10.707692307692298,5,10.707692307692298L0,10.707692307692298C0,10.707692307692298,0,10.707692307692298,0,10.707692307692298L0,2.5C0,1.120212438765,1.120212438765,0,2.5,0Z"/></clipPath><clipPath id="clip18"><path d="M2.5,0L2.5,0C3.879787561235,0,5,1.120212438765,5,2.5L5,10.707692307692298C5,10.707692307692298,5,10.707692307692298,5,10.707692307692298L0,10.707692307692298C0,10.707692307692298,0,10.707692307692298,0,10.707692307692298L0,2.5C0,1.120212438765,1.120212438765,0,2.5,0Z"/></clipPath><clipPath id="clip19"><path d="M2.5,0L2.5,0C3.879787561235,0,5,1.120212438765,5,2.5L5,9.353846153846177C5,9.353846153846177,5,9.353846153846177,5,9.353846153846177L0,9.353846153846177C0,9.353846153846177,0,9.353846153846177,0,9.353846153846177L0,2.5C0,1.120212438765,1.120212438765,0,2.5,0Z"/></clipPath><clipPath id="clip20"><path d="M2.5,0L2.5,0C3.879787561235,0,5,1.120212438765,5,2.5L5,9.107692307692275C5,9.107692307692275,5,9.107692307692275,5,9.107692307692275L0,9.107692307692275C0,9.107692307692275,0,9.107692307692275,0,9.107692307692275L0,2.5C0,1.120212438765,1.120212438765,0,2.5,0Z"/></clipPath><clipPath id="clip21"><path d="M2.5,0L2.5,0C3.879787561235,0,5,1.120212438765,5,2.5L5,9.107692307692275C5,9.107692307692275,5,9.107692307692275,5,9.107692307692275L0,9.107692307692275C0,9.107692307692275,0,9.107692307692275,0,9.107692307692275L0,2.5C0,1.120212438765,1.120212438765,0,2.5,0Z"/></clipPath><clipPath id="clip22"><path d="M2.5,0L2.5,0C3.879787561235,0,5,1.120212438765,5,2.5L5,8.738461538461536C5,8.738461538461536,5,8.738461538461536,5,8.738461538461536L0,8.738461538461536C0,8.738461538461536,0,8.738461538461536,0,8.738461538461536L0,2.5C0,1.120212438765,1.120212438765,0,2.5,0Z"/></clipPath><clipPath id="clip23"><path d="M2.5,0L2.5,0C3.879787561235,0,5,1.120212438765,5,2.5L5,8.369230769230796C5,8.369230769230796,5,8.369230769230796,5,8.369230769230796L0,8.369230769230796C0,8.369230769230796,0,8.369230769230796,0,8.369230769230796L0,2.5C0,1.120212438765,1.120212438765,0,2.5,0Z"/></clipPath><clipPath id="clip24"><path d="M2.5,0L2.5,0C3.879787561235,0,5,1.120212438765,5,2.5L5,8C5,8,5,8,5,8L0,8C0,8,0,8,0,8L0,2.5C0,1.120212438765,1.120212438765,0,2.5,0Z"/></clipPath><clipPath id="clip25"><path d="M2.5,0L2.5,0C3.879787561235,0,5,1.120212438765,5,2.5L5,7.876923076923049C5,7.876923076923049,5,7.876923076923049,5,7.876923076923049L0,7.876923076923049C0,7.876923076923049,0,7.876923076923049,0,7.876923076923049L0,2.5C0,1.120212438765,1.120212438765,0,2.5,0Z"/></clipPath></defs></svg>