<svg xmlns="http://www.w3.org/2000/svg" xmlns:xlink="http://www.w3.org/1999/xlink" version="1.1" class="marks" width="699" height="424" viewBox="0 0 699 424"><g fill="none" stroke-miterlimit="10" transform="translate(82,48)"><g class="mark-group role-frame root" role="graphics-object" aria-roledescription="group mark container"><g transform="translate(0,0)"><path class="background" aria-hidden="true" d="M0.5,0.5h600v320h-600Z"/><g><g class="mark-group role-axis" aria-hidden="true"><g transform="translate(0.5,320.5)"><path class="background" aria-hidden="true" d="M0,0h0v0h0Z" pointer-events="none"/><g><g class="mark-rule role-axis-grid" pointer-events="none"><line transform="translate(0,-320)" x2="0" y2="320" stroke="#eef0f4" stroke-width="0.8" stroke-dasharray="2,4" opacity="1"/><line transform="translate(50,-320)" x2="0" y2="320" stroke="#eef0f4" stroke-width="0.8" stroke-dasharray="2,4" opacity="1"/><line transform="translate(100,-320)" x2="0" y2="320" stroke="#eef0f4" stroke-width="0.8" stroke-dasharray="2,4" opacity="1"/><line transform="translate(150,-320)" x2="0" y2="320" stroke="#eef0f4" stroke-width="0.8" stroke-dasharray="2,4" opacity="1"/><line transform="translate(200,-320)" x2="0" y2="320" stroke="#eef0f4" stroke-width="0.8" stroke-dasharray="2,4" opacity="1"/><line transform="translate(250,-320)" x2="0" y2="320" stroke="#eef0f4" stroke-width="0.8" stroke-dasharray="2,4" opacity="1"/><line transform="translate(300,-320)" x2="0" y2="320" stroke="#eef0f4" stroke-width="0.8" stroke-dasharray="2,4" opacity="1"/><line transform="translate(350,-320)" x2="0" y2="320" stroke="#eef0f4" stroke-width="0.8" stroke-dasharray="2,4" opacity="1"/><line transform="translate(400,-320)" x2="0" y2="320" stroke="#eef0f4" stroke-width="0.8" stroke-dasharray="2,4" opacity="1"/><line transform="translate(450,-320)" x2="0" y2="320" stroke="#eef0f4" stroke-width="0.8" stroke-dasharray="2,4" opacity="1"/><line transform="translate(500,-320)" x2="0" y2="320" stroke="#eef0f4" stroke-width="0.8" stroke-dasharray="2,4" opacity="1"/><line transform="translate(550,-320)" x2="0" y2="320" stroke="#eef0f4" stroke-width="0.8" stroke-dasharray="2,4" opacity="1"/><line transform="translate(600,-320)" x2="0" y2="320" stroke="#eef0f4" stroke-width="0.8" stroke-dasharray="2,4" opacity="1"/></g></g><path class="foreground" aria-hidden="true" d="" pointer-events="none" display="none"/></g></g><g class="mark-group role-axis" aria-hidden="true"><g transform="translate(0.5,0.5)"><path class="background" aria-hidden="true" d="M0,0h0v0h0Z" pointer-events="none"/><g><g class="mark-rule role-axis-grid" pointer-events="none"><line transform="translate(0,320)" x2="600" y2="0" stroke="#eef0f4" stroke-width="0.8" stroke-dasharray="2,4" opacity="1"/><line transform="translate(0,267)" x2="600" y2="0" stroke="#eef0f4" stroke-width="0.8" stroke-dasharray="2,4" opacity="1"/><line transform="translate(0,213)" x2="600" y2="0" stroke="#eef0f4" stroke-width="0.8" stroke-dasharray="2,4" opacity="1"/><line transform="translate(0,160)" x2="600" y2="0" stroke="#eef0f4" stroke-width="0.8" stroke-dasharray="2,4" opacity="1"/><line transform="translate(0,107)" x2="600" y2="0" stroke="#eef0f4" stroke-width="0.8" stroke-dasharray="2,4" opacity="1"/><line transform="translate(0,53)" x2="600" y2="0" stroke="#eef0f4" stroke-width="0.8" stroke-dasharray="2,4" opacity="1"/><line transform="translate(0,0)" x2="600" y2="0" stroke="#eef0f4" stroke-width="0.8" stroke-dasharray="2,4" opacity="1"/></g></g><path class="foreground" aria-hidden="true" d="" pointer-events="none" display="none"/></g></g><g class="mark-group role-axis" role="graphics-symbol" aria-roledescription="axis" aria-label="X-axis titled 'block_number' for a linear scale with values from 23,999,998 to 24,000,022"><g transform="translate(0.5,320.5)"><path class="background" aria-hidden="true" d="M0,0h0v0h0Z" pointer-events="none"/><g><g class="mark-rule role-axis-tick" pointer-events="none"><line transform="translate(0,0)" x2="0" y2="4" stroke="#e2e6ee" stroke-width="1" opacity="1"/><line transform="translate(50,0)" x2="0" y2="4" stroke="#e2e6ee" stroke-width="1" opacity="1"/><line transform="translate(100,0)" x2="0" y2="4" stroke="#e2e6ee" stroke-width="1" opacity="1"/><line transform="translate(150,0)" x2="0" y2="4" stroke="#e2e6ee" stroke-width="1" opacity="1"/><line transform="translate(200,0)" x2="0" y2="4" stroke="#e2e6ee" stroke-width="1" opacity="1"/><line transform="translate(250,0)" x2="0" y2="4" stroke="#e2e6ee" stroke-width="1" opacity="1"/><line transform="translate(300,0)" x2="0" y2="4" stroke="#e2e6ee" stroke-width="1" opacity="1"/><line transform="translate(350,0)" x2="0" y2="4" stroke="#e2e6ee" stroke-width="1" opacity="1"/><line transform="translate(400,0)" x2="0" y2="4" stroke="#e2e6ee" stroke-width="1" opacity="1"/><line transform="translate(450,0)" x2="0" y2="4" stroke="#e2e6ee" stroke-width="1" opacity="1"/><line transform="translate(500,0)" x2="0" y2="4" stroke="#e2e6ee" stroke-width="1" opacity="1"/><line transform="translate(550,0)" x2="0" y2="4" stroke="#e2e6ee" stroke-width="1" opacity="1"/><line transform="translate(600,0)" x2="0" y2="4" stroke="#e2e6ee" stroke-width="1" opacity="1"/></g><g class="mark-text role-axis-label" pointer-events="none"><text text-anchor="start" transform="translate(0,19)" font-family="'SF Mono', Menlo, Consolas, 'Liberation Mono', monospace" font-size="11px" fill="#64748b" opacity="1">24M</text><text text-anchor="middle" transform="translate(50,19)" font-family="'SF Mono', Menlo, Consolas, 'Liberation Mono', monospace" font-size="11px" fill="#64748b" opacity="1">24M</text><text text-anchor="middle" transform="translate(100,19)" font-family="'SF Mono', Menlo, Consolas, 'Liberation Mono', monospace" font-size="11px" fill="#64748b" opacity="1">24M</text><text text-anchor="middle" transform="translate(150,19)" font-family="'SF Mono', Menlo, Consolas, 'Liberation Mono', monospace" font-size="11px" fill="#64748b" opacity="1">24M</text><text text-anchor="middle" transform="translate(200,19)" font-family="'SF Mono', Menlo, Consolas, 'Liberation Mono', monospace" font-size="11px" fill="#64748b" opacity="1">24M</text><text text-anchor="middle" transform="translate(250,19)" font-family="'SF Mono', Menlo, Consolas, 'Liberation Mono', monospace" font-size="11px" fill="#64748b" opacity="1">24M</text><text text-anchor="middle" transform="translate(300,19)" font-family="'SF Mono', Menlo, Consolas, 'Liberation Mono', monospace" font-size="11px" fill="#64748b" opacity="1">24M</text><text text-anchor="middle" transform="translate(350,19)" font-family="'SF Mono', Menlo, Consolas, 'Liberation Mono', monospace" font-size="11px" fill="#64748b" opacity="1">24M</text><text text-anchor="middle" transform="translate(400,19)" font-family="'SF Mono', Menlo, Consolas, 'Liberation Mono', monospace" font-size="11px" fill="#64748b" opacity="1">24M</text><text text-anchor="middle" transform="translate(450,19)" font-family="'SF Mono', Menlo, Consolas, 'Liberation Mono', monospace" font-size="11px" fill="#64748b" opacity="1">24M</text><text text-anchor="middle" transform="translate(500,19)" font-family="'SF Mono', Menlo, Consolas, 'Liberation Mono', monospace" font-size="11px" fill="#64748b" opacity="1">24M</text><text text-anchor="middle" transform="translate(550,19)" font-family="'SF Mono', Menlo, Consolas, 'Liberation Mono', monospace" font-size="11px" fill="#64748b" opacity="1">24M</text><text text-anchor="end" transform="translate(600,19)" font-family="'SF Mono', Menlo, Consolas, 'Liberation Mono', monospace" font-size="11px" fill="#64748b" opacity="1">24M</text></g><g class="mark-text role-axis-title" pointer-events="none"><text text-anchor="middle" transform="translate(300,42)" font-family="-apple-system, BlinkMacSystemFont, 'Segoe UI', system-ui, 'Helvetica Neue', 'Hiragino Sans', 'Hiragino Kaku Gothic ProN', 'Noto Sans CJK JP', sans-serif" font-size="12px" font-weight="600" fill="#0f172a" opacity="1">block_number</text></g></g><path class="foreground" aria-hidden="true" d="" pointer-events="none" display="none"/></g></g><g class="mark-group role-axis" role="graphics-symbol" aria-roledescription="axis" aria-label="Y-axis titled 'logs' for a linear scale with values from 0 to 1,200"><g transform="translate(0.5,0.5)"><path class="background" aria-hidden="true" d="M0,0h0v0h0Z" pointer-events="none"/><g><g class="mark-rule role-axis-tick" pointer-events="none"><line transform="translate(0,320)" x2="-4" y2="0" stroke="#e2e6ee" stroke-width="1" opacity="1"/><line transform="translate(0,267)" x2="-4" y2="0" stroke="#e2e6ee" stroke-width="1" opacity="1"/><line transform="translate(0,213)" x2="-4" y2="0" stroke="#e2e6ee" stroke-width="1" opacity="1"/><line transform="translate(0,160)" x2="-4" y2="0" stroke="#e2e6ee" stroke-width="1" opacity="1"/><line transform="translate(0,107)" x2="-4" y2="0" stroke="#e2e6ee" stroke-width="1" opacity="1"/><line transform="translate(0,53)" x2="-4" y2="0" stroke="#e2e6ee" stroke-width="1" opacity="1"/><line transform="translate(0,0)" x2="-4" y2="0" stroke="#e2e6ee" stroke-width="1" opacity="1"/></g><g class="mark-text role-axis-label" pointer-events="none"><text text-anchor="end" transform="translate(-10,323)" font-family="'SF Mono', Menlo, Consolas, 'Liberation Mono', monospace" font-size="11px" fill="#64748b" opacity="1">0</text><text text-anchor="end" transform="translate(-10,269.6666666666667)" font-family="'SF Mono', Menlo, Consolas, 'Liberation Mono', monospace" font-size="11px" fill="#64748b" opacity="1">200</text><text text-anchor="end" transform="translate(-10,216.33333333333337)" font-family="'SF Mono', Menlo, Consolas, 'Liberation Mono', monospace" font-size="11px" fill="#64748b" opacity="1">400</text><text text-anchor="end" transform="translate(-10,163)" font-family="'SF Mono', Menlo, Consolas, 'Liberation Mono', monospace" font-size="11px" fill="#64748b" opacity="1">600</text><text text-anchor="end" transform="translate(-10,109.66666666666669)" font-family="'SF Mono', Menlo, Consolas, 'Liberation Mono', monospace" font-size="11px" fill="#64748b" opacity="1">800</text><text text-anchor="end" transform="translate(-10,56.33333333333332)" font-family="'SF Mono', Menlo, Consolas, 'Liberation Mono', monospace" font-size="11px" fill="#64748b" opacity="1">1k</text><text text-anchor="end" transform="translate(-10,3)" font-family="'SF Mono', Menlo, Consolas, 'Liberation Mono', monospace" font-size="11px" fill="#64748b" opacity="1">1.2k</text></g><g class="mark-text role-axis-title" pointer-events="none"><text text-anchor="middle" transform="translate(-57,160) rotate(-90) translate(0,-3)" font-family="-apple-system, BlinkMacSystemFont, 'Segoe UI', system-ui, 'Helvetica Neue', 'Hiragino Sans', 'Hiragino Kaku Gothic ProN', 'Noto Sans CJK JP', sans-serif" font-size="12px" font-weight="600" fill="#0f172a" opacity="1">logs</text></g></g><path class="foreground" aria-hidden="true" d="" pointer-events="none" display="none"/></g></g><g class="mark-group role-scope" role="graphics-object" aria-roledescription="group mark container"><g transform="translate(47.5,223.46666666666664)"><path class="background" aria-hidden="true" d="M2.5,0L2.5,0C3.879787561235,0,5,1.120212438765,5,2.5L5,96.53333333333336C5,96.53333333333336,5,96.53333333333336,5,96.53333333333336L0,96.53333333333336C0,96.53333333333336,0,96.53333333333336,0,96.53333333333336L0,2.5C0,1.120212438765,1.120212438765,0,2.5,0Z"/><g clip-path="url(#clip26)"><g class="mark-group role-scope" role="graphics-object" aria-roledescription="group mark container"><g transform="translate(0,-223.46666666666664)"><path class="background" aria-hidden="true" d="M0,0h5v0h-5Z"/><g><g class="mark-rect role-mark marks" role="graphics-object" aria-roledescription="rect mark container"><path aria-label="block_number: 24000000; logs: 362" role="graphics-symbol" aria-roledescription="bar" d="M0,223.46666666666664h5v96.53333333333336h-5Z" fill="#2563eb"/></g></g><path class="foreground" aria-hidden="true" d="" display="none"/></g></g></g><path class="foreground" aria-hidden="true" d="" display="none"/></g><g transform="translate(72.5,195.46666666666667)"><path class="background" aria-hidden="true" d="M2.5,0L2.5,0C3.879787561235,0,5,1.120212438765,5,2.5L5,124.53333333333333C5,124.53333333333333,5,124.53333333333333,5,124.53333333333333L0,124.53333333333333C0,124.53333333333333,0,124.53333333333333,0,124.53333333333333L0,2.5C0,1.120212438765,1.120212438765,0,2.5,0Z"/><g clip-path="url(#clip27)"><g class="mark-group role-scope" role="graphics-object" aria-roledescription="group mark container"><g transform="translate(0,-195.46666666666667)"><path class="background" aria-hidden="true" d="M0,0h5v0h-5Z"/><g><g class="mark-rect role-mark marks" role="graphics-object" aria-roledescription="rect mark container"><path aria-label="block_number: 24000001; logs: 467" role="graphics-symbol" aria-roledescription="bar" d="M0,195.46666666666667h5v124.53333333333333h-5Z" fill="#2563eb"/></g></g><path class="foreground" aria-hidden="true" d="" display="none"/></g></g></g><path class="foreground" aria-hidden="true" d="" display="none"/></g><g transform="translate(97.5,124.80000000000001)"><path class="background" aria-hidden="true" d="M2.5,0L2.5,0C3.879787561235,0,5,1.120212438765,5,2.5L5,195.2C5,195.2,5,195.2,5,195.2L0,195.2C0,195.2,0,195.2,0,195.2L0,2.5C0,1.120212438765,1.120212438765,0,2.5,0Z"/><g clip-path="url(#clip28)"><g class="mark-group role-scope" role="graphics-object" aria-roledescription="group mark container"><g transform="translate(0,-124.80000000000001)"><path class="background" aria-hidden="true" d="M0,0h5v0h-5Z"/><g><g class="mark-rect role-mark marks" role="graphics-object" aria-roledescription="rect mark container"><path aria-label="block_number: 24000002; logs: 732" role="graphics-symbol" aria-roledescription="bar" d="M0,124.80000000000001h5v195.2h-5Z" fill="#2563eb"/></g></g><path class="foreground" aria-hidden="true" d="" display="none"/></g></g></g><path class="foreground" aria-hidden="true" d="" display="none"/></g><g transform="translate(122.5,203.73333333333335)"><path class="background" aria-hidden="true" d="M2.5,0L2.5,0C3.879787561235,0,5,1.120212438765,5,2.5L5,116.26666666666665C5,116.26666666666665,5,116.26666666666665,5,116.26666666666665L0,116.26666666666665C0,116.26666666666665,0,116.26666666666665,0,116.26666666666665L0,2.5C0,1.120212438765,1.120212438765,0,2.5,0Z"/><g clip-path="url(#clip29)"><g class="mark-group role-scope" role="graphics-object" aria-roledescription="group mark container"><g transform="translate(0,-203.73333333333335)"><path class="background" aria-hidden="true" d="M0,0h5v0h-5Z"/><g><g class="mark-rect role-mark marks" role="graphics-object" aria-roledescription="rect mark container"><path aria-label="block_number: 24000003; logs: 436" role="graphics-symbol" aria-roledescription="bar" d="M0,203.73333333333335h5v116.26666666666665h-5Z" fill="#2563eb"/></g></g><path class="foreground" aria-hidden="true" d="" display="none"/></g></g></g><path class="foreground" aria-hidden="true" d="" display="none"/></g><g transform="translate(147.5,177.59999999999997)"><path class="background" aria-hidden="true" d="M2.5,0L2.5,0C3.879787561235,0,5,1.120212438765,5,2.5L5,142.40000000000003C5,142.40000000000003,5,142.40000000000003,5,142.40000000000003L0,142.40000000000003C0,142.40000000000003,0,142.40000000000003,0,142.40000000000003L0,2.5C0,1.120212438765,1.120212438765,0,2.5,0Z"/><g clip-path="url(#clip30)"><g class="mark-group role-scope" role="graphics-object" aria-roledescription="group mark container"><g transform="translate(0,-177.59999999999997)"><path class="background" aria-hidden="true" d="M0,0h5v0h-5Z"/><g><g class="mark-rect role-mark marks" role="graphics-object" aria-roledescription="rect mark container"><path aria-label="block_number: 24000004; logs: 534" role="graphics-symbol" aria-roledescription="bar" d="M0,177.59999999999997h5v142.40000000000003h-5Z" fill="#2563eb"/></g></g><path class="foreground" aria-hidden="true" d="" display="none"/></g></g></g><path class="foreground" aria-hidden="true" d="" display="none"/></g><g transform="translate(172.5,26.133333333333333)"><path class="background" aria-hidden="true" d="M2.5,0L2.5,0C3.879787561235,0,5,1.120212438765,5,2.5L5,293.8666666666667C5,293.8666666666667,5,293.8666666666667,5,293.8666666666667L0,293.8666666666667C0,293.8666666666667,0,293.8666666666667,0,293.8666666666667L0,2.5C0,1.120212438765,1.120212438765,0,2.5,0Z"/><g clip-path="url(#clip31)"><g class="mark-group role-scope" role="graphics-object" aria-roledescription="group mark container"><g transform="translate(0,-26.133333333333333)"><path class="background" aria-hidden="true" d="M0,0h5v0h-5Z"/><g><g class="mark-rect role-mark marks" role="graphics-object" aria-roledescription="rect mark container"><path aria-label="block_number: 24000005; logs: 1102" role="graphics-symbol" aria-roledescription="bar" d="M0,26.133333333333333h5v293.8666666666667h-5Z" fill="#2563eb"/></g></g><path class="foreground" aria-hidden="true" d="" display="none"/></g></g></g><path class="foreground" aria-hidden="true" d="" display="none"/></g><g transform="translate(197.5,171.73333333333332)"><path class="background" aria-hidden="true" d="M2.5,0L2.5,0C3.879787561235,0,5,1.120212438765,5,2.5L5,148.26666666666668C5,148.26666666666668,5,148.26666666666668,5,148.26666666666668L0,148.26666666666668C0,148.26666666666668,0,148.26666666666668,0,148.26666666666668L0,2.5C0,1.120212438765,1.120212438765,0,2.5,0Z"/><g clip-path="url(#clip32)"><g class="mark-group role-scope" role="graphics-object" aria-roledescription="group mark container"><g transform="translate(0,-171.73333333333332)"><path class="background" aria-hidden="true" d="M0,0h5v0h-5Z"/><g><g class="mark-rect role-mark marks" role="graphics-object" aria-roledescription="rect mark container"><path aria-label="block_number: 24000006; logs: 556" role="graphics-symbol" aria-roledescription="bar" d="M0,171.73333333333332h5v148.26666666666668h-5Z" fill="#2563eb"/></g></g><path class="foreground" aria-hidden="true" d="" display="none"/></g></g></g><path class="foreground" aria-hidden="true" d="" display="none"/></g><g transform="translate(222.5,163.73333333333335)"><path class="background" aria-hidden="true" d="M2.5,0L2.5,0C3.879787561235,0,5,1.120212438765,5,2.5L5,156.26666666666665C5,156.26666666666665,5,156.26666666666665,5,156.26666666666665L0,156.26666666666665C0,156.26666666666665,0,156.26666666666665,0,156.26666666666665L0,2.5C0,1.120212438765,1.120212438765,0,2.5,0Z"/><g clip-path="url(#clip33)"><g class="mark-group role-scope" role="graphics-object" aria-roledescription="group mark container"><g transform="translate(0,-163.73333333333335)"><path class="background" aria-hidden="true" d="M0,0h5v0h-5Z"/><g><g class="mark-rect role-mark marks" role="graphics-object" aria-roledescription="rect mark container"><path aria-label="block_number: 24000007; logs: 586" role="graphics-symbol" aria-roledescription="bar" d="M0,163.73333333333335h5v156.26666666666665h-5Z" fill="#2563eb"/></g></g><path class="foreground" aria-hidden="true" d="" display="none"/></g></g></g><path class="foreground" aria-hidden="true" d="" display="none"/></g><g transform="translate(247.5,182.93333333333334)"><path class="background" aria-hidden="true" d="M2.5,0L2.5,0C3.879787561235,0,5,1.120212438765,5,2.5L5,137.06666666666666C5,137.06666666666666,5,137.06666666666666,5,137.06666666666666L0,137.06666666666666C0,137.06666666666666,0,137.06666666666666,0,137.06666666666666L0,2.5C0,1.120212438765,1.120212438765,0,2.5,0Z"/><g clip-path="url(#clip34)"><g class="mark-group role-scope" role="graphics-object" aria-roledescription="group mark container"><g transform="translate(0,-182.93333333333334)"><path class="background" aria-hidden="true" d="M0,0h5v0h-5Z"/><g><g class="mark-rect role-mark marks" role="graphics-object" aria-roledescription="rect mark container"><path aria-label="block_number: 24000008; logs: 514" role="graphics-symbol" aria-roledescription="bar" d="M0,182.93333333333334h5v137.06666666666666h-5Z" fill="#2563eb"/></g></g><path class="foreground" aria-hidden="true" d="" display="none"/></g></g></g><path class="foreground" aria-hidden="true" d="" display="none"/></g><g transform="translate(272.5,101.86666666666667)"><path class="background" aria-hidden="true" d="M2.5,0L2.5,0C3.879787561235,0,5,1.120212438765,5,2.5L5,218.13333333333333C5,218.13333333333333,5,218.13333333333333,5,218.13333333333333L0,218.13333333333333C0,218.13333333333333,0,218.13333333333333,0,218.13333333333333L0,2.5C0,1.120212438765,1.120212438765,0,2.5,0Z"/><g clip-path="url(#clip35)"><g class="mark-group role-scope" role="graphics-object" aria-roledescription="group mark container"><g transform="translate(0,-101.86666666666667)"><path class="background" aria-hidden="true" d="M0,0h5v0h-5Z"/><g><g class="mark-rect role-mark marks" role="graphics-object" aria-roledescription="rect mark container"><path aria-label="block_number: 24000009; logs: 818" role="graphics-symbol" aria-roledescription="bar" d="M0,101.86666666666667h5v218.13333333333333h-5Z" fill="#2563eb"/></g></g><path class="foreground" aria-hidden="true" d="" display="none"/></g></g></g><path class="foreground" aria-hidden="true" d="" display="none"/></g><g transform="translate(297.5,206.13333333333333)"><path class="background" aria-hidden="true" d="M2.5,0L2.5,0C3.879787561235,0,5,1.120212438765,5,2.5L5,113.86666666666667C5,113.86666666666667,5,113.86666666666667,5,113.86666666666667L0,113.86666666666667C0,113.86666666666667,0,113.86666666666667,0,113.86666666666667L0,2.5C0,1.120212438765,1.120212438765,0,2.5,0Z"/><g clip-path="url(#clip36)"><g class="mark-group role-scope" role="graphics-object" aria-roledescription="group mark container"><g transform="translate(0,-206.13333333333333)"><path class="background" aria-hidden="true" d="M0,0h5v0h-5Z"/><g><g class="mark-rect role-mark marks" role="graphics-object" aria-roledescription="rect mark container"><path aria-label="block_number: 24000010; logs: 427" role="graphics-symbol" aria-roledescription="bar" d="M0,206.13333333333333h5v113.86666666666667h-5Z" fill="#2563eb"/></g></g><path class="foreground" aria-hidden="true" d="" display="none"/></g></g></g><path class="foreground" aria-hidden="true" d="" display="none"/></g><g transform="translate(322.5,147.73333333333335)"><path class="background" aria-hidden="true" d="M2.5,0L2.5,0C3.879787561235,0,5,1.120212438765,5,2.5L5,172.26666666666665C5,172.26666666666665,5,172.26666666666665,5,172.26666666666665L0,172.26666666666665C0,172.26666666666665,0,172.26666666666665,0,172.26666666666665L0,2.5C0,1.120212438765,1.120212438765,0,2.5,0Z"/><g clip-path="url(#clip37)"><g class="mark-group role-scope" role="graphics-object" aria-roledescription="group mark container"><g transform="translate(0,-147.73333333333335)"><path class="background" aria-hidden="true" d="M0,0h5v0h-5Z"/><g><g class="mark-rect role-mark marks" role="graphics-object" aria-roledescription="rect mark container"><path aria-label="block_number: 24000011; logs: 646" role="graphics-symbol" aria-roledescription="bar" d="M0,147.73333333333335h5v172.26666666666665h-5Z" fill="#2563eb"/></g></g><path class="foreground" aria-hidden="true" d="" display="none"/></g></g></g><path class="foreground" aria-hidden="true" d="" display="none"/></g><g transform="translate(347.5,210.66666666666666)"><path class="background" aria-hidden="true" d="M2.5,0L2.5,0C3.879787561235,0,5,1.120212438765,5,2.5L5,109.33333333333334C5,109.33333333333334,5,109.33333333333334,5,109.33333333333334L0,109.33333333333334C0,109.33333333333334,0,109.33333333333334,0,109.33333333333334L0,2.5C0,1.120212438765,1.120212438765,0,2.5,0Z"/><g clip-path="url(#clip38)"><g class="mark-group role-scope" role="graphics-object" aria-roledescription="group mark container"><g transform="translate(0,-210.66666666666666)"><path class="background" aria-hidden="true" d="M0,0h5v0h-5Z"/><g><g class="mark-rect role-mark marks" role="graphics-object" aria-roledescription="rect mark container"><path aria-label="block_number: 24000012; logs: 410" role="graphics-symbol" aria-roledescription="bar" d="M0,210.66666666666666h5v109.33333333333334h-5Z" fill="#2563eb"/></g></g><path class="foreground" aria-hidden="true" d="" display="none"/></g></g></g><path class="foreground" aria-hidden="true" d="" display="none"/></g><g transform="translate(372.5,128)"><path class="background" aria-hidden="true" d="M2.5,0L2.5,0C3.879787561235,0,5,1.120212438765,5,2.5L5,192C5,192,5,192,5,192L0,192C0,192,0,192,0,192L0,2.5C0,1.120212438765,1.120212438765,0,2.5,0Z"/><g clip-path="url(#clip39)"><g class="mark-group role-scope" role="graphics-object" aria-roledescription="group mark container"><g transform="translate(0,-128)"><path class="background" aria-hidden="true" d="M0,0h5v0h-5Z"/><g><g class="mark-rect role-mark marks" role="graphics-object" aria-roledescription="rect mark container"><path aria-label="block_number: 24000013; logs: 720" role="graphics-symbol" aria-roledescription="bar" d="M0,128h5v192h-5Z" fill="#2563eb"/></g></g><path class="foreground" aria-hidden="true" d="" display="none"/></g></g></g><path class="foreground" aria-hidden="true" d="" display="none"/></g><g transform="translate(397.5,184.53333333333333)"><path class="background" aria-hidden="true" d="M2.5,0L2.5,0C3.879787561235,0,5,1.120212438765,5,2.5L5,135.46666666666667C5,135.46666666666667,5,135.46666666666667,5,135.46666666666667L0,135.46666666666667C0,135.46666666666667,0,135.46666666666667,0,135.46666666666667L0,2.5C0,1.120212438765,1.120212438765,0,2.5,0Z"/><g clip-path="url(#clip40)"><g class="mark-group role-scope" role="graphics-object" aria-roledescription="group mark container"><g transform="translate(0,-184.53333333333333)"><path class="background" aria-hidden="true" d="M0,0h5v0h-5Z"/><g><g class="mark-rect role-mark marks" role="graphics-object" aria-roledescription="rect mark container"><path aria-label="block_number: 24000014; logs: 508" role="graphics-symbol" aria-roledescription="bar" d="M0,184.53333333333333h5v135.46666666666667h-5Z" fill="#2563eb"/></g></g><path class="foreground" aria-hidden="true" d="" display="none"/></g></g></g><path class="foreground" aria-hidden="true" d="" display="none"/></g><g transform="translate(422.5,96.8)"><path class="background" aria-hidden="true" d="M2.5,0L2.5,0C3.879787561235,0,5,1.120212438765,5,2.5L5,223.2C5,223.2,5,223.2,5,223.2L0,223.2C0,223.2,0,223.2,0,223.2L0,2.5C0,1.120212438765,1.120212438765,0,2.5,0Z"/><g clip-path="url(#clip41)"><g class="mark-group role-scope" role="graphics-object" aria-roledescription="group mark container"><g transform="translate(0,-96.8)"><path class="background" aria-hidden="true" d="M0,0h5v0h-5Z"/><g><g class="mark-rect role-mark marks" role="graphics-object" aria-roledescription="rect mark container"><path aria-label="block_number: 24000015; logs: 837" role="graphics-symbol" aria-roledescription="bar" d="M0,96.8h5v223.2h-5Z" fill="#2563eb"/></g></g><path class="foreground" aria-hidden="true" d="" display="none"/></g></g></g><path class="foreground" aria-hidden="true" d="" display="none"/></g><g transform="translate(447.5,216.53333333333336)"><path class="background" aria-hidden="true" d="M2.5,0L2.5,0C3.879787561235,0,5,1.120212438765,5,2.5L5,103.46666666666664C5,103.46666666666664,5,103.46666666666664,5,103.46666666666664L0,103.46666666666664C0,103.46666666666664,0,103.46666666666664,0,103.46666666666664L0,2.5C0,1.120212438765,1.120212438765,0,2.5,0Z"/><g clip-path="url(#clip42)"><g class="mark-group role-scope" role="graphics-object" aria-roledescription="group mark container"><g transform="translate(0,-216.53333333333336)"><path class="background" aria-hidden="true" d="M0,0h5v0h-5Z"/><g><g class="mark-rect role-mark marks" role="graphics-object" aria-roledescription="rect mark container"><path aria-label="block_number: 24000016; logs: 388" role="graphics-symbol" aria-roledescription="bar" d="M0,216.53333333333336h5v103.46666666666664h-5Z" fill="#2563eb"/></g></g><path class="foreground" aria-hidden="true" d="" display="none"/></g></g></g><path class="foreground" aria-hidden="true" d="" display="none"/></g><g transform="translate(472.5,150.66666666666666)"><path class="background" aria-hidden="true" d="M2.5,0L2.5,0C3.879787561235,0,5,1.120212438765,5,2.5L5,169.33333333333334C5,169.33333333333334,5,169.33333333333334,5,169.33333333333334L0,169.33333333333334C0,169.33333333333334,0,169.33333333333334,0,169.33333333333334L0,2.5C0,1.120212438765,1.120212438765,0,2.5,0Z"/><g clip-path="url(#clip43)"><g class="mark-group role-scope" role="graphics-object" aria-roledescription="group mark container"><g transform="translate(0,-150.66666666666666)"><path class="background" aria-hidden="true" d="M0,0h5v0h-5Z"/><g><g class="mark-rect role-mark marks" role="graphics-object" aria-roledescription="rect mark container"><path aria-label="block_number: 24000017; logs: 635" role="graphics-symbol" aria-roledescription="bar" d="M0,150.66666666666666h5v169.33333333333334h-5Z" fill="#2563eb"/></g></g><path class="foreground" aria-hidden="true" d="" display="none"/></g></g></g><path class="foreground" aria-hidden="true" d="" display="none"/></g><g transform="translate(497.5,238.66666666666669)"><path class="background" aria-hidden="true" d="M2.5,0L2.5,0C3.879787561235,0,5,1.120212438765,5,2.5L5,81.33333333333331C5,81.33333333333331,5,81.33333333333331,5,81.33333333333331L0,81.33333333333331C0,81.33333333333331,0,81.33333333333331,0,81.33333333333331L0,2.5C0,1.120212438765,1.120212438765,0,2.5,0Z"/><g clip-path="url(#clip44)"><g class="mark-group role-scope" role="graphics-object" aria-roledescription="group mark container"><g transform="translate(0,-238.66666666666669)"><path class="background" aria-hidden="true" d="M0,0h5v0h-5Z"/><g><g class="mark-rect role-mark marks" role="graphics-object" aria-roledescription="rect mark container"><path aria-label="block_number: 24000018; logs: 305" role="graphics-symbol" aria-roledescription="bar" d="M0,238.66666666666669h5v81.33333333333331h-5Z" fill="#2563eb"/></g></g><path class="foreground" aria-hidden="true" d="" display="none"/></g></g></g><path class="foreground" aria-hidden="true" d="" display="none"/></g><g transform="translate(522.5,119.46666666666665)"><path class="background" aria-hidden="true" d="M2.5,0L2.5,0C3.879787561235,0,5,1.120212438765,5,2.5L5,200.53333333333336C5,200.53333333333336,5,200.53333333333336,5,200.53333333333336L0,200.53333333333336C0,200.53333333333336,0,200.53333333333336,0,200.53333333333336L0,2.5C0,1.120212438765,1.120212438765,0,2.5,0Z"/><g clip-path="url(#clip45)"><g class="mark-group role-scope" role="graphics-object" aria-roledescription="group mark container"><g transform="translate(0,-119.46666666666665)"><path class="background" aria-hidden="true" d="M0,0h5v0h-5Z"/><g><g class="mark-rect role-mark marks" role="graphics-object" aria-roledescription="rect mark container"><path aria-label="block_number: 24000019; logs: 752" role="graphics-symbol" aria-roledescription="bar" d="M0,119.46666666666665h5v200.53333333333336h-5Z" fill="#2563eb"/></g></g><path class="foreground" aria-hidden="true" d="" display="none"/></g></g></g><path class="foreground" aria-hidden="true" d="" display="none"/></g><g transform="translate(547.5,100.26666666666668)"><path class="background" aria-hidden="true" d="M2.5,0L2.5,0C3.879787561235,0,5,1.120212438765,5,2.5L5,219.73333333333332C5,219.73333333333332,5,219.73333333333332,5,219.73333333333332L0,219.73333333333332C0,219.73333333333332,0,219.73333333333332,0,219.73333333333332L0,2.5C0,1.120212438765,1.120212438765,0,2.5,0Z"/><g clip-path="url(#clip46)"><g class="mark-group role-scope" role="graphics-object" aria-roledescription="group mark container"><g transform="translate(0,-100.26666666666668)"><path class="background" aria-hidden="true" d="M0,0h5v0h-5Z"/><g><g class="mark-rect role-mark marks" role="graphics-object" aria-roledescription="rect mark container"><path aria-label="block_number: 24000020; logs: 824" role="graphics-symbol" aria-roledescription="bar" d="M0,100.26666666666668h5v219.73333333333332h-5Z" fill="#2563eb"/></g></g><path class="foreground" aria-hidden="true" d="" display="none"/></g></g></g><path class="foreground" aria-hidden="true" d="" display="none"/></g></g><g class="mark-group role-title"><g transform="translate(-70,-36)"><path class="background" aria-hidden="true" d="M0,0h0v0h0Z" pointer-events="none"/><g><g class="mark-text role-title-text" role="graphics-symbol" aria-roledescription="title" aria-label="Title text 'Logs per block (dbt base_raw_logs) / ブロック別ログ件数'" pointer-events="none"><text text-anchor="start" transform="translate(0,11)" font-family="-apple-system, BlinkMacSystemFont, 'Segoe UI', system-ui, 'Helvetica Neue', 'Hiragino Sans', 'Hiragino Kaku Gothic ProN', 'Noto Sans CJK JP', sans-serif" font-size="14px" font-weight="600" fill="#0f172a" opacity="1">Logs per block (dbt base_raw_logs) / ブロック別ログ件数</text></g></g><path class="foreground" aria-hidden="true" d="" pointer-events="none" display="none"/></g></g></g><path class="foreground" aria-hidden="true" d="" display="none"/></g></g></g><defs><clipPath id="clip26"><path d="M2.5,0L2.5,0C3.879787561235,0,5,1.120212438765,5,2.5L5,96.53333333333336C5,96.53333333333336,5,96.53333333333336,5,96.53333333333336L0,96.53333333333336C0,96.53333333333336,0,96.53333333333336,0,96.53333333333336L0,2.5C0,1.120212438765,1.120212438765,0,2.5,0Z"/></clipPath><clipPath id="clip27"><path d="M2.5,0L2.5,0C3.879787561235,0,5,1.120212438765,5,2.5L5,124.53333333333333C5,124.53333333333333,5,124.53333333333333,5,124.53333333333333L0,124.53333333333333C0,124.53333333333333,0,124.53333333333333,0,124.53333333333333L0,2.5C0,1.120212438765,1.120212438765,0,2.5,0Z"/></clipPath><clipPath id="clip28"><path d="M2.5,0L2.5,0C3.879787561235,0,5,1.120212438765,5,2.5L5,195.2C5,195.2,5,195.2,5,195.2L0,195.2C0,195.2,0,195.2,0,195.2L0,2.5C0,1.120212438765,1.120212438765,0,2.5,0Z"/></clipPath><clipPath id="clip29"><path d="M2.5,0L2.5,0C3.879787561235,0,5,1.120212438765,5,2.5L5,116.26666666666665C5,116.26666666666665,5,116.26666666666665,5,116.26666666666665L0,116.26666666666665C0,116.26666666666665,0,116.26666666666665,0,116.26666666666665L0,2.5C0,1.120212438765,1.120212438765,0,2.5,0Z"/></clipPath><clipPath id="clip30"><path d="M2.5,0L2.5,0C3.879787561235,0,5,1.120212438765,5,2.5L5,142.40000000000003C5,142.40000000000003,5,142.40000000000003,5,142.40000000000003L0,142.40000000000003C0,142.40000000000003,0,142.40000000000003,0,142.40000000000003L0,2.5C0,1.120212438765,1.120212438765,0,2.5,0Z"/></clipPath><clipPath id="clip31"><path d="M2.5,0L2.5,0C3.879787561235,0,5,1.120212438765,5,2.5L5,293.8666666666667C5,293.8666666666667,5,293.8666666666667,5,293.8666666666667L0,293.8666666666667C0,293.8666666666667,0,293.8666666666667,0,293.8666666666667L0,2.5C0,1.120212438765,1.120212438765,0,2.5,0Z"/></clipPath><clipPath id="clip32"><path d="M2.5,0L2.5,0C3.879787561235,0,5,1.120212438765,5,2.5L5,148.26666666666668C5,148.26666666666668,5,148.26666666666668,5,148.26666666666668L0,148.26666666666668C0,148.26666666666668,0,148.26666666666668,0,148.26666666666668L0,2.5C0,1.120212438765,1.120212438765,0,2.5,0Z"/></clipPath><clipPath id="clip33"><path d="M2.5,0L2.5,0C3.879787561235,0,5,1.120212438765,5,2.5L5,156.26666666666665C5,156.26666666666665,5,156.26666666666665,5,156.26666666666665L0,156.26666666666665C0,156.26666666666665,0,156.26666666666665,0,156.26666666666665L0,2.5C0,1.120212438765,1.120212438765,0,2.5,0Z"/></clipPath><clipPath id="clip34"><path d="M2.5,0L2.5,0C3.879787561235,0,5,1.120212438765,5,2.5L5,137.06666666666666C5,137.06666666666666,5,137.06666666666666,5,137.06666666666666L0,137.06666666666666C0,137.06666666666666,0,137.06666666666666,0,137.06666666666666L0,2.5C0,1.120212438765,1.120212438765,0,2.5,0Z"/></clipPath><clipPath id="clip35"><path d="M2.5,0L2.5,0C3.879787561235,0,5,1.120212438765,5,2.5L5,218.13333333333333C5,218.13333333333333,5,218.13333333333333,5,218.13333333333333L0,218.13333333333333C0,218.13333333333333,0,218.13333333333333,0,218.13333333333333L0,2.5C0,1.120212438765,1.120212438765,0,2.5,0Z"/></clipPath><clipPath id="clip36"><path d="M2.5,0L2.5,0C3.879787561235,0,5,1.120212438765,5,2.5L5,113.86666666666667C5,113.86666666666667,5,113.86666666666667,5,113.86666666666667L0,113.86666666666667C0,113.86666666666667,0,113.86666666666667,0,113.86666666666667L0,2.5C0,1.120212438765,1.120212438765,0,2.5,0Z"/></clipPath><clipPath id="clip37"><path d="M2.5,0L2.5,0C3.879787561235,0,5,1.120212438765,5,2.5L5,172.26666666666665C5,172.26666666666665,5,172.26666666666665,5,172.26666666666665L0,172.26666666666665C0,172.26666666666665,0,172.26666666666665,0,172.26666666666665L0,2.5C0,1.120212438765,1.120212438765,0,2.5,0Z"/></clipPath><clipPath id="clip38"><path d="M2.5,0L2.5,0C3.879787561235,0,5,1.120212438765,5,2.5L5,109.33333333333334C5,109.33333333333334,5,109.33333333333334,5,109.33333333333334L0,109.33333333333334C0,109.33333333333334,0,109.33333333333334,0,109.33333333333334L0,2.5C0,1.120212438765,1.120212438765,0,2.5,0Z"/></clipPath><clipPath id="clip39"><path d="M2.5,0L2.5,0C3.879787561235,0,5,1.120212438765,5,2.5L5,192C5,192,5,192,5,192L0,192C0,192,0,192,0,192L0,2.5C0,1.120212438765,1.120212438765,0,2.5,0Z"/></clipPath><clipPath id="clip40"><path d="M2.5,0L2.5,0C3.879787561235,0,5,1.120212438765,5,2.5L5,135.46666666666667C5,135.46666666666667,5,135.46666666666667,5,135.46666666666667L0,135.46666666666667C0,135.46666666666667,0,135.46666666666667,0,135.46666666666667L0,2.5C0,1.120212438765,1.120212438765,0,2.5,0Z"/></clipPath><clipPath id="clip41"><path d="M2.5,0L2.5,0C3.879787561235,0,5,1.120212438765,5,2.5L5,223.2C5,223.2,5,223.2,5,223.2L0,223.2C0,223.2,0,223.2,0,223.2L0,2.5C0,1.120212438765,1.120212438765,0,2.5,0Z"/></clipPath><clipPath id="clip42"><path d="M2.5,0L2.5,0C3.879787561235,0,5,1.120212438765,5,2.5L5,103.46666666666664C5,103.46666666666664,5,103.46666666666664,5,103.46666666666664L0,103.46666666666664C0,103.46666666666664,0,103.46666666666664,0,103.46666666666664L0,2.5C0,1.120212438765,1.120212438765,0,2.5,0Z"/></clipPath><clipPath id="clip43"><path d="M2.5,0L2.5,0C3.879787561235,0,5,1.120212438765,5,2.5L5,169.33333333333334C5,169.33333333333334,5,169.33333333333334,5,169.33333333333334L0,169.33333333333334C0,169.33333333333334,0,169.33333333333334,0,169.33333333333334L0,2.5C0,1.120212438765,1.120212438765,0,2.5,0Z"/></clipPath><clipPath id="clip44"><path d="M2.5,0L2.5,0C3.879787561235,0,5,1.120212438765,5,2.5L5,81.33333333333331C5,81.33333333333331,5,81.33333333333331,5,81.33333333333331L0,81.33333333333331C0,81.33333333333331,0,81.33333333333331,0,81.33333333333331L0,2.5C0,1.120212438765,1.120212438765,0,2.5,0Z"/></clipPath><clipPath id="clip45"><path d="M2.5,0L2.5,0C3.879787561235,0,5,1.120212438765,5,2.5L5,200.53333333333336C5,200.53333333333336,5,200.53333333333336,5,200.53333333333336L0,200.53333333333336C0,200.53333333333336,0,200.53333333333336,0,200.53333333333336L0,2.5C0,1.120212438765,1.120212438765,0,2.5,0Z"/></clipPath><clipPath id="clip46"><path d="M2.5,0L2.5,0C3.879787561235,0,5,1.120212438765,5,2.5L5,219.73333333333332C5,219.73333333333332,5,219.73333333333332,5,219.73333333333332L0,219.73333333333332C0,219.73333333333332,0,219.73333333333332,0,219.73333333333332L0,2.5C0,1.120212438765,1.120212438765,0,2.5,0Z"/></clipPath></defs></svg>