<svg xmlns="http://www.w3.org/2000/svg" xmlns:xlink="http://www.w3.org/1999/xlink" version="1.1" class="marks" width="701" height="424" viewBox="0 0 701 424"><g fill="none" stroke-miterlimit="10" transform="translate(82,48)"><g class="mark-group role-frame root" role="graphics-object" aria-roledescription="group mark container"><g transform="translate(0,0)"><path class="background" aria-hidden="true" d="M0.5,0.5h600v320h-600Z"/><g><g class="mark-group role-axis" aria-hidden="true"><g transform="translate(0.5,320.5)"><path class="background" aria-hidden="true" d="M0,0h0v0h0Z" pointer-events="none"/><g><g class="mark-rule role-axis-grid" pointer-events="none"><line transform="translate(0,-320)" x2="0" y2="320" stroke="#eef0f4" stroke-width="0.8" stroke-dasharray="2,4" opacity="1"/><line transform="translate(30,-320)" x2="0" y2="320" stroke="#eef0f4" stroke-width="0.8" stroke-dasharray="2,4" opacity="1"/><line transform="translate(60,-320)" x2="0" y2="320" stroke="#eef0f4" stroke-width="0.8" stroke-dasharray="2,4" opacity="1"/><line transform="translate(90,-320)" x2="0" y2="320" stroke="#eef0f4" stroke-width="0.8" stroke-dasharray="2,4" opacity="1"/><line transform="translate(120,-320)" x2="0" y2="320" stroke="#eef0f4" stroke-width="0.8" stroke-dasharray="2,4" opacity="1"/><line transform="translate(150,-320)" x2="0" y2="320" stroke="#eef0f4" stroke-width="0.8" stroke-dasharray="2,4" opacity="1"/><line transform="translate(180,-320)" x2="0" y2="320" stroke="#eef0f4" stroke-width="0.8" stroke-dasharray="2,4" opacity="1"/><line transform="translate(210,-320)" x2="0" y2="320" stroke="#eef0f4" stroke-width="0.8" stroke-dasharray="2,4" opacity="1"/><line transform="translate(240,-320)" x2="0" y2="320" stroke="#eef0f4" stroke-width="0.8" stroke-dasharray="2,4" opacity="1"/><line transform="translate(270,-320)" x2="0" y2="320" stroke="#eef0f4" stroke-width="0.8" stroke-dasharray="2,4" opacity="1"/><line transform="translate(300,-320)" x2="0" y2="320" stroke="#eef0f4" stroke-width="0.8" stroke-dasharray="2,4" opacity="1"/><line transform="translate(330,-320)" x2="0" y2="320" stroke="#eef0f4" stroke-width="0.8" stroke-dasharray="2,4" opacity="1"/><line transform="translate(360,-320)" x2="0" y2="320" stroke="#eef0f4" stroke-width="0.8" stroke-dasharray="2,4" opacity="1"/><line transform="translate(390,-320)" x2="0" y2="320" stroke="#eef0f4" stroke-width="0.8" stroke-dasharray="2,4" opacity="1"/><line transform="translate(420,-320)" x2="0" y2="320" stroke="#eef0f4" stroke-width="0.8" stroke-dasharray="2,4" opacity="1"/><line transform="translate(450,-320)" x2="0" y2="320" stroke="#eef0f4" stroke-width="0.8" stroke-dasharray="2,4" opacity="1"/><line transform="translate(480,-320)" x2="0" y2="320" stroke="#eef0f4" stroke-width="0.8" stroke-dasharray="2,4" opacity="1"/><line transform="translate(510,-320)" x2="0" y2="320" stroke="#eef0f4" stroke-width="0.8" stroke-dasharray="2,4" opacity="1"/><line transform="translate(540,-320)" x2="0" y2="320" stroke="#eef0f4" stroke-width="0.8" stroke-dasharray="2,4" opacity="1"/><line transform="translate(570,-320)" x2="0" y2="320" stroke="#eef0f4" stroke-width="0.8" stroke-dasharray="2,4" opacity="1"/><line transform="translate(600,-320)" x2="0" y2="320" stroke="#eef0f4" stroke-width="0.8" stroke-dasharray="2,4" opacity="1"/></g></g><path class="foreground" aria-hidden="true" d="" pointer-events="none" display="none"/></g></g><g class="mark-group role-axis" aria-hidden="true"><g transform="translate(0.5,0.5)"><path class="background" aria-hidden="true" d="M0,0h0v0h0Z" pointer-events="none"/><g><g class="mark-rule role-axis-grid" pointer-events="none"><line transform="translate(0,320)" x2="600" y2="0" stroke="#eef0f4" stroke-width="0.8" stroke-dasharray="2,4" opacity="1"/><line transform="translate(0,288)" x2="600" y2="0" stroke="#eef0f4" stroke-width="0.8" stroke-dasharray="2,4" opacity="1"/><line transform="translate(0,256)" x2="600" y2="0" stroke="#eef0f4" stroke-width="0.8" stroke-dasharray="2,4" opacity="1"/><line transform="translate(0,224)" x2="600" y2="0" stroke="#eef0f4" stroke-width="0.8" stroke-dasharray="2,4" opacity="1"/><line transform="translate(0,192)" x2="600" y2="0" stroke="#eef0f4" stroke-width="0.8" stroke-dasharray="2,4" opacity="1"/><line transform="translate(0,160)" x2="600" y2="0" stroke="#eef0f4" stroke-width="0.8" stroke-dasharray="2,4" opacity="1"/><line transform="translate(0,128)" x2="600" y2="0" stroke="#eef0f4" stroke-width="0.8" stroke-dasharray="2,4" opacity="1"/><line transform="translate(0,96)" x2="600" y2="0" stroke="#eef0f4" stroke-width="0.8" stroke-dasharray="2,4" opacity="1"/><line transform="translate(0,64)" x2="600" y2="0" stroke="#eef0f4" stroke-width="0.8" stroke-dasharray="2,4" opacity="1"/><line transform="translate(0,32)" x2="600" y2="0" stroke="#eef0f4" stroke-width="0.8" stroke-dasharray="2,4" opacity="1"/><line transform="translate(0,0)" x2="600" y2="0" stroke="#eef0f4" stroke-width="0.8" stroke-dasharray="2,4" opacity="1"/></g></g><path class="foreground" aria-hidden="true" d="" pointer-events="none" display="none"/></g></g><g class="mark-group role-axis" role="graphics-symbol" aria-roledescription="axis" aria-label="X-axis titled 'p_groups' for a linear scale with values from 0.0 to 1.0"><g transform="translate(0.5,320.5)"><path class="background" aria-hidden="true" d="M0,0h0v0h0Z" pointer-events="none"/><g><g class="mark-rule role-axis-tick" pointer-events="none"><line transform="translate(0,0)" x2="0" y2="4" stroke="#e2e6ee" stroke-width="1" opacity="1"/><line transform="translate(30,0)" x2="0" y2="4" stroke="#e2e6ee" stroke-width="1" opacity="1"/><line transform="translate(60,0)" x2="0" y2="4" stroke="#e2e6ee" stroke-width="1" opacity="1"/><line transform="translate(90,0)" x2="0" y2="4" stroke="#e2e6ee" stroke-width="1" opacity="1"/><line transform="translate(120,0)" x2="0" y2="4" stroke="#e2e6ee" stroke-width="1" opacity="1"/><line transform="translate(150,0)" x2="0" y2="4" stroke="#e2e6ee" stroke-width="1" opacity="1"/><line transform="translate(180,0)" x2="0" y2="4" stroke="#e2e6ee" stroke-width="1" opacity="1"/><line transform="translate(210,0)" x2="0" y2="4" stroke="#e2e6ee" stroke-width="1" opacity="1"/><line transform="translate(240,0)" x2="0" y2="4" stroke="#e2e6ee" stroke-width="1" opacity="1"/><line transform="translate(270,0)" x2="0" y2="4" stroke="#e2e6ee" stroke-width="1" opacity="1"/><line transform="translate(300,0)" x2="0" y2="4" stroke="#e2e6ee" stroke-width="1" opacity="1"/><line transform="translate(330,0)" x2="0" y2="4" stroke="#e2e6ee" stroke-width="1" opacity="1"/><line transform="translate(360,0)" x2="0" y2="4" stroke="#e2e6ee" stroke-width="1" opacity="1"/><line transform="translate(390,0)" x2="0" y2="4" stroke="#e2e6ee" stroke-width="1" opacity="1"/><line transform="translate(420,0)" x2="0" y2="4" stroke="#e2e6ee" stroke-width="1" opacity="1"/><line transform="translate(450,0)" x2="0" y2="4" stroke="#e2e6ee" stroke-width="1" opacity="1"/><line transform="translate(480,0)" x2="0" y2="4" stroke="#e2e6ee" stroke-width="1" opacity="1"/><line transform="translate(510,0)" x2="0" y2="4" stroke="#e2e6ee" stroke-width="1" opacity="1"/><line transform="translate(540,0)" x2="0" y2="4" stroke="#e2e6ee" stroke-width="1" opacity="1"/><line transform="translate(570,0)" x2="0" y2="4" stroke="#e2e6ee" stroke-width="1" opacity="1"/><line transform="translate(600,0)" x2="0" y2="4" stroke="#e2e6ee" stroke-width="1" opacity="1"/></g><g class="mark-text role-axis-label" pointer-events="none"><text text-anchor="start" transform="translate(0,19)" font-family="'SF Mono', Menlo, Consolas, 'Liberation Mono', monospace" font-size="11px" fill="#64748b" opacity="1">0</text><text text-anchor="middle" transform="translate(30,19)" font-family="'SF Mono', Menlo, Consolas, 'Liberation Mono', monospace" font-size="11px" fill="#64748b" opacity="0">50m</text><text text-anchor="middle" transform="translate(60,19)" font-family="'SF Mono', Menlo, Consolas, 'Liberation Mono', monospace" font-size="11px" fill="#64748b" opacity="1">100m</text><text text-anchor="middle" transform="translate(90,19)" font-family="'SF Mono', Menlo, Consolas, 'Liberation Mono', monospace" font-size="11px" fill="#64748b" opacity="0">150m</text><text text-anchor="middle" transform="translate(120,19)" font-family="'SF Mono', Menlo, Consolas, 'Liberation Mono', monospace" font-size="11px" fill="#64748b" opacity="1">200m</text><text text-anchor="middle" transform="translate(150,19)" font-family="'SF Mono', Menlo, Consolas, 'Liberation Mono', monospace" font-size="11px" fill="#64748b" opacity="0">250m</text><text text-anchor="middle" transform="translate(180,19)" font-family="'SF Mono', Menlo, Consolas, 'Liberation Mono', monospace" font-size="11px" fill="#64748b" opacity="1">300m</text><text text-anchor="middle" transform="translate(210,19)" font-family="'SF Mono', Menlo, Consolas, 'Liberation Mono', monospace" font-size="11px" fill="#64748b" opacity="0">350m</text><text text-anchor="middle" transform="translate(240,19)" font-family="'SF Mono', Menlo, Consolas, 'Liberation Mono', monospace" font-size="11px" fill="#64748b" opacity="1">400m</text><text text-anchor="middle" transform="translate(270,19)" font-family="'SF Mono', Menlo, Consolas, 'Liberation Mono', monospace" font-size="11px" fill="#64748b" opacity="0">450m</text><text text-anchor="middle" transform="translate(300,19)" font-family="'SF Mono', Menlo, Consolas, 'Liberation Mono', monospace" font-size="11px" fill="#64748b" opacity="1">500m</text><text text-anchor="middle" transform="translate(330,19)" font-family="'SF Mono', Menlo, Consolas, 'Liberation Mono', monospace" font-size="11px" fill="#64748b" opacity="0">550m</text><text text-anchor="middle" transform="translate(360,19)" font-family="'SF Mono', Menlo, Consolas, 'Liberation Mono', monospace" font-size="11px" fill="#64748b" opacity="1">600m</text><text text-anchor="middle" transform="translate(390,19)" font-family="'SF Mono', Menlo, Consolas, 'Liberation Mono', monospace" font-size="11px" fill="#64748b" opacity="0">650m</text><text text-anchor="middle" transform="translate(420,19)" font-family="'SF Mono', Menlo, Consolas, 'Liberation Mono', monospace" font-size="11px" fill="#64748b" opacity="1">700m</text><text text-anchor="middle" transform="translate(450,19)" font-family="'SF Mono', Menlo, Consolas, 'Liberation Mono', monospace" font-size="11px" fill="#64748b" opacity="0">750m</text><text text-anchor="middle" transform="translate(480,19)" font-family="'SF Mono', Menlo, Consolas, 'Liberation Mono', monospace" font-size="11px" fill="#64748b" opacity="1">800m</text><text text-anchor="middle" transform="translate(510,19)" font-family="'SF Mono', Menlo, Consolas, 'Liberation Mono', monospace" font-size="11px" fill="#64748b" opacity="0">850m</text><text text-anchor="middle" transform="translate(540,19)" font-family="'SF Mono', Menlo, Consolas, 'Liberation Mono', monospace" font-size="11px" fill="#64748b" opacity="1">900m</text><text text-anchor="middle" transform="translate(570,19)" font-family="'SF Mono', Menlo, Consolas, 'Liberation Mono', monospace" font-size="11px" fill="#64748b" opacity="0">950m</text><text text-anchor="end" transform="translate(600,19)" font-family="'SF Mono', Menlo, Consolas, 'Liberation Mono', monospace" font-size="11px" fill="#64748b" opacity="1">1</text></g><g class="mark-text role-axis-title" pointer-events="none"><text text-anchor="middle" transform="translate(300,42)" font-family="-apple-system, BlinkMacSystemFont, 'Segoe UI', system-ui, 'Helvetica Neue', 'Hiragino Sans', 'Hiragino Kaku Gothic ProN', 'Noto Sans CJK JP', sans-serif" font-size="12px" font-weight="600" fill="#0f172a" opacity="1">p_groups</text></g></g><path class="foreground" aria-hidden="true" d="" pointer-events="none" display="none"/></g></g><g class="mark-group role-axis" role="graphics-symbol" aria-roledescription="axis" aria-label="Y-axis titled 'p_value' for a linear scale with values from 0.0 to 1.0"><g transform="translate(0.5,0.5)"><path class="background" aria-hidden="true" d="M0,0h0v0h0Z" pointer-events="none"/><g><g class="mark-rule role-axis-tick" pointer-events="none"><line transform="translate(0,320)" x2="-4" y2="0" stroke="#e2e6ee" stroke-width="1" opacity="1"/><line transform="translate(0,288)" x2="-4" y2="0" stroke="#e2e6ee" stroke-width="1" opacity="1"/><line transform="translate(0,256)" x2="-4" y2="0" stroke="#e2e6ee" stroke-width="1" opacity="1"/><line transform="translate(0,224)" x2="-4" y2="0" stroke="#e2e6ee" stroke-width="1" opacity="1"/><line transform="translate(0,192)" x2="-4" y2="0" stroke="#e2e6ee" stroke-width="1" opacity="1"/><line transform="translate(0,160)" x2="-4" y2="0" stroke="#e2e6ee" stroke-width="1" opacity="1"/><line transform="translate(0,128)" x2="-4" y2="0" stroke="#e2e6ee" stroke-width="1" opacity="1"/><line transform="translate(0,96)" x2="-4" y2="0" stroke="#e2e6ee" stroke-width="1" opacity="1"/><line transform="translate(0,64)" x2="-4" y2="0" stroke="#e2e6ee" stroke-width="1" opacity="1"/><line transform="translate(0,32)" x2="-4" y2="0" stroke="#e2e6ee" stroke-width="1" opacity="1"/><line transform="translate(0,0)" x2="-4" y2="0" stroke="#e2e6ee" stroke-width="1" opacity="1"/></g><g class="mark-text role-axis-label" pointer-events="none"><text text-anchor="end" transform="translate(-10,323)" font-family="'SF Mono', Menlo, Consolas, 'Liberation Mono', monospace" font-size="11px" fill="#64748b" opacity="1">0</text><text text-anchor="end" transform="translate(-10,291)" font-family="'SF Mono', Menlo, Consolas, 'Liberation Mono', monospace" font-size="11px" fill="#64748b" opacity="1">100m</text><text text-anchor="end" transform="translate(-10,259)" font-family="'SF Mono', Menlo, Consolas, 'Liberation Mono', monospace" font-size="11px" fill="#64748b" opacity="1">200m</text><text text-anchor="end" transform="translate(-10,227)" font-family="'SF Mono', Menlo, Consolas, 'Liberation Mono', monospace" font-size="11px" fill="#64748b" opacity="1">300m</text><text text-anchor="end" transform="translate(-10,195)" font-family="'SF Mono', Menlo, Consolas, 'Liberation Mono', monospace" font-size="11px" fill="#64748b" opacity="1">400m</text><text text-anchor="end" transform="translate(-10,163)" font-family="'SF Mono', Menlo, Consolas, 'Liberation Mono', monospace" font-size="11px" fill="#64748b" opacity="1">500m</text><text text-anchor="end" transform="translate(-10,131)" font-family="'SF Mono', Menlo, Consolas, 'Liberation Mono', monospace" font-size="11px" fill="#64748b" opacity="1">600m</text><text text-anchor="end" transform="translate(-10,99.00000000000001)" font-family="'SF Mono', Menlo, Consolas, 'Liberation Mono', monospace" font-size="11px" fill="#64748b" opacity="1">700m</text><text text-anchor="end" transform="translate(-10,66.99999999999999)" font-family="'SF Mono', Menlo, Consolas, 'Liberation Mono', monospace" font-size="11px" fill="#64748b" opacity="1">800m</text><text text-anchor="end" transform="translate(-10,34.99999999999999)" font-family="'SF Mono', Menlo, Consolas, 'Liberation Mono', monospace" font-size="11px" fill="#64748b" opacity="1">900m</text><text text-anchor="end" transform="translate(-10,3)" font-family="'SF Mono', Menlo, Consolas, 'Liberation Mono', monospace" font-size="11px" fill="#64748b" opacity="1">1</text></g><g class="mark-text role-axis-title" pointer-events="none"><text text-anchor="middle" transform="translate(-57,160) rotate(-90) translate(0,-3)" font-family="-apple-system, BlinkMacSystemFont, 'Segoe UI', system-ui, 'Helvetica Neue', 'Hiragino Sans', 'Hiragino Kaku Gothic ProN', 'Noto Sans CJK JP', sans-serif" font-size="12px" font-weight="600" fill="#0f172a" opacity="1">p_value</text></g></g><path class="foreground" aria-hidden="true" d="" pointer-events="none" display="none"/></g></g><g class="mark-line role-mark layer_0_marks" role="graphics-object" aria-roledescription="line mark container"><path aria-label="p_groups: 0; p_value: 0" role="graphics-symbol" aria-roledescription="line mark" d="M0,320L0.54,319.968L12.54,319.424L24.48,318.912L36.48,318.368L48.42,317.824L60.42,317.312L72.36,316.768L84.36,316.224L96.3,315.68L108.24,315.168L120.24,314.624L132.18,314.08L144.18,313.568L156.12,313.024L168.12,312.48L180.06,311.936L192,310.848L204,309.792L215.94,308.704L227.94,307.648L239.88,306.56L251.88,305.504L263.82,304.416L275.76,303.36L287.76,302.304L299.7,301.216L311.7,300.064L323.64,298.432L335.64,296.832L347.58,295.232L359.52,293.632L371.52,291.904L383.46,289.76L395.46,287.616L407.4,285.472L419.4,283.072L431.34,280.416L443.28,277.408L455.28,274.176L467.22,270.656L479.22,266.72L491.16,262.272L503.16,257.248L515.1,251.68L527.04,245.184L539.04,237.728L550.98,228.256L562.98,215.904L574.92,199.648L586.92,173.568L598.86,82.752L600,0" stroke="#2563eb" stroke-width="2.5"/></g><g class="mark-symbol role-mark layer_1_marks" role="graphics-object" aria-roledescription="symbol mark container"><path aria-label="p_groups: 0; p_value: 0" role="graphics-symbol" aria-roledescription="point" transform="translate(0,320)" d="M2.828,0A2.828,2.828,0,1,1,-2.828,0A2.828,2.828,0,1,1,2.828,0" fill="#2563eb" stroke-width="2" opacity="1"/><path aria-label="p_groups: 0.0009; p_value: 0.0001" role="graphics-symbol" aria-roledescription="point" transform="translate(0.54,319.968)" d="M2.828,0A2.828,2.828,0,1,1,-2.828,0A2.828,2.828,0,1,1,2.828,0" fill="#2563eb" stroke-width="2" opacity="1"/><path aria-label="p_groups: 0.0209; p_value: 0.0018" role="graphics-symbol" aria-roledescription="point" transform="translate(12.54,319.424)" d="M2.828,0A2.828,2.828,0,1,1,-2.828,0A2.828,2.828,0,1,1,2.828,0" fill="#2563eb" stroke-width="2" opacity="1"/><path aria-label="p_groups: 0.0408; p_value: 0.0034" role="graphics-symbol" aria-roledescription="point" transform="translate(24.48,318.91200000000003)" d="M2.828,0A2.828,2.828,0,1,1,-2.828,0A2.828,2.828,0,1,1,2.828,0" fill="#2563eb" stroke-width="2" opacity="1"/><path aria-label="p_groups: 0.0608; p_value: 0.0051" role="graphics-symbol" aria-roledescription="point" transform="translate(36.48,318.368)" d="M2.828,0A2.828,2.828,0,1,1,-2.828,0A2.828,2.828,0,1,1,2.828,0" fill="#2563eb" stroke-width="2" opacity="1"/><path aria-label="p_groups: 0.0807; p_value: 0.0068" role="graphics-symbol" aria-roledescription="point" transform="translate(48.419999999999995,317.824)" d="M2.828,0A2.828,2.828,0,1,1,-2.828,0A2.828,2.828,0,1,1,2.828,0" fill="#2563eb" stroke-width="2" opacity="1"/><path aria-label="p_groups: 0.1007; p_value: 0.0084" role="graphics-symbol" aria-roledescription="point" transform="translate(60.42,317.312)" d="M2.828,0A2.828,2.828,0,1,1,-2.828,0A2.828,2.828,0,1,1,2.828,0" fill="#2563eb" stroke-width="2" opacity="1"/><path aria-label="p_groups: 0.1206; p_value: 0.0101" role="graphics-symbol" aria-roledescription="point" transform="translate(72.36,316.76800000000003)" d="M2.828,0A2.828,2.828,0,1,1,-2.828,0A2.828,2.828,0,1,1,2.828,0" fill="#2563eb" stroke-width="2" opacity="1"/><path aria-label="p_groups: 0.1406; p_value: 0.0118" role="graphics-symbol" aria-roledescription="point" transform="translate(84.36,316.224)" d="M2.828,0A2.828,2.828,0,1,1,-2.828,0A2.828,2.828,0,1,1,2.828,0" fill="#2563eb" stroke-width="2" opacity="1"/><path aria-label="p_groups: 0.1605; p_value: 0.0135" role="graphics-symbol" aria-roledescription="point" transform="translate(96.3,315.68)" d="M2.828,0A2.828,2.828,0,1,1,-2.828,0A2.828,2.828,0,1,1,2.828,0" fill="#2563eb" stroke-width="2" opacity="1"/><path aria-label="p_groups: 0.1804; p_value: 0.0151" role="graphics-symbol" aria-roledescription="point" transform="translate(108.24000000000001,315.168)" d="M2.828,0A2.828,2.828,0,1,1,-2.828,0A2.828,2.828,0,1,1,2.828,0" fill="#2563eb" stroke-width="2" opacity="1"/><path aria-label="p_groups: 0.2004; p_value: 0.0168" role="graphics-symbol" aria-roledescription="point" transform="translate(120.24,314.62399999999997)" d="M2.828,0A2.828,2.828,0,1,1,-2.828,0A2.828,2.828,0,1,1,2.828,0" fill="#2563eb" stroke-width="2" opacity="1"/><path aria-label="p_groups: 0.2203; p_value: 0.0185" role="graphics-symbol" aria-roledescription="point" transform="translate(132.18,314.08000000000004)" d="M2.828,0A2.828,2.828,0,1,1,-2.828,0A2.828,2.828,0,1,1,2.828,0" fill="#2563eb" stroke-width="2" opacity="1"/><path aria-label="p_groups: 0.2403; p_value: 0.0201" role="graphics-symbol" aria-roledescription="point" transform="translate(144.18,313.568)" d="M2.828,0A2.828,2.828,0,1,1,-2.828,0A2.828,2.828,0,1,1,2.828,0" fill="#2563eb" stroke-width="2" opacity="1"/><path aria-label="p_groups: 0.2602; p_value: 0.0218" role="graphics-symbol" aria-roledescription="point" transform="translate(156.12,313.024)" d="M2.828,0A2.828,2.828,0,1,1,-2.828,0A2.828,2.828,0,1,1,2.828,0" fill="#2563eb" stroke-width="2" opacity="1"/><path aria-label="p_groups: 0.2802; p_value: 0.0235" role="graphics-symbol" aria-roledescription="point" transform="translate(168.12,312.48)" d="M2.828,0A2.828,2.828,0,1,1,-2.828,0A2.828,2.828,0,1,1,2.828,0" fill="#2563eb" stroke-width="2" opacity="1"/><path aria-label="p_groups: 0.3001; p_value: 0.0252" role="graphics-symbol" aria-roledescription="point" transform="translate(180.05999999999997,311.936)" d="M2.828,0A2.828,2.828,0,1,1,-2.828,0A2.828,2.828,0,1,1,2.828,0" fill="#2563eb" stroke-width="2" opacity="1"/><path aria-label="p_groups: 0.32; p_value: 0.0286" role="graphics-symbol" aria-roledescription="point" transform="translate(192,310.848)" d="M2.828,0A2.828,2.828,0,1,1,-2.828,0A2.828,2.828,0,1,1,2.828,0" fill="#2563eb" stroke-width="2" opacity="1"/><path aria-label="p_groups: 0.34; p_value: 0.0319" role="graphics-symbol" aria-roledescription="point" transform="translate(204.00000000000003,309.792)" d="M2.828,0A2.828,2.828,0,1,1,-2.828,0A2.828,2.828,0,1,1,2.828,0" fill="#2563eb" stroke-width="2" opacity="1"/><path aria-label="p_groups: 0.3599; p_value: 0.0353" role="graphics-symbol" aria-roledescription="point" transform="translate(215.94,308.704)" d="M2.828,0A2.828,2.828,0,1,1,-2.828,0A2.828,2.828,0,1,1,2.828,0" fill="#2563eb" stroke-width="2" opacity="1"/><path aria-label="p_groups: 0.3799; p_value: 0.0386" role="graphics-symbol" aria-roledescription="point" transform="translate(227.94,307.648)" d="M2.828,0A2.828,2.828,0,1,1,-2.828,0A2.828,2.828,0,1,1,2.828,0" fill="#2563eb" stroke-width="2" opacity="1"/><path aria-label="p_groups: 0.3998; p_value: 0.042" role="graphics-symbol" aria-roledescription="point" transform="translate(239.88,306.56)" d="M2.828,0A2.828,2.828,0,1,1,-2.828,0A2.828,2.828,0,1,1,2.828,0" fill="#2563eb" stroke-width="2" opacity="1"/><path aria-label="p_groups: 0.4198; p_value: 0.0453" role="graphics-symbol" aria-roledescription="point" transform="translate(251.88,305.504)" d="M2.828,0A2.828,2.828,0,1,1,-2.828,0A2.828,2.828,0,1,1,2.828,0" fill="#2563eb" stroke-width="2" opacity="1"/><path aria-label="p_groups: 0.4397; p_value: 0.0487" role="graphics-symbol" aria-roledescription="point" transform="translate(263.82,304.416)" d="M2.828,0A2.828,2.828,0,1,1,-2.828,0A2.828,2.828,0,1,1,2.828,0" fill="#2563eb" stroke-width="2" opacity="1"/><path aria-label="p_groups: 0.4596; p_value: 0.052" role="graphics-symbol" aria-roledescription="point" transform="translate(275.76,303.36)" d="M2.828,0A2.828,2.828,0,1,1,-2.828,0A2.828,2.828,0,1,1,2.828,0" fill="#2563eb" stroke-width="2" opacity="1"/><path aria-label="p_groups: 0.4796; p_value: 0.0553" role="graphics-symbol" aria-roledescription="point" transform="translate(287.76,302.304)" d="M2.828,0A2.828,2.828,0,1,1,-2.828,0A2.828,2.828,0,1,1,2.828,0" fill="#2563eb" stroke-width="2" opacity="1"/><path aria-label="p_groups: 0.4995; p_value: 0.0587" role="graphics-symbol" aria-roledescription="point" transform="translate(299.7,301.216)" d="M2.828,0A2.828,2.828,0,1,1,-2.828,0A2.828,2.828,0,1,1,2.828,0" fill="#2563eb" stroke-width="2" opacity="1"/><path aria-label="p_groups: 0.5195; p_value: 0.0623" role="graphics-symbol" aria-roledescription="point" transform="translate(311.7,300.06399999999996)" d="M2.828,0A2.828,2.828,0,1,1,-2.828,0A2.828,2.828,0,1,1,2.828,0" fill="#2563eb" stroke-width="2" opacity="1"/><path aria-label="p_groups: 0.5394; p_value: 0.0674" role="graphics-symbol" aria-roledescription="point" transform="translate(323.64,298.432)" d="M2.828,0A2.828,2.828,0,1,1,-2.828,0A2.828,2.828,0,1,1,2.828,0" fill="#2563eb" stroke-width="2" opacity="1"/><path aria-label="p_groups: 0.5594; p_value: 0.0724" role="graphics-symbol" aria-roledescription="point" transform="translate(335.64,296.832)" d="M2.828,0A2.828,2.828,0,1,1,-2.828,0A2.828,2.828,0,1,1,2.828,0" fill="#2563eb" stroke-width="2" opacity="1"/><path aria-label="p_groups: 0.5793; p_value: 0.0774" role="graphics-symbol" aria-roledescription="point" transform="translate(347.58000000000004,295.23199999999997)" d="M2.828,0A2.828,2.828,0,1,1,-2.828,0A2.828,2.828,0,1,1,2.828,0" fill="#2563eb" stroke-width="2" opacity="1"/><path aria-label="p_groups: 0.5992; p_value: 0.0824" role="graphics-symbol" aria-roledescription="point" transform="translate(359.52,293.632)" d="M2.828,0A2.828,2.828,0,1,1,-2.828,0A2.828,2.828,0,1,1,2.828,0" fill="#2563eb" stroke-width="2" opacity="1"/><path aria-label="p_groups: 0.6192; p_value: 0.0878" role="graphics-symbol" aria-roledescription="point" transform="translate(371.52,291.904)" d="M2.828,0A2.828,2.828,0,1,1,-2.828,0A2.828,2.828,0,1,1,2.828,0" fill="#2563eb" stroke-width="2" opacity="1"/><path aria-label="p_groups: 0.6391; p_value: 0.0945" role="graphics-symbol" aria-roledescription="point" transform="translate(383.46,289.76)" d="M2.828,0A2.828,2.828,0,1,1,-2.828,0A2.828,2.828,0,1,1,2.828,0" fill="#2563eb" stroke-width="2" opacity="1"/><path aria-label="p_groups: 0.6591; p_value: 0.1012" role="graphics-symbol" aria-roledescription="point" transform="translate(395.46000000000004,287.616)" d="M2.828,0A2.828,2.828,0,1,1,-2.828,0A2.828,2.828,0,1,1,2.828,0" fill="#2563eb" stroke-width="2" opacity="1"/><path aria-label="p_groups: 0.679; p_value: 0.1079" role="graphics-symbol" aria-roledescription="point" transform="translate(407.40000000000003,285.472)" d="M2.828,0A2.828,2.828,0,1,1,-2.828,0A2.828,2.828,0,1,1,2.828,0" fill="#2563eb" stroke-width="2" opacity="1"/><path aria-label="p_groups: 0.699; p_value: 0.1154" role="graphics-symbol" aria-roledescription="point" transform="translate(419.4,283.072)" d="M2.828,0A2.828,2.828,0,1,1,-2.828,0A2.828,2.828,0,1,1,2.828,0" fill="#2563eb" stroke-width="2" opacity="1"/><path aria-label="p_groups: 0.7189; p_value: 0.1237" role="graphics-symbol" aria-roledescription="point" transform="translate(431.34,280.416)" d="M2.828,0A2.828,2.828,0,1,1,-2.828,0A2.828,2.828,0,1,1,2.828,0" fill="#2563eb" stroke-width="2" opacity="1"/><path aria-label="p_groups: 0.7388; p_value: 0.1331" role="graphics-symbol" aria-roledescription="point" transform="translate(443.28000000000003,277.408)" d="M2.828,0A2.828,2.828,0,1,1,-2.828,0A2.828,2.828,0,1,1,2.828,0" fill="#2563eb" stroke-width="2" opacity="1"/><path aria-label="p_groups: 0.7588; p_value: 0.1432" role="graphics-symbol" aria-roledescription="point" transform="translate(455.28000000000003,274.176)" d="M2.828,0A2.828,2.828,0,1,1,-2.828,0A2.828,2.828,0,1,1,2.828,0" fill="#2563eb" stroke-width="2" opacity="1"/><path aria-label="p_groups: 0.7787; p_value: 0.1542" role="graphics-symbol" aria-roledescription="point" transform="translate(467.21999999999997,270.656)" d="M2.828,0A2.828,2.828,0,1,1,-2.828,0A2.828,2.828,0,1,1,2.828,0" fill="#2563eb" stroke-width="2" opacity="1"/><path aria-label="p_groups: 0.7987; p_value: 0.1665" role="graphics-symbol" aria-roledescription="point" transform="translate(479.21999999999997,266.72)" d="M2.828,0A2.828,2.828,0,1,1,-2.828,0A2.828,2.828,0,1,1,2.828,0" fill="#2563eb" stroke-width="2" opacity="1"/><path aria-label="p_groups: 0.8186; p_value: 0.1804" role="graphics-symbol" aria-roledescription="point" transform="translate(491.15999999999997,262.272)" d="M2.828,0A2.828,2.828,0,1,1,-2.828,0A2.828,2.828,0,1,1,2.828,0" fill="#2563eb" stroke-width="2" opacity="1"/><path aria-label="p_groups: 0.8386; p_value: 0.1961" role="graphics-symbol" aria-roledescription="point" transform="translate(503.16,257.24800000000005)" d="M2.828,0A2.828,2.828,0,1,1,-2.828,0A2.828,2.828,0,1,1,2.828,0" fill="#2563eb" stroke-width="2" opacity="1"/><path aria-label="p_groups: 0.8585; p_value: 0.2135" role="graphics-symbol" aria-roledescription="point" transform="translate(515.1,251.68)" d="M2.828,0A2.828,2.828,0,1,1,-2.828,0A2.828,2.828,0,1,1,2.828,0" fill="#2563eb" stroke-width="2" opacity="1"/><path aria-label="p_groups: 0.8784; p_value: 0.2338" role="graphics-symbol" aria-roledescription="point" transform="translate(527.04,245.184)" d="M2.828,0A2.828,2.828,0,1,1,-2.828,0A2.828,2.828,0,1,1,2.828,0" fill="#2563eb" stroke-width="2" opacity="1"/><path aria-label="p_groups: 0.8984; p_value: 0.2571" role="graphics-symbol" aria-roledescription="point" transform="translate(539.04,237.728)" d="M2.828,0A2.828,2.828,0,1,1,-2.828,0A2.828,2.828,0,1,1,2.828,0" fill="#2563eb" stroke-width="2" opacity="1"/><path aria-label="p_groups: 0.9183; p_value: 0.2867" role="graphics-symbol" aria-roledescription="point" transform="translate(550.98,228.25600000000003)" d="M2.828,0A2.828,2.828,0,1,1,-2.828,0A2.828,2.828,0,1,1,2.828,0" fill="#2563eb" stroke-width="2" opacity="1"/><path aria-label="p_groups: 0.9383; p_value: 0.3253" role="graphics-symbol" aria-roledescription="point" transform="translate(562.98,215.90400000000002)" d="M2.828,0A2.828,2.828,0,1,1,-2.828,0A2.828,2.828,0,1,1,2.828,0" fill="#2563eb" stroke-width="2" opacity="1"/><path aria-label="p_groups: 0.9582; p_value: 0.3761" role="graphics-symbol" aria-roledescription="point" transform="translate(574.9200000000001,199.648)" d="M2.828,0A2.828,2.828,0,1,1,-2.828,0A2.828,2.828,0,1,1,2.828,0" fill="#2563eb" stroke-width="2" opacity="1"/><path aria-label="p_groups: 0.9782; p_value: 0.4576" role="graphics-symbol" aria-roledescription="point" transform="translate(586.92,173.56799999999998)" d="M2.828,0A2.828,2.828,0,1,1,-2.828,0A2.828,2.828,0,1,1,2.828,0" fill="#2563eb" stroke-width="2" opacity="1"/><path aria-label="p_groups: 0.9981; p_value: 0.7414" role="graphics-symbol" aria-roledescription="point" transform="translate(598.86,82.75200000000001)" d="M2.828,0A2.828,2.828,0,1,1,-2.828,0A2.828,2.828,0,1,1,2.828,0" fill="#2563eb" stroke-width="2" opacity="1"/><path aria-label="p_groups: 1; p_value: 1" role="graphics-symbol" aria-roledescription="point" transform="translate(600,0)" d="M2.828,0A2.828,2.828,0,1,1,-2.828,0A2.828,2.828,0,1,1,2.828,0" fill="#2563eb" stroke-width="2" opacity="1"/></g><g class="mark-group role-title"><g transform="translate(-70,-36)"><path class="background" aria-hidden="true" d="M0,0h0v0h0Z" pointer-events="none"/><g><g class="mark-text role-title-text" role="graphics-symbol" aria-roledescription="title" aria-label="Title text 'Lorenz curve — all 1053 emitters / 全コントラクトのローレンツ曲線'" pointer-events="none"><text text-anchor="start" transform="translate(0,11)" font-family="-apple-system, BlinkMacSystemFont, 'Segoe UI', system-ui, 'Helvetica Neue', 'Hiragino Sans', 'Hiragino Kaku Gothic ProN', 'Noto Sans CJK JP', sans-serif" font-size="14px" font-weight="600" fill="#0f172a" opacity="1">Lorenz curve — all 1053 emitters / 全コントラクトのローレンツ曲線</text></g></g><path class="foreground" aria-hidden="true" d="" pointer-events="none" display="none"/></g></g></g><path class="foreground" aria-hidden="true" d="" display="none"/></g></g></g></svg>